<?xml version="1.0" encoding="iso-8859-1"?>
<!-- Generator: Adobe Illustrator 19.0.0, SVG Export Plug-In . SVG Version: 6.00 Build 0)  -->
<svg version="1.1" id="Layer_1" xmlns="http://www.w3.org/2000/svg" xmlns:xlink="http://www.w3.org/1999/xlink" x="0px" y="0px"
	 viewBox="0 0 512.001 512.001" style="enable-background:new 0 0 512.001 512.001;" xml:space="preserve">
<g>
	<g>
		<g>
			<circle cx="369.404" cy="64.669" r="15.959"/>
			<circle cx="142.602" cy="64.669" r="15.959"/>
			<path d="M303.934,301.134H208.07c-2.493,0-4.846,1.144-6.387,3.102c-1.542,1.96-2.097,4.517-1.509,6.939
				c6.881,28.336,29.837,48.126,55.826,48.126c25.987,0,48.945-19.79,55.828-48.126c0.588-2.422,0.033-4.98-1.508-6.939
				S306.427,301.134,303.934,301.134z M256.001,343.054c-15.357,0-29.329-10.157-36.536-25.67h73.072
				C285.33,332.896,271.357,343.054,256.001,343.054z"/>
			<path d="M450.015,271.135c-6.936-4.316-15.138-5.672-23.094-3.817c-7.955,1.853-14.712,6.696-19.025,13.632
				c-4.315,6.936-5.67,15.138-3.815,23.092c1.853,7.955,6.695,14.713,13.63,19.025c20.45,12.722,32.658,34.668,32.658,58.705
				c0,38.083-30.982,69.067-69.064,69.067h-8.779v-179.41c0-46.827-27.772-87.285-67.705-105.787l32.98-44.588
				c9.353,5.264,20.13,8.28,31.605,8.28c35.658,0,64.667-29.01,64.667-64.667C434.073,29.009,405.061,0,369.403,0
				c-35.658,0-64.666,29.01-64.666,64.667c0,18.348,7.694,34.924,20.011,46.706l-35.73,48.307
				c-10.473-3.099-21.553-4.772-33.017-4.772c-11.471,0-22.557,1.675-33.035,4.777c-0.079-0.12-0.153-0.243-0.239-0.361
				l-35.471-47.952c12.317-11.782,20.012-28.358,20.012-46.707C207.266,29.01,178.257,0,142.599,0S77.932,29.01,77.932,64.667
				s29.009,64.667,64.666,64.667c11.475,0,22.252-3.018,31.605-8.28l32.982,44.586c-39.934,18.501-67.706,58.959-67.706,105.788
				v179.41h-8.778c-38.083,0-69.068-30.983-69.068-69.067c0-24.038,12.209-45.983,32.658-58.704
				c6.936-4.314,11.778-11.071,13.632-19.026s0.497-16.157-3.816-23.092c-4.315-6.937-11.072-11.778-19.026-13.632
				c-7.958-1.855-16.158-0.497-23.094,3.816C23.469,295.094,0.474,336.454,0.474,381.771C0.474,453.58,58.895,512,130.704,512
				h195.705c4.488,0,8.124-3.638,8.124-8.124c0-4.487-3.637-8.124-8.124-8.124H130.704c-62.85,0-113.981-51.131-113.981-113.98
				c0-39.665,20.13-75.866,53.849-96.84c3.252-2.022,7.098-2.658,10.823-1.788c3.728,0.869,6.894,3.137,8.916,6.389
				c2.022,3.251,2.658,7.094,1.79,10.822s-3.137,6.894-6.389,8.915c-25.251,15.707-40.326,42.812-40.326,72.503
				c0,47.043,38.273,85.315,85.317,85.315h16.902c4.488,0,8.124-3.638,8.124-8.124V271.428c0-55.29,44.981-100.271,100.271-100.271
				c55.292,0,100.274,44.981,100.274,100.271v187.534c0,4.487,3.636,8.124,8.124,8.124h16.903c47.042,0,85.313-38.273,85.313-85.315
				c0-29.691-15.075-56.794-40.326-72.503c-3.251-2.021-5.519-5.188-6.387-8.915c-0.868-3.728-0.234-7.572,1.788-10.823
				c2.021-3.251,5.188-5.52,8.915-6.388c3.731-0.87,7.573-0.233,10.824,1.79c33.718,20.973,53.848,57.176,53.848,96.84
				c0,62.849-51.13,113.98-113.977,113.98h-26.107c-4.488,0-8.124,3.638-8.124,8.124c0,4.487,3.636,8.125,8.124,8.125h26.107
				c71.807,0,130.226-58.42,130.226-130.229C511.529,336.453,488.534,295.094,450.015,271.135z M320.986,64.667
				c0-26.698,21.72-48.419,48.417-48.419c26.698,0,48.419,21.72,48.419,48.419s-21.72,48.419-48.419,48.419
				C342.706,113.087,320.986,91.365,320.986,64.667z M142.599,113.086c-26.697,0.001-48.417-21.72-48.417-48.419
				s21.72-48.419,48.417-48.419c26.698,0,48.418,21.72,48.418,48.419S169.297,113.086,142.599,113.086z"/>
		</g>
	</g>
</g>
<g>
</g>
<g>
</g>
<g>
</g>
<g>
</g>
<g>
</g>
<g>
</g>
<g>
</g>
<g>
</g>
<g>
</g>
<g>
</g>
<g>
</g>
<g>
</g>
<g>
</g>
<g>
</g>
<g>
</g>
</svg>
