<svg id="Capa_1" enable-background="new 0 0 512.354 512.354" height="512" viewBox="0 0 512.354 512.354" width="512" xmlns="http://www.w3.org/2000/svg"><g><path d="m467.54 493.041c-6.729 2.744-14.369 4.136-22.706 4.136-28.729 0-67.982-16.178-116.675-48.088-91.327-59.247-202.543-170.318-262.349-260.918-6.73-10.075-12.925-19.999-18.414-29.499-1.024-1.771-2.025-3.53-3.003-5.275-2.024-3.613-6.596-4.899-10.209-2.877-3.613 2.024-4.901 6.595-2.877 10.209 1.011 1.804 2.045 3.621 3.103 5.45 5.102 8.831 10.796 18.01 16.937 27.32-6.192 20.237-9.333 41.304-9.333 62.678 0 2.619.064 5.235.161 7.849-.01.356.009.712.049 1.067 1.332 31.802 9.737 63.125 24.555 91.104 1.346 2.542 3.945 3.992 6.635 3.992 1.184 0 2.385-.281 3.503-.874 3.661-1.938 5.057-6.478 3.118-10.138-10.02-18.92-16.876-39.49-20.357-60.681 32.25 39.045 69.809 80.176 109.773 120.135 14.274 14.273 28.731 28.271 43.171 41.82-45.039-9.943-85.312-35.286-114.287-72.855-2.529-3.279-7.238-3.891-10.519-1.358-3.28 2.529-3.889 7.239-1.358 10.519 19.571 25.377 45.008 46.378 73.56 60.731 29.947 15.056 62.245 22.689 95.997 22.689 21.384 0 42.462-3.145 62.711-9.343.405.267.813.541 1.217.806 51.172 33.534 93.19 50.537 124.891 50.537 10.288 0 19.833-1.765 28.37-5.245 3.835-1.564 5.677-5.941 4.113-9.777-1.564-3.835-5.937-5.678-9.777-4.114zm-228.528-38.579c-19.647-17.983-39.471-36.955-58.956-56.439-45.64-45.635-88.102-92.783-122.96-136.505-.048-1.78-.082-3.56-.082-5.342 0-15.716 1.823-31.249 5.428-46.361 29.442 42 67.336 86.492 110.388 129.535 42.996 42.995 87.509 80.893 129.581 110.389-15.124 3.611-30.67 5.437-46.397 5.437-5.711.001-11.381-.242-17.002-.714z"/><path d="m465.555 326.38c-1.598-2.501-3.244-5.022-4.901-7.535 5.866-19.007 9.402-41.267 9.36-62.669 0-86.2-51.303-163.598-130.699-197.18-3.813-1.612-8.216.171-9.829 3.985-1.614 3.815.171 8.216 3.985 9.829 73.835 31.229 121.543 103.205 121.543 183.365 0 8.552-.553 17.019-1.621 25.363-24.056-21.547-48.334-44.554-72.317-68.537-52.886-52.875-100.267-106.355-137.741-155.417 17.697-1.234 39.698.384 58.169 4.814 4.035.947 8.068-1.56 9.011-5.595.943-4.033-1.562-8.067-5.595-9.011-15.936-3.727-32.391-5.616-48.906-5.616-20.134-.035-42.319 3.096-62.688 9.365-2.363-1.556-4.786-3.13-7.246-4.705-48.471-30.961-88.474-46.659-118.896-46.659-24.81 0-40.13 10.113-48.611 18.595-11.993 11.981-24.431 34.499-15.575 73.734 2.46 10.913 6.527 22.954 12.09 35.79 1.227 2.829 3.986 4.52 6.886 4.52.995 0 2.007-.199 2.979-.62 3.801-1.647 5.546-6.063 3.899-9.864-5.191-11.978-8.967-23.122-11.221-33.126-7.352-32.568 2.22-50.508 11.547-59.824 6.479-6.48 18.333-14.204 38.007-14.204 27.009 0 63.44 14.373 108.293 42.701-5.79 2.35-11.469 4.948-17.018 7.789-41.682-25.182-94.628-48.903-118.26-25.274-24.33 24.332 1.535 79.723 27.518 121.905.03.049.062.099.093.148.008.013.016.026.024.039 29.681 48.151 74.638 103.275 126.617 155.245 52.071 52.05 107.285 97.055 155.471 126.722.034.021.069.042.103.063.022.013.043.027.066.04 30.256 18.615 67.264 37.136 94.732 37.136 10.81 0 20.143-2.869 27.004-9.73 23.642-23.629-.092-76.577-25.289-118.256 2.198-4.332 4.987-10.127 7.785-17.014 20.005 31.676 33.153 59.456 39.051 82.577 5.729 22.462 4.663 40.688-3.167 54.172-2.08 3.582-.863 8.172 2.719 10.252 1.186.688 2.48 1.016 3.76 1.016 2.585 0 5.101-1.338 6.492-3.734 9.873-17.002 11.465-39.01 4.73-65.412-6.434-25.216-20.683-55.22-42.354-89.183zm-54.796 54.961c-22.011-18.567-44.573-38.706-67.171-59.982-11.604-10.928-27.159-16.604-42.685-15.536-19.256 1.31-47.223-13.848-69.577-37.718-22.453-23.976-35.735-52.944-33.051-72.083 2.125-15.154-2.4-30.942-12.415-43.316-16.758-20.709-31.759-40.55-44.682-59.087 12.382-8.747 25.733-16.061 39.801-21.784 39.574 55.276 95.28 119.606 157.471 181.797 32.104 32.103 64.529 62.284 96.453 89.791-6.581 13.499-14.682 26.22-24.144 37.918zm-40.289-157.73c26.502 26.501 53.367 51.811 79.912 75.317-2.264 10.318-5.334 20.388-9.163 30.126-30.521-26.454-61.485-55.353-92.161-86.03-60.348-60.347-114.469-122.644-153.41-176.494 9.837-3.127 19.96-5.502 30.29-7.076 38.694 51.545 88.58 108.214 144.532 164.157zm-319.664-172.611c9.554-9.553 38.791-7.977 92.574 23.173-27.787 17.195-51.659 40.781-69.38 69.407-31.17-53.783-32.748-83.024-23.194-92.58zm31.995 107.143c12.187-21.498 28.004-40.17 46.448-55.408 13.042 18.676 28.132 38.622 44.951 59.406 7.409 9.155 10.771 20.745 9.22 31.797-3.331 23.753 11.176 56.89 36.957 84.421 25.659 27.397 57.649 44.059 81.544 42.429 11.363-.765 22.809 3.415 31.384 11.491 22.729 21.402 45.432 41.668 67.591 60.366-13.484 14.313-29.202 26.738-46.816 36.727-46.341-29.08-99.09-72.335-149.024-122.249-49.907-49.899-93.164-102.632-122.255-148.98zm378.419 303.211c-9.552 9.555-38.791 7.978-92.577-23.184 28.62-17.723 52.2-41.597 69.39-69.385 31.168 53.781 32.745 83.017 23.187 92.569z"/><path d="m405.717 43.787 15.791 7.896 7.896 15.79c0 .002.001.003.002.004 1.451 2.899 4.366 4.7 7.608 4.7h.004c3.244-.002 6.158-1.806 7.605-4.703l7.896-15.79 15.795-7.898c2.899-1.451 4.7-4.366 4.7-7.608s-1.801-6.157-4.703-7.61l-15.792-7.896-7.894-15.786c-1.449-2.901-4.363-4.705-7.607-4.707-.001 0-.003 0-.004 0-3.242 0-6.157 1.801-7.61 4.703l-7.896 15.79-15.795 7.898c-2.899 1.451-4.7 4.366-4.7 7.608s1.801 6.156 4.704 7.609zm24.408-10.654c1.648-.816 3.009-2.172 3.832-3.817l3.058-6.114 3.057 6.114c.823 1.646 2.184 3.001 3.805 3.804l6.115 3.058-6.088 3.044c-1.648.816-3.009 2.172-3.832 3.817l-3.057 6.114-2.916-5.831c-.915-1.821-2.421-3.325-4.242-4.235l-5.818-2.909z"/><path d="m53.854 394.592h-5v-5c0-4.143-3.357-7.5-7.5-7.5s-7.5 3.357-7.5 7.5v5h-5c-4.143 0-7.5 3.357-7.5 7.5s3.357 7.5 7.5 7.5h5v5c0 4.143 3.357 7.5 7.5 7.5s7.5-3.357 7.5-7.5v-5h5c4.143 0 7.5-3.357 7.5-7.5s-3.357-7.5-7.5-7.5z"/><path d="m134.854 469.592h-5v-5c0-4.143-3.357-7.5-7.5-7.5s-7.5 3.357-7.5 7.5v5h-5c-4.143 0-7.5 3.357-7.5 7.5s3.357 7.5 7.5 7.5h5v5c0 4.143 3.357 7.5 7.5 7.5s7.5-3.357 7.5-7.5v-5h5c4.143 0 7.5-3.357 7.5-7.5s-3.357-7.5-7.5-7.5z"/><path d="m32.514 484.677h-5v-5c0-4.143-3.357-7.5-7.5-7.5s-7.5 3.357-7.5 7.5v5h-5c-4.143 0-7.5 3.357-7.5 7.5s3.357 7.5 7.5 7.5h5v5c0 4.143 3.357 7.5 7.5 7.5s7.5-3.357 7.5-7.5v-5h5c4.143 0 7.5-3.357 7.5-7.5s-3.357-7.5-7.5-7.5z"/><path d="m479.854 123.592h5v5c0 4.143 3.357 7.5 7.5 7.5s7.5-3.357 7.5-7.5v-5h5c4.143 0 7.5-3.357 7.5-7.5s-3.357-7.5-7.5-7.5h-5v-5c0-4.143-3.357-7.5-7.5-7.5s-7.5 3.357-7.5 7.5v5h-5c-4.143 0-7.5 3.357-7.5 7.5s3.357 7.5 7.5 7.5z"/></g></svg>