<svg id="Capa_1" enable-background="new 0 0 512.013 512.013" height="512" viewBox="0 0 512.013 512.013" width="512" xmlns="http://www.w3.org/2000/svg"><g><path d="m501.601 384.937c-1.3-3.933-5.542-6.067-9.475-4.767s-6.067 5.542-4.767 9.475c14.178 42.887 12.536 75.957-4.625 93.118-30.926 30.924-109.486 10.826-200.146-51.205-37.494-25.647-74.505-56.652-110.007-92.154-35.501-35.501-66.506-72.513-92.154-110.007-62.031-90.66-82.13-169.222-51.206-200.146 29.128-29.127 100.522-12.983 184.477 40.826-18.972 4.275-37.089 11.438-53.836 21.25-32.846-14.061-57.043-14.615-70.112-1.546-13.54 13.54-12.461 39.026 3.118 73.701.024.055.049.109.075.164 19.432 43.201 59.152 96.552 108.998 146.398 49.891 49.892 103.293 89.639 146.512 109.051 29.237 12.663 55.754 19.17 73.75 3.14 13.076-13.076 12.514-37.296-1.572-70.174 9.907-16.991 16.966-35.196 21.179-53.92 13.147 20.508 24.196 40.507 32.926 59.635 1.259 2.759 3.981 4.388 6.828 4.388 1.042 0 2.1-.218 3.109-.679 3.769-1.72 5.429-6.169 3.709-9.937-10.964-24.024-25.424-49.311-42.978-75.191 5.892-55.348-12.315-112.799-54.646-155.13-36.001-36.002-83.868-55.829-134.782-55.829-6.89 0-13.721.376-20.478 1.093-45.49-30.838-89.042-52-126.091-61.241-40.525-10.11-71.921-5.477-90.792 13.394-18.872 18.872-23.504 50.268-13.396 90.794 9.242 37.053 30.408 80.611 61.252 126.107-4.37 40.787 4.607 82.416 25.415 117.535 1.401 2.364 3.897 3.678 6.459 3.678 1.3 0 2.617-.338 3.816-1.048 3.563-2.111 4.741-6.712 2.629-10.276-16.085-27.149-24.493-58.529-24.401-90.134 23.571 32.276 50.934 64.061 81.584 94.712 30.666 30.667 62.468 58.042 94.76 81.62-46.736.277-91.384-17.902-124.931-51.448-2.463-2.463-4.882-5.028-7.19-7.624-2.751-3.095-7.492-3.374-10.588-.622s-3.374 7.493-.622 10.588c2.502 2.814 5.124 5.595 7.793 8.264 36.139 36.139 84.143 55.854 134.449 55.854 6.888 0 13.826-.393 20.777-1.141 45.502 30.85 89.067 52.021 126.125 61.264 13.978 3.486 26.867 5.219 38.533 5.219 22.158 0 39.898-6.252 52.26-18.615 21.687-21.688 24.544-59.183 8.262-108.434zm-401.244-284.55c7.133-7.134 22.892-6.69 44.13.98-15.577 11.227-31.152 26.467-43.139 43.178-7.681-21.252-8.128-37.021-.991-44.158zm7.889 60.63c8.306-12.854 18.818-25.36 30.985-36.189 12.466 18.863 25.749 37.384 39.567 55.154 1.479 1.901 3.69 2.896 5.926 2.896 1.609 0 3.23-.516 4.599-1.58 3.27-2.542 3.859-7.255 1.316-10.524-13.898-17.871-27.239-36.518-39.738-55.505 14.423-10.941 33.769-21.14 52.281-26.825 59.449 86.764 133.511 160.835 220.266 220.295-5.791 18.498-14.707 36.216-26.748 52.325-48.838-32.148-94.395-69.222-135.476-110.303-16.881-16.881-33.272-34.715-48.718-53.006-2.672-3.165-7.405-3.563-10.569-.891-3.165 2.672-3.564 7.404-.891 10.569 15.716 18.611 32.395 36.757 49.572 53.935 41.437 41.437 87.345 78.868 136.542 111.378-9.535 10.853-23.066 22.619-36.193 30.994-40.98-19.266-91.172-57.053-138.42-104.302-47.245-47.247-85.033-97.438-104.301-138.421zm303.351 250.61c-7.137 7.137-22.905 6.691-44.158-.99 8.257-5.968 16.072-12.6 23.319-19.848 7.346-7.346 13.954-15.153 19.848-23.32 7.681 21.251 8.129 37.021.991 44.158zm-131.438-329.577c21.917 27.372 45.553 53.81 70.317 78.605 1.465 1.467 3.386 2.2 5.307 2.2 1.918 0 3.836-.731 5.3-2.193 2.931-2.927 2.934-7.676.007-10.606-20.07-20.096-39.379-41.295-57.623-63.193 28.714 8.015 55.031 23.313 76.687 44.969 22.033 22.033 36.963 48.514 44.817 76.577-12.986-10.823-25.737-22.023-38.065-33.465-3.036-2.818-7.782-2.642-10.599.395-2.818 3.036-2.641 7.781.395 10.599 17.071 15.845 34.935 31.24 53.127 45.811 2.831 20.468 2.065 41.342-2.307 61.588-81.864-56.87-152.076-127.091-208.936-208.963 19.018-4.12 40.903-5.231 61.573-2.324z"/><path d="m383.666 43.715 17.431 8.716 8.715 17.43c1.27 2.541 3.867 4.146 6.708 4.146s5.438-1.605 6.708-4.146l8.716-17.43 17.43-8.716c2.541-1.271 4.146-3.867 4.146-6.708s-1.605-5.438-4.146-6.708l-17.43-8.715-8.716-17.431c-1.27-2.541-3.867-4.146-6.708-4.146s-5.438 1.605-6.708 4.146l-8.715 17.431-17.431 8.715c-2.541 1.271-4.146 3.868-4.146 6.708s1.605 5.438 4.146 6.708zm26.375-9.833c1.452-.726 2.628-1.903 3.354-3.354l3.125-6.25 3.125 6.25c.726 1.452 1.902 2.628 3.354 3.354l6.25 3.125-6.25 3.125c-1.452.726-2.628 1.902-3.354 3.354l-3.125 6.25-3.125-6.25c-.726-1.452-1.902-2.628-3.354-3.354l-6.25-3.125z"/><path d="m128.289 468.298-17.431-8.715-8.715-17.431c-1.271-2.541-3.868-4.146-6.708-4.146s-5.438 1.605-6.708 4.146l-8.716 17.431-17.43 8.715c-2.541 1.27-4.146 3.867-4.146 6.708s1.605 5.438 4.146 6.708l17.43 8.716 8.716 17.43c1.271 2.541 3.867 4.146 6.708 4.146s5.438-1.605 6.708-4.146l8.715-17.43 17.431-8.716c2.541-1.27 4.146-3.867 4.146-6.708s-1.605-5.437-4.146-6.708zm-26.375 9.834c-1.452.726-2.628 1.902-3.354 3.354l-3.125 6.25-3.125-6.25c-.726-1.452-1.902-2.628-3.354-3.354l-6.25-3.125 6.25-3.125c1.452-.726 2.628-1.902 3.354-3.354l3.125-6.25 3.125 6.25c.726 1.452 1.903 2.628 3.354 3.354l6.25 3.125z"/><path d="m325.331 47.459h5v5c0 4.142 3.358 7.5 7.5 7.5s7.5-3.358 7.5-7.5v-5h5c4.142 0 7.5-3.358 7.5-7.5s-3.358-7.5-7.5-7.5h-5v-5c0-4.142-3.358-7.5-7.5-7.5s-7.5 3.358-7.5 7.5v5h-5c-4.142 0-7.5 3.358-7.5 7.5s3.358 7.5 7.5 7.5z"/><path d="m187.331 464.459h-5v-5c0-4.142-3.358-7.5-7.5-7.5s-7.5 3.358-7.5 7.5v5h-5c-4.142 0-7.5 3.358-7.5 7.5s3.358 7.5 7.5 7.5h5v5c0 4.142 3.358 7.5 7.5 7.5s7.5-3.358 7.5-7.5v-5h5c4.142 0 7.5-3.358 7.5-7.5s-3.358-7.5-7.5-7.5z"/></g></svg>