<svg id="Capa_1" enable-background="new 0 0 512 512" height="512" viewBox="0 0 512 512" width="512" xmlns="http://www.w3.org/2000/svg"><g><path d="m511.756 266.74c1.467-32.098-3.725-67.242-14.992-97.917-1.411-3.895-5.713-5.91-9.605-4.498-3.895 1.41-5.909 5.711-4.498 9.605 4.896 13.519 8.539 27.399 10.932 41.529-16.071 2.735-32.995 5.162-50.533 7.257 2.507-6.223 3.9-13.009 3.9-20.119 0-29.791-24.237-54.027-54.027-54.027-29.791 0-54.028 24.236-54.028 54.027 0 10.212 2.85 19.771 7.793 27.925-16.149.737-32.561 1.218-49.004 1.439-12.109-12.3-28.934-19.944-47.517-19.944-17.79 0-33.962 7.012-45.935 18.401-68.75-3.247-132.234-11.071-184.367-22.71 3.188-15.613 7.89-30.735 13.972-45.183 6.123 2.775 12.784 4.218 19.645 4.218 26.292 0 47.683-21.391 47.683-47.683 0-2.943-.275-5.842-.795-8.673 14.633 1.291 29.737 2.408 45.133 3.332-.767 3.601-1.179 7.332-1.179 11.158 0 29.499 24 53.499 53.499 53.499s53.499-24 53.499-53.499c0-2.668-.203-5.289-.581-7.853 2.98.013 5.967.02 8.943.02 11.328 0 22.733-.102 33.996-.291 1.234 2.998 2.938 5.82 5.097 8.363 5.408 6.372 12.975 10.258 21.306 10.938.871.071 1.74.107 2.605.107 7.401 0 14.49-2.594 20.196-7.437 4.404-3.738 7.619-8.507 9.41-13.846 32.836-1.565 64.322-3.962 93.746-7.135 8.464 10.858 16.074 22.53 22.7 34.945 1.35 2.53 3.943 3.971 6.623 3.971 1.191-.001 2.4-.285 3.525-.886 3.654-1.95 5.036-6.493 3.085-10.147-44.651-83.657-131.245-135.626-225.99-135.626-9.868 0-19.809.567-29.545 1.687-4.115.474-7.067 4.192-6.595 8.308.474 4.115 4.192 7.068 8.308 6.595 9.17-1.055 18.535-1.589 27.833-1.589 36.295 0 71.32 8.103 102.931 23.019-33.175 1.779-67.493 2.693-102.402 2.693-35.278 0-69.931-.932-103.4-2.744 13.178-6.212 27.056-11.296 41.537-15.095 4.006-1.052 6.402-5.151 5.351-9.158s-5.152-6.4-9.158-5.352c-75.433 19.789-135.592 72.179-166.995 139.667-15.705 33.638-24.221 71.961-23.846 110.133.098 11.698.98 23.432 2.647 34.913.542 3.734 3.748 6.424 7.413 6.424.358 0 .722-.025 1.087-.079 4.099-.595 6.939-4.4 6.345-8.499-1.12-7.711-1.859-15.545-2.23-23.402 9.005 2.026 18.397 3.953 28.102 5.761-2.388 5.023-3.729 10.635-3.729 16.556 0 21.337 17.358 38.695 38.695 38.695 21.336 0 38.694-17.358 38.694-38.695 0-1.97-.15-3.905-.435-5.797 21.828 2.451 44.56 4.39 67.8 5.795 5.303 31.521 32.771 55.616 65.776 55.616 32.215 0 59.168-22.951 65.372-53.361 27.571-.682 54.808-2.085 81.045-4.197 4.129-.332 7.207-3.948 6.875-8.077-.332-4.128-3.945-7.205-8.078-6.874-25.432 2.046-51.817 3.422-78.54 4.113-.273-10.943-3.176-21.244-8.126-30.278 17.062-.347 34.037-.973 50.668-1.869 9.222 7.326 20.874 11.718 33.539 11.718 15.787 0 30.013-6.808 39.9-17.641 21.906-2.393 42.984-5.295 62.807-8.657.911 8.893 1.539 19.682 1.298 30.035-20.947 3.643-43.358 6.774-66.751 9.305-4.118.445-7.095 4.145-6.65 8.263.416 3.845 3.667 6.694 7.447 6.694.27 0 .542-.015.816-.045 22.475-2.432 44.081-5.408 64.382-8.861-.838 10.298-2.328 20.413-4.425 30.307-4.243-1.312-8.681-2.012-13.171-2.012-24.543 0-44.511 19.968-44.511 44.511 0 4.312.628 8.511 1.799 12.502-19.515 2.208-39.81 4.004-60.529 5.367-4.706-14.108-18.029-24.311-33.698-24.311-16.718 0-30.767 11.612-34.526 27.192-10.128.197-20.357.302-30.507.302-32.873 0-65.469-1.041-96.985-3.072-5.373-9.518-15.577-15.962-27.265-15.962-9.819 0-18.592 4.549-24.333 11.647-34.205-3.559-66.066-8.322-94.835-14.177-3.118-7.519-5.868-15.243-8.222-23.154-1.181-3.969-5.356-6.226-9.328-5.049-3.97 1.182-6.231 5.357-5.049 9.328 15.197 51.109 47.693 98.434 91.007 131.083 44.738 33.874 98.125 51.778 154.39 51.778 68.38 0 132.667-26.629 181.019-74.98 45.728-45.727 72.011-105.709 74.731-169.923.007-.119.013-.237.013-.357zm-458.264-114.997c-4.68 0-9.211-.998-13.385-2.877 9.602-19.344 21.747-37.286 36.06-53.348 6.35 6.097 10.008 14.535 10.008 23.543 0 18.021-14.662 32.682-32.683 32.682zm144.341 11.633c-21.229 0-38.499-17.271-38.499-38.499s17.271-38.499 38.499-38.499 38.499 17.271 38.499 38.499-17.27 38.499-38.499 38.499zm135.355-46.087c-3.318 2.816-7.529 4.171-11.872 3.816-4.337-.355-8.277-2.378-11.093-5.695-2.816-3.318-4.171-7.534-3.816-11.872.355-4.337 2.377-8.276 5.696-11.093 2.971-2.521 6.661-3.871 10.515-3.871.45 0 .903.018 1.357.055 4.337.355 8.276 2.378 11.092 5.696 2.816 3.317 4.171 7.533 3.816 11.871-.354 4.337-2.377 8.277-5.695 11.093zm-76.666-61.577c43.657 0 86.427-1.405 127.193-4.159 18.648 11.649 35.708 25.868 50.655 42.325-25.616 2.566-52.711 4.553-80.833 5.925-.901-5.557-3.296-10.782-7.033-15.184-5.409-6.373-12.975-10.259-21.306-10.939-8.325-.68-16.428 1.921-22.801 7.329-6.237 5.294-10.083 12.657-10.883 20.779-10.553.168-21.221.257-31.819.257-4.506 0-9.024-.021-13.514-.051-8.593-18.081-27.031-30.615-48.346-30.615-20.123 0-37.679 11.173-46.811 27.635-19.386-1.11-38.34-2.526-56.481-4.218-2.197-3.714-4.886-7.144-8.048-10.166 12.605-12.492 26.625-23.628 41.851-33.14 41.039 2.796 84.14 4.222 128.176 4.222zm-178.18 257.821c-13.065 0-23.695-10.63-23.695-23.695s10.629-23.694 23.695-23.694c13.065 0 23.694 10.629 23.694 23.694s-10.629 23.695-23.694 23.695zm0-62.389c-9.3 0-17.843 3.3-24.523 8.787-13.561-2.398-26.572-5.026-38.785-7.843.161-9.994.939-19.866 2.297-29.579 50.076 11.123 110.266 18.792 175.404 22.347-5.248 8.864-8.505 19.036-9.147 29.904-25.19-1.553-49.745-3.748-73.168-6.539-6.96-10.296-18.742-17.077-32.078-17.077zm171.835 79.308c-28.517 0-51.717-23.2-51.717-51.717s23.2-51.717 51.717-51.717 51.717 23.2 51.717 51.717-23.2 51.717-51.717 51.717zm142.755-88.825c-21.52 0-39.028-17.508-39.028-39.028s17.508-39.027 39.028-39.027 39.027 17.508 39.027 39.027c.001 21.52-17.507 39.028-39.027 39.028zm85.654 77.389c3.286 0 6.531.548 9.598 1.601-5.345 19.182-13.006 37.407-22.666 54.354-9.896-4.891-16.443-15.076-16.443-26.444 0-16.273 13.238-29.511 29.511-29.511zm-136.94 38.068c11.316 0 20.522 9.206 20.522 20.522s-9.206 20.522-20.522 20.522-20.522-9.206-20.522-20.522 9.206-20.522 20.522-20.522zm-189.283 8.46c8.984 0 16.292 7.309 16.292 16.292 0 8.984-7.309 16.293-16.292 16.293s-16.292-7.309-16.292-16.293c0-8.983 7.308-16.292 16.292-16.292zm67.12 128.619c-38.914-6.056-75.357-21.617-106.389-44.497 37.08 4.285 76.302 7.046 117.097 8.245-6.134 8.505-10.018 18.779-10.68 30.001-.123 2.09-.131 4.176-.028 6.251zm15.197 1.867c-.268-2.388-.338-4.806-.195-7.235 1.371-23.23 21.403-41.013 44.615-39.642 21.52 1.271 38.353 18.544 39.627 39.548-20.011 5.4-41.039 8.299-62.734 8.299-7.16 0-14.269-.335-21.313-.97zm88.35-38.122c23.762-.702 47.146-1.943 69.906-3.713-18.204 12.617-38.211 22.805-59.565 30.063-1.197-9.703-4.842-18.717-10.341-26.35zm91.608-20.649c-34.255 3.27-70.208 5.297-106.957 6.025-8.032-5.218-17.47-8.501-27.697-9.105-12.634-.745-24.56 2.695-34.438 9.107-54.455-1.078-106.214-4.928-153.942-11.446-20.474-19.053-37.73-41.668-50.646-67.015 24.922 4.721 51.92 8.663 80.562 11.76-.29 1.709-.449 3.462-.449 5.252 0 17.255 14.038 31.293 31.292 31.293s31.292-14.038 31.292-31.293c0-.015-.001-.031-.001-.046 30.281 1.844 61.497 2.788 92.959 2.788 10.029 0 20.136-.101 30.15-.291 3.135 16.403 17.581 28.842 34.884 28.842 18.333 0 33.464-13.96 35.327-31.808 22.68-1.503 44.847-3.527 66.071-6.028 3.865 5.135 8.833 9.431 14.609 12.512-12.054 18.377-26.543 35.017-43.016 49.453z"/><path d="m453.453 38.422h5v5c0 4.143 3.358 7.5 7.5 7.5s7.5-3.357 7.5-7.5v-5h5c4.142 0 7.5-3.357 7.5-7.5s-3.358-7.5-7.5-7.5h-5v-5c0-4.143-3.358-7.5-7.5-7.5s-7.5 3.357-7.5 7.5v5h-5c-4.142 0-7.5 3.357-7.5 7.5s3.358 7.5 7.5 7.5z"/><path d="m17.453 64.422h5v5c0 4.143 3.358 7.5 7.5 7.5s7.5-3.357 7.5-7.5v-5h5c4.142 0 7.5-3.357 7.5-7.5s-3.358-7.5-7.5-7.5h-5v-5c0-4.143-3.358-7.5-7.5-7.5s-7.5 3.357-7.5 7.5v5h-5c-4.142 0-7.5 3.357-7.5 7.5s3.358 7.5 7.5 7.5z"/><path d="m54.453 454.422h-5v-5c0-4.143-3.358-7.5-7.5-7.5s-7.5 3.357-7.5 7.5v5h-5c-4.142 0-7.5 3.357-7.5 7.5s3.358 7.5 7.5 7.5h5v5c0 4.143 3.358 7.5 7.5 7.5s7.5-3.357 7.5-7.5v-5h5c4.142 0 7.5-3.357 7.5-7.5s-3.358-7.5-7.5-7.5z"/><path d="m487.453 466.422h-5v-5c0-4.143-3.358-7.5-7.5-7.5s-7.5 3.357-7.5 7.5v5h-5c-4.142 0-7.5 3.357-7.5 7.5s3.358 7.5 7.5 7.5h5v5c0 4.143 3.358 7.5 7.5 7.5s7.5-3.357 7.5-7.5v-5h5c4.142 0 7.5-3.357 7.5-7.5s-3.358-7.5-7.5-7.5z"/></g></svg>