<svg id="Capa_1" enable-background="new 0 0 512 512" height="512" viewBox="0 0 512 512" width="512" xmlns="http://www.w3.org/2000/svg"><g><path d="m447.755 148.161c-17.285-30.664-44.075-59.022-74.784-78.033-3.514-2.194-8.14-1.126-10.334 2.387-2.195 3.513-1.125 8.14 2.387 10.334 17.413 10.877 32.779 24.04 45.847 38.955-46.941 3.91-94.374 6.041-141.319 6.348-4.428-15.111-22.903-26.367-45.877-26.774-18.434-.389-40.236 7.294-46.794 25.104-24.426-1.064-49.044-2.621-73.448-4.652 38.328-43.832 94.166-69.83 153.67-69.83 26.969 0 53.169 5.177 77.873 15.388 3.827 1.584 8.213-.238 9.796-4.066s-.238-8.214-4.066-9.796c-26.53-10.966-54.658-16.526-83.603-16.526-79.473 0-152.86 43.188-191.522 112.712-2.013 3.62-.71 8.187 2.91 10.2 1.154.642 2.405.947 3.638.947 2.634 0 5.19-1.391 6.562-3.856 4.089-7.354 8.6-14.387 13.484-21.085 28.006 2.484 56.365 4.354 84.47 5.571 4.161 14.837 24.248 26.929 47.115 26.711 22.262-.001 40.538-10.444 45.482-25.042 50.811-.321 102.196-2.757 152.922-7.261 18.156 24.882 30.446 53.686 35.833 84.468-47.337 2.136-131.035 2.174-140.963 2.175-47.012 0-63.498 3.994-79.441 7.855-10.22 2.476-19.873 4.814-37.681 6.317-4.127.349-7.191 3.977-6.843 8.104.331 3.913 3.608 6.87 7.465 6.87 17.616-1.304 30.922-4.322 40.59-6.712 15.782-3.823 30.688-7.434 75.909-7.434 10.136.011 95.186-.029 143.024-2.254 2.491 23.086.426 50.635-5.911 73.563-15.306 1.578-32.217 3.227-50.382 4.912-12.125 1.12-24.266-2.099-34.186-9.063-12.456-8.864-30.191-13.864-47.53-13.103-17.436.73-33.716 6.555-45.841 16.398-9.784 7.937-21.989 12.081-34.38 11.649-38.874-1.324-113.291-4.284-181.388-9.387-5.185-18.665-7.97-40.303-7.213-61.148 13.306.363 103.087 4.724 112.29 4.086 4.142-.052 7.458-3.451 7.406-7.593s-3.491-7.464-7.593-7.406c-2.183.8-105.782-3.962-111.068-4.057 1.652-15.525 5.067-30.754 10.217-45.486 1.367-3.91-.694-8.188-4.604-9.555-3.908-1.369-8.188.694-9.555 4.604-49.955 146.404 58.908 291.105 206.784 291.296 58.497 0 113.493-22.78 154.856-64.143s64.144-96.358 64.144-154.855c0-37.829-9.802-75.118-28.348-107.837zm-224.999 5.028c-19.03-.337-32.224-10.219-32.163-18.931 2.956-14.337 18.593-17.211 32.817-17.881 19.085.337 32.235 10.213 32.165 18.9-.003.066-.006.133-.009.199-.267 8.649-13.831 18.057-32.81 17.713zm34.347 306.807c-64.844 0-122.715-30.415-160.108-77.724 63.419 3.924 126.168 6.125 159.422 7.121 9.009.272 18.045 3.06 26.125 8.059 3.351 2.076 6.954 3.9 10.71 5.423.923.374 1.876.551 2.815.551 2.964 0 5.771-1.769 6.953-4.685 1.556-3.839-.295-8.212-4.134-9.768-2.972-1.205-5.813-2.642-8.448-4.275-10.323-6.386-21.931-9.947-33.571-10.298-35.298-1.058-103.912-3.476-171.151-7.876-8.234-12.723-15.092-26.415-20.359-40.866 67.985 4.892 138.562 7.774 178.207 9.013 15.221 0 30.09-5.293 42.095-15.031 9.639-7.825 22.785-12.463 36.995-13.059 14.358-.555 28.036 3.189 38.309 10.395 12.823 9.001 28.51 13.166 44.182 11.719 15.725-1.459 30.509-2.891 44.139-4.273-5.237 14.664-12.094 28.564-20.378 41.469-10.858 1.054-22.336 2.131-34.187 3.206-11.937 1.076-23.601 5.542-33.73 12.916-7.333 5.449-19.333 10.119-30.541 11.189-4.121.419-7.121 4.1-6.702 8.221.394 3.863 3.651 6.741 7.452 6.741 13.197-1.03 28.111-6.272 38.651-14.048 7.929-5.763 16.994-9.248 26.22-10.08 7.263-.659 14.38-1.318 21.309-1.973-37.385 47.43-95.334 77.933-160.275 77.933z"/><path d="m352.667 370.757c8.044-5.827 12.472-13.95 12.147-22.286-.644-16.529-18.928-28.802-41.616-27.902-22.693.883-39.965 14.522-39.322 31.053.622 15.967 17.7 27.947 39.317 27.947 9.302.162 22.043-3.173 29.474-8.812zm-53.803-19.718c-.266-6.854 9.901-14.896 24.917-15.481 12.53-1 26.381 6.706 26.044 13.497.172 4.433-3.659 7.889-5.958 9.555-4.81 3.484-11.72 5.644-18.959 5.926-15.011.577-25.777-6.645-26.044-13.497z"/><path d="m35.249 43.708 17.43 8.716 8.716 17.43c1.271 2.541 3.867 4.146 6.708 4.146s5.438-1.605 6.708-4.146l8.716-17.43 17.43-8.716c2.541-1.271 4.146-3.867 4.146-6.708s-1.605-5.438-4.146-6.708l-17.43-8.715-8.716-17.43c-1.27-2.542-3.867-4.147-6.708-4.147s-5.438 1.605-6.708 4.146l-8.716 17.43-17.43 8.715c-2.541 1.27-4.146 3.867-4.146 6.708s1.605 5.438 4.146 6.709zm26.375-9.833c1.452-.726 2.628-1.902 3.354-3.354l3.125-6.25 3.125 6.25c.726 1.452 1.902 2.628 3.354 3.354l6.251 3.125-6.25 3.125c-1.452.726-2.628 1.902-3.354 3.354l-3.125 6.25-3.125-6.25c-.726-1.452-1.902-2.628-3.354-3.354l-6.251-3.125z"/><path d="m491.985 468.287-17.45-8.718-8.725-17.433c-1.271-2.54-3.867-4.144-6.707-4.144s-5.436 1.604-6.707 4.144l-8.725 17.433-17.45 8.718c-2.542 1.27-4.148 3.868-4.148 6.709s1.606 5.439 4.148 6.709l17.45 8.717 8.725 17.434c1.271 2.54 3.867 4.144 6.707 4.144s5.436-1.604 6.707-4.144l8.725-17.434 17.45-8.717c2.542-1.27 4.148-3.868 4.148-6.709s-1.606-5.439-4.148-6.709zm-26.39 9.834c-1.452.725-2.629 1.902-3.355 3.353l-3.136 6.267-3.136-6.267c-.726-1.451-1.904-2.628-3.355-3.353l-6.256-3.125 6.256-3.125c1.452-.726 2.629-1.902 3.355-3.353l3.136-6.267 3.136 6.267c.726 1.451 1.903 2.627 3.355 3.353l6.256 3.125z"/><path d="m457.724 71.009h7.487v7.477c0 4.142 3.358 7.5 7.5 7.5s7.5-3.358 7.5-7.5v-7.477h7.488c4.142 0 7.5-3.358 7.5-7.5s-3.358-7.5-7.5-7.5h-7.488v-7.476c0-4.142-3.358-7.5-7.5-7.5s-7.5 3.358-7.5 7.5v7.476h-7.487c-4.142 0-7.5 3.358-7.5 7.5s3.358 7.5 7.5 7.5z"/><path d="m43.603 400.288h-2.618v-2.61c0-4.142-3.358-7.5-7.5-7.5s-7.5 3.358-7.5 7.5v2.61h-2.618c-4.142 0-7.5 3.358-7.5 7.5s3.358 7.5 7.5 7.5h2.618v2.61c0 4.142 3.358 7.5 7.5 7.5s7.5-3.358 7.5-7.5v-2.61h2.618c4.142 0 7.5-3.358 7.5-7.5s-3.358-7.5-7.5-7.5z"/><path d="m100.781 473.106h-2.618v-2.61c0-4.142-3.358-7.5-7.5-7.5s-7.5 3.358-7.5 7.5v2.61h-2.618c-4.142 0-7.5 3.358-7.5 7.5s3.358 7.5 7.5 7.5h2.618v2.61c0 4.142 3.358 7.5 7.5 7.5s7.5-3.358 7.5-7.5v-2.61h2.618c4.142 0 7.5-3.358 7.5-7.5s-3.358-7.5-7.5-7.5z"/></g></svg>