<svg id="Capa_1" enable-background="new 0 0 512.341 512.341" height="512" viewBox="0 0 512.341 512.341" width="512" xmlns="http://www.w3.org/2000/svg"><g><path d="m451.943 376.949c-3.452-2.289-8.106-1.348-10.396 2.104-6.602 9.952-13.922 19.257-21.855 27.88-15.114-2.063-23.098-5.665-32.999-10.142-10.946-4.949-23.354-10.56-47.722-15.433-32.253-6.45-58.328-.915-82.057 17.42-9.483 7.328-14.486 14.955-15.296 23.316-1.237 12.781 7.746 23.026 15.673 32.066 5.169 5.894 11.026 12.574 10.408 16.711-.335 2.244-2.833 4.979-7.062 7.769-1.545.032-3.088.072-4.637.072-20.017 0-39.418-2.673-57.883-7.653 6.005-3.818 11.058-9.157 14.708-15.831 7.791-14.241 7.617-31.1-.432-41.949-3.954-5.33-13.305-13.707-31.43-9.908-31.842 6.664-61.67 6.876-91.094.676-19.48-21.867-34.724-47.584-44.417-75.86 20.761.402 38.659-3.862 57.433-8.356 28.443-6.81 57.853-13.852 103.454-6.708 31.027 4.859 51.082 12.054 68.776 18.401 21.205 7.607 39.948 14.333 69.907 14.332 5.301 0 10.957-.211 17.035-.664 27.858-2.079 46.922-12.211 63.741-21.15 15.255-8.108 28.706-15.257 46.546-15.563-3.217 13.357-7.687 26.409-13.4 39.083-1.703 3.775-.021 8.217 3.755 9.919 1 .451 2.047.665 3.078.665 2.858 0 5.59-1.644 6.841-4.42 13.855-30.731 20.88-63.54 20.88-97.513 0-63.438-24.704-123.08-69.563-167.938-44.855-44.858-104.497-69.562-167.935-69.562-14.881 0-29.779 1.387-44.28 4.122-4.07.768-6.747 4.69-5.979 8.761.769 4.07 4.689 6.751 8.761 5.979 13.586-2.563 27.549-3.862 41.499-3.862 42.942 0 83.074 12.241 117.113 33.399-57.698-13.771-97.006-1.668-132.454 9.254-37.812 11.649-68.188 21.002-112.974-1.955 16.36-11.578 34.452-21.056 53.954-27.969 3.904-1.385 5.947-5.671 4.563-9.575s-5.671-5.943-9.575-4.563c-94.707 33.538-158.221 124.009-158.128 223.909-.112 133.436 109.158 237.888 237.5 237.5 79.823 0 153.859-39.764 198.047-106.367 2.29-3.452 1.348-8.107-2.104-10.397zm22.389-163.647c-21.757-2.436-38.069-13.248-40.118-27.438-1.586-11.017 5.907-22.98 19.444-31.737 9.533 18.384 16.57 38.26 20.674 59.175zm-359.726-128.891c25.209 14.071 46.818 18.998 66.739 18.998 22.474 0 42.802-6.262 63.729-12.709 40.824-12.577 87.069-26.812 163.132 3.379 6.499 6.105 12.632 12.594 18.363 19.433-11.291 6.691-19.284 14.59-26.484 21.713-12.622 12.484-21.738 21.517-43.406 20.989-16.434-.391-30.83-4.145-49.056-8.896-26.628-6.941-59.768-15.581-115.786-18.099-49.252-2.215-71.695 4.708-89.728 10.271-12.425 3.832-22.701 6.995-39.311 6.482 13.361-23.399 30.901-44.305 51.808-61.561zm-81.106 171.802c0-8.678.51-17.273 1.5-25.751 39.629-4.557 57.813 2.703 76.999 10.379 15.297 6.119 31.085 12.436 57.027 12.436 1.526 0 3.087-.021 4.685-.066 32.405-.913 52.787-10.427 72.498-19.627 18.224-8.507 35.438-16.542 62.188-17.952 4.137-.218 7.313-3.748 7.095-7.884-.211-4.002-3.521-7.105-7.482-7.105-.134 0-.268.003-.401.011-29.664 1.563-49.022 10.6-67.744 19.338-19.17 8.948-37.276 17.4-66.575 18.226-25.689.719-40.262-5.117-55.718-11.302-19.465-7.788-39.558-15.815-80.228-11.788 3.588-19.041 9.616-37.365 17.819-54.561 23.402 1.88 36.442-2.135 51.369-6.741 17.803-5.492 37.984-11.718 84.632-9.62 54.438 2.447 86.729 10.865 112.676 17.629 18.409 4.8 34.308 8.944 52.482 9.377.683.016 1.357.024 2.022.024 26.667 0 39.688-12.88 52.29-25.346 7.225-7.147 14.667-14.504 25.266-20.443 3.673 5.04 7.152 10.23 10.4 15.576-19.239 12.076-29.44 29.563-26.932 46.982 3.228 22.354 26.443 38.479 57.419 40.582.813 6.536 1.333 13.16 1.563 19.857-11.293-1.188-25.467-3.055-38.637-7.272-2.916-.923-5.604-1.895-8.115-2.909-9.333-3.705-17.769-9.004-27.981-15.631-13.146-8.295-28.152-16.428-59.148-20.358v.001c-.01-.001-.019-.002-.028-.004l-.231-.029c-4.098-.534-7.861 2.389-8.382 6.499-.521 4.108 2.39 7.862 6.499 8.382l.229.029c30.867 3.913 43.559 12.057 56.996 20.68 6.199 3.944 13.524 8.72 22.136 12.519 12.717 5.717 29.662 10.575 56.677 13.16h.005c-.322 10.119-1.319 20.118-2.976 29.971-23.047-.538-39.402 8.155-56.635 17.313-16.273 8.649-33.101 17.593-57.818 19.438-37.25 2.782-56.452-4.107-80.76-12.828-18.322-6.572-39.089-14.022-71.521-19.103-48.526-7.597-80.795.126-109.267 6.94-20.083 4.808-37.64 8.998-58.536 7.764-4.792-18.137-7.357-37.17-7.357-56.793zm139.825 206.562c-24.166-9.707-46.244-23.538-65.367-40.616 24.646 2.772 49.737 1.408 76.078-4.106 7.599-1.59 13.082-.188 16.311 4.164 4.482 6.042 4.195 16.898-.682 25.813-3.175 5.808-10.804 15.28-26.34 14.745zm108.106 14.468c.519-1.35.89-2.733 1.103-4.155 1.646-11.014-6.29-20.064-13.965-28.816-6.211-7.083-12.634-14.407-12.021-20.731.384-3.961 3.593-8.298 9.538-12.893 20.312-15.694 41.88-20.193 69.943-14.58 22.689 4.537 34.268 9.772 44.483 14.392 7.82 3.536 15.348 6.926 26.272 9.387-34.486 31.815-78.263 52.014-125.353 57.396z"/><path d="m30 60.213c16.542 0 30-13.458 30-30s-13.458-30-30-30-30 13.458-30 30 13.458 30 30 30zm0-45c8.271 0 15 6.729 15 15s-6.729 15-15 15-15-6.729-15-15 6.729-15 15-15z"/><path d="m469.5 427.213c-23.435 0-42.5 19.065-42.5 42.5s19.065 42.5 42.5 42.5 42.5-19.065 42.5-42.5-19.065-42.5-42.5-42.5zm0 70c-15.163 0-27.5-12.337-27.5-27.5s12.337-27.5 27.5-27.5 27.5 12.337 27.5 27.5-12.337 27.5-27.5 27.5z"/><path d="m171.5 162.213c-26.586 0-53.5 9.446-53.5 27.5s26.914 27.5 53.5 27.5 53.5-9.446 53.5-27.5-26.914-27.5-53.5-27.5zm0 40c-25.009 0-38.5-8.872-38.5-12.5s13.491-12.5 38.5-12.5 38.5 8.872 38.5 12.5-13.491 12.5-38.5 12.5z"/><path d="m152.854 347.991c4.023-.987 6.484-5.049 5.497-9.071-.987-4.023-5.057-6.488-9.071-5.497-21.307 5.229-33.729 15.567-33.231 27.657.724 17.559 26.65 26.197 53.468 26.197 1.717 0 3.438-.035 5.156-.106 28.549-1.177 57.048-12.144 56.278-30.826-.566-13.744-17.98-23.898-44.362-25.868-4.142-.302-7.729 2.791-8.038 6.921-.308 4.131 2.79 7.729 6.921 8.038 20.048 1.496 30.355 8.197 30.492 11.527.161 3.909-14.325 14.084-41.908 15.221-27.602 1.142-42.858-7.813-43.021-11.721-.1-2.457 6.195-8.638 21.819-12.472z"/><path d="m296.928 298.434c10.694 5.661 24.748 8.779 39.572 8.779s28.878-3.118 39.572-8.779c12.205-6.462 18.928-15.597 18.928-25.721s-6.723-19.259-18.928-25.721c-10.694-5.661-24.748-8.779-39.572-8.779s-28.878 3.118-39.572 8.779c-12.205 6.462-18.928 15.597-18.928 25.721s6.723 19.259 18.928 25.721zm39.572-45.221c24.896 0 43.5 10.295 43.5 19.5s-18.604 19.5-43.5 19.5-43.5-10.295-43.5-19.5 18.604-19.5 43.5-19.5z"/><path d="m472.341 103.128c0 4.143 3.357 7.5 7.5 7.5h5v5c0 4.143 3.357 7.5 7.5 7.5s7.5-3.357 7.5-7.5v-5h5c4.143 0 7.5-3.357 7.5-7.5s-3.357-7.5-7.5-7.5h-5v-5c0-4.143-3.357-7.5-7.5-7.5s-7.5 3.357-7.5 7.5v5h-5c-4.143 0-7.5 3.357-7.5 7.5z"/><path d="m111.5 484.713h-5v-5c0-4.143-3.357-7.5-7.5-7.5s-7.5 3.357-7.5 7.5v5h-5c-4.143 0-7.5 3.357-7.5 7.5s3.357 7.5 7.5 7.5h5v5c0 4.143 3.357 7.5 7.5 7.5s7.5-3.357 7.5-7.5v-5h5c4.143 0 7.5-3.357 7.5-7.5s-3.357-7.5-7.5-7.5z"/><path d="m32.5 443.713h-5v-5c0-4.143-3.357-7.5-7.5-7.5s-7.5 3.357-7.5 7.5v5h-5c-4.143 0-7.5 3.357-7.5 7.5s3.357 7.5 7.5 7.5h5v5c0 4.143 3.357 7.5 7.5 7.5s7.5-3.357 7.5-7.5v-5h5c4.143 0 7.5-3.357 7.5-7.5s-3.357-7.5-7.5-7.5z"/><path d="m442.841 27.628h5v5c0 4.143 3.357 7.5 7.5 7.5s7.5-3.357 7.5-7.5v-5h5c4.143 0 7.5-3.357 7.5-7.5s-3.357-7.5-7.5-7.5h-5v-5c0-4.143-3.357-7.5-7.5-7.5s-7.5 3.357-7.5 7.5v5h-5c-4.143 0-7.5 3.357-7.5 7.5s3.357 7.5 7.5 7.5z"/></g></svg>