<svg id="Capa_1" enable-background="new 0 0 512 512" height="512" viewBox="0 0 512 512" width="512" xmlns="http://www.w3.org/2000/svg"><g><path d="m211.5 138c-17.369 0-31.5 14.131-31.5 31.5s14.131 31.5 31.5 31.5 31.5-14.131 31.5-31.5-14.131-31.5-31.5-31.5zm0 48c-9.098 0-16.5-7.402-16.5-16.5s7.402-16.5 16.5-16.5 16.5 7.402 16.5 16.5-7.402 16.5-16.5 16.5z"/><path d="m476 255.5c0-17.369-14.131-31.5-31.5-31.5s-31.5 14.131-31.5 31.5 14.131 31.5 31.5 31.5 31.5-14.131 31.5-31.5zm-48 0c0-9.098 7.402-16.5 16.5-16.5s16.5 7.402 16.5 16.5-7.402 16.5-16.5 16.5-16.5-7.402-16.5-16.5z"/><path d="m216.5 341c-17.369 0-31.5 14.131-31.5 31.5s14.131 31.5 31.5 31.5 31.5-14.131 31.5-31.5-14.131-31.5-31.5-31.5zm0 48c-9.098 0-16.5-7.402-16.5-16.5s7.402-16.5 16.5-16.5 16.5 7.402 16.5 16.5-7.402 16.5-16.5 16.5z"/><path d="m334.5 162c-23.986 0-43.5 19.514-43.5 43.5s19.514 43.5 43.5 43.5 43.5-19.514 43.5-43.5-19.514-43.5-43.5-43.5zm0 72c-15.715 0-28.5-12.785-28.5-28.5s12.785-28.5 28.5-28.5 28.5 12.785 28.5 28.5-12.785 28.5-28.5 28.5z"/><path d="m316 468c20.953 0 38-17.047 38-38s-17.047-38-38-38-38 17.047-38 38 17.047 38 38 38zm0-61c12.682 0 23 10.317 23 23s-10.318 23-23 23-23-10.317-23-23 10.318-23 23-23z"/><path d="m101.5 293c-23.986 0-43.5 19.514-43.5 43.5s19.514 43.5 43.5 43.5 43.5-19.514 43.5-43.5-19.514-43.5-43.5-43.5zm0 72c-15.715 0-28.5-12.785-28.5-28.5s12.785-28.5 28.5-28.5 28.5 12.785 28.5 28.5-12.785 28.5-28.5 28.5z"/><path d="m285 279.5c0-24.537-19.962-44.5-44.5-44.5s-44.5 19.963-44.5 44.5 19.962 44.5 44.5 44.5 44.5-19.963 44.5-44.5zm-44.5 29.5c-16.267 0-29.5-13.233-29.5-29.5s13.233-29.5 29.5-29.5 29.5 13.233 29.5 29.5-13.233 29.5-29.5 29.5z"/><path d="m283 34c-25.089 0-45.5 20.411-45.5 45.5s20.411 45.5 45.5 45.5 45.5-20.411 45.5-45.5-20.411-45.5-45.5-45.5zm0 76c-16.818 0-30.5-13.683-30.5-30.5s13.682-30.5 30.5-30.5 30.5 13.683 30.5 30.5-13.682 30.5-30.5 30.5z"/><path d="m358.028 291.003c10.276-.145 20 3.76 27.36 10.942 2.219 2.165 4.167 4.58 5.791 7.179 2.194 3.513 6.82 4.582 10.334 2.387 3.513-2.194 4.581-6.821 2.386-10.334-2.257-3.614-4.961-6.968-8.036-9.968-10.228-9.979-23.723-15.417-38.02-15.205-14.289.175-27.655 5.904-37.635 16.132-20.603 21.113-20.187 55.052.926 75.655 10.069 9.823 23.307 15.209 37.348 15.209.224 0 .449-.001.673-.004 14.289-.175 27.655-5.904 37.635-16.132 6.795-6.964 11.561-15.628 13.781-25.055.95-4.032-1.549-8.07-5.581-9.02-4.031-.953-8.07 1.549-9.02 5.58-1.596 6.774-5.024 13.005-9.916 18.018-7.182 7.36-16.801 11.483-27.083 11.609-10.297.141-20-3.76-27.36-10.942-15.194-14.826-15.493-39.249-.667-54.442 7.183-7.36 16.802-11.483 27.084-11.609z"/><path d="m149.791 215.581c4.131.292 7.706-2.853 7.981-6.985 1.332-20.013-8.481-38.909-25.609-49.315-12.212-7.42-26.582-9.64-40.467-6.251-13.882 3.39-25.615 11.981-33.035 24.194s-9.641 26.584-6.251 40.467c3.389 13.883 11.981 25.614 24.194 33.034 8.655 5.259 18.278 7.842 27.841 7.842 12.693 0 25.28-4.552 35.348-13.441 3.105-2.741 3.399-7.481.658-10.586s-7.48-3.398-10.586-.658c-12.701 11.217-30.975 12.832-45.471 4.024-8.789-5.339-14.972-13.782-17.411-23.772-2.438-9.99-.841-20.332 4.499-29.12 5.34-8.789 13.782-14.973 23.773-17.411 9.992-2.438 20.333-.842 29.121 4.499 12.328 7.489 19.39 21.092 18.431 35.499-.277 4.131 2.85 7.705 6.984 7.98z"/><path d="m490.654 153.56c-4.238-9.713-9.081-19.179-14.528-28.329-2.119-3.561-6.722-4.729-10.281-2.608-3.559 2.118-4.727 6.722-2.608 10.28 4.352 7.311 8.293 14.837 11.827 22.537-8.101 8.027-19.009 12.56-30.564 12.56-23.986 0-43.5-19.514-43.5-43.5 0-16.959 9.87-32.251 24.97-39.361 6.152 6.132 12.019 12.62 17.555 19.469 2.604 3.221 7.327 3.719 10.547 1.118 3.221-2.604 3.722-7.326 1.118-10.548-48.895-60.487-121.497-95.178-199.19-95.178-68.38 0-132.667 26.629-181.02 74.98s-74.98 112.64-74.98 181.02c0 27.358 4.294 54.287 12.763 80.039 1.038 3.157 3.972 5.159 7.123 5.159.777 0 1.566-.121 2.344-.377 3.935-1.294 6.076-5.533 4.782-9.468-7.97-24.237-12.012-49.589-12.012-75.353 0-70.154 30.139-133.395 78.139-177.477 8.371 12.08 22.158 19.477 37.361 19.477 25.089 0 45.5-20.411 45.5-45.5 0-7.689-1.933-15.168-5.553-21.796 26.601-10.135 55.437-15.704 85.553-15.704 58.98 0 114.836 21.25 158.396 59.335-17.351 10.426-28.396 29.363-28.396 50.165 0 32.257 26.243 58.5 58.5 58.5 13.531 0 26.397-4.631 36.694-12.951 10.401 27.289 15.806 56.42 15.806 85.951 0 132.888-108.112 241-241 241-16.858 0-33.401-1.725-49.434-5.038 3.57-7.783 5.434-16.252 5.434-24.962 0-33.084-26.916-60-60-60-22.657 0-42.878 12.527-53.102 32.035-23.925-20.598-43.993-46.123-58.717-75.658-1.848-3.707-6.349-5.216-10.058-3.366-3.707 1.848-5.214 6.352-3.366 10.058 20.924 41.972 52.977 77.419 92.693 102.511 40.362 25.521 88.055 39.465 136.55 39.42 68.38 0 132.667-26.629 181.02-74.98s74.98-112.64 74.98-181.02c0-35.192-7.23-69.854-21.077-101.82-.08-.21-.17-.416-.269-.62zm-329.654-101.06c0 16.817-13.682 30.5-30.5 30.5-10.727 0-20.389-5.504-25.887-14.367 15.777-12.772 33.185-23.604 51.87-32.11 2.936 4.766 4.517 10.283 4.517 15.977zm-50.117 396.191c7.155-16.146 23.11-26.691 41.117-26.691 24.813 0 45 20.187 45 45 0 7.535-1.855 14.83-5.393 21.368-29.349-8.049-56.688-21.541-80.724-39.677z"/><path d="m4.704 43.61 15.792 7.896 7.895 15.79c1.449 2.901 4.365 4.704 7.609 4.704s6.16-1.803 7.61-4.703l7.895-15.79 15.793-7.897c2.9-1.452 4.702-4.367 4.702-7.61s-1.802-6.158-4.704-7.61l-15.792-7.896-7.894-15.791c-1.45-2.9-4.366-4.703-7.61-4.703s-6.16 1.803-7.61 4.703l-7.895 15.79-15.793 7.898c-2.9 1.451-4.702 4.366-4.702 7.609s1.802 6.158 4.704 7.61zm24.407-10.654c1.648-.816 3.009-2.172 3.832-3.817l3.057-6.115 3.057 6.114c.823 1.646 2.184 3.001 3.805 3.804l6.115 3.058-6.088 3.044c-1.648.816-3.009 2.172-3.832 3.817l-3.057 6.115-3.057-6.114c-.823-1.646-2.184-3.001-3.805-3.804l-6.115-3.058z"/><path d="m507.296 468.39-15.792-7.896-7.895-15.79c-1.45-2.9-4.366-4.703-7.61-4.703s-6.16 1.803-7.61 4.703l-7.895 15.79-15.793 7.897c-2.9 1.451-4.702 4.366-4.702 7.609s1.802 6.158 4.704 7.61l15.792 7.896 7.895 15.79c1.45 2.9 4.366 4.703 7.61 4.703s6.16-1.803 7.61-4.703l7.895-15.79 15.793-7.897c2.9-1.451 4.702-4.366 4.702-7.609s-1.802-6.158-4.704-7.61zm-24.407 10.654c-1.648.816-3.009 2.172-3.832 3.817l-3.057 6.115-3.057-6.114c-.823-1.646-2.184-3.001-3.805-3.804l-6.115-3.058 6.088-3.044c1.648-.816 3.009-2.172 3.832-3.817l3.057-6.114 3.057 6.114c.823 1.646 2.184 3.001 3.805 3.804l6.115 3.058z"/><path d="m42.5 474.5h-5v-5c0-4.143-3.358-7.5-7.5-7.5s-7.5 3.357-7.5 7.5v5h-5c-4.142 0-7.5 3.357-7.5 7.5s3.358 7.5 7.5 7.5h5v5c0 4.143 3.358 7.5 7.5 7.5s7.5-3.357 7.5-7.5v-5h5c4.142 0 7.5-3.357 7.5-7.5s-3.358-7.5-7.5-7.5z"/><path d="m439.5 27.5h5v5c0 4.143 3.358 7.5 7.5 7.5s7.5-3.357 7.5-7.5v-5h5c4.142 0 7.5-3.357 7.5-7.5s-3.358-7.5-7.5-7.5h-5v-5c0-4.143-3.358-7.5-7.5-7.5s-7.5 3.357-7.5 7.5v5h-5c-4.142 0-7.5 3.357-7.5 7.5s3.358 7.5 7.5 7.5z"/><path d="m479.5 83.5h5v5c0 4.143 3.358 7.5 7.5 7.5s7.5-3.357 7.5-7.5v-5h5c4.142 0 7.5-3.357 7.5-7.5s-3.358-7.5-7.5-7.5h-5v-5c0-4.143-3.358-7.5-7.5-7.5s-7.5 3.357-7.5 7.5v5h-5c-4.142 0-7.5 3.357-7.5 7.5s3.358 7.5 7.5 7.5z"/></g></svg>