<svg id="Capa_1" enable-background="new 0 0 512 512" height="512" viewBox="0 0 512 512" width="512" xmlns="http://www.w3.org/2000/svg"><g><path d="m123.467 31.566h9.066v9.067c0 4.143 3.357 7.5 7.5 7.5s7.5-3.357 7.5-7.5v-9.067h9.066c4.143 0 7.5-3.357 7.5-7.5s-3.357-7.5-7.5-7.5h-9.066v-9.066c0-4.143-3.357-7.5-7.5-7.5s-7.5 3.357-7.5 7.5v9.066h-9.066c-4.143 0-7.5 3.357-7.5 7.5s3.357 7.5 7.5 7.5z"/><path d="m388.533 480.434h-9.066v-9.067c0-4.143-3.357-7.5-7.5-7.5s-7.5 3.357-7.5 7.5v9.067h-9.067c-4.143 0-7.5 3.357-7.5 7.5s3.357 7.5 7.5 7.5h9.066v9.066c0 4.143 3.357 7.5 7.5 7.5s7.5-3.357 7.5-7.5v-9.066h9.066c4.143 0 7.5-3.357 7.5-7.5s-3.356-7.5-7.499-7.5z"/><path d="m322.267 362.9c13.271 0 24.066-10.797 24.066-24.067 0-13.271-10.796-24.066-24.066-24.066h-16.567c-13.271 0-24.066 10.796-24.066 24.066s10.796 24.067 24.066 24.067zm-25.633-24.067c0-4.999 4.067-9.066 9.066-9.066h16.566c4.999 0 9.066 4.067 9.066 9.066 0 5-4.067 9.067-9.066 9.067h-16.566c-4.999 0-9.066-4.067-9.066-9.067z"/><path d="m256 49.7c-49.344 0-97.096 17.697-134.459 49.832-3.141 2.701-3.496 7.437-.796 10.577s7.436 3.496 10.577.796c19.845-17.069 42.856-29.735 67.492-37.449-.001.104-.015.206-.015.311 0 13.271 10.796 24.066 24.066 24.066h82.835c11.387 0 20.945-7.951 23.431-18.592 21.203 8.805 40.489 21.318 57.051 36.726h-47.349c-13.271 0-24.066 10.796-24.066 24.066s10.796 24.066 24.066 24.066h16.105c5 0 9.067 4.067 9.067 9.067 0 4.999-4.067 9.066-9.067 9.066h-49.238c-13.271 0-24.066 10.796-24.066 24.066s10.796 24.066 24.066 24.066h49.7c4.999 0 9.066 4.067 9.066 9.067 0 4.999-4.067 9.066-9.066 9.066h-16.567c-13.271 0-24.066 10.796-24.066 24.066s10.796 24.067 24.066 24.067h104.109c-1.338 6.159-2.972 12.208-4.889 18.133h-49.52c-13.271 0-24.066 10.796-24.066 24.066s10.796 24.067 24.066 24.067h26.04c-15.624 23.102-36.163 42.617-60.098 57.047-4.29-3.694-9.782-5.781-15.642-5.781h-132.533c-11.411 0-20.985 7.984-23.446 18.658-21.194-8.752-40.597-21.239-57.302-36.792h80.748c13.27 0 24.066-10.796 24.066-24.066s-10.796-24.062-24.066-24.062h-66.267c-4.999 0-9.066-4.067-9.066-9.067 0-4.999 4.067-9.066 9.066-9.066h66.267c13.27 0 24.066-10.796 24.066-24.066s-10.796-24.066-24.066-24.066h-16.566c-4.999 0-9.066-4.067-9.066-9.067 0-4.999 4.067-9.066 9.066-9.066h49.7c13.271 0 24.066-10.796 24.066-24.066s-10.796-24.067-24.066-24.067h-16.567c-4.999 0-9.066-4.067-9.066-9.066s4.067-9.066 9.066-9.066h16.567c13.271 0 24.066-10.796 24.066-24.066 0-13.271-10.796-24.067-24.066-24.067h-142.079c4.151-6.159 8.667-12.1 13.55-17.777 2.7-3.141 2.345-7.876-.796-10.577-3.14-2.7-7.875-2.346-10.577.796-32.135 37.357-49.832 85.108-49.832 134.454 0 11.489.952 23.014 2.831 34.253.613 3.667 3.79 6.265 7.389 6.265.41 0 .827-.033 1.245-.104 4.086-.683 6.844-4.549 6.161-8.634-1.742-10.424-2.626-21.116-2.626-31.78 0-32.333 8.203-63.923 23.523-91.9h151.21c4.999 0 9.066 4.067 9.066 9.067 0 4.999-4.067 9.066-9.066 9.066h-16.567c-13.27 0-24.066 10.796-24.066 24.066s10.796 24.066 24.066 24.066h16.567c4.999 0 9.066 4.067 9.066 9.067 0 4.999-4.067 9.066-9.066 9.066h-49.7c-13.27 0-24.066 10.796-24.066 24.066s10.796 24.067 24.066 24.067h16.567c4.999 0 9.066 4.067 9.066 9.066s-4.067 9.066-9.066 9.066h-66.267c-13.271 0-24.066 10.796-24.066 24.066s10.796 24.067 24.066 24.067h66.267c4.999 0 9.066 4.067 9.066 9.066s-4.067 9.066-9.066 9.066h-95.197c-15.922-18.45-28.478-40.139-36.557-64.28-1.315-3.928-5.567-6.048-9.492-4.732-3.929 1.314-6.047 5.564-4.732 9.492 28.181 84.214 106.818 140.792 195.678 140.792 113.754 0 206.3-92.546 206.3-206.3s-92.546-206.3-206.3-206.3zm-58.766 388.393c.075-4.935 4.113-8.926 9.065-8.926h130.938c-24.672 11.621-52.207 18.133-81.237 18.133-20.3 0-40.022-3.19-58.613-9.157-.051-.016-.102-.034-.153-.05zm108.466-355.26h-82.834c-4.999 0-9.066-4.067-9.066-9.066 0-1.648.451-3.238 1.287-4.631 13.352-2.923 27.064-4.436 40.913-4.436 20.494 0 40.239 3.252 58.763 9.246-.096 4.917-4.124 8.887-9.063 8.887zm33.133 198.801c-4.999 0-9.066-4.067-9.066-9.067 0-4.999 4.067-9.066 9.066-9.066h16.567c13.271 0 24.066-10.796 24.066-24.066s-10.796-24.067-24.066-24.067h-49.7c-4.999 0-9.066-4.067-9.066-9.066s4.067-9.066 9.066-9.066h49.238c13.271 0 24.067-10.796 24.067-24.066 0-13.271-10.797-24.067-24.067-24.067h-16.105c-4.999 0-9.066-4.067-9.066-9.066s4.067-9.066 9.066-9.066h61.837c29.04 33.551 46.63 77.274 46.63 125.029 0 8.692-.594 17.246-1.723 25.634zm49.7 66.266c-4.999 0-9.066-4.067-9.066-9.067 0-4.999 4.067-9.066 9.066-9.066h43.965c-2.608 6.218-5.537 12.268-8.764 18.134h-35.201z"/><path d="m463.083 381.033c-4.143 0-7.5 3.357-7.5 7.5v16.567c0 4.143 3.357 7.5 7.5 7.5s7.5-3.357 7.5-7.5v-16.566c0-4.143-3.357-7.501-7.5-7.501z"/><path d="m463.083 447.3c-4.143 0-7.5 3.357-7.5 7.5v16.566c0 4.143 3.357 7.5 7.5 7.5s7.5-3.357 7.5-7.5v-16.566c0-4.143-3.357-7.5-7.5-7.5z"/><path d="m504.5 422.45h-16.566c-4.143 0-7.5 3.357-7.5 7.5s3.357 7.5 7.5 7.5h16.566c4.143 0 7.5-3.357 7.5-7.5s-3.357-7.5-7.5-7.5z"/><path d="m438.233 422.45h-16.566c-4.143 0-7.5 3.357-7.5 7.5s3.357 7.5 7.5 7.5h16.566c4.143 0 7.5-3.357 7.5-7.5s-3.357-7.5-7.5-7.5z"/><path d="m48.917 64.7c4.143 0 7.5-3.357 7.5-7.5v-16.566c0-4.143-3.357-7.5-7.5-7.5s-7.5 3.357-7.5 7.5v16.566c0 4.143 3.357 7.5 7.5 7.5z"/><path d="m56.417 123.467v-16.567c0-4.143-3.357-7.5-7.5-7.5s-7.5 3.357-7.5 7.5v16.566c0 4.143 3.357 7.5 7.5 7.5s7.5-3.357 7.5-7.499z"/><path d="m73.767 89.55h16.566c4.143 0 7.5-3.357 7.5-7.5s-3.357-7.5-7.5-7.5h-16.566c-4.143 0-7.5 3.357-7.5 7.5 0 4.142 3.357 7.5 7.5 7.5z"/><path d="m24.066 74.55h-16.566c-4.143 0-7.5 3.357-7.5 7.5s3.357 7.5 7.5 7.5h16.566c4.143 0 7.5-3.357 7.5-7.5s-3.357-7.5-7.5-7.5z"/></g></svg>