<?xml version="1.0" encoding="UTF-8" standalone="no"?>
<svg xmlns="http://www.w3.org/2000/svg" xmlns:xlink="http://www.w3.org/1999/xlink" xmlns:serif="http://www.serif.com/" width="100%" height="100%" viewBox="0 0 512 512" version="1.1" xml:space="preserve" style="fill-rule:evenodd;clip-rule:evenodd;stroke-linejoin:round;stroke-miterlimit:2;">
    <g>
        <path d="M95.099,232.499C93.842,236.434 96.014,240.644 99.949,241.902C100.706,242.143 101.472,242.258 102.227,242.258C105.393,242.258 108.335,240.23 109.351,237.051C121.14,200.145 146.276,169.28 180.128,150.143C183.723,148.109 184.991,143.546 182.958,139.948C180.925,136.353 176.36,135.083 172.764,137.118C135.622,158.118 108.04,191.991 95.099,232.499Z" style="fill-rule:nonzero;"/>
        <path d="M206.544,97.72C222.461,93.543 238.932,91.426 255.501,91.426C272.356,91.426 289.113,93.62 305.304,97.948C305.95,98.121 306.6,98.204 307.239,98.204C310.544,98.204 313.568,95.998 314.461,92.654C315.528,88.663 313.157,84.563 309.165,83.495C291.716,78.83 273.66,76.465 255.5,76.465C237.651,76.465 219.902,78.748 202.746,83.25C198.749,84.298 196.36,88.388 197.409,92.383C198.459,96.38 202.546,98.771 206.544,97.72Z" style="fill-rule:nonzero;"/>
        <path d="M201.267,364.847C205.399,364.847 208.747,361.499 208.747,357.367C208.747,353.235 205.399,349.886 201.267,349.886L117.039,349.886C107.123,329.196 102.098,306.978 102.098,283.773C102.098,278.222 102.41,272.547 103.028,266.907C103.477,262.799 100.512,259.107 96.405,258.657C92.294,258.189 88.605,261.173 88.155,265.28C87.479,271.459 87.137,277.682 87.137,283.773C87.137,306.486 91.795,329.108 100.65,349.886L74.826,349.886C67.082,328.744 63.154,306.53 63.154,283.773C63.154,220.387 94.397,161.08 146.73,125.127C150.135,122.787 150.999,118.13 148.66,114.725C146.321,111.32 141.663,110.456 138.258,112.795C81.863,151.54 48.193,215.457 48.193,283.772C48.193,306.456 51.822,328.644 58.973,349.885L8.057,349.885C3.925,349.885 0.576,353.234 0.576,357.366C0.576,361.498 3.925,364.846 8.057,364.846L201.267,364.846L201.267,364.847Z" style="fill-rule:nonzero;"/>
        <path d="M503.444,349.886L452.028,349.886C459.18,328.645 462.808,306.457 462.808,283.773C462.808,215.83 429.426,152.112 373.511,113.327C370.116,110.976 365.456,111.816 363.1,115.211C360.746,118.605 361.589,123.266 364.984,125.622C416.87,161.611 447.847,220.733 447.847,283.773C447.847,306.53 443.919,328.745 436.176,349.886L410.352,349.886C419.207,329.108 423.865,306.486 423.865,283.773C423.865,190.937 348.336,115.408 255.5,115.408C237.723,115.408 220.189,118.178 203.386,123.643C199.457,124.921 197.308,129.142 198.586,133.07C199.864,137 204.086,139.147 208.013,137.871C223.32,132.893 239.297,130.369 255.5,130.369C340.087,130.369 408.904,199.186 408.904,283.773C408.904,306.978 403.879,329.196 393.963,349.886L310.732,349.886C306.6,349.886 303.252,353.235 303.252,357.367C303.252,361.499 306.6,364.847 310.732,364.847L503.443,364.847C507.576,364.847 510.924,361.499 510.924,357.367C510.924,353.235 507.576,349.886 503.444,349.886Z" style="fill-rule:nonzero;"/>
        <path d="M196.531,393.553C196.531,389.42 193.183,386.072 189.05,386.072L74.234,386.072C70.101,386.072 66.753,389.42 66.753,393.553C66.753,397.685 70.101,401.033 74.234,401.033L189.05,401.033C193.183,401.033 196.531,397.684 196.531,393.553Z" style="fill-rule:nonzero;"/>
        <path d="M437.766,386.072L322.95,386.072C318.817,386.072 315.469,389.42 315.469,393.553C315.469,397.685 318.817,401.033 322.95,401.033L437.766,401.033C441.899,401.033 445.247,397.685 445.247,393.553C445.247,389.42 441.899,386.072 437.766,386.072Z" style="fill-rule:nonzero;"/>
        <path d="M334.284,435.583L177.217,435.583C173.085,435.583 169.737,438.931 169.737,443.064C169.737,447.196 173.085,450.544 177.217,450.544L334.285,450.544C338.417,450.544 341.766,447.196 341.766,443.064C341.766,438.931 338.416,435.583 334.284,435.583Z" style="fill-rule:nonzero;"/>
        <path d="M280.811,485.094L230.69,485.094C226.558,485.094 223.209,488.442 223.209,492.575C223.209,496.707 226.558,500.055 230.69,500.055L280.811,500.055C284.944,500.055 288.292,496.707 288.292,492.575C288.292,488.442 284.944,485.094 280.811,485.094Z" style="fill-rule:nonzero;"/>
        <path d="M202.948,325.697L223.708,325.697L223.708,387.135C223.708,394.521 229.717,400.531 237.104,400.531L274.897,400.531C282.283,400.531 288.293,394.522 288.293,387.135L288.293,325.697L308.055,325.697C313.703,325.697 318.617,322.484 320.882,317.311C323.147,312.138 322.175,306.348 318.344,302.199L298.184,280.36C295.382,277.325 290.649,277.135 287.614,279.937C284.578,282.739 284.389,287.471 287.191,290.507L305.865,310.737L280.811,310.737C276.679,310.737 273.331,314.086 273.331,318.218L273.331,385.57L238.669,385.57L238.669,318.218C238.669,314.086 235.321,310.737 231.189,310.737L205.138,310.737L255.501,256.177L265.551,267.063C268.355,270.1 273.088,270.288 276.122,267.486C279.158,264.683 279.346,259.951 276.544,256.916L265.79,245.265C263.148,242.402 259.398,240.76 255.502,240.76C251.606,240.76 247.856,242.401 245.214,245.265L192.661,302.199C188.83,306.348 187.859,312.139 190.123,317.311C192.387,322.485 197.3,325.697 202.948,325.697Z" style="fill-rule:nonzero;"/>
    </g>
</svg>
