<?xml version="1.0" encoding="UTF-8" standalone="no"?>
<!DOCTYPE svg PUBLIC "-//W3C//DTD SVG 1.1//EN" "http://www.w3.org/Graphics/SVG/1.1/DTD/svg11.dtd">
<svg width="100%" height="100%" viewBox="0 0 512 512" version="1.1" xmlns="http://www.w3.org/2000/svg" xmlns:xlink="http://www.w3.org/1999/xlink" xml:space="preserve" xmlns:serif="http://www.serif.com/" style="fill-rule:evenodd;clip-rule:evenodd;stroke-linejoin:round;stroke-miterlimit:2;">
    <g transform="matrix(1,0,0,1,-3060,-2448)">
        <g id="Alien" transform="matrix(1,0,0,1,3060,2448)">
            <rect x="0" y="0" width="512" height="512" style="fill:none;"/>
            <clipPath id="_clip1">
                <rect x="0" y="0" width="512" height="512"/>
            </clipPath>
            <g clip-path="url(#_clip1)">
                <path d="M369.404,48.71C378.212,48.71 385.363,55.861 385.363,64.669C385.363,73.477 378.212,80.628 369.404,80.628C360.596,80.628 353.445,73.477 353.445,64.669C353.445,55.861 360.596,48.71 369.404,48.71ZM142.602,48.71C151.41,48.71 158.561,55.861 158.561,64.669C158.561,73.477 151.41,80.628 142.602,80.628C133.794,80.628 126.643,73.477 126.643,64.669C126.643,55.861 133.794,48.71 142.602,48.71ZM303.934,301.134L208.07,301.134C205.577,301.134 203.224,302.278 201.683,304.236C200.141,306.196 199.586,308.753 200.174,311.175C207.055,339.511 230.011,359.301 256,359.301C281.987,359.301 304.945,339.511 311.828,311.175C312.416,308.753 311.861,306.195 310.32,304.236C308.779,302.277 306.427,301.134 303.934,301.134ZM256.001,343.054C240.644,343.054 226.672,332.897 219.465,317.384L292.537,317.384C285.33,332.896 271.357,343.054 256.001,343.054ZM450.015,271.135C443.079,266.819 434.877,265.463 426.921,267.318C418.966,269.171 412.209,274.014 407.896,280.95C403.581,287.886 402.226,296.088 404.081,304.042C405.934,311.997 410.776,318.755 417.711,323.067C438.161,335.789 450.369,357.735 450.369,381.772C450.369,419.855 419.387,450.839 381.305,450.839L372.526,450.839L372.526,271.429C372.526,224.602 344.754,184.144 304.821,165.642L337.801,121.054C347.154,126.318 357.931,129.334 369.406,129.334C405.064,129.334 434.073,100.324 434.073,64.667C434.073,29.009 405.061,0 369.403,0C333.745,0 304.737,29.01 304.737,64.667C304.737,83.015 312.431,99.591 324.748,111.373L289.018,159.68C278.545,156.581 267.465,154.908 256.001,154.908C244.53,154.908 233.444,156.583 222.966,159.685C222.887,159.565 222.813,159.442 222.727,159.324L187.256,111.372C199.573,99.59 207.268,83.014 207.268,64.665C207.266,29.01 178.257,0 142.599,0C106.941,0 77.932,29.01 77.932,64.667C77.932,100.324 106.941,129.334 142.598,129.334C154.073,129.334 164.85,126.316 174.203,121.054L207.185,165.64C167.251,184.141 139.479,224.599 139.479,271.428L139.479,450.838L130.701,450.838C92.618,450.838 61.633,419.855 61.633,381.771C61.633,357.733 73.842,335.788 94.291,323.067C101.227,318.753 106.069,311.996 107.923,304.041C109.777,296.086 108.42,287.884 104.107,280.949C99.792,274.012 93.035,269.171 85.081,267.317C77.123,265.462 68.923,266.82 61.987,271.133C23.469,295.094 0.474,336.454 0.474,381.771C0.474,453.58 58.895,512 130.704,512L326.409,512C330.897,512 334.533,508.362 334.533,503.876C334.533,499.389 330.896,495.752 326.409,495.752L130.704,495.752C67.854,495.752 16.723,444.621 16.723,381.772C16.723,342.107 36.853,305.906 70.572,284.932C73.824,282.91 77.67,282.274 81.395,283.144C85.123,284.013 88.289,286.281 90.311,289.533C92.333,292.784 92.969,296.627 92.101,300.355C91.233,304.083 88.964,307.249 85.712,309.27C60.461,324.977 45.386,352.082 45.386,381.773C45.386,428.816 83.659,467.088 130.703,467.088L147.605,467.088C152.093,467.088 155.729,463.45 155.729,458.964L155.729,271.428C155.729,216.138 200.71,171.157 256,171.157C311.292,171.157 356.274,216.138 356.274,271.428L356.274,458.962C356.274,463.449 359.91,467.086 364.398,467.086L381.301,467.086C428.343,467.086 466.614,428.813 466.614,381.771C466.614,352.08 451.539,324.977 426.288,309.268C423.037,307.247 420.769,304.08 419.901,300.353C419.033,296.625 419.667,292.781 421.689,289.53C423.71,286.279 426.877,284.01 430.604,283.142C434.335,282.272 438.177,282.909 441.428,284.932C475.146,305.905 495.276,342.108 495.276,381.772C495.276,444.621 444.146,495.752 381.299,495.752L355.192,495.752C350.704,495.752 347.068,499.39 347.068,503.876C347.068,508.363 350.704,512.001 355.192,512.001L381.299,512.001C453.106,512.001 511.525,453.581 511.525,381.772C511.529,336.453 488.534,295.094 450.015,271.135ZM320.986,64.667C320.986,37.969 342.706,16.248 369.403,16.248C396.101,16.248 417.822,37.968 417.822,64.667C417.822,91.366 396.102,113.086 369.403,113.086C342.706,113.087 320.986,91.365 320.986,64.667ZM142.599,113.086C115.902,113.087 94.182,91.366 94.182,64.667C94.182,37.968 115.902,16.248 142.599,16.248C169.297,16.248 191.017,37.968 191.017,64.667C191.017,91.366 169.297,113.086 142.599,113.086Z" style="fill:rgb(115,1,200);"/>
            </g>
        </g>
    </g>
</svg>
