<?xml version="1.0" encoding="UTF-8" standalone="no"?>
<!DOCTYPE svg PUBLIC "-//W3C//DTD SVG 1.1//EN" "http://www.w3.org/Graphics/SVG/1.1/DTD/svg11.dtd">
<svg width="100%" height="100%" viewBox="0 0 512 512" version="1.1" xmlns="http://www.w3.org/2000/svg" xmlns:xlink="http://www.w3.org/1999/xlink" xml:space="preserve" xmlns:serif="http://www.serif.com/" style="fill-rule:evenodd;clip-rule:evenodd;stroke-linejoin:round;stroke-miterlimit:2;">
    <g transform="matrix(1,0,0,1,-3060,0)">
        <g id="Blizzard" transform="matrix(1,0,0,1,3060,0)">
            <rect x="0" y="0" width="512" height="512" style="fill:none;"/>
            <path d="M465.277,231.559C459.156,183.352 417.863,146.469 368.574,146.469C364.637,146.469 360.727,146.711 356.859,147.176C346.133,126.309 330.109,108.617 310.305,95.859C288.805,82.016 263.867,74.695 238.188,74.695C229.23,74.695 220.301,75.59 211.586,77.352C205.859,68.051 198.777,59.527 190.48,52.102C187.395,49.34 182.652,49.605 179.891,52.691C177.129,55.777 177.391,60.52 180.48,63.281C201.523,82.109 213.59,109.09 213.59,137.297C213.59,166.148 201.063,193.535 179.215,212.43C176.078,215.141 175.734,219.875 178.445,223.008C179.93,224.723 182.02,225.602 184.121,225.602C185.859,225.602 187.605,225.004 189.023,223.777C214.172,202.031 228.59,170.508 228.59,137.297C228.59,121.289 225.211,105.637 218.887,91.273C225.242,90.23 231.703,89.695 238.188,89.695C260.98,89.695 283.109,96.188 302.18,108.473C318.574,119.027 332.047,133.391 341.512,150.293C331.594,153.156 322.145,157.59 313.488,163.531C310.07,165.875 309.203,170.543 311.547,173.961C313.891,177.375 318.563,178.242 321.977,175.898C335.734,166.457 351.848,161.465 368.574,161.465C412.113,161.465 448.277,195.477 450.906,238.891C451.141,242.75 454.27,245.801 458.137,245.934C479.93,246.684 497,264.355 497,286.172C497,308.379 478.934,326.445 456.723,326.445L285.035,326.445C255.648,326.445 231.742,302.539 231.742,273.152C231.742,244.129 255.355,220.23 284.379,219.879C287.473,219.84 290.227,217.906 291.313,215.012C293.676,208.703 296.852,202.652 300.75,197.031C303.109,193.625 302.266,188.953 298.859,186.594C295.453,184.23 290.781,185.082 288.422,188.484C284.777,193.742 281.66,199.324 279.137,205.129C244.293,208.148 216.742,237.66 216.742,273.152C216.742,294.691 226.773,313.922 242.398,326.445L114.891,326.445C82.176,326.445 55.563,299.832 55.563,267.117C55.563,257.297 57.973,247.746 62.551,239.188C78.098,247.113 95.684,251.59 114.297,251.59C129.621,251.59 144.504,248.602 158.527,242.711C162.348,241.105 164.141,236.711 162.539,232.891C160.934,229.074 156.535,227.277 152.719,228.883C140.543,233.996 127.617,236.59 114.297,236.59C59.543,236.59 15,192.047 15,137.297C15,82.543 59.543,38 114.297,38C128.238,38 141.727,40.836 154.383,46.43C158.172,48.105 162.602,46.391 164.273,42.602C165.949,38.813 164.234,34.387 160.445,32.711C145.867,26.266 130.34,23 114.297,23C51.273,23 0,74.273 0,137.297C0,176.344 19.688,210.875 49.652,231.5C43.695,242.387 40.563,254.578 40.563,267.121C40.563,308.105 73.906,341.445 114.891,341.445L456.723,341.445C487.203,341.445 512,316.648 512,286.172C512,258.48 491.957,235.648 465.277,231.559ZM419.566,234.086C419.984,236.27 420.266,238.508 420.398,240.734C420.641,244.715 423.941,247.781 427.879,247.781C428.027,247.781 428.184,247.777 428.336,247.77C432.473,247.52 435.621,243.965 435.371,239.832C435.195,236.961 434.836,234.074 434.297,231.258C433.516,227.191 429.586,224.527 425.516,225.305C421.449,226.086 418.785,230.016 419.566,234.086ZM401.98,185.973C398.391,183.898 393.809,185.129 391.734,188.715C389.664,192.305 390.895,196.891 394.48,198.961C402.266,203.457 408.789,209.918 413.348,217.645C414.746,220.016 417.246,221.332 419.813,221.332C421.109,221.332 422.422,220.996 423.617,220.289C427.184,218.184 428.371,213.586 426.266,210.02C420.395,200.07 412,191.758 401.98,185.973ZM440.59,358.16C435.926,358.16 431.598,360.48 429.016,364.371C413.598,387.609 413.598,395.543 413.598,398.148C413.598,413.031 425.707,425.141 440.594,425.141C455.477,425.141 467.586,413.031 467.586,398.148C467.586,395.543 467.586,387.605 452.168,364.371C449.586,360.48 445.258,358.156 440.59,358.16ZM440.594,410.141C433.98,410.141 428.598,404.762 428.598,398.148C428.598,395.98 431.156,388.512 440.594,374.066C450.031,388.512 452.586,395.98 452.586,398.148C452.586,404.762 447.203,410.141 440.594,410.141ZM379.629,398.148C379.629,395.539 379.629,387.605 364.211,364.371C361.629,360.48 357.301,358.156 352.633,358.156C347.969,358.156 343.641,360.48 341.059,364.371C325.641,387.605 325.641,395.539 325.641,398.148C325.641,413.031 337.75,425.141 352.633,425.141C367.52,425.141 379.629,413.031 379.629,398.148ZM352.633,410.141C346.02,410.141 340.641,404.762 340.641,398.148C340.641,395.98 343.195,388.512 352.633,374.066C362.07,388.512 364.629,395.98 364.629,398.148C364.629,404.762 359.246,410.141 352.633,410.141ZM396.613,422.176C391.945,422.176 387.617,424.496 385.035,428.387C369.621,451.621 369.621,459.555 369.621,462.164C369.621,477.047 381.73,489.156 396.613,489.156C411.496,489.156 423.605,477.047 423.605,462.164C423.605,459.555 423.605,451.621 408.188,428.387C405.609,424.496 401.281,422.176 396.613,422.176ZM396.613,474.156C390,474.156 384.621,468.777 384.621,462.164C384.621,459.996 387.176,452.527 396.613,438.082C406.051,452.527 408.605,459.996 408.605,462.164C408.605,468.777 403.227,474.156 396.613,474.156ZM308.656,422.176C303.988,422.176 299.66,424.496 297.078,428.387C281.66,451.621 281.66,459.555 281.66,462.164C281.66,477.047 293.77,489.156 308.652,489.156C323.539,489.156 335.648,477.047 335.648,462.164C335.648,459.555 335.648,451.621 320.23,428.387C317.648,424.496 313.32,422.176 308.656,422.176ZM308.652,474.156C302.043,474.156 296.66,468.777 296.66,462.164C296.66,459.996 299.219,452.527 308.652,438.082C318.094,452.527 320.648,459.996 320.648,462.164C320.648,468.777 315.27,474.156 308.652,474.156ZM158.855,90.754L157.598,102.281C155.258,100.508 151.992,100.199 149.293,101.762C146.211,103.551 144.883,107.195 145.891,110.461L137.922,115.047L138.574,109.066C138.898,106.113 137.445,103.25 134.875,101.762C132.305,100.273 129.102,100.441 126.699,102.195L121.801,105.77L121.801,96.633C125.148,95.883 127.652,92.895 127.652,89.32C127.652,86.223 125.773,83.563 123.094,82.418L132.445,75.594C135.789,73.152 136.523,68.461 134.082,65.117C131.641,61.77 126.949,61.035 123.605,63.477L121.762,64.824C121.367,61.051 118.18,58.105 114.301,58.105C110.422,58.105 107.23,61.051 106.844,64.828L104.992,63.48C101.645,61.039 96.953,61.77 94.512,65.117C92.07,68.465 92.805,73.156 96.148,75.598L105.504,82.422C102.82,83.563 100.941,86.223 100.941,89.32C100.941,92.902 103.449,95.891 106.801,96.637L106.801,105.777L101.895,102.195C99.492,100.445 96.285,100.277 93.715,101.766C91.145,103.254 89.695,106.117 90.016,109.07L90.672,115.051L82.699,110.465C83.711,107.199 82.383,103.551 79.297,101.766C76.602,100.203 73.332,100.512 70.996,102.285L69.738,90.758C69.289,86.641 65.586,83.66 61.469,84.113C57.352,84.563 54.375,88.266 54.824,92.383L55.066,94.609C51.598,93.051 47.441,94.344 45.5,97.715C43.574,101.063 44.523,105.277 47.574,107.508L45.535,108.402C41.742,110.07 40.02,114.492 41.688,118.285C42.922,121.098 45.672,122.77 48.559,122.77C49.566,122.77 50.59,122.566 51.57,122.133L62.234,117.449C61.879,120.344 63.238,123.305 65.922,124.855C67.105,125.543 68.398,125.867 69.672,125.867C71.734,125.867 73.742,125.004 75.18,123.445L83.129,128.02L77.629,130.434C74.906,131.633 73.148,134.324 73.148,137.301C73.148,140.273 74.906,142.969 77.629,144.164L83.129,146.582L75.191,151.152C72.863,148.621 69.016,147.949 65.922,149.742C63.238,151.297 61.879,154.258 62.234,157.152L51.57,152.465C47.777,150.801 43.355,152.523 41.688,156.316C40.02,160.105 41.742,164.531 45.535,166.199L47.574,167.098C44.523,169.324 43.574,173.539 45.5,176.891C46.891,179.301 49.414,180.648 52.008,180.648C53.039,180.648 54.082,180.426 55.07,179.98L54.824,182.219C54.379,186.336 57.352,190.035 61.469,190.484C61.746,190.516 62.02,190.531 62.289,190.531C66.066,190.531 69.32,187.684 69.738,183.844L70.996,172.313C72.309,173.309 73.91,173.848 75.547,173.848C76.82,173.848 78.113,173.52 79.297,172.836C82.383,171.047 83.711,167.402 82.699,164.137L90.672,159.551L90.016,165.531C89.695,168.484 91.145,171.348 93.715,172.836C94.883,173.512 96.18,173.844 97.473,173.844C99.031,173.844 100.582,173.359 101.895,172.402L106.801,168.824L106.801,177.965C103.449,178.711 100.941,181.699 100.941,185.277C100.941,188.379 102.82,191.035 105.504,192.18L96.152,199.004C92.805,201.445 92.07,206.137 94.512,209.48C96.953,212.828 101.645,213.563 104.992,211.121L106.844,209.77C107.23,213.547 110.422,216.492 114.305,216.492C118.184,216.492 121.371,213.551 121.762,209.773L123.605,211.121C124.938,212.094 126.484,212.563 128.02,212.563C130.332,212.563 132.617,211.496 134.086,209.48C136.523,206.137 135.793,201.445 132.445,199.004L123.094,192.18C125.773,191.035 127.652,188.379 127.652,185.277C127.652,181.703 125.148,178.719 121.801,177.965L121.801,168.828L126.699,172.406C129.098,174.156 132.305,174.324 134.879,172.84C137.449,171.352 138.898,168.484 138.578,165.531L137.926,159.555L145.895,164.141C144.883,167.406 146.215,171.051 149.297,172.836C150.48,173.523 151.773,173.848 153.051,173.848C154.684,173.848 156.285,173.313 157.598,172.313L158.855,183.844C159.273,187.688 162.523,190.531 166.305,190.531C166.574,190.531 166.848,190.516 167.125,190.488C171.242,190.039 174.219,186.336 173.77,182.219L173.523,179.98C174.512,180.426 175.551,180.652 176.582,180.652C179.18,180.652 181.703,179.301 183.09,176.891C185.02,173.539 184.07,169.324 181.016,167.098L183.059,166.199C186.852,164.531 188.574,160.109 186.906,156.316C185.242,152.523 180.816,150.805 177.023,152.469L166.359,157.152C166.715,154.258 165.355,151.301 162.676,149.742C159.578,147.949 155.73,148.625 153.402,151.152L145.465,146.586L150.965,144.168C153.688,142.973 155.445,140.277 155.445,137.301C155.445,134.328 153.688,131.633 150.965,130.438L145.465,128.02L153.414,123.445C154.852,125.008 156.859,125.871 158.922,125.871C160.195,125.871 161.488,125.547 162.676,124.859C165.355,123.305 166.715,120.344 166.359,117.449L177.023,122.137C178.004,122.566 179.027,122.773 180.035,122.773C182.922,122.773 185.672,121.098 186.906,118.285C188.574,114.496 186.852,110.07 183.059,108.402L181.02,107.508C184.07,105.281 185.02,101.066 183.09,97.719C181.152,94.348 176.996,93.055 173.527,94.613L173.77,92.387C174.219,88.27 171.242,84.566 167.125,84.117C163.004,83.66 159.305,86.637 158.855,90.754ZM118.719,148.004C118.695,147.988 118.668,147.977 118.645,147.961C118.359,147.758 118.059,147.574 117.746,147.41C117.691,147.383 117.637,147.359 117.582,147.332C117.285,147.188 116.98,147.059 116.664,146.953C116.633,146.941 116.602,146.93 116.57,146.918C116.25,146.816 115.922,146.742 115.586,146.684C115.492,146.668 115.402,146.656 115.309,146.645C115.012,146.602 114.707,146.574 114.398,146.57C114.363,146.57 114.328,146.563 114.297,146.563C114.258,146.563 114.219,146.57 114.184,146.574C113.883,146.578 113.59,146.602 113.301,146.641C113.195,146.656 113.094,146.672 112.992,146.688C112.672,146.746 112.352,146.816 112.047,146.914C111.984,146.934 111.926,146.961 111.863,146.98C111.59,147.074 111.324,147.184 111.066,147.309C110.984,147.348 110.898,147.387 110.816,147.43C110.531,147.578 110.258,147.75 109.992,147.934C109.957,147.961 109.914,147.98 109.879,148.008L106.77,150.273L107.184,146.496C107.188,146.461 107.184,146.426 107.188,146.391C107.219,146.051 107.23,145.711 107.215,145.367C107.215,145.293 107.203,145.223 107.199,145.148C107.18,144.832 107.137,144.516 107.074,144.199C107.066,144.16 107.063,144.117 107.055,144.078C106.98,143.754 106.883,143.43 106.766,143.113C106.73,143.023 106.699,142.938 106.664,142.852C106.543,142.559 106.406,142.27 106.246,141.984C106.219,141.938 106.191,141.891 106.16,141.844C106.004,141.578 105.832,141.328 105.648,141.094C105.59,141.02 105.531,140.945 105.469,140.871C105.254,140.613 105.027,140.371 104.785,140.148C104.742,140.109 104.695,140.074 104.652,140.035C104.422,139.836 104.18,139.652 103.93,139.48C103.867,139.438 103.805,139.395 103.742,139.352C103.457,139.172 103.16,139.016 102.855,138.875C102.816,138.855 102.785,138.832 102.746,138.816L99.289,137.297L102.746,135.777C102.816,135.746 102.879,135.703 102.949,135.668C103.191,135.555 103.426,135.43 103.652,135.289C103.762,135.223 103.867,135.152 103.973,135.078C104.176,134.941 104.371,134.789 104.563,134.629C104.656,134.547 104.754,134.469 104.848,134.383C105.031,134.207 105.207,134.02 105.375,133.824C105.449,133.738 105.531,133.66 105.602,133.57C105.793,133.328 105.965,133.07 106.129,132.801C106.16,132.75 106.199,132.703 106.23,132.652C106.402,132.352 106.543,132.043 106.668,131.73C106.699,131.652 106.73,131.574 106.762,131.492C106.883,131.172 106.984,130.844 107.055,130.512C107.063,130.477 107.066,130.441 107.074,130.406C107.137,130.086 107.18,129.766 107.199,129.441C107.207,129.371 107.215,129.305 107.215,129.23C107.23,128.891 107.219,128.547 107.188,128.207C107.184,128.172 107.188,128.137 107.184,128.098L106.77,124.32L109.879,126.59C109.906,126.609 109.938,126.621 109.969,126.645C110.246,126.844 110.539,127.02 110.844,127.18C110.902,127.211 110.965,127.238 111.027,127.27C111.316,127.41 111.617,127.535 111.93,127.641C111.965,127.648 111.992,127.664 112.023,127.676C112.352,127.777 112.688,127.855 113.031,127.914C113.105,127.926 113.184,127.938 113.262,127.949C113.598,127.996 113.941,128.027 114.297,128.027L114.301,128.027C114.66,128.027 115.008,127.992 115.352,127.945C115.418,127.938 115.484,127.926 115.551,127.914C115.91,127.855 116.258,127.777 116.594,127.668C116.598,127.668 116.598,127.668 116.602,127.664C116.957,127.551 117.297,127.406 117.625,127.242C117.66,127.227 117.691,127.215 117.727,127.195C118.055,127.027 118.371,126.832 118.672,126.617C118.688,126.605 118.703,126.598 118.719,126.586L121.824,124.32L121.414,128.098C121.41,128.125 121.414,128.148 121.41,128.176C121.375,128.535 121.363,128.895 121.383,129.262C121.383,129.305 121.387,129.348 121.391,129.395C121.414,129.758 121.457,130.117 121.535,130.477L121.535,130.488C121.613,130.84 121.719,131.184 121.848,131.523C121.867,131.586 121.891,131.641 121.914,131.699C122.043,132.023 122.188,132.344 122.367,132.656C122.559,132.988 122.773,133.293 123.008,133.586C123.059,133.652 123.121,133.715 123.18,133.777C123.363,133.996 123.559,134.203 123.762,134.395C123.844,134.473 123.93,134.539 124.012,134.609C124.215,134.781 124.422,134.945 124.641,135.094C124.734,135.16 124.828,135.223 124.93,135.281C125.168,135.43 125.418,135.563 125.672,135.684C125.734,135.711 125.789,135.754 125.852,135.781L129.309,137.297L125.852,138.816C125.82,138.828 125.797,138.852 125.762,138.863C125.445,139.008 125.137,139.172 124.84,139.363C124.789,139.395 124.746,139.426 124.699,139.457C124.422,139.645 124.156,139.844 123.906,140.066C123.879,140.09 123.852,140.109 123.824,140.133C123.57,140.367 123.332,140.621 123.109,140.891C123.063,140.949 123.016,141.008 122.969,141.066C122.762,141.332 122.563,141.609 122.391,141.91C122.387,141.918 122.379,141.926 122.375,141.934C122.371,141.938 122.371,141.941 122.367,141.941C122.191,142.25 122.047,142.566 121.918,142.883C121.895,142.949 121.867,143.016 121.844,143.082C121.719,143.418 121.613,143.758 121.539,144.102C121.535,144.109 121.535,144.117 121.535,144.129C121.461,144.484 121.414,144.84 121.391,145.199C121.391,145.246 121.383,145.289 121.383,145.336C121.363,145.699 121.375,146.063 121.41,146.422C121.414,146.449 121.41,146.473 121.414,146.496L121.824,150.273L118.719,148.004ZM280.797,359.895L280.758,359.895C276.633,359.895 273.277,363.23 273.258,367.359L273.246,370.223C273.227,374.363 276.566,377.738 280.711,377.758L280.746,377.758C284.871,377.758 288.227,374.426 288.246,370.297L288.258,367.434C288.277,363.289 284.938,359.914 280.797,359.895ZM288.156,399.438L288.168,396.574C288.188,392.434 284.848,389.059 280.703,389.039L280.668,389.039C276.543,389.039 273.188,392.371 273.168,396.504L273.156,399.367C273.137,403.508 276.477,406.883 280.617,406.902L280.656,406.902C284.781,406.902 288.137,403.566 288.156,399.438ZM293.84,390.938L296.707,390.949L296.746,390.949C300.871,390.949 304.223,387.617 304.242,383.488C304.266,379.344 300.922,375.973 296.781,375.949L293.91,375.938L293.875,375.938C289.75,375.938 286.395,379.27 286.375,383.402C286.355,387.543 289.695,390.918 293.84,390.938ZM267.574,375.859L264.707,375.848L264.672,375.848C260.547,375.848 257.191,379.18 257.172,383.313C257.152,387.453 260.492,390.828 264.637,390.848L267.504,390.859L267.539,390.859C271.664,390.859 275.02,387.527 275.039,383.398C275.059,379.254 271.719,375.883 267.574,375.859ZM108.441,386.012L108.477,386.012C112.602,386.012 115.957,382.676 115.977,378.547L115.988,375.684C116.012,371.543 112.668,368.168 108.527,368.148C104.34,368.121 101.008,371.469 100.988,375.613L100.977,378.477C100.957,382.617 104.301,385.992 108.441,386.012ZM115.898,404.828C115.922,400.684 112.578,397.313 108.438,397.289L108.398,397.289C104.273,397.289 100.922,400.625 100.898,404.754L100.887,407.617C100.867,411.762 104.207,415.133 108.352,415.152L108.387,415.152C112.512,415.152 115.867,411.82 115.887,407.691L115.898,404.828ZM124.512,384.203L121.645,384.188L121.605,384.188C117.48,384.188 114.129,387.523 114.105,391.652C114.086,395.797 117.43,399.168 121.57,399.188L124.441,399.203L124.477,399.203C128.602,399.203 131.957,395.867 131.977,391.738C131.996,387.598 128.652,384.223 124.512,384.203ZM95.309,384.113L92.438,384.098L92.402,384.098C88.277,384.098 84.922,387.434 84.902,391.563C84.883,395.703 88.227,399.078 92.367,399.098L95.234,399.113L95.273,399.113C99.398,399.113 102.754,395.777 102.773,391.648C102.789,387.508 99.449,384.133 95.309,384.113ZM158.063,360.809L157.926,360.809C153.801,360.809 150.445,364.145 150.426,368.273C150.406,372.414 153.746,375.789 157.891,375.809L158.027,375.809C162.152,375.809 165.508,372.477 165.527,368.348C165.547,364.203 162.203,360.828 158.063,360.809ZM187.793,386.332L187.691,386.332C183.551,386.332 180.191,389.691 180.191,393.832C180.191,397.977 183.551,401.332 187.691,401.332L187.793,401.332C191.938,401.332 195.293,397.977 195.293,393.832C195.293,389.691 191.938,386.332 187.793,386.332ZM121.746,435.52L121.609,435.52C117.484,435.52 114.129,438.852 114.109,442.98C114.09,447.125 117.43,450.496 121.574,450.52L121.711,450.52C125.836,450.52 129.191,447.184 129.211,443.055C129.23,438.91 125.891,435.539 121.746,435.52ZM52.09,337.246L51.949,337.246C47.824,337.246 44.473,340.578 44.449,344.707C44.43,348.852 47.773,352.227 51.914,352.246L52.055,352.246C56.18,352.246 59.531,348.91 59.551,344.781C59.57,340.641 56.23,337.266 52.09,337.246ZM419.719,110.914L419.859,110.914C423.984,110.914 427.336,107.582 427.355,103.453C427.379,99.309 424.035,95.934 419.895,95.914L419.754,95.914C415.629,95.914 412.277,99.25 412.258,103.379C412.234,107.52 415.578,110.895 419.719,110.914ZM382.586,132.41L382.727,132.41C386.852,132.41 390.203,129.078 390.223,124.949C390.242,120.805 386.902,117.43 382.762,117.41L382.621,117.41C378.496,117.41 375.145,120.746 375.121,124.875C375.105,129.016 378.445,132.391 382.586,132.41ZM209.766,441.367L209.664,441.367C205.523,441.367 202.164,444.723 202.164,448.867C202.164,453.008 205.523,456.367 209.664,456.367L209.766,456.367C213.91,456.367 217.266,453.008 217.266,448.867C217.266,444.723 213.91,441.367 209.766,441.367ZM228.234,362.758L228.133,362.758C223.988,362.758 220.633,366.117 220.633,370.258C220.633,374.402 223.988,377.758 228.133,377.758L228.234,377.758C232.379,377.758 235.734,374.402 235.734,370.258C235.734,366.117 232.379,362.758 228.234,362.758ZM341.152,40.863L341.188,40.863C345.313,40.863 348.668,37.527 348.688,33.398L348.703,30.535C348.723,26.395 345.379,23.02 341.238,23L341.199,23C337.074,23 333.723,26.336 333.703,30.465L333.687,33.328C333.668,37.469 337.012,40.844 341.152,40.863ZM341.148,52.141L341.109,52.141C336.984,52.141 333.633,55.477 333.613,59.605L333.598,62.469C333.578,66.609 336.922,69.984 341.063,70.004L341.098,70.004C345.223,70.004 348.578,66.672 348.598,62.539L348.613,59.68C348.633,55.535 345.289,52.16 341.148,52.141ZM354.281,54.039L357.148,54.055L357.188,54.055C361.313,54.055 364.664,50.723 364.688,46.59C364.707,42.449 361.363,39.074 357.223,39.055L354.355,39.039L354.316,39.039C350.191,39.039 346.84,42.375 346.816,46.504C346.801,50.648 350.141,54.02 354.281,54.039ZM325.078,53.949L327.945,53.965L327.984,53.965C332.109,53.965 335.461,50.633 335.48,46.5C335.504,42.359 332.16,38.984 328.02,38.965L325.148,38.949L325.113,38.949C320.988,38.949 317.633,42.285 317.613,46.414C317.594,50.559 320.938,53.93 325.078,53.949Z" style="fill:rgb(115,1,200);fill-rule:nonzero;"/>
        </g>
    </g>
</svg>
