<?xml version="1.0" encoding="UTF-8" standalone="no"?>
<!DOCTYPE svg PUBLIC "-//W3C//DTD SVG 1.1//EN" "http://www.w3.org/Graphics/SVG/1.1/DTD/svg11.dtd">
<svg width="100%" height="100%" viewBox="0 0 512 512" version="1.1" xmlns="http://www.w3.org/2000/svg" xmlns:xlink="http://www.w3.org/1999/xlink" xml:space="preserve" xmlns:serif="http://www.serif.com/" style="fill-rule:evenodd;clip-rule:evenodd;stroke-linejoin:round;stroke-miterlimit:2;">
    <g transform="matrix(1,0,0,1,-1836,-612)">
        <g id="Cloudy-Night" serif:id="Cloudy Night" transform="matrix(1,0,0,1,1836,612)">
            <rect x="0" y="0" width="512" height="512" style="fill:none;"/>
            <path d="M488.702,335.746C475.918,322.549 459.259,314.327 441.224,312.194C433.567,240.288 372.522,184.872 299.462,184.872C286.807,184.872 274.331,186.553 262.3,189.792C263.715,181.707 264.444,173.477 264.444,165.2C264.444,157.913 263.867,150.525 262.733,143.243C262.097,139.161 258.261,136.365 254.183,137.001C250.101,137.64 247.302,141.469 247.942,145.551C248.959,152.073 249.474,158.681 249.474,165.2C249.474,175.399 248.25,185.512 245.86,195.313C237.634,198.654 229.696,202.759 222.16,207.629C200.963,221.332 183.844,240.315 172.421,262.701C168.168,262.174 163.864,261.898 159.524,261.898C133.493,261.898 109.556,271.539 91.216,287.512C60.031,279.391 32.515,259.067 15.489,231.484C14.444,229.796 15.193,228.401 15.735,227.722C16.269,227.044 17.446,226.007 19.314,226.631C32.604,231.087 46.515,233.352 60.659,233.364L60.788,233.364C95.548,233.364 128.281,219.792 152.955,195.141C177.661,170.463 191.263,137.699 191.263,102.884C191.263,88.697 188.998,74.74 184.53,61.406C183.906,59.543 184.943,58.365 185.618,57.831C186.3,57.289 187.692,56.541 189.388,57.586C211.852,71.453 229.17,91.605 239.47,115.866C241.084,119.672 245.482,121.445 249.283,119.831C253.088,118.213 254.866,113.82 253.248,110.015C241.731,82.888 222.37,60.354 197.251,44.845C190.643,40.767 182.425,41.258 176.316,46.1C170.222,50.935 167.875,58.81 170.339,66.163C174.292,77.96 176.296,90.315 176.296,102.884C176.296,133.695 164.25,162.697 142.374,184.549C120.526,206.377 91.556,218.393 60.788,218.393L60.674,218.393C48.148,218.381 35.832,216.377 24.07,212.436C16.717,209.972 8.842,212.319 4.008,218.416C-0.838,224.525 -1.329,232.74 2.752,239.348C20.304,267.789 47.836,289.328 79.372,299.636C67.029,314.518 58.733,332.907 56.246,353.157C27.676,357.328 6.16,381.691 6.16,411.274C6.16,443.675 32.519,470.034 64.92,470.034L80.058,470.034C84.191,470.034 87.544,466.681 87.544,462.549C87.544,458.416 84.191,455.063 80.058,455.063L64.916,455.063C40.772,455.063 21.127,435.418 21.127,411.274C21.127,387.555 39.688,368.338 63.384,367.523C67.244,367.391 70.366,364.346 70.6,360.494C73.439,313.601 112.499,276.868 159.524,276.868C196.476,276.868 230.012,300.112 242.979,334.705C244.059,337.594 246.807,339.523 249.895,339.562C259.517,339.679 269.021,342.213 277.384,346.9C280.986,348.919 285.552,347.636 287.571,344.03C289.595,340.424 288.308,335.859 284.702,333.839C275.637,328.763 265.509,325.683 255.138,324.829C247.548,307.176 235.29,292.058 219.454,280.88C209.715,274.007 199.018,268.939 187.743,265.773C197.922,247.356 212.499,231.707 230.289,220.206C250.893,206.884 274.811,199.843 299.462,199.843C366.819,199.843 422.764,252.455 426.827,319.621C427.06,323.473 430.183,326.518 434.043,326.65C450.725,327.223 466.316,334.155 477.949,346.163C489.61,358.202 496.031,374.061 496.031,390.826C496.031,426.249 467.216,455.063 431.793,455.063L293.314,455.063C310.686,441.761 321.918,420.822 321.918,397.305C321.918,383.718 318.129,370.455 310.967,358.943C308.78,355.434 304.164,354.362 300.655,356.545C297.146,358.728 296.07,363.344 298.257,366.853C303.942,375.987 306.947,386.518 306.947,397.305C306.947,429.153 281.033,455.063 249.185,455.063L112.651,455.063C108.519,455.063 105.166,458.416 105.166,462.549C105.166,466.685 108.519,470.034 112.651,470.034L431.793,470.034C475.47,470.034 510.998,434.502 510.998,390.826C510.998,370.151 503.08,350.592 488.702,335.746ZM398.538,311.028C399.115,311.028 399.704,310.958 400.292,310.818C404.312,309.855 406.788,305.812 405.825,301.792C404.37,295.75 402.382,289.792 399.914,284.081C398.269,280.288 393.867,278.541 390.07,280.186C386.277,281.827 384.53,286.233 386.172,290.026C388.304,294.946 390.016,300.085 391.267,305.289C392.09,308.72 395.154,311.028 398.538,311.028ZM367.614,262.139C369.084,263.672 371.049,264.44 373.014,264.44C374.881,264.44 376.745,263.75 378.195,262.354C381.177,259.492 381.275,254.755 378.413,251.773C357.548,230.03 329.509,218.058 299.462,218.058C295.326,218.058 291.977,221.41 291.977,225.543C291.977,229.679 295.326,233.028 299.462,233.028C325.392,233.028 349.595,243.367 367.614,262.139ZM449.696,207.406L449.735,207.406C453.852,207.406 457.201,204.077 457.22,199.956L457.236,197.024C457.255,192.892 453.922,189.523 449.786,189.5L449.747,189.5C445.634,189.5 442.285,192.829 442.265,196.95L442.25,199.882C442.23,204.015 445.563,207.383 449.696,207.406ZM449.692,219.344L449.657,219.344C445.54,219.344 442.191,222.673 442.172,226.794L442.156,229.726C442.136,233.863 445.474,237.227 449.606,237.247L449.641,237.247C453.758,237.247 457.107,233.921 457.127,229.796L457.142,226.865C457.162,222.732 453.825,219.364 449.692,219.344ZM463.142,220.9L466.082,220.915L466.117,220.915C470.238,220.915 473.583,217.586 473.602,213.465C473.622,209.328 470.285,205.964 466.152,205.944L463.213,205.929L463.177,205.929C459.06,205.929 455.712,209.258 455.692,213.379C455.673,217.512 459.01,220.88 463.142,220.9ZM433.271,205.835C429.154,205.835 425.809,209.165 425.79,213.286C425.77,217.422 429.103,220.787 433.24,220.806L436.175,220.822L436.211,220.822C440.331,220.822 443.676,217.492 443.696,213.371C443.715,209.235 440.378,205.87 436.246,205.851L433.31,205.835L433.271,205.835ZM409.47,154.903L409.505,154.903C413.622,154.903 416.967,151.574 416.99,147.453L417.002,144.521C417.021,140.385 413.684,137.02 409.552,137.001L409.517,137.001C405.4,137.001 402.051,140.326 402.031,144.451L402.016,147.383C401.996,151.516 405.333,154.884 409.47,154.903ZM409.458,166.841C405.287,166.841 401.957,170.159 401.938,174.291L401.926,177.223C401.906,181.36 405.24,184.724 409.376,184.744L409.411,184.744C413.528,184.744 416.877,181.418 416.897,177.293L416.908,174.362C416.928,170.229 413.591,166.861 409.458,166.841ZM422.912,168.397L425.848,168.412L425.887,168.412C430.004,168.412 433.349,165.083 433.368,160.962C433.388,156.826 430.055,153.461 425.922,153.442L422.982,153.426L422.947,153.426C418.83,153.426 415.482,156.751 415.462,160.876C415.443,165.009 418.78,168.377 422.912,168.397ZM393.006,168.303L395.942,168.319L395.981,168.319C400.098,168.319 403.446,164.989 403.466,160.868C403.485,156.736 400.148,153.367 396.016,153.348L393.076,153.332L393.041,153.332C388.924,153.332 385.575,156.662 385.556,160.783C385.536,164.919 388.873,168.284 393.006,168.303ZM278.706,59.82L278.741,59.82C282.858,59.82 286.203,56.49 286.226,52.369L286.238,49.438C286.257,45.301 282.92,41.937 278.788,41.917L278.752,41.917C274.636,41.917 271.287,45.247 271.267,49.367L271.251,52.299C271.236,56.432 274.569,59.8 278.706,59.82ZM278.694,71.757L278.659,71.757C274.542,71.757 271.193,75.087 271.174,79.211L271.162,82.143C271.142,86.276 274.476,89.644 278.612,89.664L278.647,89.664C282.764,89.664 286.113,86.334 286.133,82.213L286.144,79.278C286.164,75.145 282.83,71.781 278.694,71.757ZM292.148,73.313L295.084,73.328L295.123,73.328C299.24,73.328 302.585,69.999 302.608,65.878C302.628,61.746 299.29,58.377 295.158,58.358L292.218,58.342C288.066,58.358 284.717,61.656 284.698,65.792C284.678,69.925 288.016,73.293 292.148,73.313ZM262.242,73.223L265.181,73.235L265.216,73.235C269.333,73.235 272.682,69.909 272.702,65.785C272.721,61.652 269.384,58.284 265.251,58.264L262.312,58.252L262.277,58.252C258.16,58.252 254.811,61.582 254.791,65.703C254.772,69.835 258.109,73.204 262.242,73.223ZM53.092,162.638L53.127,162.638C57.244,162.638 60.589,159.309 60.612,155.188L60.624,152.256C60.643,148.124 57.306,144.755 53.173,144.736L53.138,144.736C49.021,144.736 45.673,148.065 45.653,152.186L45.641,155.118C45.622,159.25 48.955,162.619 53.092,162.638ZM53.084,174.58L53.045,174.58C48.932,174.58 45.583,177.905 45.563,182.026L45.548,184.958C45.524,189.091 48.862,192.459 52.994,192.482L53.033,192.482C57.15,192.482 60.499,189.157 60.519,185.036L60.534,182.1C60.554,177.968 57.22,174.599 53.084,174.58ZM66.534,176.135L69.474,176.147L69.509,176.147C73.626,176.147 76.971,172.818 76.994,168.697C77.014,164.564 73.676,161.196 69.544,161.176L66.604,161.161L66.569,161.161C62.452,161.161 59.103,164.49 59.084,168.615C59.064,172.748 62.402,176.112 66.534,176.135ZM36.628,176.042L39.567,176.054L39.602,176.054C43.719,176.054 47.068,172.728 47.088,168.603C47.107,164.471 43.77,161.102 39.637,161.083L36.698,161.071L36.663,161.071C32.546,161.071 29.197,164.397 29.177,168.521C29.158,172.654 32.495,176.022 36.628,176.042Z" style="fill:rgb(115,1,200);fill-rule:nonzero;"/>
        </g>
    </g>
</svg>
