<?xml version="1.0" encoding="UTF-8" standalone="no"?>
<!DOCTYPE svg PUBLIC "-//W3C//DTD SVG 1.1//EN" "http://www.w3.org/Graphics/SVG/1.1/DTD/svg11.dtd">
<svg width="100%" height="100%" viewBox="0 0 512 512" version="1.1" xmlns="http://www.w3.org/2000/svg" xmlns:xlink="http://www.w3.org/1999/xlink" xml:space="preserve" xmlns:serif="http://www.serif.com/" style="fill-rule:evenodd;clip-rule:evenodd;stroke-linejoin:round;stroke-miterlimit:2;">
    <g transform="matrix(1,0,0,1,-3060,-612)">
        <g id="Cloudy" transform="matrix(1,0,0,1,3060,612)">
            <rect x="0" y="0" width="512" height="512" style="fill:none;"/>
            <clipPath id="_clip1">
                <rect x="0" y="0" width="512" height="512"/>
            </clipPath>
            <g clip-path="url(#_clip1)">
                <path d="M187.558,85.798C191.698,85.798 195.058,82.438 195.058,78.298L195.058,53.501C195.058,49.36 191.698,46.001 187.558,46.001C183.417,46.001 180.058,49.36 180.058,53.501L180.058,78.298C180.058,82.438 183.417,85.798 187.558,85.798ZM103.429,102.848C104.82,105.254 107.339,106.598 109.933,106.598C111.207,106.598 112.496,106.274 113.675,105.59C117.265,103.52 118.492,98.934 116.421,95.348L104.023,73.876C101.953,70.286 97.367,69.055 93.781,71.13C90.191,73.2 88.964,77.786 91.035,81.376L103.429,102.848ZM27.875,150.024L49.347,162.422C50.527,163.106 51.816,163.426 53.09,163.426C55.679,163.426 58.203,162.082 59.59,159.676C61.664,156.09 60.433,151.504 56.847,149.43L35.375,137.036C31.785,134.961 27.199,136.192 25.129,139.782C23.059,143.368 24.285,147.954 27.875,150.024ZM39.797,233.559C39.797,229.418 36.437,226.059 32.297,226.059L7.5,226.059C3.359,226.059 0,229.418 0,233.559C0,237.699 3.359,241.059 7.5,241.059L32.297,241.059C36.437,241.059 39.797,237.699 39.797,233.559ZM322.026,163.426C323.296,163.426 324.589,163.106 325.768,162.422L347.241,150.024C350.827,147.954 352.057,143.368 349.987,139.782C347.917,136.192 343.327,134.961 339.741,137.036L318.268,149.43C314.682,151.504 313.452,156.09 315.522,159.676C316.913,162.082 319.432,163.426 322.026,163.426ZM59.59,307.441C57.519,303.851 52.933,302.621 49.347,304.695L27.875,317.09C24.285,319.164 23.059,323.75 25.129,327.336C26.516,329.742 29.039,331.086 31.629,331.086C32.902,331.086 34.191,330.761 35.375,330.082L56.847,317.683C60.433,315.613 61.664,311.027 59.59,307.441ZM261.44,105.59C262.62,106.274 263.909,106.598 265.183,106.598C267.772,106.598 270.296,105.254 271.683,102.848L284.081,81.376C286.151,77.786 284.921,73.2 281.335,71.13C277.749,69.055 273.163,70.286 271.089,73.876L258.694,95.348C256.62,98.934 257.851,103.52 261.44,105.59ZM491.182,340.75C479.354,328.543 463.971,320.894 447.303,318.82C439.979,252.133 383.284,200.809 315.46,200.809C312.237,200.809 309.022,200.926 305.827,201.156C301.44,185.16 293.733,169.989 283.327,156.993C280.741,153.758 276.018,153.239 272.788,155.825C269.554,158.414 269.03,163.133 271.616,166.368C280.315,177.231 286.862,189.824 290.792,203.117C274.1,206.262 258.14,212.578 243.733,221.86C224.034,234.543 208.101,252.133 197.433,272.887C193.609,272.418 189.73,272.168 185.82,272.168C155.421,272.168 128.089,286.281 110.25,308.426C90.668,288.262 79.937,261.871 79.937,233.559C79.937,174.215 128.214,125.938 187.554,125.938C209.819,125.938 231.187,132.684 249.347,145.442C252.737,147.825 257.413,147.004 259.796,143.618C262.175,140.227 261.358,135.551 257.972,133.168C237.273,118.626 212.925,110.938 187.554,110.938C119.945,110.938 64.937,165.946 64.937,233.559C64.937,266.352 78.289,298.082 101.644,321.039C95.464,331.812 91.273,343.882 89.632,356.781C63.101,360.859 43.172,383.57 43.172,411.117C43.172,441.445 67.847,466.116 98.175,466.116L354.67,466.116C358.811,466.116 362.17,462.761 362.17,458.616C362.17,454.476 358.811,451.116 354.67,451.116L311.397,451.116C326.889,438.656 336.831,419.558 336.831,398.171C336.831,386.238 333.674,374.488 327.706,364.183C325.632,360.597 321.042,359.375 317.456,361.453C313.874,363.527 312.651,368.117 314.725,371.699C319.374,379.722 321.831,388.878 321.831,398.171C321.831,427.367 298.077,451.116 268.886,451.116L98.175,451.116C76.117,451.116 58.176,433.171 58.176,411.117C58.176,389.449 75.129,371.894 96.777,371.152C100.64,371.019 103.769,367.968 104.003,364.109C106.617,320.965 142.554,287.168 185.82,287.168C219.816,287.168 250.675,308.551 262.604,340.379C263.69,343.277 266.444,345.211 269.538,345.246C278.167,345.351 286.71,347.582 294.245,351.703C297.882,353.691 302.436,352.355 304.425,348.722C306.413,345.089 305.077,340.531 301.444,338.543C293.241,334.058 284.112,331.316 274.784,330.5C263.175,303.836 240.093,284.023 212.761,276.043C222.171,259.238 235.562,244.965 251.858,234.469C270.811,222.262 292.807,215.809 315.464,215.809C377.561,215.809 429.139,264.316 432.889,326.242C433.123,330.101 436.252,333.152 440.119,333.285C472.014,334.379 496.998,360.25 496.998,392.175C496.998,424.675 470.557,451.12 438.053,451.12L387.334,451.12C383.19,451.12 379.834,454.476 379.834,458.62C379.834,462.761 383.19,466.12 387.334,466.12L438.053,466.12C478.826,466.12 512.002,432.949 512.002,392.175C511.998,372.871 504.603,354.613 491.182,340.75ZM407.245,318.812C407.827,318.812 408.416,318.746 409.002,318.605C413.03,317.636 415.51,313.586 414.545,309.558C413.19,303.93 411.338,298.379 409.037,293.058C407.393,289.258 402.975,287.512 399.174,289.156C395.373,290.801 393.627,295.215 395.272,299.015C397.229,303.543 398.807,308.269 399.959,313.066C400.787,316.504 403.858,318.812 407.245,318.812ZM388.791,273.562C391.78,270.695 391.877,265.949 389.01,262.961C369.569,242.707 343.448,231.555 315.46,231.555C311.319,231.555 307.96,234.91 307.96,239.055C307.96,243.195 311.319,246.555 315.46,246.555C339.327,246.555 361.604,256.07 378.19,273.348C379.663,274.883 381.627,275.652 383.6,275.652C385.467,275.652 387.338,274.961 388.791,273.562Z" style="fill:rgb(115,1,200);fill-rule:nonzero;"/>
            </g>
        </g>
    </g>
</svg>
