<?xml version="1.0" encoding="UTF-8" standalone="no"?>
<!DOCTYPE svg PUBLIC "-//W3C//DTD SVG 1.1//EN" "http://www.w3.org/Graphics/SVG/1.1/DTD/svg11.dtd">
<svg width="100%" height="100%" viewBox="0 0 512 512" version="1.1" xmlns="http://www.w3.org/2000/svg" xmlns:xlink="http://www.w3.org/1999/xlink" xml:space="preserve" xmlns:serif="http://www.serif.com/" style="fill-rule:evenodd;clip-rule:evenodd;stroke-linejoin:round;stroke-miterlimit:2;">
    <g transform="matrix(1,0,0,1,-2448,-2448)">
        <g id="Dark-Mode" serif:id="Dark Mode" transform="matrix(1,0,0,1,2448,2448)">
            <rect x="0" y="0" width="512" height="512" style="fill:none;"/>
            <path d="M256,97.834C260.143,97.834 263.5,94.476 263.5,90.334L263.5,7.5C263.5,3.358 260.143,0 256,0C251.858,0 248.5,3.358 248.5,7.5L248.5,90.334C248.5,94.476 251.858,97.834 256,97.834ZM133.553,144.159C135.017,145.623 136.937,146.356 138.856,146.356C140.775,146.356 142.695,145.624 144.159,144.159C147.088,141.23 147.088,136.481 144.159,133.553L85.587,74.981C82.658,72.052 77.909,72.052 74.981,74.981C72.052,77.91 72.052,82.659 74.981,85.587L133.553,144.159ZM97.833,256C97.833,251.858 94.475,248.5 90.333,248.5L7.5,248.5C3.358,248.5 0,251.858 0,256C0,260.142 3.358,263.5 7.5,263.5L90.333,263.5C94.476,263.5 97.833,260.142 97.833,256ZM133.553,367.841L74.981,426.413C72.052,429.342 72.052,434.091 74.981,437.019C76.445,438.483 78.365,439.216 80.284,439.216C82.203,439.216 84.123,438.484 85.587,437.019L144.159,378.447C147.088,375.518 147.088,370.769 144.159,367.84C141.23,364.912 136.481,364.912 133.553,367.841ZM256,414.167C251.858,414.167 248.5,417.525 248.5,421.667L248.5,504.5C248.5,508.642 251.858,512 256,512C260.143,512 263.5,508.642 263.5,504.5L263.5,421.667C263.5,417.524 260.143,414.167 256,414.167ZM185.673,105.814C186.87,108.702 189.662,110.446 192.605,110.446C193.561,110.446 194.534,110.262 195.472,109.873C199.299,108.288 201.116,103.9 199.531,100.074L183.681,61.81C182.095,57.983 177.708,56.167 173.882,57.751C170.055,59.336 168.238,63.724 169.823,67.55L185.673,105.814ZM61.81,183.682L100.074,199.532C101.012,199.921 101.985,200.105 102.941,200.105C105.884,200.105 108.677,198.361 109.873,195.473C111.458,191.646 109.641,187.259 105.814,185.674L67.55,169.824C63.724,168.239 59.336,170.056 57.751,173.883C56.166,177.709 57.983,182.096 61.81,183.682ZM109.873,316.528C108.288,312.702 103.901,310.885 100.074,312.469L61.81,328.319C57.983,329.904 56.166,334.292 57.751,338.118C58.947,341.006 61.74,342.75 64.683,342.75C65.639,342.75 66.612,342.566 67.55,342.177L105.814,326.327C109.641,324.742 111.458,320.354 109.873,316.528ZM195.472,402.127C191.645,400.541 187.258,402.359 185.673,406.186L169.823,444.45C168.238,448.277 170.055,452.664 173.882,454.249C174.82,454.638 175.793,454.822 176.749,454.822C179.692,454.822 182.485,453.078 183.681,450.19L199.531,411.926C201.116,408.1 199.299,403.712 195.472,402.127ZM355.4,198.8C342.13,198.8 331.333,209.596 331.333,222.867C331.333,236.137 342.13,246.933 355.4,246.933C368.671,246.933 379.466,236.137 379.466,222.867C379.467,209.596 368.671,198.8 355.4,198.8ZM355.4,231.933C350.4,231.933 346.333,227.866 346.333,222.867C346.333,217.868 350.4,213.8 355.4,213.8C360.399,213.8 364.466,217.867 364.466,222.867C364.467,227.866 360.399,231.933 355.4,231.933ZM305.7,140.817C287.862,140.817 273.349,155.329 273.349,173.167C273.349,191.005 287.862,205.517 305.7,205.517C323.538,205.517 338.05,191.005 338.05,173.167C338.05,155.329 323.538,140.817 305.7,140.817ZM305.7,190.517C296.133,190.517 288.349,182.734 288.349,173.167C288.349,163.601 296.132,155.817 305.7,155.817C315.266,155.817 323.05,163.6 323.05,173.167C323.05,182.733 315.267,190.517 305.7,190.517ZM272.566,215.367C250.161,215.367 231.933,233.595 231.933,256C231.933,278.405 250.161,296.633 272.566,296.633C276.855,296.633 281.081,295.966 285.127,294.652C289.066,293.373 291.223,289.141 289.942,285.202C288.663,281.262 284.428,279.108 280.492,280.386C277.945,281.214 275.279,281.633 272.566,281.633C258.432,281.633 246.933,270.134 246.933,256C246.933,241.866 258.433,230.367 272.566,230.367C286.701,230.367 298.2,241.866 298.2,256C298.2,258.736 297.772,261.426 296.929,263.996C295.639,267.932 297.783,272.169 301.719,273.46C305.652,274.75 309.891,272.606 311.183,268.671C312.521,264.59 313.2,260.327 313.2,256.001C313.2,233.595 294.972,215.367 272.566,215.367ZM512,256C512,215.794 496.779,177.572 469.143,148.374C464.631,143.606 457.32,142.751 451.76,146.341C448.624,148.366 444.976,149.313 441.202,149.061C432.732,148.51 425.806,141.719 425.09,133.264C424.935,131.434 425.061,129.616 425.464,127.862C426.945,121.429 423.64,114.861 417.604,112.246C415.902,111.509 414.188,110.814 412.467,110.14L437.02,85.587C439.949,82.658 439.949,77.909 437.02,74.981C434.09,72.052 429.342,72.052 426.413,74.981L396.532,104.863C383.601,101.346 370.249,99.509 356.623,99.405C356.214,99.402 355.808,99.401 355.4,99.401C346.117,99.401 336.954,100.217 327.988,101.804L342.176,67.551C343.762,63.724 341.944,59.337 338.117,57.752C334.294,56.169 329.904,57.984 328.318,61.811L312.468,100.075C311.732,101.851 311.737,103.745 312.328,105.427C301.48,108.534 291.014,112.818 281.082,118.217C272.847,116.729 264.425,115.969 255.999,115.969C223.967,115.969 193.82,126.496 168.816,146.412C165.576,148.993 165.042,153.711 167.623,156.951C169.104,158.81 171.289,159.779 173.494,159.779C175.132,159.779 176.781,159.245 178.162,158.145C200.482,140.367 227.398,130.969 255.999,130.969C257.727,130.969 259.454,131.013 261.18,131.084C255.643,135.288 250.337,139.877 245.309,144.857C215.401,174.477 198.884,213.835 198.799,255.681C198.735,287.679 208.259,318.468 226.342,344.721C235.968,358.695 247.659,370.868 260.957,380.929C259.305,380.994 257.652,381.036 255.998,381.036C187.055,381.036 130.965,324.946 130.965,256.003C130.965,227.402 140.362,200.486 158.141,178.166C160.722,174.926 160.187,170.208 156.948,167.627C153.708,165.047 148.99,165.581 146.409,168.82C126.493,193.823 115.966,223.971 115.966,256.003C115.966,333.217 178.785,396.036 255.999,396.036C264.387,396.036 272.774,395.282 280.974,393.807C286.262,396.662 291.726,399.231 297.358,401.481C303.491,403.93 310.478,401.729 313.979,396.245C314.957,394.714 316.626,393.864 318.443,393.976C320.59,394.106 322.53,395.814 322.953,397.944C322.994,398.15 323.021,398.35 323.036,398.549C323.163,400.26 323.586,401.875 324.25,403.348C322.174,401.587 319.214,401.016 316.526,402.13C312.699,403.715 310.881,408.103 312.467,411.929L328.317,450.193C329.513,453.081 332.305,454.825 335.249,454.825C336.205,454.825 337.178,454.641 338.116,454.252C341.943,452.667 343.761,448.279 342.175,444.453L326.665,407.009C328.767,409.289 331.637,410.838 334.922,411.268C341.683,412.154 348.572,412.603 355.399,412.603C369.62,412.603 383.4,410.686 396.506,407.117L426.411,437.022C427.876,438.486 429.796,439.219 431.715,439.219C433.634,439.219 435.554,438.487 437.019,437.022C439.948,434.093 439.948,429.344 437.019,426.416L412.447,401.844C470.67,378.987 512,322.231 512,256ZM355.4,397.6C349.57,397.6 343.691,397.238 337.907,396.524C337.847,396.025 337.766,395.523 337.668,395.022C335.901,386.135 328.37,379.546 319.353,379C312.545,378.594 305.994,381.699 302.012,387.181C248.275,365.303 213.683,313.806 213.801,255.709C213.877,217.886 228.816,182.302 255.866,155.513C282.662,128.974 317.971,114.4 355.403,114.4C355.77,114.4 356.14,114.401 356.507,114.404C375.282,114.548 393.482,118.304 410.618,125.572C410.048,128.508 409.888,131.516 410.142,134.531C411.479,150.319 424.413,163.001 440.228,164.03C446.881,164.461 453.354,162.897 459.008,159.496C483.517,185.79 497,220.016 497,256C497,334.079 433.478,397.6 355.4,397.6Z" style="fill:white;fill-rule:nonzero;"/>
        </g>
    </g>
</svg>
