<?xml version="1.0" encoding="UTF-8" standalone="no"?>
<!DOCTYPE svg PUBLIC "-//W3C//DTD SVG 1.1//EN" "http://www.w3.org/Graphics/SVG/1.1/DTD/svg11.dtd">
<svg width="100%" height="100%" viewBox="0 0 512 512" version="1.1" xmlns="http://www.w3.org/2000/svg" xmlns:xlink="http://www.w3.org/1999/xlink" xml:space="preserve" xmlns:serif="http://www.serif.com/" style="fill-rule:evenodd;clip-rule:evenodd;stroke-linejoin:round;stroke-miterlimit:2;">
    <g transform="matrix(1,0,0,1,-3672,-1224)">
        <g id="First-Quarter" serif:id="First Quarter" transform="matrix(1,0,0,1,3672,1224)">
            <rect x="0" y="0" width="512" height="512" style="fill:none;"/>
            <clipPath id="_clip1">
                <rect x="0" y="0" width="512" height="512"/>
            </clipPath>
            <g clip-path="url(#_clip1)">
                <path d="M388.533,31.566L379.467,31.566L379.467,40.633C379.467,44.776 376.109,48.133 371.967,48.133C367.825,48.133 364.467,44.776 364.467,40.633L364.467,31.566L355.4,31.566C351.258,31.566 347.9,28.209 347.9,24.066C347.9,19.923 351.258,16.566 355.4,16.566L364.467,16.566L364.467,7.5C364.467,3.357 367.825,-0 371.967,-0C376.109,-0 379.467,3.357 379.467,7.5L379.467,16.566L388.533,16.566C392.675,16.566 396.033,19.923 396.033,24.066C396.033,28.209 392.675,31.566 388.533,31.566ZM123.467,480.434L132.533,480.434L132.533,471.367C132.533,467.224 135.89,463.867 140.033,463.867C144.176,463.867 147.533,467.224 147.533,471.367L147.533,480.434L156.6,480.434C160.743,480.434 164.1,483.791 164.1,487.934C164.1,492.077 160.743,495.434 156.6,495.434L147.534,495.434L147.534,504.5C147.534,508.643 144.177,512 140.034,512C135.891,512 132.534,508.643 132.534,504.5L132.534,495.434L123.468,495.434C119.325,495.434 115.968,492.077 115.968,487.934C115.968,483.791 119.324,480.434 123.467,480.434ZM329.767,231.15C329.767,244.42 318.971,255.216 305.701,255.216C292.43,255.216 281.634,244.42 281.634,231.15C281.634,217.879 292.43,207.083 305.701,207.083C318.971,207.083 329.767,217.88 329.767,231.15ZM305.7,222.083C300.701,222.083 296.633,226.15 296.633,231.15C296.633,236.149 300.7,240.216 305.7,240.216C310.699,240.216 314.766,236.149 314.766,231.15C314.767,226.15 310.699,222.083 305.7,222.083ZM338.834,115.967C361.239,115.967 379.467,134.195 379.467,156.6C379.467,179.005 361.239,197.234 338.834,197.234C316.429,197.234 298.2,179.005 298.2,156.6C298.2,134.195 316.428,115.967 338.834,115.967ZM338.834,182.233C352.968,182.233 364.467,170.734 364.467,156.599C364.467,142.465 352.968,130.966 338.834,130.966C324.7,130.966 313.201,142.465 313.201,156.599C313.2,170.734 324.699,182.233 338.834,182.233ZM429.167,251.858C429.167,276.548 409.081,296.633 384.392,296.633C380.463,296.633 376.561,296.122 372.795,295.114C368.794,294.044 366.418,289.931 367.489,285.93C368.56,281.928 372.673,279.553 376.673,280.623C379.174,281.292 381.771,281.632 384.392,281.632C400.81,281.632 414.167,268.275 414.167,251.857C414.167,235.439 400.81,222.082 384.392,222.082C367.974,222.082 354.617,235.439 354.617,251.857C354.617,256.834 355.867,261.754 358.23,266.088C360.214,269.725 358.874,274.28 355.237,276.264C351.598,278.248 347.045,276.908 345.062,273.272C341.5,266.741 339.617,259.336 339.617,251.857C339.617,227.168 359.703,207.082 384.392,207.082C409.081,207.082 429.167,227.169 429.167,251.858ZM106.159,114.218C111.349,108.736 119.762,107.754 126.164,111.889C130.799,114.882 136.191,116.276 141.761,115.91C154.277,115.096 164.514,105.059 165.572,92.564C165.801,89.864 165.614,87.18 165.018,84.588C163.314,77.186 167.115,69.63 174.055,66.622C199.468,55.61 226.497,49.918 254.39,49.705C254.915,49.701 255.434,49.699 255.959,49.699C305.164,49.699 352.823,67.418 390.31,99.683C393.45,102.385 393.804,107.121 391.102,110.26C388.399,113.4 383.664,113.754 380.525,111.052C347.679,82.78 306.434,66.555 263.5,64.852L263.5,447.136C269.366,446.907 275.235,446.426 281.027,445.668C281.509,445.606 281.676,445.072 281.698,444.768C281.77,443.792 281.904,442.81 282.095,441.85C284.229,431.114 293.325,423.155 304.215,422.495C312.94,421.971 321.279,426.211 325.979,433.574C326.104,433.771 326.502,433.876 326.897,433.719C400.198,404.45 447.459,334.537 447.3,255.605C447.209,210.16 430.748,166.076 400.95,131.474C398.247,128.334 398.6,123.599 401.739,120.896C404.878,118.194 409.614,118.547 412.316,121.685C444.45,159 462.201,206.55 462.3,255.576C462.385,297.729 449.838,338.29 426.017,372.872C402.756,406.64 370.405,432.498 332.46,447.648C325.4,450.468 317.355,447.943 313.334,441.644C311.535,438.825 308.462,437.27 305.123,437.467C301.098,437.711 297.6,440.784 296.807,444.777C296.735,445.139 296.685,445.508 296.658,445.874C296.093,453.527 290.468,459.559 282.977,460.542C274.069,461.708 264.992,462.3 256,462.3C142.246,462.3 49.7,369.754 49.7,256C49.7,203.034 69.751,152.682 106.159,114.218ZM72.498,310.084L243.493,446.88C245.157,446.988 246.826,447.074 248.5,447.139L248.5,427.663L66.481,282.048C67.792,291.637 69.816,300.999 72.498,310.084ZM186.078,77.897L248.5,127.836L248.5,104.613L206.639,71.124C199.679,72.98 192.822,75.244 186.078,77.897ZM85.069,170.025L248.5,300.77L248.5,254.728L104.348,139.406C96.923,149.038 90.479,159.289 85.069,170.025ZM64.7,256C64.7,257.834 64.732,259.66 64.784,261.481L248.5,408.454L248.5,362.411L68.42,218.347C65.967,230.635 64.7,243.234 64.7,256ZM72.348,202.28L248.5,343.202L248.5,319.979L78.672,184.117C76.263,190.058 74.146,196.117 72.348,202.28ZM248.5,85.403L248.5,64.854C240.787,65.149 233.15,65.89 225.61,67.091L248.5,85.403ZM118.026,124.489C117.695,124.276 117.278,124.293 117.053,124.53C116.005,125.637 114.973,126.754 113.954,127.882L248.5,235.519L248.5,212.297L146.243,130.491C145.087,130.67 143.917,130.802 142.733,130.879C133.934,131.446 125.386,129.243 118.026,124.489ZM162.392,124.2L248.5,193.087L248.5,147.045L180.591,92.717C180.57,93.088 180.55,93.459 180.518,93.83C179.448,106.466 172.458,117.51 162.392,124.2ZM214.254,442.699L83.075,337.755C108.013,390.289 156.194,429.725 214.254,442.699ZM48.917,381.033C53.06,381.033 56.417,384.39 56.417,388.533L56.417,405.1C56.417,409.243 53.06,412.6 48.917,412.6C44.774,412.6 41.417,409.243 41.417,405.1L41.417,388.534C41.417,384.391 44.774,381.033 48.917,381.033ZM48.917,447.3C53.06,447.3 56.417,450.657 56.417,454.8L56.417,471.366C56.417,475.509 53.06,478.866 48.917,478.866C44.774,478.866 41.417,475.509 41.417,471.366L41.417,454.8C41.417,450.657 44.774,447.3 48.917,447.3ZM7.5,422.45L24.066,422.45C28.209,422.45 31.566,425.807 31.566,429.95C31.566,434.093 28.209,437.45 24.066,437.45L7.5,437.45C3.357,437.45 0,434.093 0,429.95C0,425.807 3.357,422.45 7.5,422.45ZM73.767,422.45L90.333,422.45C94.476,422.45 97.833,425.807 97.833,429.95C97.833,434.093 94.476,437.45 90.333,437.45L73.767,437.45C69.624,437.45 66.267,434.093 66.267,429.95C66.267,425.807 69.624,422.45 73.767,422.45ZM463.084,64.7C458.942,64.7 455.584,61.343 455.584,57.2L455.584,40.634C455.584,36.491 458.942,33.134 463.084,33.134C467.226,33.134 470.584,36.491 470.584,40.634L470.584,57.2C470.584,61.343 467.226,64.7 463.084,64.7ZM455.584,123.467L455.584,106.9C455.584,102.757 458.942,99.4 463.084,99.4C467.226,99.4 470.584,102.757 470.584,106.9L470.584,123.466C470.584,127.609 467.226,130.966 463.084,130.966C458.942,130.966 455.584,127.609 455.584,123.467ZM438.233,89.55L421.666,89.55C417.524,89.55 414.166,86.193 414.166,82.05C414.166,77.907 417.524,74.55 421.666,74.55L438.233,74.55C442.375,74.55 445.733,77.907 445.733,82.05C445.733,86.192 442.376,89.55 438.233,89.55ZM487.933,74.55L504.5,74.55C508.642,74.55 512,77.907 512,82.05C512,86.193 508.642,89.55 504.5,89.55L487.933,89.55C483.791,89.55 480.433,86.193 480.433,82.05C480.433,77.907 483.791,74.55 487.933,74.55Z" style="fill:rgb(236,12,198);fill-rule:nonzero;"/>
            </g>
        </g>
    </g>
</svg>
