<?xml version="1.0" encoding="UTF-8" standalone="no"?>
<!DOCTYPE svg PUBLIC "-//W3C//DTD SVG 1.1//EN" "http://www.w3.org/Graphics/SVG/1.1/DTD/svg11.dtd">
<svg width="100%" height="100%" viewBox="0 0 512 512" version="1.1" xmlns="http://www.w3.org/2000/svg" xmlns:xlink="http://www.w3.org/1999/xlink" xml:space="preserve" xmlns:serif="http://www.serif.com/" style="fill-rule:evenodd;clip-rule:evenodd;stroke-linejoin:round;stroke-miterlimit:2;">
    <g transform="matrix(1,0,0,1,-2448,0)">
        <g id="Fog" transform="matrix(1,0,0,1,2448,0)">
            <rect x="0" y="0" width="512" height="512" style="fill:none;"/>
            <g id="Fog1" serif:id="Fog" transform="matrix(1,0,0,1,-2448,0)">
                <path d="M2865.78,187.672C2821.29,193.137 2762.3,196.145 2699.68,196.145L2698.93,196.145C2694.79,196.145 2691.43,199.504 2691.43,203.645C2691.43,207.789 2694.79,211.145 2698.93,211.145L2699.68,211.145C2762.89,211.145 2822.53,208.098 2867.61,202.563C2871.72,202.055 2874.64,198.313 2874.14,194.203C2873.64,190.09 2869.88,187.172 2865.78,187.672ZM2909.3,180.395C2904.41,181.531 2898.95,182.637 2893.04,183.672C2888.96,184.391 2886.23,188.277 2886.95,192.359C2887.59,196 2890.76,198.563 2894.33,198.563C2894.76,198.563 2895.2,198.523 2895.64,198.445C2901.81,197.359 2907.55,196.203 2912.7,195.004C2916.73,194.063 2919.24,190.027 2918.3,185.996C2917.36,181.961 2913.33,179.457 2909.3,180.395ZM2613.84,171.648C2613.66,175.785 2616.86,179.289 2621,179.473C2646.01,180.57 2672.23,181.137 2698.94,181.145L2699.68,181.145C2761.59,181.145 2819.83,178.188 2863.71,172.813C2929.15,164.801 2938.18,154.84 2938.18,145.27C2938.18,136.922 2931.48,128.207 2884.94,120.66C2885.95,116.996 2886.46,113.199 2886.46,109.383C2886.47,97.777 2881.88,86.867 2873.55,78.668C2865.25,70.504 2854.22,66.004 2842.5,66L2842.48,66C2828.28,66 2815.03,72.848 2806.85,83.953C2801.95,81.656 2796.54,80.434 2791.07,80.43L2791.05,80.43C2773.07,80.43 2758.06,93.219 2754.87,110.063C2742.66,109.688 2730.09,109.434 2717.4,109.309L2717.33,109.309C2713.22,109.309 2709.87,112.617 2709.83,116.73C2709.79,120.875 2713.11,124.266 2717.25,124.309C2732.32,124.457 2747.2,124.785 2761.51,125.285C2763.58,125.348 2765.61,124.527 2767.08,123.059C2768.55,121.586 2769.34,119.531 2769.27,117.453C2769.26,117.215 2769.25,116.973 2769.25,116.734C2769.25,104.984 2779.03,95.43 2791.05,95.43L2791.06,95.43C2796.09,95.434 2800.82,97.066 2804.74,100.16C2806.53,101.574 2808.88,102.098 2811.1,101.574C2813.32,101.051 2815.19,99.543 2816.17,97.477C2820.9,87.465 2831.23,81 2842.48,81L2842.49,81C2850.26,81.004 2857.55,83.973 2863.02,89.359C2868.47,94.715 2871.47,101.824 2871.46,109.379C2871.46,114.133 2870.23,118.84 2867.91,122.984C2866.7,125.141 2866.63,127.758 2867.72,129.973C2868.82,132.191 2870.94,133.727 2873.39,134.078C2903.91,138.434 2916.14,142.848 2920.88,145.266C2915.24,148.145 2898.99,153.836 2853.97,158.852C2811.69,163.559 2756.93,166.145 2699.67,166.145L2698.95,166.145C2672.45,166.137 2646.45,165.578 2621.66,164.484C2617.52,164.309 2614.02,167.512 2613.84,171.648ZM2499.34,167.227C2521.02,171.613 2551.73,175.223 2588.17,177.664C2588.34,177.676 2588.51,177.68 2588.68,177.68C2592.59,177.68 2595.89,174.645 2596.15,170.684C2596.43,166.551 2593.3,162.977 2589.17,162.699C2556.76,160.527 2528.75,157.398 2508.17,153.648C2489.37,150.223 2480.81,147.016 2477.03,145.086C2483.09,141.984 2501.39,135.637 2554.46,130.406C2558.54,130.004 2561.55,126.398 2561.2,122.313C2561.16,121.773 2561.13,121.305 2561.13,120.875C2561.14,111.449 2568.99,103.785 2578.65,103.785L2578.66,103.785C2587.83,103.789 2595.5,110.781 2596.12,119.707C2596.4,123.797 2599.92,126.891 2604.01,126.676C2629.49,125.27 2656.64,124.457 2684.73,124.258C2688.87,124.23 2692.2,120.848 2692.17,116.703C2692.14,112.578 2688.79,109.258 2684.67,109.258L2684.62,109.258C2658.68,109.441 2633.5,110.148 2609.69,111.355C2605.55,98.25 2593.11,88.793 2578.66,88.785L2578.65,88.785C2562.35,88.785 2548.82,100.684 2546.49,116.141C2522.4,118.695 2503.04,121.777 2488.88,125.328C2474.47,128.938 2459.74,134.109 2459.73,145.086C2459.73,155.117 2471.2,161.531 2499.34,167.227ZM2929.77,289.832C2915.35,286.277 2894.99,283.102 2870.58,280.57L2870.58,280.141C2870.58,255.672 2850.67,235.762 2826.2,235.762C2812.47,235.762 2799.75,242.051 2791.41,252.586C2787.11,250.512 2782.36,249.41 2777.51,249.41C2762.35,249.41 2749.61,259.977 2746.27,274.133C2739.07,274.047 2731.84,274.004 2724.68,274.004C2719.55,274.004 2714.3,274.027 2709.02,274.074C2703.67,263.348 2692.56,256.25 2680.27,256.25C2678.81,256.25 2677.36,256.348 2675.93,256.539C2670.6,235.105 2651.21,219.387 2628.34,219.387C2609.36,219.387 2592.59,230.027 2584.42,246.559C2581.22,245.656 2577.9,245.191 2574.56,245.191C2554.53,245.191 2538.25,261.484 2538.25,281.508C2538.25,283 2538.34,284.484 2538.52,285.949C2525.75,288.164 2515.48,290.598 2507.93,293.207C2502.85,294.961 2489.36,299.621 2489.36,309.977C2489.36,320.109 2502.19,324.699 2507.02,326.426C2515.58,329.488 2527.86,332.32 2543.53,334.84C2572.14,339.438 2611.69,342.879 2655.7,344.621C2655.11,346.152 2654.62,347.73 2654.26,349.359C2635.32,349.602 2608.75,350.641 2579.91,352.277C2575.77,352.512 2572.61,356.055 2572.84,360.191C2573.08,364.328 2576.65,367.469 2580.75,367.254C2612.91,365.43 2642.14,364.355 2660.96,364.305C2665.09,364.293 2668.44,360.934 2668.44,356.797C2668.44,346.297 2676.98,337.758 2687.48,337.758C2690.72,337.758 2693.93,338.59 2696.74,340.164C2698.73,341.27 2701.1,341.422 2703.21,340.574C2705.31,339.727 2706.92,337.969 2707.58,335.797C2711.54,322.75 2723.38,313.984 2737.02,313.984C2752.01,313.984 2764.76,324.688 2767.32,339.438C2767.78,342.098 2769.64,344.301 2772.18,345.211C2774.72,346.125 2777.55,345.602 2779.6,343.844C2782.94,340.973 2787.21,339.391 2791.61,339.391C2801.8,339.391 2810.09,347.68 2810.09,357.863C2810.09,359.539 2809.86,361.211 2809.41,362.836C2808.82,364.934 2809.18,367.176 2810.38,368.992C2811.58,370.805 2813.51,372.008 2815.66,372.289C2846.72,376.324 2859.7,380.578 2864.95,383.027C2859.14,385.738 2843.88,390.664 2805.11,395.039C2766.78,399.363 2717.14,401.746 2665.36,401.746C2613.57,401.746 2563.94,399.363 2525.6,395.039C2486.31,390.605 2471.16,385.605 2465.53,382.918C2471.84,379.762 2488.17,374.582 2521.78,371.445C2529.18,370.758 2538.06,370.043 2548.2,369.32C2552.33,369.027 2555.45,365.441 2555.15,361.309C2554.86,357.176 2551.28,354.063 2547.14,354.359C2536.89,355.09 2527.89,355.813 2520.39,356.508C2500.33,358.383 2483.24,361.285 2470.98,364.91C2461.12,367.828 2448,372.879 2448,383.023C2448,392.102 2456.24,401.535 2516.03,409.008C2555.97,413.996 2609,416.746 2665.36,416.746C2721.72,416.746 2774.75,413.996 2814.68,409.008C2874.47,401.535 2882.72,392.102 2882.72,383.023C2882.72,371.363 2866.41,364.309 2825.08,358.43C2825.09,358.242 2825.09,358.055 2825.09,357.863C2825.09,352.629 2823.88,347.672 2821.72,343.254C2858.77,341.086 2890.48,337.719 2913.94,333.453C2946.66,327.504 2960,320.699 2960,309.977C2960,298.785 2944.72,293.512 2929.77,289.832ZM2904.98,319.781C2880.35,323.832 2847.39,326.98 2809.67,328.887C2809.3,328.906 2808.94,328.961 2808.59,329.031C2803.61,326.09 2797.81,324.391 2791.62,324.391C2787.31,324.391 2783.08,325.223 2779.14,326.809C2772.11,310.215 2755.75,298.984 2737.02,298.984C2719.48,298.984 2703.95,308.727 2696.25,323.906C2693.4,323.145 2690.45,322.758 2687.48,322.758C2679.55,322.758 2672.25,325.488 2666.45,330.055C2666.18,330.012 2665.9,329.984 2665.61,329.973C2621.53,328.492 2582.49,325.414 2552.7,321.07C2523,316.738 2511.14,312.359 2506.56,309.977C2510.93,307.699 2521.97,303.598 2548.88,299.457C2551.14,299.109 2553.11,297.758 2554.24,295.781C2555.38,293.805 2555.55,291.422 2554.72,289.301C2553.74,286.809 2553.24,284.188 2553.24,281.508C2553.24,269.754 2562.8,260.191 2574.56,260.191C2578.19,260.191 2581.78,261.125 2584.93,262.887C2586.91,263.996 2589.28,264.145 2591.39,263.297C2593.5,262.449 2595.11,260.691 2595.77,258.52C2600.15,244.086 2613.24,234.387 2628.34,234.387C2646.39,234.387 2661.32,248.492 2662.32,266.5C2662.47,268.988 2663.83,271.246 2665.97,272.523C2668.11,273.801 2670.75,273.926 2673.01,272.867C2675.29,271.793 2677.73,271.25 2680.27,271.25C2687.88,271.25 2694.64,276.355 2696.71,283.672C2697.63,286.898 2700.57,289.125 2703.93,289.125L2704.01,289.125C2710.99,289.047 2717.95,289.004 2724.68,289.004C2734,289.004 2743.47,289.078 2752.8,289.223C2754.83,289.246 2756.78,288.465 2758.22,287.031C2759.65,285.602 2760.45,283.648 2760.42,281.621C2760.42,281.586 2760.42,281.5 2760.41,281.426C2760.46,272.039 2768.11,264.414 2777.51,264.414C2781.61,264.414 2785.58,265.895 2788.69,268.582C2790.41,270.078 2792.73,270.707 2794.98,270.285C2797.22,269.863 2799.16,268.441 2800.23,266.422C2805.34,256.766 2815.29,250.766 2826.2,250.766C2842.4,250.766 2855.58,263.941 2855.58,280.141C2855.58,282.043 2855.39,283.965 2855.02,285.848C2854.61,287.93 2855.1,290.082 2856.37,291.781C2857.64,293.48 2859.56,294.563 2861.67,294.762C2912.48,299.586 2935.38,306.016 2942.87,309.938C2938.8,312.078 2928.78,315.867 2904.98,319.781ZM2535,426.184C2527.73,425.48 2520.72,424.711 2514.18,423.891C2510.06,423.379 2506.32,426.293 2505.8,430.402C2505.29,434.516 2508.21,438.262 2512.32,438.777C2519,439.613 2526.14,440.398 2533.55,441.113C2533.8,441.141 2534.04,441.152 2534.28,441.152C2538.1,441.152 2541.36,438.25 2541.74,434.371C2542.14,430.246 2539.12,426.582 2535,426.184ZM2816.54,423.891C2776,428.957 2722.31,431.746 2665.36,431.746C2628.95,431.746 2593.04,430.582 2561.51,428.379C2557.36,428.086 2553.8,431.203 2553.51,435.336C2553.22,439.469 2556.34,443.051 2560.47,443.34C2592.34,445.57 2628.61,446.746 2665.36,446.746C2722.92,446.746 2777.27,443.914 2818.4,438.773C2822.51,438.262 2825.43,434.512 2824.91,430.402C2824.4,426.293 2820.64,423.387 2816.54,423.891Z" style="fill:rgb(115,1,200);fill-rule:nonzero;"/>
            </g>
        </g>
    </g>
</svg>
