<?xml version="1.0" encoding="UTF-8" standalone="no"?>
<!DOCTYPE svg PUBLIC "-//W3C//DTD SVG 1.1//EN" "http://www.w3.org/Graphics/SVG/1.1/DTD/svg11.dtd">
<svg width="100%" height="100%" viewBox="0 0 512 512" version="1.1" xmlns="http://www.w3.org/2000/svg" xmlns:xlink="http://www.w3.org/1999/xlink" xml:space="preserve" xmlns:serif="http://www.serif.com/" style="fill-rule:evenodd;clip-rule:evenodd;stroke-linejoin:round;stroke-miterlimit:2;">
    <g transform="matrix(1,0,0,1,-1836,-1836)">
        <g id="Jupiter" transform="matrix(1,0,0,1,1836,1836)">
            <rect x="0" y="0" width="512" height="512" style="fill:none;"/>
            <clipPath id="_clip1">
                <rect x="0" y="0" width="512" height="512"/>
            </clipPath>
            <g clip-path="url(#_clip1)">
                <path d="M511.809,265.512C517.375,118.098 398.23,-0.37 256,0.001C187.939,-0.035 123.096,26.773 74.98,74.981C26.629,123.333 -0,187.621 -0,256.001C-0,290.836 7.019,324.545 20.038,355.474L20.068,355.546C42.603,409.035 83.104,454.192 136.403,482.404C140.064,484.342 144.603,482.944 146.54,479.284C148.478,475.623 147.081,471.084 143.42,469.146C119.093,456.27 97.603,439.64 79.492,420.19C124.241,423.608 169.401,425.764 213.994,426.601C229.889,426.896 245.348,432.414 257.524,442.138C271.869,453.594 290.515,459.903 310.028,459.903C311.063,459.903 312.111,459.88 313.177,459.844C332.417,459.18 350.695,452.446 364.608,440.908C375.484,430.742 392.378,423.008 408.971,422.158C416.577,421.667 424.239,421.131 431.893,420.563C387.887,467.571 325.32,497.001 256,497.001C228.011,497.001 200.591,492.248 174.501,482.875C170.602,481.474 166.307,483.5 164.907,487.397C163.506,491.295 165.531,495.591 169.429,496.991C197.151,506.951 226.277,512.001 256,512.001C324.38,512.001 388.668,485.372 437.02,437.021C482.904,391.137 509.208,330.899 511.775,266.435C511.806,266.131 511.816,265.823 511.809,265.512ZM479.368,346.454C457.267,348.545 434.81,350.352 412.516,351.807C394.56,352.979 377.229,347.741 363.715,337.044C349.409,325.736 330.862,319.508 311.49,319.508C310.205,319.508 309.209,319.527 308.344,319.567C289.115,320.219 270.836,326.953 256.879,338.527C243.772,349.689 225.179,356.73 207.944,356.19C149.502,354.879 90.402,351.297 32.192,345.574C22.807,322.085 17.073,296.966 15.47,271.015C29.189,271.543 44.049,272.21 58.549,273.447C63.347,273.855 68.373,274.347 73.767,274.935C76.143,287.015 88.462,296.728 103.805,297.637C114.839,298.228 128.495,293.85 134.572,282.674C152.292,284.881 171.159,286.871 190.538,287.419C215.539,288.173 244.614,286.13 270.082,284.133C287.491,282.804 305.494,281.43 323.103,280.932C340.715,280.433 358.772,280.788 376.235,281.132C402.308,281.645 429.272,282.174 455.833,279.922C467.989,278.883 481.027,277.188 496.281,274.658C494.344,299.868 488.496,323.996 479.368,346.454ZM117.681,279.449C114.255,281.778 109.523,282.949 104.695,282.664C95.477,282.118 87.998,276.446 88.362,270.277C88.728,264.109 96.825,259.353 106.043,259.904C115.261,260.45 122.74,266.123 122.375,272.292C122.163,275.886 119.343,278.319 117.681,279.449ZM406.742,68.113C353.195,71.588 298.899,73.242 245.065,73L244.892,73C233.941,73 223.243,77.887 215.511,86.431C212.393,89.881 207.231,91.941 201.702,91.941C195.809,91.941 190.292,89.567 187.303,85.743C180.634,77.222 170.285,71.885 158.914,71.101C146.185,70.218 127.753,68.9 106.326,67.254C147.467,34.561 199.49,15.001 256,15.001C313.002,15.001 365.434,34.906 406.742,68.113ZM90.415,81.059C118.148,83.251 142.279,84.983 157.879,86.065C165.019,86.557 171.438,89.809 175.488,94.984C181.34,102.47 191.14,106.94 201.702,106.94C211.547,106.94 220.636,103.13 226.637,96.491C231.622,90.983 238.109,87.973 244.997,88C304.183,88.265 363.934,86.26 422.644,82.065C440.59,99.266 455.894,119.204 467.864,141.208C446.969,143.397 425.67,145.43 404.391,147.263C387.229,148.744 369.43,148.831 351.944,147.532C353.914,129.319 334.873,114.579 316.082,114.403C300.384,113.566 282.127,122.756 278.575,139.131C245.09,138.224 208.386,140.721 173.947,140.568C169.805,140.606 166.478,143.994 166.516,148.136C166.554,152.255 169.904,155.568 174.014,155.568C208.994,155.774 244.516,153.093 280.118,154.239C285.131,166.404 299.547,174.358 314.03,174.851C325.397,175.007 337.577,171.517 345.642,162.05C364.518,163.776 385.491,163.966 405.679,162.206C428.958,160.201 452.256,157.957 475.034,155.532C482.248,171.197 487.824,187.762 491.554,205.008C477.644,207.265 465.732,208.789 454.563,209.746C443.29,210.703 430.96,211.221 416.873,211.33C412.731,211.363 409.399,214.747 409.432,218.889C409.464,223.011 412.816,226.33 416.931,226.33L416.991,226.33C431.467,226.217 444.172,225.681 455.838,224.691C467.481,223.694 479.851,222.109 494.278,219.762C496.069,231.585 497.002,243.685 497.002,255.999C497.002,257.114 496.975,258.223 496.96,259.335C480.737,262.093 467.134,263.902 454.565,264.976C428.789,267.163 402.224,266.64 376.535,266.135C358.894,265.788 340.656,265.429 322.684,265.938C304.716,266.446 286.532,267.834 268.946,269.177C243.32,271.133 216.82,273.154 190.968,272.425C172.414,271.9 154.19,269.993 137.019,267.863C134.757,255.674 122.374,245.843 106.932,244.928C93.318,244.116 81.261,250.474 76.066,260.095C70.297,259.461 64.942,258.935 59.826,258.5C44.633,257.203 29.175,256.525 15.002,255.984C15.003,242.326 16.163,228.936 18.358,215.893C31.422,216.414 45.063,217.068 58.553,218.217C76.114,219.711 94.012,222.101 111.322,224.412C137.177,227.865 163.913,231.435 190.544,232.189C215.545,232.943 244.62,230.899 270.088,228.903C287.497,227.574 305.5,226.2 323.109,225.702C340.724,225.203 358.779,225.558 376.243,225.902L381.782,226.01C385.882,226.114 389.345,222.797 389.425,218.655C389.504,214.514 386.211,211.092 382.07,211.013L376.539,210.905C358.899,210.558 340.658,210.199 322.686,210.708C304.718,211.216 286.534,212.604 268.947,213.947C243.322,215.904 216.825,217.929 190.969,217.195C165.123,216.464 138.782,212.946 113.309,209.545C95.825,207.21 77.745,204.795 59.827,203.271C46.866,202.167 33.856,201.516 21.342,201.003C25.164,184.69 30.657,169.016 37.614,154.158C71.208,155.15 105.188,155.682 138.717,155.713L138.724,155.713C142.863,155.713 146.22,152.359 146.224,148.22C146.228,144.078 142.873,140.717 138.731,140.713C107.709,140.685 76.307,140.214 45.177,139.358C57.225,117.661 72.522,98.005 90.415,81.059ZM293.045,143.88C294.748,133.342 304.014,130.134 314.535,129.377C324.101,129.919 335.622,133.178 337.064,145.375C336.895,150.358 333.193,153.741 331.001,155.314C326.684,158.412 320.679,160.072 314.538,159.86C305.176,158.975 294.505,155.749 293.045,143.88ZM408.007,407.189C388.889,408.362 369.114,416.399 355.067,429.335C343.663,438.792 328.602,444.303 312.668,444.853C311.778,444.883 310.898,444.903 310.029,444.903C293.904,444.903 278.583,439.758 266.885,430.418C252.14,418.642 233.455,411.961 214.275,411.605C165.009,410.68 115.052,408.128 65.727,404.04C55.388,390.759 46.482,376.434 39.142,361.305C95.003,366.592 151.604,369.931 207.608,371.187C227.711,371.755 250.009,364.084 266.452,350.078C277.869,340.611 292.928,335.1 308.937,334.557C309.789,334.519 310.649,334.511 311.491,334.511C327.502,334.511 342.745,339.591 354.41,348.811C370.84,361.814 391.819,368.194 413.494,366.777C433.09,365.499 452.81,363.946 472.313,362.174C464.903,377.21 455.981,391.373 445.728,404.448C433.195,405.456 420.526,406.38 408.007,407.189ZM329.019,354.233C325.026,353.147 320.901,355.506 319.815,359.504C318.728,363.501 321.088,367.622 325.086,368.708C337.598,372.108 345.874,379.871 346.171,388.485C346.361,394.035 343.215,399.55 337.311,404.014C330.624,409.07 321.472,412.042 311.54,412.384C301.602,412.73 292.273,410.389 285.254,405.806C279.057,401.759 275.538,396.473 275.347,390.922C275.052,382.349 282.588,374.102 294.546,369.911C298.455,368.541 300.514,364.261 299.144,360.352C297.773,356.443 293.495,354.384 289.585,355.754C271.303,362.162 259.83,376.168 260.356,391.438C260.719,402.008 266.649,411.571 277.052,418.365C286.043,424.237 297.544,427.416 309.661,427.416C310.457,427.416 311.255,427.402 312.055,427.375C325.046,426.928 337.228,422.88 346.356,415.979C356.267,408.486 361.525,398.538 361.161,387.968C360.634,372.638 348.017,359.395 329.019,354.233ZM26.143,45.33L29.354,45.33L29.354,48.534C29.354,52.676 32.712,56.034 36.854,56.034C40.996,56.034 44.354,52.676 44.354,48.534L44.354,45.33L47.566,45.33C51.708,45.33 55.066,41.972 55.066,37.83C55.066,33.688 51.708,30.33 47.566,30.33L44.354,30.33L44.354,27.126C44.354,22.984 40.996,19.626 36.854,19.626C32.712,19.626 29.354,22.984 29.354,27.126L29.354,30.33L26.143,30.33C22.001,30.33 18.643,33.688 18.643,37.83C18.643,41.973 22,45.33 26.143,45.33ZM460.5,41.297L463.712,41.297L463.712,44.5C463.712,48.642 467.069,52 471.212,52C475.355,52 478.712,48.642 478.712,44.5L478.712,41.296L481.923,41.296C486.066,41.296 489.423,37.938 489.423,33.796C489.423,29.654 486.066,26.296 481.923,26.296L478.712,26.296L478.712,23.092C478.712,18.95 475.355,15.592 471.212,15.592C467.069,15.592 463.712,18.95 463.712,23.092L463.712,26.296L460.5,26.296C456.357,26.296 453,29.654 453,33.796C453,37.938 456.358,41.297 460.5,41.297ZM504.5,427.501L501.5,427.501L501.5,424.509C501.5,420.367 498.143,417.009 494,417.009C489.857,417.009 486.5,420.367 486.5,424.509L486.5,427.501L483.5,427.501C479.357,427.501 476,430.859 476,435.001C476,439.143 479.357,442.501 483.5,442.501L486.5,442.501L486.5,445.493C486.5,449.635 489.857,452.993 494,452.993C498.143,452.993 501.5,449.635 501.5,445.493L501.5,442.501L504.5,442.501C508.643,442.501 512,439.143 512,435.001C512,430.859 508.643,427.501 504.5,427.501ZM47.712,473.107L44.5,473.107L44.5,469.903C44.5,465.761 41.142,462.403 37,462.403C32.858,462.403 29.5,465.761 29.5,469.903L29.5,473.107L26.289,473.107C22.147,473.107 18.789,476.465 18.789,480.607C18.789,484.749 22.147,488.107 26.289,488.107L29.5,488.107L29.5,491.311C29.5,495.453 32.858,498.811 37,498.811C41.142,498.811 44.5,495.453 44.5,491.311L44.5,488.107L47.711,488.107C51.853,488.107 55.211,484.749 55.211,480.607C55.211,476.465 51.854,473.107 47.712,473.107Z" style="fill:rgb(0,194,159);fill-rule:nonzero;"/>
            </g>
        </g>
    </g>
</svg>
