<?xml version="1.0" encoding="UTF-8" standalone="no"?>
<!DOCTYPE svg PUBLIC "-//W3C//DTD SVG 1.1//EN" "http://www.w3.org/Graphics/SVG/1.1/DTD/svg11.dtd">
<svg width="100%" height="100%" viewBox="0 0 512 512" version="1.1" xmlns="http://www.w3.org/2000/svg" xmlns:xlink="http://www.w3.org/1999/xlink" xml:space="preserve" xmlns:serif="http://www.serif.com/" style="fill-rule:evenodd;clip-rule:evenodd;stroke-linejoin:round;stroke-miterlimit:2;">
    <g transform="matrix(1,0,0,1,-2448,-1224)">
        <g id="Last-Quarter" serif:id="Last Quarter" transform="matrix(1,0,0,1,2448,1224)">
            <rect x="0" y="0" width="512" height="512" style="fill:none;"/>
            <clipPath id="_clip1">
                <rect x="0" y="0" width="512" height="512"/>
            </clipPath>
            <g clip-path="url(#_clip1)">
                <path d="M123.467,31.566L132.533,31.566L132.533,40.633C132.533,44.776 135.891,48.133 140.033,48.133C144.175,48.133 147.533,44.776 147.533,40.633L147.533,31.566L156.6,31.566C160.742,31.566 164.1,28.209 164.1,24.066C164.1,19.923 160.742,16.566 156.6,16.566L147.533,16.566L147.533,7.5C147.533,3.357 144.175,-0 140.033,-0C135.891,-0 132.533,3.357 132.533,7.5L132.533,16.566L123.467,16.566C119.325,16.566 115.967,19.923 115.967,24.066C115.967,28.209 119.325,31.566 123.467,31.566ZM388.533,480.434L379.467,480.434L379.467,471.367C379.467,467.224 376.11,463.867 371.967,463.867C367.824,463.867 364.467,467.224 364.467,471.367L364.467,480.434L355.4,480.434C351.257,480.434 347.9,483.791 347.9,487.934C347.9,492.077 351.257,495.434 355.4,495.434L364.466,495.434L364.466,504.5C364.466,508.643 367.823,512 371.966,512C376.109,512 379.466,508.643 379.466,504.5L379.466,495.434L388.532,495.434C392.675,495.434 396.032,492.077 396.032,487.934C396.032,483.791 392.676,480.434 388.533,480.434ZM182.233,231.15C182.233,244.42 193.029,255.216 206.299,255.216C219.57,255.216 230.366,244.42 230.366,231.15C230.366,217.879 219.57,207.083 206.299,207.083C193.029,207.083 182.233,217.88 182.233,231.15ZM206.3,222.083C211.299,222.083 215.367,226.15 215.367,231.15C215.367,236.149 211.3,240.216 206.3,240.216C201.301,240.216 197.234,236.149 197.234,231.15C197.233,226.15 201.301,222.083 206.3,222.083ZM173.166,115.967C150.761,115.967 132.533,134.195 132.533,156.6C132.533,179.005 150.761,197.234 173.166,197.234C195.571,197.234 213.8,179.005 213.8,156.6C213.8,134.195 195.572,115.967 173.166,115.967ZM173.166,182.233C159.032,182.233 147.533,170.734 147.533,156.599C147.533,142.465 159.032,130.966 173.166,130.966C187.3,130.966 198.799,142.465 198.799,156.599C198.8,170.734 187.301,182.233 173.166,182.233ZM82.833,251.858C82.833,276.548 102.919,296.633 127.608,296.633C131.537,296.633 135.439,296.122 139.205,295.114C143.206,294.044 145.582,289.931 144.511,285.93C143.44,281.928 139.327,279.553 135.327,280.623C132.826,281.292 130.229,281.632 127.608,281.632C111.19,281.632 97.833,268.275 97.833,251.857C97.833,235.439 111.19,222.082 127.608,222.082C144.026,222.082 157.383,235.439 157.383,251.857C157.383,256.834 156.133,261.754 153.77,266.088C151.786,269.725 153.126,274.28 156.763,276.264C160.402,278.248 164.955,276.908 166.938,273.272C170.5,266.741 172.383,259.336 172.383,251.857C172.383,227.168 152.297,207.082 127.608,207.082C102.919,207.082 82.833,227.169 82.833,251.858ZM405.841,114.218C400.651,108.736 392.238,107.754 385.836,111.889C381.201,114.882 375.809,116.276 370.239,115.91C357.723,115.096 347.486,105.059 346.428,92.564C346.199,89.864 346.386,87.18 346.982,84.588C348.686,77.186 344.885,69.63 337.945,66.622C312.532,55.61 285.503,49.918 257.61,49.705C257.085,49.701 256.566,49.699 256.041,49.699C206.836,49.699 159.177,67.418 121.69,99.683C118.55,102.385 118.196,107.121 120.898,110.26C123.601,113.4 128.336,113.754 131.475,111.052C164.321,82.78 205.566,66.555 248.5,64.852L248.5,447.136C242.634,446.907 236.765,446.426 230.973,445.668C230.491,445.606 230.324,445.072 230.302,444.768C230.23,443.792 230.096,442.81 229.905,441.85C227.771,431.114 218.675,423.155 207.785,422.495C199.06,421.971 190.721,426.211 186.021,433.574C185.896,433.771 185.498,433.876 185.103,433.719C111.802,404.45 64.541,334.537 64.7,255.605C64.791,210.16 81.252,166.076 111.05,131.474C113.753,128.334 113.4,123.599 110.261,120.896C107.122,118.194 102.386,118.547 99.684,121.685C67.55,159 49.799,206.55 49.7,255.576C49.615,297.729 62.162,338.29 85.983,372.872C109.244,406.64 141.595,432.498 179.54,447.648C186.6,450.468 194.645,447.943 198.666,441.644C200.465,438.825 203.538,437.27 206.877,437.467C210.902,437.711 214.4,440.784 215.193,444.777C215.265,445.139 215.315,445.508 215.342,445.874C215.907,453.527 221.532,459.559 229.023,460.542C237.931,461.708 247.008,462.3 256,462.3C369.754,462.3 462.3,369.754 462.3,256C462.3,203.034 442.249,152.682 405.841,114.218ZM439.502,310.084L268.507,446.88C266.843,446.988 265.174,447.074 263.5,447.139L263.5,427.663L445.519,282.048C444.208,291.637 442.184,300.999 439.502,310.084ZM325.922,77.897L263.5,127.836L263.5,104.613L305.361,71.124C312.321,72.98 319.178,75.244 325.922,77.897ZM426.931,170.025L263.5,300.77L263.5,254.728L407.652,139.406C415.077,149.038 421.521,159.289 426.931,170.025ZM447.3,256C447.3,257.834 447.268,259.66 447.216,261.481L263.5,408.454L263.5,362.411L443.58,218.347C446.033,230.635 447.3,243.234 447.3,256ZM439.652,202.28L263.5,343.202L263.5,319.979L433.328,184.117C435.737,190.058 437.854,196.117 439.652,202.28ZM263.5,85.403L263.5,64.854C271.213,65.149 278.85,65.89 286.39,67.091L263.5,85.403ZM393.974,124.489C394.305,124.276 394.722,124.293 394.947,124.53C395.995,125.637 397.027,126.754 398.046,127.882L263.5,235.519L263.5,212.297L365.757,130.491C366.913,130.67 368.083,130.802 369.267,130.879C378.066,131.446 386.614,129.243 393.974,124.489ZM349.608,124.2L263.5,193.087L263.5,147.045L331.409,92.717C331.43,93.088 331.45,93.459 331.482,93.83C332.552,106.466 339.542,117.51 349.608,124.2ZM297.746,442.699L428.925,337.755C403.987,390.289 355.806,429.725 297.746,442.699ZM463.083,381.033C458.94,381.033 455.583,384.39 455.583,388.533L455.583,405.1C455.583,409.243 458.94,412.6 463.083,412.6C467.226,412.6 470.583,409.243 470.583,405.1L470.583,388.534C470.583,384.391 467.226,381.033 463.083,381.033ZM463.083,447.3C458.94,447.3 455.583,450.657 455.583,454.8L455.583,471.366C455.583,475.509 458.94,478.866 463.083,478.866C467.226,478.866 470.583,475.509 470.583,471.366L470.583,454.8C470.583,450.657 467.226,447.3 463.083,447.3ZM504.5,422.45L487.934,422.45C483.791,422.45 480.434,425.807 480.434,429.95C480.434,434.093 483.791,437.45 487.934,437.45L504.5,437.45C508.643,437.45 512,434.093 512,429.95C512,425.807 508.643,422.45 504.5,422.45ZM438.233,422.45L421.667,422.45C417.524,422.45 414.167,425.807 414.167,429.95C414.167,434.093 417.524,437.45 421.667,437.45L438.233,437.45C442.376,437.45 445.733,434.093 445.733,429.95C445.733,425.807 442.376,422.45 438.233,422.45ZM48.916,64.7C53.058,64.7 56.416,61.343 56.416,57.2L56.416,40.634C56.416,36.491 53.058,33.134 48.916,33.134C44.774,33.134 41.416,36.491 41.416,40.634L41.416,57.2C41.416,61.343 44.774,64.7 48.916,64.7ZM56.416,123.467L56.416,106.9C56.416,102.757 53.058,99.4 48.916,99.4C44.774,99.4 41.416,102.757 41.416,106.9L41.416,123.466C41.416,127.609 44.774,130.966 48.916,130.966C53.058,130.966 56.416,127.609 56.416,123.467ZM73.767,89.55L90.334,89.55C94.476,89.55 97.834,86.193 97.834,82.05C97.834,77.907 94.476,74.55 90.334,74.55L73.767,74.55C69.625,74.55 66.267,77.907 66.267,82.05C66.267,86.192 69.624,89.55 73.767,89.55ZM24.067,74.55L7.5,74.55C3.358,74.55 0,77.907 0,82.05C0,86.193 3.358,89.55 7.5,89.55L24.067,89.55C28.209,89.55 31.567,86.193 31.567,82.05C31.567,77.907 28.209,74.55 24.067,74.55Z" style="fill:rgb(236,12,198);fill-rule:nonzero;"/>
            </g>
        </g>
    </g>
</svg>
