<?xml version="1.0" encoding="UTF-8" standalone="no"?>
<!DOCTYPE svg PUBLIC "-//W3C//DTD SVG 1.1//EN" "http://www.w3.org/Graphics/SVG/1.1/DTD/svg11.dtd">
<svg width="100%" height="100%" viewBox="0 0 512 512" version="1.1" xmlns="http://www.w3.org/2000/svg" xmlns:xlink="http://www.w3.org/1999/xlink" xml:space="preserve" xmlns:serif="http://www.serif.com/" style="fill-rule:evenodd;clip-rule:evenodd;stroke-linejoin:round;stroke-miterlimit:2;">
    <g transform="matrix(1,0,0,1,-612,-2448)">
        <g id="Mars" transform="matrix(1,0,0,1,612,2448)">
            <rect x="0" y="0" width="512" height="512" style="fill:none;"/>
            <clipPath id="_clip1">
                <rect x="0" y="0" width="512" height="512"/>
            </clipPath>
            <g clip-path="url(#_clip1)">
                <path d="M511.756,266.74C513.223,234.642 508.031,199.498 496.764,168.823C495.353,164.928 491.051,162.913 487.159,164.325C483.264,165.735 481.25,170.036 482.661,173.93C487.557,187.449 491.2,201.329 493.593,215.459C477.522,218.194 460.598,220.621 443.06,222.716C445.567,216.493 446.96,209.707 446.96,202.597C446.96,172.806 422.723,148.57 392.933,148.57C363.142,148.57 338.905,172.806 338.905,202.597C338.905,212.809 341.755,222.368 346.698,230.522C330.549,231.259 314.137,231.74 297.694,231.961C285.585,219.661 268.76,212.017 250.177,212.017C232.387,212.017 216.215,219.029 204.242,230.418C135.492,227.171 72.008,219.347 19.875,207.708C23.063,192.095 27.765,176.973 33.847,162.525C39.97,165.3 46.631,166.743 53.492,166.743C79.784,166.743 101.175,145.352 101.175,119.06C101.175,116.117 100.9,113.218 100.38,110.387C115.013,111.678 130.117,112.795 145.513,113.719C144.746,117.32 144.334,121.051 144.334,124.877C144.334,154.376 168.334,178.376 197.833,178.376C227.332,178.376 251.332,154.376 251.332,124.877C251.332,122.209 251.129,119.588 250.751,117.024C253.731,117.037 256.718,117.044 259.694,117.044C271.022,117.044 282.427,116.942 293.69,116.753C294.924,119.751 296.628,122.573 298.787,125.116C304.195,131.488 311.762,135.374 320.093,136.054C320.964,136.125 321.833,136.161 322.698,136.161C330.099,136.161 337.188,133.567 342.894,128.724C347.298,124.986 350.513,120.217 352.304,114.878C385.14,113.313 416.626,110.916 446.05,107.743C454.514,118.601 462.124,130.273 468.75,142.688C470.1,145.218 472.693,146.659 475.373,146.659C476.564,146.658 477.773,146.374 478.898,145.773C482.552,143.823 483.934,139.28 481.983,135.626C437.332,51.969 350.738,0 255.993,0C246.125,0 236.184,0.567 226.448,1.687C222.333,2.161 219.381,5.879 219.853,9.995C220.327,14.11 224.045,17.063 228.161,16.59C237.331,15.535 246.696,15.001 255.994,15.001C292.289,15.001 327.314,23.104 358.925,38.02C325.75,39.799 291.432,40.713 256.523,40.713C221.245,40.713 186.592,39.781 153.123,37.969C166.301,31.757 180.179,26.673 194.66,22.874C198.666,21.822 201.062,17.723 200.011,13.716C198.96,9.709 194.859,7.316 190.853,8.364C115.42,28.153 55.261,80.543 23.858,148.031C8.153,181.669 -0.363,219.992 0.012,258.164C0.11,269.862 0.992,281.596 2.659,293.077C3.201,296.811 6.407,299.501 10.072,299.501C10.43,299.501 10.794,299.476 11.159,299.422C15.258,298.827 18.098,295.022 17.504,290.923C16.384,283.212 15.645,275.378 15.274,267.521C24.279,269.547 33.671,271.474 43.376,273.282C40.988,278.305 39.647,283.917 39.647,289.838C39.647,311.175 57.005,328.533 78.342,328.533C99.678,328.533 117.036,311.175 117.036,289.838C117.036,287.868 116.886,285.933 116.601,284.041C138.429,286.492 161.161,288.431 184.401,289.836C189.704,321.357 217.172,345.452 250.177,345.452C282.392,345.452 309.345,322.501 315.549,292.091C343.12,291.409 370.357,290.006 396.594,287.894C400.723,287.562 403.801,283.946 403.469,279.817C403.137,275.689 399.524,272.612 395.391,272.943C369.959,274.989 343.574,276.365 316.851,277.056C316.578,266.113 313.675,255.812 308.725,246.778C325.787,246.431 342.762,245.805 359.393,244.909C368.615,252.235 380.267,256.627 392.932,256.627C408.719,256.627 422.945,249.819 432.832,238.986C454.738,236.593 475.816,233.691 495.639,230.329C496.55,239.222 497.178,250.011 496.937,260.364C475.99,264.007 453.579,267.138 430.186,269.669C426.068,270.114 423.091,273.814 423.536,277.932C423.952,281.777 427.203,284.626 430.983,284.626C431.253,284.626 431.525,284.611 431.799,284.581C454.274,282.149 475.88,279.173 496.181,275.72C495.343,286.018 493.853,296.133 491.756,306.027C487.513,304.715 483.075,304.015 478.585,304.015C454.042,304.015 434.074,323.983 434.074,348.526C434.074,352.838 434.702,357.037 435.873,361.028C416.358,363.236 396.063,365.032 375.344,366.395C370.638,352.287 357.315,342.084 341.646,342.084C324.928,342.084 310.879,353.696 307.12,369.276C296.992,369.473 286.763,369.578 276.613,369.578C243.74,369.578 211.144,368.537 179.628,366.506C174.255,356.988 164.051,350.544 152.363,350.544C142.544,350.544 133.771,355.093 128.03,362.191C93.825,358.632 61.964,353.869 33.195,348.014C30.077,340.495 27.327,332.771 24.973,324.86C23.792,320.891 19.617,318.634 15.645,319.811C11.675,320.993 9.414,325.168 10.596,329.139C25.793,380.248 58.289,427.573 101.603,460.222C146.341,494.096 199.728,512 255.993,512C324.373,512 388.66,485.371 437.012,437.02C482.74,391.293 509.023,331.311 511.743,267.097C511.75,266.978 511.756,266.86 511.756,266.74ZM53.492,151.743C48.812,151.743 44.281,150.745 40.107,148.866C49.709,129.522 61.854,111.58 76.167,95.518C82.517,101.615 86.175,110.053 86.175,119.061C86.175,137.082 71.513,151.743 53.492,151.743ZM197.833,163.376C176.604,163.376 159.334,146.105 159.334,124.877C159.334,103.649 176.605,86.378 197.833,86.378C219.061,86.378 236.332,103.649 236.332,124.877C236.332,146.105 219.062,163.376 197.833,163.376ZM333.188,117.289C329.87,120.105 325.659,121.46 321.316,121.105C316.979,120.75 313.039,118.727 310.223,115.41C307.407,112.092 306.052,107.876 306.407,103.538C306.762,99.201 308.784,95.262 312.103,92.445C315.074,89.924 318.764,88.574 322.618,88.574C323.068,88.574 323.521,88.592 323.975,88.629C328.312,88.984 332.251,91.007 335.067,94.325C337.883,97.642 339.238,101.858 338.883,106.196C338.529,110.533 336.506,114.473 333.188,117.289ZM256.522,55.712C300.179,55.712 342.949,54.307 383.715,51.553C402.363,63.202 419.423,77.421 434.37,93.878C408.754,96.444 381.659,98.431 353.537,99.803C352.636,94.246 350.241,89.021 346.504,84.619C341.095,78.246 333.529,74.36 325.198,73.68C316.873,73 308.77,75.601 302.397,81.009C296.16,86.303 292.314,93.666 291.514,101.788C280.961,101.956 270.293,102.045 259.695,102.045C255.189,102.045 250.671,102.024 246.181,101.994C237.588,83.913 219.15,71.379 197.835,71.379C177.712,71.379 160.156,82.552 151.024,99.014C131.638,97.904 112.684,96.488 94.543,94.796C92.346,91.082 89.657,87.652 86.495,84.63C99.1,72.138 113.12,61.002 128.346,51.49C169.385,54.286 212.486,55.712 256.522,55.712ZM78.342,313.533C65.277,313.533 54.647,302.903 54.647,289.838C54.647,276.773 65.276,266.144 78.342,266.144C91.407,266.144 102.036,276.773 102.036,289.838C102.036,302.903 91.407,313.533 78.342,313.533ZM78.342,251.144C69.042,251.144 60.499,254.444 53.819,259.931C40.258,257.533 27.247,254.905 15.034,252.088C15.195,242.094 15.973,232.222 17.331,222.509C67.407,233.632 127.597,241.301 192.735,244.856C187.487,253.72 184.23,263.892 183.588,274.76C158.398,273.207 133.843,271.012 110.42,268.221C103.46,257.925 91.678,251.144 78.342,251.144ZM250.177,330.452C221.66,330.452 198.46,307.252 198.46,278.735C198.46,250.218 221.66,227.018 250.177,227.018C278.694,227.018 301.894,250.218 301.894,278.735C301.894,307.252 278.694,330.452 250.177,330.452ZM392.932,241.627C371.412,241.627 353.904,224.119 353.904,202.599C353.904,181.079 371.412,163.572 392.932,163.572C414.452,163.572 431.959,181.08 431.959,202.599C431.96,224.119 414.452,241.627 392.932,241.627ZM478.586,319.016C481.872,319.016 485.117,319.564 488.184,320.617C482.839,339.799 475.178,358.024 465.518,374.971C455.622,370.08 449.075,359.895 449.075,348.527C449.075,332.254 462.313,319.016 478.586,319.016ZM341.646,357.084C352.962,357.084 362.168,366.29 362.168,377.606C362.168,388.922 352.962,398.128 341.646,398.128C330.33,398.128 321.124,388.922 321.124,377.606C321.124,366.29 330.33,357.084 341.646,357.084ZM152.363,365.544C161.347,365.544 168.655,372.853 168.655,381.836C168.655,390.82 161.346,398.129 152.363,398.129C143.38,398.129 136.071,390.82 136.071,381.836C136.071,372.853 143.379,365.544 152.363,365.544ZM219.483,494.163C180.569,488.107 144.126,472.546 113.094,449.666C150.174,453.951 189.396,456.712 230.191,457.911C224.057,466.416 220.173,476.69 219.511,487.912C219.388,490.002 219.38,492.088 219.483,494.163ZM234.68,496.03C234.412,493.642 234.342,491.224 234.485,488.795C235.856,465.565 255.888,447.782 279.1,449.153C300.62,450.424 317.453,467.697 318.727,488.701C298.716,494.101 277.688,497 255.993,497C248.833,497 241.724,496.665 234.68,496.03ZM323.03,457.908C346.792,457.206 370.176,455.965 392.936,454.195C374.732,466.812 354.725,477 333.371,484.258C332.174,474.555 328.529,465.541 323.03,457.908ZM414.638,437.259C380.383,440.529 344.43,442.556 307.681,443.284C299.649,438.066 290.211,434.783 279.984,434.179C267.35,433.434 255.424,436.874 245.546,443.286C191.091,442.208 139.332,438.358 91.604,431.84C71.13,412.787 53.874,390.172 40.958,364.825C65.88,369.546 92.878,373.488 121.52,376.585C121.23,378.294 121.071,380.047 121.071,381.837C121.071,399.092 135.109,413.13 152.363,413.13C169.617,413.13 183.655,399.092 183.655,381.837C183.655,381.822 183.654,381.806 183.654,381.791C213.935,383.635 245.151,384.579 276.613,384.579C286.642,384.579 296.749,384.478 306.763,384.288C309.898,400.691 324.344,413.13 341.647,413.13C359.98,413.13 375.111,399.17 376.974,381.322C399.654,379.819 421.821,377.795 443.045,375.294C446.91,380.429 451.878,384.725 457.654,387.806C445.6,406.183 431.111,422.823 414.638,437.259ZM453.453,38.422L458.453,38.422L458.453,43.422C458.453,47.565 461.811,50.922 465.953,50.922C470.095,50.922 473.453,47.565 473.453,43.422L473.453,38.422L478.453,38.422C482.595,38.422 485.953,35.065 485.953,30.922C485.953,26.779 482.595,23.422 478.453,23.422L473.453,23.422L473.453,18.422C473.453,14.279 470.095,10.922 465.953,10.922C461.811,10.922 458.453,14.279 458.453,18.422L458.453,23.422L453.453,23.422C449.311,23.422 445.953,26.779 445.953,30.922C445.953,35.065 449.311,38.422 453.453,38.422ZM17.453,64.422L22.453,64.422L22.453,69.422C22.453,73.565 25.811,76.922 29.953,76.922C34.095,76.922 37.453,73.565 37.453,69.422L37.453,64.422L42.453,64.422C46.595,64.422 49.953,61.065 49.953,56.922C49.953,52.779 46.595,49.422 42.453,49.422L37.453,49.422L37.453,44.422C37.453,40.279 34.095,36.922 29.953,36.922C25.811,36.922 22.453,40.279 22.453,44.422L22.453,49.422L17.453,49.422C13.311,49.422 9.953,52.779 9.953,56.922C9.953,61.065 13.311,64.422 17.453,64.422ZM54.453,454.422L49.453,454.422L49.453,449.422C49.453,445.279 46.095,441.922 41.953,441.922C37.811,441.922 34.453,445.279 34.453,449.422L34.453,454.422L29.453,454.422C25.311,454.422 21.953,457.779 21.953,461.922C21.953,466.065 25.311,469.422 29.453,469.422L34.453,469.422L34.453,474.422C34.453,478.565 37.811,481.922 41.953,481.922C46.095,481.922 49.453,478.565 49.453,474.422L49.453,469.422L54.453,469.422C58.595,469.422 61.953,466.065 61.953,461.922C61.953,457.779 58.595,454.422 54.453,454.422ZM487.453,466.422L482.453,466.422L482.453,461.422C482.453,457.279 479.095,453.922 474.953,453.922C470.811,453.922 467.453,457.279 467.453,461.422L467.453,466.422L462.453,466.422C458.311,466.422 454.953,469.779 454.953,473.922C454.953,478.065 458.311,481.422 462.453,481.422L467.453,481.422L467.453,486.422C467.453,490.565 470.811,493.922 474.953,493.922C479.095,493.922 482.453,490.565 482.453,486.422L482.453,481.422L487.453,481.422C491.595,481.422 494.953,478.065 494.953,473.922C494.953,469.779 491.595,466.422 487.453,466.422Z" style="fill:rgb(0,194,159);fill-rule:nonzero;"/>
            </g>
        </g>
    </g>
</svg>
