<?xml version="1.0" encoding="UTF-8" standalone="no"?>
<!DOCTYPE svg PUBLIC "-//W3C//DTD SVG 1.1//EN" "http://www.w3.org/Graphics/SVG/1.1/DTD/svg11.dtd">
<svg width="100%" height="100%" viewBox="0 0 512 512" version="1.1" xmlns="http://www.w3.org/2000/svg" xmlns:xlink="http://www.w3.org/1999/xlink" xml:space="preserve" xmlns:serif="http://www.serif.com/" style="fill-rule:evenodd;clip-rule:evenodd;stroke-linejoin:round;stroke-miterlimit:2;">
    <g transform="matrix(1,0,0,1,-2448,-1836)">
        <g id="Mercury" transform="matrix(1,0,0,1,2448,1836)">
            <rect x="0" y="0" width="512" height="512" style="fill:none;"/>
            <clipPath id="_clip1">
                <rect x="0" y="0" width="512" height="512"/>
            </clipPath>
            <g clip-path="url(#_clip1)">
                <path d="M211.5,138C194.131,138 180,152.131 180,169.5C180,186.869 194.131,201 211.5,201C228.869,201 243,186.869 243,169.5C243,152.131 228.869,138 211.5,138ZM211.5,186C202.402,186 195,178.598 195,169.5C195,160.402 202.402,153 211.5,153C220.598,153 228,160.402 228,169.5C228,178.598 220.598,186 211.5,186ZM476,255.5C476,238.131 461.869,224 444.5,224C427.131,224 413,238.131 413,255.5C413,272.869 427.131,287 444.5,287C461.869,287 476,272.869 476,255.5ZM428,255.5C428,246.402 435.402,239 444.5,239C453.598,239 461,246.402 461,255.5C461,264.598 453.598,272 444.5,272C435.402,272 428,264.598 428,255.5ZM216.5,341C199.131,341 185,355.131 185,372.5C185,389.869 199.131,404 216.5,404C233.869,404 248,389.869 248,372.5C248,355.131 233.869,341 216.5,341ZM216.5,389C207.402,389 200,381.598 200,372.5C200,363.402 207.402,356 216.5,356C225.598,356 233,363.402 233,372.5C233,381.598 225.598,389 216.5,389ZM334.5,162C310.514,162 291,181.514 291,205.5C291,229.486 310.514,249 334.5,249C358.486,249 378,229.486 378,205.5C378,181.514 358.486,162 334.5,162ZM334.5,234C318.785,234 306,221.215 306,205.5C306,189.785 318.785,177 334.5,177C350.215,177 363,189.785 363,205.5C363,221.215 350.215,234 334.5,234ZM316,468C336.953,468 354,450.953 354,430C354,409.047 336.953,392 316,392C295.047,392 278,409.047 278,430C278,450.953 295.047,468 316,468ZM316,407C328.682,407 339,417.317 339,430C339,442.683 328.682,453 316,453C303.318,453 293,442.683 293,430C293,417.317 303.318,407 316,407ZM101.5,293C77.514,293 58,312.514 58,336.5C58,360.486 77.514,380 101.5,380C125.486,380 145,360.486 145,336.5C145,312.514 125.486,293 101.5,293ZM101.5,365C85.785,365 73,352.215 73,336.5C73,320.785 85.785,308 101.5,308C117.215,308 130,320.785 130,336.5C130,352.215 117.215,365 101.5,365ZM285,279.5C285,254.963 265.038,235 240.5,235C215.962,235 196,254.963 196,279.5C196,304.037 215.962,324 240.5,324C265.038,324 285,304.037 285,279.5ZM240.5,309C224.233,309 211,295.767 211,279.5C211,263.233 224.233,250 240.5,250C256.767,250 270,263.233 270,279.5C270,295.767 256.767,309 240.5,309ZM283,34C257.911,34 237.5,54.411 237.5,79.5C237.5,104.589 257.911,125 283,125C308.089,125 328.5,104.589 328.5,79.5C328.5,54.411 308.089,34 283,34ZM283,110C266.182,110 252.5,96.317 252.5,79.5C252.5,62.683 266.182,49 283,49C299.818,49 313.5,62.683 313.5,79.5C313.5,96.317 299.818,110 283,110ZM358.028,291.003C368.304,290.858 378.028,294.763 385.388,301.945C387.607,304.11 389.555,306.525 391.179,309.124C393.373,312.637 397.999,313.706 401.513,311.511C405.026,309.317 406.094,304.69 403.899,301.177C401.642,297.563 398.938,294.209 395.863,291.209C385.635,281.23 372.14,275.792 357.843,276.004C343.554,276.179 330.188,281.908 320.208,292.136C299.605,313.249 300.021,347.188 321.134,367.791C331.203,377.614 344.441,383 358.482,383C358.706,383 358.931,382.999 359.155,382.996C373.444,382.821 386.81,377.092 396.79,366.864C403.585,359.9 408.351,351.236 410.571,341.809C411.521,337.777 409.022,333.739 404.99,332.789C400.959,331.836 396.92,334.338 395.97,338.369C394.374,345.143 390.946,351.374 386.054,356.387C378.872,363.747 369.253,367.87 358.971,367.996C348.674,368.137 338.971,364.236 331.611,357.054C316.417,342.228 316.118,317.805 330.944,302.612C338.127,295.252 347.746,291.129 358.028,291.003ZM149.791,215.581C153.922,215.873 157.497,212.728 157.772,208.596C159.104,188.583 149.291,169.687 132.163,159.281C119.951,151.861 105.581,149.641 91.696,153.03C77.814,156.42 66.081,165.011 58.661,177.224C51.241,189.437 49.02,203.808 52.41,217.691C55.799,231.574 64.391,243.305 76.604,250.725C85.259,255.984 94.882,258.567 104.445,258.567C117.138,258.567 129.725,254.015 139.793,245.126C142.898,242.385 143.192,237.645 140.451,234.54C137.71,231.435 132.971,231.142 129.865,233.882C117.164,245.099 98.89,246.714 84.394,237.906C75.605,232.567 69.422,224.124 66.983,214.134C64.545,204.144 66.142,193.802 71.482,185.014C76.822,176.225 85.264,170.041 95.255,167.603C105.247,165.165 115.588,166.761 124.376,172.102C136.704,179.591 143.766,193.194 142.807,207.601C142.53,211.732 145.657,215.306 149.791,215.581ZM490.654,153.56C486.416,143.847 481.573,134.381 476.126,125.231C474.007,121.67 469.404,120.502 465.845,122.623C462.286,124.741 461.118,129.345 463.237,132.903C467.589,140.214 471.53,147.74 475.064,155.44C466.963,163.467 456.055,168 444.5,168C420.514,168 401,148.486 401,124.5C401,107.541 410.87,92.249 425.97,85.139C432.122,91.271 437.989,97.759 443.525,104.608C446.129,107.829 450.852,108.327 454.072,105.726C457.293,103.122 457.794,98.4 455.19,95.178C406.295,34.691 333.693,0 256,0C187.62,0 123.333,26.629 74.98,74.98C26.627,123.331 -0,187.62 -0,256C-0,283.358 4.294,310.287 12.763,336.039C13.801,339.196 16.735,341.198 19.886,341.198C20.663,341.198 21.452,341.077 22.23,340.821C26.165,339.527 28.306,335.288 27.012,331.353C19.042,307.116 15,281.764 15,256C15,185.846 45.139,122.605 93.139,78.523C101.51,90.603 115.297,98 130.5,98C155.589,98 176,77.589 176,52.5C176,44.811 174.067,37.332 170.447,30.704C197.048,20.569 225.884,15 256,15C314.98,15 370.836,36.25 414.396,74.335C397.045,84.761 386,103.698 386,124.5C386,156.757 412.243,183 444.5,183C458.031,183 470.897,178.369 481.194,170.049C491.595,197.338 497,226.469 497,256C497,388.888 388.888,497 256,497C239.142,497 222.599,495.275 206.566,491.962C210.136,484.179 212,475.71 212,467C212,433.916 185.084,407 152,407C129.343,407 109.122,419.527 98.898,439.035C74.973,418.437 54.905,392.912 40.181,363.377C38.333,359.67 33.832,358.161 30.123,360.011C26.416,361.859 24.909,366.363 26.757,370.069C47.681,412.041 79.734,447.488 119.45,472.58C159.812,498.101 207.505,512.045 256,512C324.38,512 388.667,485.371 437.02,437.02C485.373,388.669 512,324.38 512,256C512,220.808 504.77,186.146 490.923,154.18C490.843,153.97 490.753,153.764 490.654,153.56ZM161,52.5C161,69.317 147.318,83 130.5,83C119.773,83 110.111,77.496 104.613,68.633C120.39,55.861 137.798,45.029 156.483,36.523C159.419,41.289 161,46.806 161,52.5ZM110.883,448.691C118.038,432.545 133.993,422 152,422C176.813,422 197,442.187 197,467C197,474.535 195.145,481.83 191.607,488.368C162.258,480.319 134.919,466.827 110.883,448.691ZM4.704,43.61L20.496,51.506L28.391,67.296C29.84,70.197 32.756,72 36,72C39.244,72 42.16,70.197 43.61,67.297L51.505,51.507L67.298,43.61C70.198,42.158 72,39.243 72,36C72,32.757 70.198,29.842 67.296,28.39L51.504,20.494L43.61,4.703C42.16,1.803 39.244,-0 36,-0C32.756,-0 29.84,1.803 28.39,4.703L20.495,20.493L4.702,28.391C1.802,29.842 0,32.757 0,36C0,39.243 1.802,42.158 4.704,43.61ZM29.111,32.956C30.759,32.14 32.12,30.784 32.943,29.139L36,23.024L39.057,29.138C39.88,30.784 41.241,32.139 42.862,32.942L48.977,36L42.889,39.044C41.241,39.86 39.88,41.216 39.057,42.861L36,48.976L32.943,42.862C32.12,41.216 30.759,39.861 29.138,39.058L23.023,36L29.111,32.956ZM507.296,468.39L491.504,460.494L483.609,444.704C482.159,441.804 479.243,440.001 475.999,440.001C472.755,440.001 469.839,441.804 468.389,444.704L460.494,460.494L444.701,468.391C441.801,469.842 439.999,472.757 439.999,476C439.999,479.243 441.801,482.158 444.703,483.61L460.495,491.506L468.39,507.296C469.84,510.196 472.756,511.999 476,511.999C479.244,511.999 482.16,510.196 483.61,507.296L491.505,491.506L507.298,483.609C510.198,482.158 512,479.243 512,476C512,472.757 510.198,469.842 507.296,468.39ZM482.889,479.044C481.241,479.86 479.88,481.216 479.057,482.861L476,488.976L472.943,482.862C472.12,481.216 470.759,479.861 469.138,479.058L463.023,476L469.111,472.956C470.759,472.14 472.12,470.784 472.943,469.139L476,463.025L479.057,469.139C479.88,470.785 481.241,472.14 482.862,472.943L488.977,476.001L482.889,479.044ZM42.5,474.5L37.5,474.5L37.5,469.5C37.5,465.357 34.142,462 30,462C25.858,462 22.5,465.357 22.5,469.5L22.5,474.5L17.5,474.5C13.358,474.5 10,477.857 10,482C10,486.143 13.358,489.5 17.5,489.5L22.5,489.5L22.5,494.5C22.5,498.643 25.858,502 30,502C34.142,502 37.5,498.643 37.5,494.5L37.5,489.5L42.5,489.5C46.642,489.5 50,486.143 50,482C50,477.857 46.642,474.5 42.5,474.5ZM439.5,27.5L444.5,27.5L444.5,32.5C444.5,36.643 447.858,40 452,40C456.142,40 459.5,36.643 459.5,32.5L459.5,27.5L464.5,27.5C468.642,27.5 472,24.143 472,20C472,15.857 468.642,12.5 464.5,12.5L459.5,12.5L459.5,7.5C459.5,3.357 456.142,0 452,0C447.858,0 444.5,3.357 444.5,7.5L444.5,12.5L439.5,12.5C435.358,12.5 432,15.857 432,20C432,24.143 435.358,27.5 439.5,27.5ZM479.5,83.5L484.5,83.5L484.5,88.5C484.5,92.643 487.858,96 492,96C496.142,96 499.5,92.643 499.5,88.5L499.5,83.5L504.5,83.5C508.642,83.5 512,80.143 512,76C512,71.857 508.642,68.5 504.5,68.5L499.5,68.5L499.5,63.5C499.5,59.357 496.142,56 492,56C487.858,56 484.5,59.357 484.5,63.5L484.5,68.5L479.5,68.5C475.358,68.5 472,71.857 472,76C472,80.143 475.358,83.5 479.5,83.5Z" style="fill:rgb(0,194,159);fill-rule:nonzero;"/>
            </g>
        </g>
    </g>
</svg>
