<?xml version="1.0" encoding="UTF-8" standalone="no"?>
<!DOCTYPE svg PUBLIC "-//W3C//DTD SVG 1.1//EN" "http://www.w3.org/Graphics/SVG/1.1/DTD/svg11.dtd">
<svg width="100%" height="100%" viewBox="0 0 512 512" version="1.1" xmlns="http://www.w3.org/2000/svg" xmlns:xlink="http://www.w3.org/1999/xlink" xml:space="preserve" xmlns:serif="http://www.serif.com/" style="fill-rule:evenodd;clip-rule:evenodd;stroke-linejoin:round;stroke-miterlimit:2;">
    <rect id="Moonset" x="0" y="0" width="512" height="512" style="fill:none;"/>
    <g id="Moonset1" serif:id="Moonset">
        <path d="M311.74,92.697C293.769,86.361 274.933,83.149 255.751,83.149C220.561,83.149 186.854,93.894 158.272,114.223C130.318,134.107 109.337,161.572 97.597,193.65C96.177,197.53 98.171,201.826 102.052,203.245C102.901,203.557 103.768,203.703 104.621,203.703C107.672,203.703 110.538,201.822 111.647,198.791C122.343,169.565 141.464,144.537 166.943,126.416C192.978,107.899 223.688,98.11 255.751,98.11C273.234,98.11 290.397,101.037 306.764,106.808C310.662,108.182 314.932,106.136 316.307,102.241C317.681,98.343 315.636,94.071 311.74,92.697ZM206.794,65.46C222.711,61.283 239.182,59.166 255.751,59.166C272.606,59.166 289.363,61.36 305.554,65.688C306.2,65.861 306.85,65.944 307.489,65.944C310.794,65.944 313.818,63.738 314.711,60.394C315.778,56.403 313.407,52.303 309.415,51.235C291.966,46.57 273.91,44.205 255.75,44.205C237.901,44.205 220.152,46.488 202.996,50.99C198.999,52.038 196.61,56.128 197.659,60.123C198.709,64.12 202.796,66.511 206.794,65.46ZM503.694,317.626L452.278,317.626C459.43,296.385 463.058,274.197 463.058,251.513C463.058,183.57 429.676,119.852 373.761,81.067C370.367,78.716 365.707,79.556 363.35,82.951C360.996,86.345 361.839,91.006 365.234,93.362C417.12,129.351 448.097,188.473 448.097,251.513C448.097,274.27 444.169,296.485 436.426,317.626L410.602,317.626C419.457,296.848 424.115,274.226 424.115,251.513C424.115,221.843 416.287,192.67 401.478,167.147C387.115,142.393 366.53,121.548 341.949,106.87C338.402,104.752 333.809,105.91 331.69,109.457C329.573,113.005 330.731,117.597 334.278,119.715C356.683,133.094 375.445,152.093 388.537,174.655C402.024,197.899 409.154,224.476 409.154,251.513C409.154,274.718 404.129,296.936 394.213,317.626L290.121,317.626L318.593,286.781C322.424,282.632 323.395,276.841 321.131,271.669C318.866,266.496 313.952,263.283 308.304,263.283L287.544,263.283L287.544,247.88C287.544,243.748 284.196,240.4 280.064,240.4C275.932,240.4 272.583,243.748 272.583,247.88L272.583,270.763C272.583,274.896 275.932,278.244 280.064,278.244L306.114,278.244L269.762,317.626L241.741,317.626L205.389,278.244L230.441,278.244C234.573,278.244 237.922,274.896 237.922,270.763L237.922,203.41L272.583,203.41L272.583,215.988C272.583,220.12 275.932,223.469 280.064,223.469C284.196,223.469 287.544,220.12 287.544,215.988L287.544,201.844C287.544,194.458 281.535,188.448 274.148,188.448L236.356,188.448C228.97,188.448 222.96,194.457 222.96,201.844L222.96,263.283L203.197,263.283C197.55,263.283 192.635,266.497 190.371,271.669C188.106,276.842 189.078,282.632 192.909,286.781L221.381,317.626L117.289,317.626C107.373,296.936 102.348,274.718 102.348,251.513C102.348,243.726 102.937,235.904 104.099,228.263C104.72,224.178 101.913,220.364 97.829,219.742C93.749,219.129 89.928,221.928 89.308,226.013C88.034,234.396 87.387,242.975 87.387,251.512C87.387,274.225 92.045,296.847 100.9,317.625L75.076,317.625C67.332,296.483 63.404,274.269 63.404,251.512C63.404,188.126 94.647,128.819 146.98,92.866C150.385,90.526 151.249,85.869 148.91,82.464C146.571,79.059 141.913,78.195 138.508,80.534C82.113,119.279 48.443,183.196 48.443,251.511C48.443,274.195 52.072,296.383 59.223,317.624L8.307,317.624C4.175,317.624 0.826,320.973 0.826,325.105C0.826,329.237 4.175,332.585 8.307,332.585L503.694,332.585C507.827,332.585 511.175,329.237 511.175,325.105C511.175,320.973 507.826,317.626 503.694,317.626ZM196.781,361.293C196.781,357.16 193.433,353.812 189.3,353.812L74.484,353.812C70.351,353.812 67.003,357.16 67.003,361.293C67.003,365.425 70.351,368.773 74.484,368.773L189.3,368.773C193.433,368.773 196.781,365.424 196.781,361.293ZM438.016,353.812L323.2,353.812C319.067,353.812 315.719,357.16 315.719,361.293C315.719,365.425 319.067,368.773 323.2,368.773L438.016,368.773C442.149,368.773 445.497,365.425 445.497,361.293C445.497,357.16 442.149,353.812 438.016,353.812ZM334.534,403.323L177.467,403.323C173.335,403.323 169.987,406.671 169.987,410.804C169.987,414.936 173.335,418.284 177.467,418.284L334.535,418.284C338.667,418.284 342.016,414.936 342.016,410.804C342.016,406.671 338.666,403.323 334.534,403.323ZM281.061,452.834L230.94,452.834C226.808,452.834 223.459,456.182 223.459,460.315C223.459,464.447 226.808,467.795 230.94,467.795L281.061,467.795C285.194,467.795 288.542,464.447 288.542,460.315C288.542,456.182 285.194,452.834 281.061,452.834Z" style="fill:rgb(0,210,242);fill-rule:nonzero;"/>
    </g>
</svg>
