<?xml version="1.0" encoding="UTF-8" standalone="no"?>
<!DOCTYPE svg PUBLIC "-//W3C//DTD SVG 1.1//EN" "http://www.w3.org/Graphics/SVG/1.1/DTD/svg11.dtd">
<svg width="100%" height="100%" viewBox="0 0 512 512" version="1.1" xmlns="http://www.w3.org/2000/svg" xmlns:xlink="http://www.w3.org/1999/xlink" xml:space="preserve" xmlns:serif="http://www.serif.com/" style="fill-rule:evenodd;clip-rule:evenodd;stroke-linejoin:round;stroke-miterlimit:2;">
    <g transform="matrix(1,0,0,1,-1836,-1224)">
        <g id="Moon" transform="matrix(1,0,0,1,1836,1224)">
            <rect x="0" y="0" width="512" height="512" style="fill:none;"/>
            <path d="M123.467,31.567L132.533,31.567L132.533,40.633C132.533,44.775 135.891,48.133 140.033,48.133C144.175,48.133 147.533,44.775 147.533,40.633L147.533,31.567L156.6,31.567C160.742,31.567 164.1,28.209 164.1,24.067C164.1,19.925 160.742,16.567 156.6,16.567L147.533,16.567L147.533,7.5C147.533,3.358 144.175,0 140.033,0C135.891,0 132.533,3.358 132.533,7.5L132.533,16.567L123.467,16.567C119.325,16.567 115.967,19.925 115.967,24.067C115.967,28.209 119.325,31.567 123.467,31.567ZM388.533,480.433L379.467,480.433L379.467,471.367C379.467,467.225 376.109,463.867 371.967,463.867C367.825,463.867 364.467,467.225 364.467,471.367L364.467,480.433L355.4,480.433C351.258,480.433 347.9,483.791 347.9,487.933C347.9,492.075 351.258,495.433 355.4,495.433L364.467,495.433L364.467,504.5C364.467,508.642 367.825,512 371.967,512C376.109,512 379.467,508.642 379.467,504.5L379.467,495.433L388.533,495.433C392.675,495.433 396.033,492.075 396.033,487.933C396.033,483.791 392.675,480.433 388.533,480.433ZM182.233,231.15C182.233,244.42 193.029,255.217 206.299,255.217C219.569,255.217 230.366,244.421 230.366,231.15C230.366,217.88 219.57,207.084 206.299,207.084C193.029,207.083 182.233,217.88 182.233,231.15ZM206.3,222.083C211.299,222.083 215.367,226.15 215.367,231.149C215.367,236.148 211.3,240.216 206.3,240.216C201.301,240.216 197.234,236.149 197.234,231.149C197.233,226.151 201.301,222.083 206.3,222.083ZM173.167,115.967C150.762,115.967 132.534,134.195 132.534,156.6C132.534,179.005 150.762,197.233 173.167,197.233C195.572,197.233 213.8,179.005 213.8,156.6C213.8,134.195 195.572,115.967 173.167,115.967ZM173.167,182.233C159.033,182.233 147.534,170.734 147.534,156.6C147.534,142.466 159.033,130.967 173.167,130.967C187.301,130.967 198.8,142.466 198.8,156.6C198.8,170.734 187.301,182.233 173.167,182.233ZM82.834,251.858C82.834,276.547 102.92,296.633 127.609,296.633C134.262,296.633 140.668,295.207 146.648,292.393C150.396,290.63 152.005,286.162 150.242,282.414C148.479,278.666 144.011,277.056 140.263,278.82C136.295,280.687 132.037,281.633 127.609,281.633C111.191,281.633 97.834,268.276 97.834,251.858C97.834,235.44 111.191,222.083 127.609,222.083C144.027,222.083 157.384,235.44 157.384,251.858C157.384,254.781 156.963,257.666 156.133,260.433C154.943,264.4 157.194,268.581 161.161,269.772C165.126,270.962 169.31,268.711 170.5,264.744C171.75,260.578 172.384,256.243 172.384,251.859C172.384,227.17 152.298,207.084 127.609,207.084C102.92,207.084 82.834,227.169 82.834,251.858ZM405.84,114.218C400.65,108.735 392.236,107.755 385.836,111.889C381.202,114.881 375.816,116.276 370.24,115.91C357.723,115.096 347.487,105.059 346.428,92.563C346.199,89.865 346.386,87.182 346.983,84.587C348.686,77.185 344.885,69.63 337.945,66.622C312.533,55.61 285.505,49.919 257.61,49.705C207.828,49.364 159.578,67.074 121.69,99.684C118.55,102.386 118.196,107.122 120.898,110.261C123.6,113.401 128.336,113.755 131.475,111.053C166.61,80.812 211.389,64.313 257.494,64.705C283.365,64.903 308.426,70.179 331.98,80.386C332.279,80.515 332.444,80.876 332.364,81.223C331.417,85.336 331.12,89.578 331.481,93.829C333.161,113.658 349.404,129.586 369.266,130.878C378.07,131.448 386.614,129.241 393.973,124.489C394.304,124.276 394.723,124.292 394.947,124.529C428.707,160.195 447.3,206.886 447.3,256C447.3,361.483 361.483,447.3 256,447.3C247.652,447.3 239.231,446.751 230.971,445.669C230.491,445.606 230.324,445.074 230.302,444.77C230.23,443.796 230.096,442.813 229.905,441.85C227.771,431.114 218.675,423.155 207.785,422.495C199.059,421.964 190.721,426.212 186.022,433.574C185.896,433.77 185.497,433.875 185.104,433.718C111.802,404.45 64.541,334.537 64.7,255.606C64.791,210.16 81.252,166.076 111.049,131.474C113.752,128.335 113.399,123.599 110.26,120.897C107.12,118.193 102.385,118.548 99.683,121.686C67.55,159.001 49.799,206.55 49.7,255.576C49.615,297.729 62.162,338.29 85.983,372.873C109.244,406.641 141.595,432.498 179.54,447.649C186.601,450.471 194.645,447.944 198.666,441.645C200.465,438.827 203.533,437.266 206.877,437.468C210.902,437.712 214.4,440.784 215.193,444.775C215.265,445.139 215.315,445.509 215.343,445.875C215.909,453.53 221.534,459.561 229.023,460.542C237.927,461.709 247.003,462.3 256,462.3C369.754,462.3 462.3,369.754 462.3,256C462.3,203.034 442.249,152.681 405.84,114.218ZM463.083,381.033C458.941,381.033 455.583,384.391 455.583,388.533L455.583,405.1C455.583,409.242 458.941,412.6 463.083,412.6C467.225,412.6 470.583,409.242 470.583,405.1L470.583,388.533C470.583,384.391 467.226,381.033 463.083,381.033ZM463.083,447.3C458.941,447.3 455.583,450.658 455.583,454.8L455.583,471.367C455.583,475.509 458.941,478.867 463.083,478.867C467.225,478.867 470.583,475.509 470.583,471.367L470.583,454.8C470.583,450.658 467.226,447.3 463.083,447.3ZM504.5,422.45L487.933,422.45C483.791,422.45 480.433,425.808 480.433,429.95C480.433,434.092 483.791,437.45 487.933,437.45L504.5,437.45C508.642,437.45 512,434.092 512,429.95C512,425.808 508.642,422.45 504.5,422.45ZM438.233,422.45L421.666,422.45C417.524,422.45 414.166,425.808 414.166,429.95C414.166,434.092 417.524,437.45 421.666,437.45L438.233,437.45C442.375,437.45 445.733,434.092 445.733,429.95C445.733,425.808 442.375,422.45 438.233,422.45ZM48.917,64.7C53.059,64.7 56.417,61.342 56.417,57.2L56.417,40.633C56.417,36.491 53.059,33.133 48.917,33.133C44.775,33.133 41.417,36.491 41.417,40.633L41.417,57.2C41.417,61.342 44.774,64.7 48.917,64.7ZM56.417,123.467L56.417,106.9C56.417,102.758 53.059,99.4 48.917,99.4C44.775,99.4 41.417,102.758 41.417,106.9L41.417,123.467C41.417,127.609 44.775,130.967 48.917,130.967C53.059,130.967 56.417,127.609 56.417,123.467ZM73.767,89.55L90.334,89.55C94.476,89.55 97.834,86.192 97.834,82.05C97.834,77.908 94.476,74.55 90.334,74.55L73.767,74.55C69.625,74.55 66.267,77.908 66.267,82.05C66.267,86.192 69.624,89.55 73.767,89.55ZM24.067,74.55L7.5,74.55C3.358,74.55 0,77.908 0,82.05C0,86.192 3.358,89.55 7.5,89.55L24.067,89.55C28.209,89.55 31.567,86.192 31.567,82.05C31.567,77.908 28.209,74.55 24.067,74.55Z" style="fill:rgb(115,1,200);fill-rule:nonzero;"/>
        </g>
    </g>
</svg>
