<?xml version="1.0" encoding="UTF-8" standalone="no"?>
<!DOCTYPE svg PUBLIC "-//W3C//DTD SVG 1.1//EN" "http://www.w3.org/Graphics/SVG/1.1/DTD/svg11.dtd">
<svg width="100%" height="100%" viewBox="0 0 512 512" version="1.1" xmlns="http://www.w3.org/2000/svg" xmlns:xlink="http://www.w3.org/1999/xlink" xml:space="preserve" xmlns:serif="http://www.serif.com/" style="fill-rule:evenodd;clip-rule:evenodd;stroke-linejoin:round;stroke-miterlimit:2;">
    <g transform="matrix(1,0,0,1,-612,0)">
        <g id="Moonrise" transform="matrix(1,0,0,1,612,0)">
            <rect x="0" y="0" width="512" height="512" style="fill:none;"/>
            <g transform="matrix(1,0,0,1,-612,0)">
                <path d="M707.349,200.239C706.092,204.174 708.264,208.384 712.199,209.642C712.956,209.883 713.722,209.998 714.477,209.998C717.643,209.998 720.585,207.97 721.601,204.791C733.39,167.885 758.526,137.02 792.378,117.883C795.973,115.849 797.241,111.286 795.208,107.688C793.175,104.093 788.61,102.823 785.014,104.858C747.872,125.858 720.29,159.731 707.349,200.239ZM818.794,65.46C834.711,61.283 851.182,59.166 867.751,59.166C884.606,59.166 901.363,61.36 917.554,65.688C918.2,65.861 918.85,65.944 919.489,65.944C922.794,65.944 925.818,63.738 926.711,60.394C927.778,56.403 925.407,52.303 921.415,51.235C903.966,46.57 885.91,44.205 867.75,44.205C849.901,44.205 832.152,46.488 814.996,50.99C810.999,52.038 808.61,56.128 809.659,60.123C810.709,64.12 814.796,66.511 818.794,65.46ZM813.517,332.587C817.649,332.587 820.997,329.239 820.997,325.107C820.997,320.975 817.649,317.626 813.517,317.626L729.289,317.626C719.373,296.936 714.348,274.718 714.348,251.513C714.348,245.962 714.66,240.287 715.278,234.647C715.727,230.539 712.762,226.847 708.655,226.397C704.544,225.929 700.855,228.913 700.405,233.02C699.729,239.199 699.387,245.422 699.387,251.513C699.387,274.226 704.045,296.848 712.9,317.626L687.076,317.626C679.332,296.484 675.404,274.27 675.404,251.513C675.404,188.127 706.647,128.82 758.98,92.867C762.385,90.527 763.249,85.87 760.91,82.465C758.571,79.06 753.913,78.196 750.508,80.535C694.113,119.28 660.443,183.197 660.443,251.512C660.443,274.196 664.072,296.384 671.223,317.625L620.307,317.625C616.175,317.625 612.826,320.974 612.826,325.106C612.826,329.238 616.175,332.586 620.307,332.586L813.517,332.586L813.517,332.587ZM1115.69,317.626L1064.28,317.626C1071.43,296.385 1075.06,274.197 1075.06,251.513C1075.06,183.57 1041.68,119.852 985.761,81.067C982.366,78.716 977.706,79.556 975.35,82.951C972.996,86.345 973.839,91.006 977.234,93.362C1029.12,129.351 1060.1,188.473 1060.1,251.513C1060.1,274.27 1056.17,296.485 1048.43,317.626L1022.6,317.626C1031.46,296.848 1036.12,274.226 1036.12,251.513C1036.12,158.677 960.586,83.148 867.75,83.148C849.973,83.148 832.439,85.918 815.636,91.383C811.707,92.661 809.558,96.882 810.836,100.81C812.114,104.74 816.336,106.887 820.263,105.611C835.57,100.633 851.547,98.109 867.75,98.109C952.337,98.109 1021.15,166.926 1021.15,251.513C1021.15,274.718 1016.13,296.936 1006.21,317.626L922.982,317.626C918.85,317.626 915.502,320.975 915.502,325.107C915.502,329.239 918.85,332.587 922.982,332.587L1115.69,332.587C1119.83,332.587 1123.17,329.239 1123.17,325.107C1123.17,320.975 1119.83,317.626 1115.69,317.626ZM808.781,361.293C808.781,357.16 805.433,353.812 801.3,353.812L686.484,353.812C682.351,353.812 679.003,357.16 679.003,361.293C679.003,365.425 682.351,368.773 686.484,368.773L801.3,368.773C805.433,368.773 808.781,365.424 808.781,361.293ZM1050.02,353.812L935.2,353.812C931.067,353.812 927.719,357.16 927.719,361.293C927.719,365.425 931.067,368.773 935.2,368.773L1050.02,368.773C1054.15,368.773 1057.5,365.425 1057.5,361.293C1057.5,357.16 1054.15,353.812 1050.02,353.812ZM946.534,403.323L789.467,403.323C785.335,403.323 781.987,406.671 781.987,410.804C781.987,414.936 785.335,418.284 789.467,418.284L946.535,418.284C950.667,418.284 954.016,414.936 954.016,410.804C954.016,406.671 950.666,403.323 946.534,403.323ZM893.061,452.834L842.94,452.834C838.808,452.834 835.459,456.182 835.459,460.315C835.459,464.447 838.808,467.795 842.94,467.795L893.061,467.795C897.194,467.795 900.542,464.447 900.542,460.315C900.542,456.182 897.194,452.834 893.061,452.834ZM815.198,293.437L835.958,293.437L835.958,354.875C835.958,362.261 841.967,368.271 849.354,368.271L887.147,368.271C894.533,368.271 900.543,362.262 900.543,354.875L900.543,293.437L920.305,293.437C925.953,293.437 930.867,290.224 933.132,285.051C935.397,279.878 934.425,274.088 930.594,269.939L910.434,248.1C907.632,245.065 902.899,244.875 899.864,247.677C896.828,250.479 896.639,255.211 899.441,258.247L918.115,278.477L893.061,278.477C888.929,278.477 885.581,281.826 885.581,285.958L885.581,353.31L850.919,353.31L850.919,285.958C850.919,281.826 847.571,278.477 843.439,278.477L817.388,278.477L867.751,223.917L877.801,234.803C880.605,237.84 885.338,238.028 888.372,235.226C891.408,232.423 891.596,227.691 888.794,224.656L878.04,213.005C875.398,210.142 871.648,208.5 867.752,208.5C863.856,208.5 860.106,210.141 857.464,213.005L804.911,269.939C801.08,274.088 800.109,279.879 802.373,285.051C804.637,290.225 809.55,293.437 815.198,293.437Z" style="fill:rgb(115,1,200);fill-rule:nonzero;"/>
            </g>
        </g>
    </g>
</svg>
