<?xml version="1.0" encoding="UTF-8" standalone="no"?>
<!DOCTYPE svg PUBLIC "-//W3C//DTD SVG 1.1//EN" "http://www.w3.org/Graphics/SVG/1.1/DTD/svg11.dtd">
<svg width="100%" height="100%" viewBox="0 0 512 512" version="1.1" xmlns="http://www.w3.org/2000/svg" xmlns:xlink="http://www.w3.org/1999/xlink" xml:space="preserve" xmlns:serif="http://www.serif.com/" style="fill-rule:evenodd;clip-rule:evenodd;stroke-linejoin:round;stroke-miterlimit:2;">
    <g transform="matrix(1,0,0,1,0,-2448)">
        <g id="Neptune" transform="matrix(1,0,0,1,0,2448)">
            <rect x="0" y="0" width="512" height="512" style="fill:none;"/>
            <path d="M447.755,148.161C430.47,117.497 403.68,89.139 372.971,70.128C369.457,67.934 364.831,69.002 362.637,72.515C360.442,76.028 361.512,80.655 365.024,82.849C382.437,93.726 397.803,106.889 410.871,121.804C363.93,125.714 316.497,127.845 269.552,128.152C265.124,113.041 246.649,101.785 223.675,101.378C205.241,100.989 183.439,108.672 176.881,126.482C152.455,125.418 127.837,123.861 103.433,121.83C141.761,77.998 197.599,52 257.103,52C284.072,52 310.272,57.177 334.976,67.388C338.803,68.972 343.189,67.15 344.772,63.322C346.355,59.494 344.534,55.108 340.706,53.526C314.176,42.56 286.048,37 257.103,37C177.63,37 104.243,80.188 65.581,149.712C63.568,153.332 64.871,157.899 68.491,159.912C69.645,160.554 70.896,160.859 72.129,160.859C74.763,160.859 77.319,159.468 78.691,157.003C82.78,149.649 87.291,142.616 92.175,135.918C120.181,138.402 148.54,140.272 176.645,141.489C180.806,156.326 200.893,168.418 223.76,168.2C246.022,168.199 264.298,157.756 269.242,143.158C320.053,142.837 371.438,140.401 422.164,135.897C440.32,160.779 452.61,189.583 457.997,220.365C410.66,222.501 326.962,222.539 317.034,222.54C270.022,222.54 253.536,226.534 237.593,230.395C227.373,232.871 217.72,235.209 199.912,236.712C195.785,237.061 192.721,240.689 193.069,244.816C193.4,248.729 196.677,251.686 200.534,251.686C218.15,250.382 231.456,247.364 241.124,244.974C256.906,241.151 271.812,237.54 317.033,237.54C327.169,237.551 412.219,237.511 460.057,235.286C462.548,258.372 460.483,285.921 454.146,308.849C438.84,310.427 421.929,312.076 403.764,313.761C391.639,314.881 379.498,311.662 369.578,304.698C357.122,295.834 339.387,290.834 322.048,291.595C304.612,292.325 288.332,298.15 276.207,307.993C266.423,315.93 254.218,320.074 241.827,319.642C202.953,318.318 128.536,315.358 60.439,310.255C55.254,291.59 52.469,269.952 53.226,249.107C66.532,249.47 156.313,253.831 165.516,253.193C169.658,253.141 172.974,249.742 172.922,245.6C172.87,241.458 169.431,238.136 165.329,238.194C163.146,238.994 59.547,234.232 54.261,234.137C55.913,218.612 59.328,203.383 64.478,188.651C65.845,184.741 63.784,180.463 59.874,179.096C55.966,177.727 51.686,179.79 50.319,183.7C0.364,330.104 109.227,474.805 257.103,474.996C315.6,474.996 370.596,452.216 411.959,410.853C453.322,369.49 476.103,314.495 476.103,255.998C476.103,218.169 466.301,180.88 447.755,148.161ZM222.756,153.189C203.726,152.852 190.532,142.97 190.593,134.258C193.549,119.921 209.186,117.047 223.41,116.377C242.495,116.714 255.645,126.59 255.575,135.277C255.572,135.343 255.569,135.41 255.566,135.476C255.299,144.125 241.735,153.533 222.756,153.189ZM257.103,459.996C192.259,459.996 134.388,429.581 96.995,382.272C160.414,386.196 223.163,388.397 256.417,389.393C265.426,389.665 274.462,392.453 282.542,397.452C285.893,399.528 289.496,401.352 293.252,402.875C294.175,403.249 295.128,403.426 296.067,403.426C299.031,403.426 301.838,401.657 303.02,398.741C304.576,394.902 302.725,390.529 298.886,388.973C295.914,387.768 293.073,386.331 290.438,384.698C280.115,378.312 268.507,374.751 256.867,374.4C221.569,373.342 152.955,370.924 85.716,366.524C77.482,353.801 70.624,340.109 65.357,325.658C133.342,330.55 203.919,333.432 243.564,334.671C258.785,334.671 273.654,329.378 285.659,319.64C295.298,311.815 308.444,307.177 322.654,306.581C337.012,306.026 350.69,309.77 360.963,316.976C373.786,325.977 389.473,330.142 405.145,328.695C420.87,327.236 435.654,325.804 449.284,324.422C444.047,339.086 437.19,352.986 428.906,365.891C418.048,366.945 406.57,368.022 394.719,369.097C382.782,370.173 371.118,374.639 360.989,382.013C353.656,387.462 341.656,392.132 330.448,393.202C326.327,393.621 323.327,397.302 323.746,401.423C324.14,405.286 327.397,408.164 331.198,408.164C344.395,407.134 359.309,401.892 369.849,394.116C377.778,388.353 386.843,384.868 396.069,384.036C403.332,383.377 410.449,382.718 417.378,382.063C379.993,429.493 322.044,459.996 257.103,459.996ZM352.667,370.757C360.711,364.93 365.139,356.807 364.814,348.471C364.17,331.942 345.886,319.669 323.198,320.569C300.505,321.452 283.233,335.091 283.876,351.622C284.498,367.589 301.576,379.569 323.193,379.569C332.495,379.731 345.236,376.396 352.667,370.757ZM298.864,351.039C298.598,344.185 308.765,336.143 323.781,335.558C336.311,334.558 350.162,342.264 349.825,349.055C349.997,353.488 346.166,356.944 343.867,358.61C339.057,362.094 332.147,364.254 324.908,364.536C309.897,365.113 299.131,357.891 298.864,351.039ZM35.249,43.708L52.679,52.424L61.395,69.854C62.666,72.395 65.262,74 68.103,74C70.944,74 73.541,72.395 74.811,69.854L83.527,52.424L100.957,43.708C103.498,42.437 105.103,39.841 105.103,37C105.103,34.159 103.498,31.562 100.957,30.292L83.527,21.577L74.811,4.147C73.541,1.605 70.944,0 68.103,0C65.262,0 62.665,1.605 61.395,4.146L52.679,21.576L35.249,30.291C32.708,31.561 31.103,34.158 31.103,36.999C31.103,39.84 32.708,42.437 35.249,43.708ZM61.624,33.875C63.076,33.149 64.252,31.973 64.978,30.521L68.103,24.271L71.228,30.521C71.954,31.973 73.13,33.149 74.582,33.875L80.833,37L74.583,40.125C73.131,40.851 71.955,42.027 71.229,43.479L68.104,49.729L64.979,43.479C64.253,42.027 63.077,40.851 61.625,40.125L55.374,37L61.624,33.875ZM491.985,468.287L474.535,459.569L465.81,442.136C464.539,439.596 461.943,437.992 459.103,437.992C456.263,437.992 453.667,439.596 452.396,442.136L443.671,459.569L426.221,468.287C423.679,469.557 422.073,472.155 422.073,474.996C422.073,477.837 423.679,480.435 426.221,481.705L443.671,490.422L452.396,507.856C453.667,510.396 456.263,512 459.103,512C461.943,512 464.539,510.396 465.81,507.856L474.535,490.422L491.985,481.705C494.527,480.435 496.133,477.837 496.133,474.996C496.133,472.155 494.527,469.557 491.985,468.287ZM465.595,478.121C464.143,478.846 462.966,480.023 462.24,481.474L459.104,487.741L455.968,481.474C455.242,480.023 454.064,478.846 452.613,478.121L446.357,474.996L452.613,471.871C454.065,471.145 455.242,469.969 455.968,468.518L459.104,462.251L462.24,468.518C462.966,469.969 464.143,471.145 465.595,471.871L471.851,474.996L465.595,478.121ZM457.724,71.009L465.211,71.009L465.211,78.486C465.211,82.628 468.569,85.986 472.711,85.986C476.853,85.986 480.211,82.628 480.211,78.486L480.211,71.009L487.699,71.009C491.841,71.009 495.199,67.651 495.199,63.509C495.199,59.367 491.841,56.009 487.699,56.009L480.211,56.009L480.211,48.533C480.211,44.391 476.853,41.033 472.711,41.033C468.569,41.033 465.211,44.391 465.211,48.533L465.211,56.009L457.724,56.009C453.582,56.009 450.224,59.367 450.224,63.509C450.224,67.651 453.582,71.009 457.724,71.009ZM43.603,400.288L40.985,400.288L40.985,397.678C40.985,393.536 37.627,390.178 33.485,390.178C29.343,390.178 25.985,393.536 25.985,397.678L25.985,400.288L23.367,400.288C19.225,400.288 15.867,403.646 15.867,407.788C15.867,411.93 19.225,415.288 23.367,415.288L25.985,415.288L25.985,417.898C25.985,422.04 29.343,425.398 33.485,425.398C37.627,425.398 40.985,422.04 40.985,417.898L40.985,415.288L43.603,415.288C47.745,415.288 51.103,411.93 51.103,407.788C51.103,403.646 47.745,400.288 43.603,400.288ZM100.781,473.106L98.163,473.106L98.163,470.496C98.163,466.354 94.805,462.996 90.663,462.996C86.521,462.996 83.163,466.354 83.163,470.496L83.163,473.106L80.545,473.106C76.403,473.106 73.045,476.464 73.045,480.606C73.045,484.748 76.403,488.106 80.545,488.106L83.163,488.106L83.163,490.716C83.163,494.858 86.521,498.216 90.663,498.216C94.805,498.216 98.163,494.858 98.163,490.716L98.163,488.106L100.781,488.106C104.923,488.106 108.281,484.748 108.281,480.606C108.281,476.464 104.923,473.106 100.781,473.106Z" style="fill:rgb(0,194,159);fill-rule:nonzero;"/>
        </g>
    </g>
</svg>
