<?xml version="1.0" encoding="UTF-8" standalone="no"?>
<!DOCTYPE svg PUBLIC "-//W3C//DTD SVG 1.1//EN" "http://www.w3.org/Graphics/SVG/1.1/DTD/svg11.dtd">
<svg width="100%" height="100%" viewBox="0 0 512 512" version="1.1" xmlns="http://www.w3.org/2000/svg" xmlns:xlink="http://www.w3.org/1999/xlink" xml:space="preserve" xmlns:serif="http://www.serif.com/" style="fill-rule:evenodd;clip-rule:evenodd;stroke-linejoin:round;stroke-miterlimit:2;">
    <g transform="matrix(1,0,0,1,-612,-1836)">
        <g id="New-Moon" serif:id="New Moon" transform="matrix(1,0,0,1,612,1836)">
            <rect x="0" y="0" width="512" height="512" style="fill:none;"/>
            <clipPath id="_clip1">
                <rect x="0" y="0" width="512" height="512"/>
            </clipPath>
            <g clip-path="url(#_clip1)">
                <path d="M123.467,31.566L132.533,31.566L132.533,40.633C132.533,44.776 135.89,48.133 140.033,48.133C144.176,48.133 147.533,44.776 147.533,40.633L147.533,31.566L156.599,31.566C160.742,31.566 164.099,28.209 164.099,24.066C164.099,19.923 160.742,16.566 156.599,16.566L147.533,16.566L147.533,7.5C147.533,3.357 144.176,-0 140.033,-0C135.89,-0 132.533,3.357 132.533,7.5L132.533,16.566L123.467,16.566C119.324,16.566 115.967,19.923 115.967,24.066C115.967,28.209 119.324,31.566 123.467,31.566ZM388.533,480.434L379.467,480.434L379.467,471.367C379.467,467.224 376.11,463.867 371.967,463.867C367.824,463.867 364.467,467.224 364.467,471.367L364.467,480.434L355.4,480.434C351.257,480.434 347.9,483.791 347.9,487.934C347.9,492.077 351.257,495.434 355.4,495.434L364.466,495.434L364.466,504.5C364.466,508.643 367.823,512 371.966,512C376.109,512 379.466,508.643 379.466,504.5L379.466,495.434L388.532,495.434C392.675,495.434 396.032,492.077 396.032,487.934C396.032,483.791 392.676,480.434 388.533,480.434ZM322.267,362.9C335.538,362.9 346.333,352.103 346.333,338.833C346.333,325.562 335.537,314.767 322.267,314.767L305.7,314.767C292.429,314.767 281.634,325.563 281.634,338.833C281.634,352.103 292.43,362.9 305.7,362.9L322.267,362.9ZM296.634,338.833C296.634,333.834 300.701,329.767 305.7,329.767L322.266,329.767C327.265,329.767 331.332,333.834 331.332,338.833C331.332,343.833 327.265,347.9 322.266,347.9L305.7,347.9C300.701,347.9 296.634,343.833 296.634,338.833ZM256,49.7C206.656,49.7 158.904,67.397 121.541,99.532C118.4,102.233 118.045,106.969 120.745,110.109C123.445,113.249 128.181,113.605 131.322,110.905C151.167,93.836 174.178,81.17 198.814,73.456C198.813,73.56 198.799,73.662 198.799,73.767C198.799,87.038 209.595,97.833 222.865,97.833L305.7,97.833C317.087,97.833 326.645,89.882 329.131,79.241C350.334,88.046 369.62,100.559 386.182,115.967L338.833,115.967C325.562,115.967 314.767,126.763 314.767,140.033C314.767,153.303 325.563,164.099 338.833,164.099L354.938,164.099C359.938,164.099 364.005,168.166 364.005,173.166C364.005,178.165 359.938,182.232 354.938,182.232L305.7,182.232C292.429,182.232 281.634,193.028 281.634,206.298C281.634,219.568 292.43,230.364 305.7,230.364L355.4,230.364C360.399,230.364 364.466,234.431 364.466,239.431C364.466,244.43 360.399,248.497 355.4,248.497L338.833,248.497C325.562,248.497 314.767,259.293 314.767,272.563C314.767,285.833 325.563,296.63 338.833,296.63L442.942,296.63C441.604,302.789 439.97,308.838 438.053,314.763L388.533,314.763C375.262,314.763 364.467,325.559 364.467,338.829C364.467,352.099 375.263,362.896 388.533,362.896L414.573,362.896C398.949,385.998 378.41,405.513 354.475,419.943C350.185,416.249 344.693,414.162 338.833,414.162L206.3,414.162C194.889,414.162 185.315,422.146 182.854,432.82C161.66,424.068 142.257,411.581 125.552,396.028L206.3,396.028C219.57,396.028 230.366,385.232 230.366,371.962C230.366,358.692 219.57,347.9 206.3,347.9L140.033,347.9C135.034,347.9 130.967,343.833 130.967,338.833C130.967,333.834 135.034,329.767 140.033,329.767L206.3,329.767C219.57,329.767 230.366,318.971 230.366,305.701C230.366,292.431 219.57,281.635 206.3,281.635L189.734,281.635C184.735,281.635 180.668,277.568 180.668,272.568C180.668,267.569 184.735,263.502 189.734,263.502L239.434,263.502C252.705,263.502 263.5,252.706 263.5,239.436C263.5,226.166 252.704,215.369 239.434,215.369L222.867,215.369C217.868,215.369 213.801,211.302 213.801,206.303C213.801,201.304 217.868,197.237 222.867,197.237L239.434,197.237C252.705,197.237 263.5,186.441 263.5,173.171C263.5,159.9 252.704,149.104 239.434,149.104L97.355,149.104C101.506,142.945 106.022,137.004 110.905,131.327C113.605,128.186 113.25,123.451 110.109,120.75C106.969,118.05 102.234,118.404 99.532,121.546C67.397,158.903 49.7,206.654 49.7,256C49.7,267.489 50.652,279.014 52.531,290.253C53.144,293.92 56.321,296.518 59.92,296.518C60.33,296.518 60.747,296.485 61.165,296.414C65.251,295.731 68.009,291.865 67.326,287.78C65.584,277.356 64.7,266.664 64.7,256C64.7,223.667 72.903,192.077 88.223,164.1L239.433,164.1C244.432,164.1 248.499,168.167 248.499,173.167C248.499,178.166 244.432,182.233 239.433,182.233L222.866,182.233C209.596,182.233 198.8,193.029 198.8,206.299C198.8,219.569 209.596,230.365 222.866,230.365L239.433,230.365C244.432,230.365 248.499,234.432 248.499,239.432C248.499,244.431 244.432,248.498 239.433,248.498L189.733,248.498C176.463,248.498 165.667,259.294 165.667,272.564C165.667,285.834 176.463,296.631 189.733,296.631L206.3,296.631C211.299,296.631 215.366,300.698 215.366,305.697C215.366,310.696 211.299,314.763 206.3,314.763L140.033,314.763C126.762,314.763 115.967,325.559 115.967,338.829C115.967,352.099 126.763,362.896 140.033,362.896L206.3,362.896C211.299,362.896 215.366,366.963 215.366,371.962C215.366,376.961 211.299,381.028 206.3,381.028L111.103,381.028C95.181,362.578 82.625,340.889 74.546,316.748C73.231,312.82 68.979,310.7 65.054,312.016C61.125,313.33 59.007,317.58 60.322,321.508C88.503,405.722 167.14,462.3 256,462.3C369.754,462.3 462.3,369.754 462.3,256C462.3,142.246 369.754,49.7 256,49.7ZM197.234,438.093C197.309,433.158 201.347,429.167 206.299,429.167L337.237,429.167C312.565,440.788 285.03,447.3 256,447.3C235.7,447.3 215.978,444.11 197.387,438.143C197.336,438.127 197.285,438.109 197.234,438.093ZM305.7,82.833L222.866,82.833C217.867,82.833 213.8,78.766 213.8,73.767C213.8,72.119 214.251,70.529 215.087,69.136C228.439,66.213 242.151,64.7 256,64.7C276.494,64.7 296.239,67.952 314.763,73.946C314.667,78.863 310.639,82.833 305.7,82.833ZM338.833,281.634C333.834,281.634 329.767,277.567 329.767,272.567C329.767,267.568 333.834,263.501 338.833,263.501L355.4,263.501C368.671,263.501 379.466,252.705 379.466,239.435C379.466,226.165 368.67,215.368 355.4,215.368L305.7,215.368C300.701,215.368 296.634,211.301 296.634,206.302C296.634,201.303 300.701,197.236 305.7,197.236L354.938,197.236C368.209,197.236 379.005,186.44 379.005,173.17C379.005,159.899 368.208,149.103 354.938,149.103L338.833,149.103C333.834,149.103 329.767,145.036 329.767,140.037C329.767,135.038 333.834,130.971 338.833,130.971L400.67,130.971C429.71,164.522 447.3,208.245 447.3,256C447.3,264.692 446.706,273.246 445.577,281.634L338.833,281.634ZM388.533,347.9C383.534,347.9 379.467,343.833 379.467,338.833C379.467,333.834 383.534,329.767 388.533,329.767L432.498,329.767C429.89,335.985 426.961,342.035 423.734,347.901L388.533,347.901L388.533,347.9ZM463.083,381.033C458.94,381.033 455.583,384.39 455.583,388.533L455.583,405.1C455.583,409.243 458.94,412.6 463.083,412.6C467.226,412.6 470.583,409.243 470.583,405.1L470.583,388.534C470.583,384.391 467.226,381.033 463.083,381.033ZM463.083,447.3C458.94,447.3 455.583,450.657 455.583,454.8L455.583,471.366C455.583,475.509 458.94,478.866 463.083,478.866C467.226,478.866 470.583,475.509 470.583,471.366L470.583,454.8C470.583,450.657 467.226,447.3 463.083,447.3ZM504.5,422.45L487.934,422.45C483.791,422.45 480.434,425.807 480.434,429.95C480.434,434.093 483.791,437.45 487.934,437.45L504.5,437.45C508.643,437.45 512,434.093 512,429.95C512,425.807 508.643,422.45 504.5,422.45ZM438.233,422.45L421.667,422.45C417.524,422.45 414.167,425.807 414.167,429.95C414.167,434.093 417.524,437.45 421.667,437.45L438.233,437.45C442.376,437.45 445.733,434.093 445.733,429.95C445.733,425.807 442.376,422.45 438.233,422.45ZM48.917,64.7C53.06,64.7 56.417,61.343 56.417,57.2L56.417,40.634C56.417,36.491 53.06,33.134 48.917,33.134C44.774,33.134 41.417,36.491 41.417,40.634L41.417,57.2C41.417,61.343 44.774,64.7 48.917,64.7ZM56.417,123.467L56.417,106.9C56.417,102.757 53.06,99.4 48.917,99.4C44.774,99.4 41.417,102.757 41.417,106.9L41.417,123.466C41.417,127.609 44.774,130.966 48.917,130.966C53.06,130.966 56.417,127.609 56.417,123.467ZM73.767,89.55L90.333,89.55C94.476,89.55 97.833,86.193 97.833,82.05C97.833,77.907 94.476,74.55 90.333,74.55L73.767,74.55C69.624,74.55 66.267,77.907 66.267,82.05C66.267,86.192 69.624,89.55 73.767,89.55ZM24.066,74.55L7.5,74.55C3.357,74.55 0,77.907 0,82.05C0,86.193 3.357,89.55 7.5,89.55L24.066,89.55C28.209,89.55 31.566,86.193 31.566,82.05C31.566,77.907 28.209,74.55 24.066,74.55Z" style="fill:rgb(236,12,198);fill-rule:nonzero;"/>
            </g>
        </g>
    </g>
</svg>
