<?xml version="1.0" encoding="UTF-8" standalone="no"?>
<!DOCTYPE svg PUBLIC "-//W3C//DTD SVG 1.1//EN" "http://www.w3.org/Graphics/SVG/1.1/DTD/svg11.dtd">
<svg width="100%" height="100%" viewBox="0 0 512 512" version="1.1" xmlns="http://www.w3.org/2000/svg" xmlns:xlink="http://www.w3.org/1999/xlink" xml:space="preserve" xmlns:serif="http://www.serif.com/" style="fill-rule:evenodd;clip-rule:evenodd;stroke-linejoin:round;stroke-miterlimit:2;">
    <g transform="matrix(1,0,0,1,0,-1224)">
        <g id="Rain" transform="matrix(1,0,0,1,0,1224)">
            <rect x="0" y="0" width="512" height="512" style="fill:none;"/>
            <path d="M476.512,142.496C465.504,134.555 452.797,129.613 439.43,128.027C431.742,55.723 370.363,0 296.902,0C273.773,0 251.668,5.363 231.203,15.938C227.523,17.84 226.082,22.363 227.984,26.043C229.887,29.723 234.414,31.164 238.09,29.262C256.406,19.801 276.191,15 296.902,15C364.645,15 420.91,67.914 425,135.465C425.234,139.324 428.363,142.375 432.227,142.508C445.047,142.949 457.324,147.152 467.734,154.66C469.059,155.617 470.594,156.078 472.113,156.078C474.441,156.078 476.738,154.996 478.203,152.965C480.629,149.609 479.867,144.922 476.512,142.496ZM500.281,169.699C498.336,166.047 493.789,164.66 490.137,166.609C486.48,168.555 485.094,173.098 487.043,176.754C491.977,186.02 494.586,196.5 494.586,207.07C494.586,218.5 491.547,229.75 485.793,239.598C483.703,243.176 484.91,247.77 488.484,249.855C489.676,250.551 490.977,250.883 492.262,250.883C494.84,250.883 497.352,249.551 498.746,247.164C505.836,235.023 509.586,221.156 509.586,207.07C509.586,194.051 506.367,181.129 500.281,169.699ZM465.699,260.906C455.094,267.961 442.738,271.688 429.969,271.688L290.645,271.688C308.141,258.32 319.457,237.25 319.457,213.582C319.457,194.211 311.957,175.961 298.336,162.188C285.926,149.641 269.738,142.129 252.313,140.727C244.688,122.977 232.359,107.773 216.438,96.535C206.637,89.621 195.867,84.52 184.523,81.336C191.664,68.398 200.922,56.871 212.133,46.996C215.238,44.258 215.539,39.52 212.801,36.41C210.066,33.301 205.324,33.004 202.219,35.738C188.508,47.813 177.406,62.105 169.164,78.262C164.887,77.73 160.559,77.453 156.191,77.453C103.145,77.453 58.73,117.258 52.363,169.211C23.637,173.395 2,197.887 2,227.629C2,260.195 28.492,286.688 61.059,286.688L429.969,286.688C445.707,286.688 460.934,282.094 474.008,273.395C477.457,271.102 478.395,266.445 476.098,262.996C473.805,259.551 469.148,258.613 465.699,260.906ZM61.059,271.688C36.766,271.688 17,251.926 17,227.629C17,203.766 35.676,184.43 59.516,183.609C63.383,183.477 66.512,180.426 66.746,176.566C69.602,129.402 108.891,92.453 156.188,92.453C193.355,92.453 227.09,115.832 240.129,150.625C241.215,153.523 243.969,155.457 247.063,155.492C278.711,155.875 304.457,181.934 304.457,213.582C304.457,245.621 278.391,271.688 246.348,271.688L61.059,271.688ZM396.527,126.801C397.109,126.801 397.699,126.734 398.285,126.594C402.313,125.625 404.797,121.574 403.828,117.547C402.367,111.473 400.367,105.48 397.887,99.742C396.238,95.941 391.824,94.191 388.023,95.84C384.223,97.484 382.473,101.898 384.117,105.699C386.262,110.648 387.984,115.813 389.242,121.055C390.066,124.492 393.141,126.801 396.527,126.801ZM365.453,77.648C366.926,79.184 368.895,79.957 370.863,79.957C372.73,79.957 374.602,79.262 376.055,77.867C379.043,75 379.141,70.254 376.273,67.266C355.297,45.406 327.109,33.371 296.902,33.371C292.762,33.371 289.402,36.73 289.402,40.871C289.402,45.012 292.762,48.371 296.902,48.371C322.984,48.371 347.328,58.77 365.453,77.648ZM122.008,347.879C122.008,345.168 122.008,336.914 105.871,312.59C103.23,308.609 98.801,306.23 94.023,306.23C89.246,306.23 84.816,308.609 82.176,312.59C66.035,336.914 66.035,345.164 66.035,347.879C66.035,363.309 78.59,375.863 94.023,375.863C109.453,375.863 122.008,363.309 122.008,347.879ZM81.035,347.879C81.035,344.973 84.453,336.441 94.023,321.871C103.594,336.441 107.012,344.973 107.012,347.879C107.012,355.039 101.184,360.863 94.023,360.863C86.863,360.863 81.035,355.039 81.035,347.879ZM214.449,347.879C214.449,345.168 214.449,336.914 198.313,312.59C195.672,308.609 191.242,306.23 186.465,306.23C181.688,306.23 177.258,308.609 174.617,312.59C158.477,336.914 158.477,345.164 158.477,347.879C158.477,363.309 171.031,375.863 186.465,375.863C201.895,375.863 214.449,363.309 214.449,347.879ZM173.477,347.879C173.477,344.973 176.895,336.441 186.465,321.871C196.035,336.441 199.449,344.973 199.449,347.879C199.449,355.039 193.625,360.863 186.465,360.863C179.305,360.863 173.477,355.039 173.477,347.879ZM306.891,347.879C306.891,345.168 306.891,336.914 290.754,312.59C288.109,308.609 283.684,306.23 278.902,306.23C274.129,306.23 269.699,308.609 267.059,312.59C250.918,336.914 250.918,345.164 250.918,347.879C250.918,363.309 263.473,375.863 278.902,375.863C294.336,375.863 306.891,363.309 306.891,347.879ZM265.918,347.879C265.918,344.973 269.336,336.438 278.906,321.871C288.477,336.441 291.891,344.973 291.891,347.879C291.891,355.039 286.066,360.863 278.906,360.863C271.746,360.863 265.918,355.039 265.918,347.879ZM399.332,347.879C399.332,345.164 399.332,336.914 383.195,312.594C380.555,308.609 376.125,306.234 371.348,306.234C366.57,306.234 362.141,308.609 359.496,312.594C343.359,336.918 343.359,345.168 343.359,347.879C343.359,363.313 355.914,375.863 371.344,375.863C386.777,375.863 399.332,363.309 399.332,347.879ZM358.359,347.879C358.359,344.973 361.777,336.441 371.348,321.871C380.914,336.441 384.332,344.973 384.332,347.879C384.332,355.039 378.508,360.863 371.348,360.863C364.188,360.863 358.359,355.039 358.359,347.879ZM94.023,442.367C89.246,442.367 84.816,444.746 82.176,448.727C66.035,473.051 66.035,481.301 66.035,484.016C66.035,499.445 78.59,512 94.023,512C109.453,512 122.008,499.445 122.008,484.016C122.008,481.305 122.008,473.051 105.871,448.727C103.23,444.746 98.801,442.367 94.023,442.367ZM94.023,497C86.863,497 81.035,491.176 81.035,484.016C81.035,481.109 84.453,472.578 94.023,458.008C103.594,472.578 107.008,481.109 107.008,484.016C107.008,491.176 101.184,497 94.023,497ZM186.465,442.367C181.688,442.367 177.258,444.746 174.617,448.727C158.477,473.051 158.477,481.301 158.477,484.016C158.477,499.445 171.031,512 186.465,512C201.895,512 214.449,499.445 214.449,484.016C214.449,481.305 214.449,473.051 198.313,448.727C195.672,444.746 191.242,442.367 186.465,442.367ZM186.465,497C179.305,497 173.477,491.176 173.477,484.016C173.477,481.109 176.895,472.574 186.465,458.008C196.035,472.578 199.449,481.109 199.449,484.016C199.449,491.176 193.625,497 186.465,497ZM278.902,442.367C274.129,442.367 269.699,444.746 267.059,448.727C250.918,473.051 250.918,481.301 250.918,484.016C250.918,499.445 263.473,512 278.902,512C294.336,512 306.891,499.445 306.891,484.016C306.891,481.305 306.891,473.051 290.75,448.727C288.109,444.746 283.684,442.367 278.902,442.367ZM278.906,497C271.742,497 265.918,491.176 265.918,484.016C265.918,481.109 269.336,472.574 278.906,458.008C288.477,472.578 291.891,481.109 291.891,484.016C291.891,491.176 286.066,497 278.906,497ZM371.348,442.367C366.57,442.367 362.141,444.746 359.496,448.727C343.359,473.051 343.359,481.301 343.359,484.016C343.359,499.445 355.914,512 371.344,512C386.777,512 399.332,499.445 399.332,484.016C399.332,481.301 399.332,473.051 383.191,448.727C380.555,444.746 376.125,442.367 371.348,442.367ZM371.348,497C364.184,497 358.359,491.176 358.359,484.016C358.359,481.109 361.777,472.578 371.348,458.008C380.914,472.574 384.332,481.109 384.332,484.016C384.332,491.176 378.508,497 371.348,497ZM168.23,415.156C168.23,412.445 168.23,404.195 152.09,379.871C149.449,375.887 145.02,373.512 140.242,373.512C135.465,373.512 131.035,375.887 128.395,379.871C112.258,404.191 112.258,412.445 112.258,415.156C112.258,430.59 124.813,443.145 140.242,443.145C155.672,443.145 168.23,430.59 168.23,415.156ZM140.242,428.145C133.082,428.145 127.258,422.316 127.258,415.156C127.258,412.25 130.676,403.719 140.242,389.148C149.813,403.719 153.23,412.254 153.23,415.156C153.23,422.316 147.402,428.145 140.242,428.145ZM260.672,415.156C260.672,412.445 260.672,404.191 244.531,379.871C241.891,375.891 237.461,373.512 232.684,373.512C227.906,373.512 223.48,375.891 220.836,379.871C204.699,404.195 204.699,412.445 204.699,415.156C204.699,430.59 217.254,443.145 232.684,443.145C248.113,443.145 260.672,430.59 260.672,415.156ZM232.684,428.145C225.523,428.145 219.699,422.316 219.699,415.156C219.699,412.254 223.117,403.719 232.684,389.148C242.254,403.719 245.672,412.25 245.672,415.156C245.672,422.316 239.844,428.145 232.684,428.145ZM353.113,415.156C353.113,412.445 353.113,404.195 336.973,379.871C334.332,375.891 329.902,373.512 325.125,373.512C320.348,373.512 315.922,375.887 313.277,379.871C297.141,404.195 297.141,412.445 297.141,415.156C297.141,430.59 309.695,443.145 325.125,443.145C340.555,443.145 353.113,430.59 353.113,415.156ZM325.125,428.145C317.965,428.145 312.141,422.316 312.141,415.156C312.141,412.254 315.559,403.719 325.129,389.148C334.695,403.719 338.113,412.254 338.113,415.156C338.113,422.316 332.285,428.145 325.125,428.145ZM417.566,373.512C412.789,373.512 408.359,375.887 405.719,379.871C389.578,404.195 389.578,412.445 389.578,415.156C389.578,430.59 402.137,443.145 417.566,443.145C432.996,443.145 445.551,430.59 445.551,415.156C445.551,412.445 445.551,404.195 429.414,379.871C426.773,375.891 422.344,373.512 417.566,373.512ZM417.566,428.145C410.406,428.145 404.582,422.316 404.582,415.156C404.582,412.254 407.996,403.719 417.566,389.148C427.137,403.723 430.555,412.254 430.555,415.156C430.555,422.316 424.727,428.145 417.566,428.145Z" style="fill:rgb(115,1,200);fill-rule:nonzero;"/>
        </g>
    </g>
</svg>
