<?xml version="1.0" encoding="UTF-8" standalone="no"?>
<!DOCTYPE svg PUBLIC "-//W3C//DTD SVG 1.1//EN" "http://www.w3.org/Graphics/SVG/1.1/DTD/svg11.dtd">
<svg width="100%" height="100%" viewBox="0 0 512 512" version="1.1" xmlns="http://www.w3.org/2000/svg" xmlns:xlink="http://www.w3.org/1999/xlink" xml:space="preserve" xmlns:serif="http://www.serif.com/" style="fill-rule:evenodd;clip-rule:evenodd;stroke-linejoin:round;stroke-miterlimit:2;">
    <g transform="matrix(1,0,0,1,-1224,-2448)">
        <g id="Saturn" transform="matrix(1,0,0,1,1224,2448)">
            <rect x="0" y="0" width="512" height="512" style="fill:none;"/>
            <clipPath id="_clip1">
                <rect x="0" y="0" width="512" height="512"/>
            </clipPath>
            <g clip-path="url(#_clip1)">
                <path d="M501.588,384.927C500.288,380.994 496.046,378.86 492.114,380.16C488.181,381.46 486.047,385.702 487.347,389.635C501.524,432.521 499.882,465.59 482.722,482.751C451.797,513.674 373.239,493.576 282.581,431.547C245.088,405.901 208.078,374.896 172.577,339.395C137.077,303.895 106.072,266.884 80.425,229.391C18.396,138.733 -1.703,60.173 29.22,29.25C58.348,0.124 129.74,16.268 213.693,70.075C194.721,74.35 176.605,81.513 159.858,91.325C127.013,77.264 102.816,76.71 89.748,89.779C76.208,103.318 77.287,128.804 92.866,163.478C92.89,163.533 92.915,163.587 92.941,163.642C112.372,206.842 152.091,260.191 201.936,310.036C251.826,359.927 305.226,399.673 348.444,419.084C377.68,431.747 404.197,438.254 422.192,422.224C435.268,409.149 434.706,384.929 420.62,352.052C430.527,335.061 437.586,316.857 441.799,298.133C454.945,318.641 465.994,338.639 474.724,357.767C475.983,360.526 478.705,362.155 481.552,362.155C482.594,362.155 483.652,361.937 484.661,361.476C488.43,359.756 490.09,355.307 488.37,351.539C477.406,327.516 462.946,302.229 445.393,276.35C451.285,221.003 433.078,163.554 390.748,121.224C354.748,85.223 306.882,65.396 255.97,65.396C249.08,65.396 242.249,65.772 235.492,66.489C190.003,35.652 146.452,14.491 109.404,5.25C68.88,-4.86 37.485,-0.227 18.615,18.644C-0.257,37.515 -4.889,68.91 5.219,109.435C14.461,146.487 35.626,190.044 66.469,235.539C62.099,276.325 71.076,317.953 91.884,353.071C93.285,355.435 95.781,356.749 98.343,356.749C99.642,356.749 100.959,356.411 102.158,355.701C105.721,353.59 106.899,348.989 104.787,345.425C88.703,318.277 80.295,286.898 80.387,255.294C103.957,287.569 131.32,319.353 161.969,350.003C192.634,380.669 224.435,408.044 256.726,431.621C209.992,431.898 165.345,413.719 131.799,380.174C129.336,377.711 126.917,375.146 124.609,372.551C121.858,369.456 117.117,369.177 114.021,371.929C110.925,374.68 110.647,379.421 113.399,382.516C115.901,385.33 118.523,388.111 121.192,390.78C157.33,426.918 205.333,446.633 255.638,446.633C262.525,446.633 269.463,446.24 276.414,445.492C321.915,476.341 365.479,497.511 402.536,506.754C416.513,510.24 429.402,511.973 441.068,511.973C463.225,511.973 480.965,505.721 493.326,493.358C515.013,471.671 517.87,434.177 501.588,384.927ZM100.354,100.384C107.487,93.251 123.246,93.695 144.483,101.364C128.907,112.591 113.332,127.831 101.345,144.541C93.665,123.29 93.218,107.521 100.354,100.384ZM108.243,161.013C116.549,148.159 127.061,135.654 139.227,124.825C151.693,143.687 164.976,162.208 178.793,179.977C180.272,181.878 182.483,182.873 184.719,182.873C186.328,182.873 187.949,182.357 189.318,181.293C192.588,178.751 193.177,174.039 190.634,170.77C176.737,152.899 163.396,134.253 150.897,115.266C165.32,104.325 184.665,94.127 203.177,88.442C262.624,175.204 336.684,249.273 423.437,308.731C417.646,327.229 408.731,344.946 396.69,361.055C347.853,328.908 302.297,291.835 261.217,250.755C244.337,233.874 227.946,216.041 212.501,197.75C209.829,194.585 205.096,194.187 201.932,196.859C198.767,199.531 198.368,204.263 201.041,207.428C216.756,226.038 233.435,244.184 250.612,261.361C292.048,302.797 337.954,340.227 387.15,372.737C377.615,383.589 364.085,395.355 350.958,403.73C309.979,384.464 259.788,346.678 212.542,299.43C165.298,252.185 127.511,201.995 108.243,161.013ZM411.587,411.617C404.45,418.753 388.682,418.307 367.43,410.627C375.686,404.659 383.501,398.027 390.748,390.779C398.094,383.433 404.702,375.626 410.596,367.46C418.276,388.71 418.724,404.48 411.587,411.617ZM280.152,82.048C302.068,109.419 325.704,135.857 350.467,160.651C351.932,162.118 353.853,162.851 355.774,162.851C357.692,162.851 359.61,162.12 361.074,160.658C364.005,157.731 364.008,152.982 361.081,150.052C341.011,129.957 321.703,108.758 303.459,86.861C332.173,94.876 358.489,110.173 380.144,131.829C402.177,153.861 417.106,180.341 424.96,208.404C411.975,197.581 399.224,186.381 386.896,174.94C383.86,172.122 379.114,172.298 376.297,175.335C373.48,178.37 373.657,183.115 376.692,185.933C393.763,201.778 411.627,217.172 429.818,231.743C432.649,252.211 431.883,273.084 427.511,293.33C345.649,236.461 275.439,166.242 218.58,84.372C237.598,80.252 259.482,79.141 280.152,82.048ZM383.656,43.714L401.087,52.43L409.802,69.859C411.072,72.4 413.668,74.005 416.509,74.005C419.35,74.005 421.947,72.4 423.217,69.859L431.933,52.43L449.363,43.714C451.904,42.443 453.508,39.847 453.508,37.006C453.508,34.165 451.904,31.568 449.363,30.298L431.933,21.583L423.217,4.153C421.947,1.612 419.35,0.007 416.509,0.007C413.668,0.007 411.072,1.612 409.802,4.153L401.087,21.583L383.656,30.298C381.115,31.569 379.51,34.166 379.51,37.006C379.51,39.846 381.115,42.444 383.656,43.714ZM410.031,33.881C411.483,33.155 412.659,31.978 413.385,30.527L416.509,24.277L419.634,30.527C420.36,31.979 421.536,33.155 422.988,33.881L429.238,37.006L422.988,40.131C421.536,40.857 420.36,42.033 419.634,43.485L416.509,49.735L413.385,43.485C412.659,42.033 411.483,40.857 410.031,40.131L403.781,37.006L410.031,33.881ZM128.286,468.286L110.855,459.571L102.14,442.141C100.869,439.6 98.273,437.995 95.433,437.995C92.593,437.995 89.995,439.6 88.725,442.141L80.009,459.571L62.579,468.286C60.038,469.556 58.434,472.153 58.434,474.994C58.434,477.835 60.038,480.432 62.579,481.702L80.009,490.418L88.725,507.847C89.996,510.388 92.592,511.993 95.433,511.993C98.274,511.993 100.87,510.388 102.14,507.847L110.855,490.418L128.286,481.702C130.827,480.432 132.432,477.835 132.432,474.994C132.432,472.153 130.827,469.557 128.286,468.286ZM101.911,478.12C100.459,478.846 99.283,480.022 98.557,481.474L95.433,487.724L92.308,481.474C91.582,480.022 90.406,478.846 88.954,478.12L82.704,474.995L88.954,471.87C90.406,471.144 91.582,469.968 92.308,468.516L95.433,462.266L98.557,468.516C99.283,469.968 100.46,471.144 101.911,471.87L108.161,474.995L101.911,478.12ZM325.323,47.458L330.323,47.458L330.323,52.458C330.323,56.6 333.681,59.957 337.822,59.957C341.964,59.957 345.322,56.6 345.322,52.458L345.322,47.458L350.322,47.458C354.464,47.458 357.822,44.1 357.822,39.958C357.822,35.816 354.464,32.458 350.322,32.458L345.322,32.458L345.322,27.458C345.322,23.316 341.964,19.958 337.822,19.958C333.681,19.958 330.323,23.316 330.323,27.458L330.323,32.458L325.323,32.458C321.181,32.458 317.823,35.816 317.823,39.958C317.823,44.1 321.181,47.458 325.323,47.458ZM187.326,464.447L182.326,464.447L182.326,459.447C182.326,455.305 178.968,451.948 174.827,451.948C170.685,451.948 167.327,455.305 167.327,459.447L167.327,464.447L162.327,464.447C158.185,464.447 154.827,467.805 154.827,471.947C154.827,476.089 158.185,479.447 162.327,479.447L167.327,479.447L167.327,484.447C167.327,488.589 170.685,491.947 174.827,491.947C178.968,491.947 182.326,488.589 182.326,484.447L182.326,479.447L187.326,479.447C191.468,479.447 194.826,476.089 194.826,471.947C194.826,467.805 191.468,464.447 187.326,464.447Z" style="fill:rgb(0,194,159);fill-rule:nonzero;"/>
            </g>
        </g>
    </g>
</svg>
