<?xml version="1.0" encoding="UTF-8" standalone="no"?>
<!DOCTYPE svg PUBLIC "-//W3C//DTD SVG 1.1//EN" "http://www.w3.org/Graphics/SVG/1.1/DTD/svg11.dtd">
<svg width="100%" height="100%" viewBox="0 0 512 512" version="1.1" xmlns="http://www.w3.org/2000/svg" xmlns:xlink="http://www.w3.org/1999/xlink" xml:space="preserve" xmlns:serif="http://www.serif.com/" style="fill-rule:evenodd;clip-rule:evenodd;stroke-linejoin:round;stroke-miterlimit:2;">
    <g transform="matrix(1,0,0,1,-2448,-612)">
        <g id="Sleet" transform="matrix(1,0,0,1,2448,612)">
            <rect x="0" y="0" width="512" height="512" style="fill:none;"/>
            <g transform="matrix(1,0,0,1,-2448,-612)">
                <path d="M2909.19,820.039C2907,802.07 2900.29,785.539 2890.26,771.574C2892.19,764.879 2893.46,757.969 2894.03,750.977C2896.16,725.066 2888.68,699.398 2872.97,678.695C2870.47,675.398 2865.76,674.75 2862.46,677.258C2859.16,679.762 2858.52,684.465 2861.02,687.766C2874.49,705.516 2880.91,727.527 2879.08,749.746C2878.87,752.336 2878.54,754.906 2878.11,757.457C2859.04,738.871 2833.01,727.465 2804.5,727.465C2800.07,727.465 2795.68,727.75 2791.35,728.285C2779.73,705.488 2762.28,686.164 2740.68,672.254C2739.1,671.234 2737.49,670.25 2735.87,669.293C2753.27,656.66 2774.8,650.523 2796.41,652.297C2811.64,653.547 2826.39,658.66 2839.04,667.086C2842.48,669.383 2847.14,668.445 2849.44,665C2851.73,661.551 2850.8,656.895 2847.35,654.602C2832.59,644.773 2815.39,638.805 2797.64,637.348C2769.95,635.082 2742.38,643.938 2721.18,661.746C2702.82,653.582 2682.89,649.316 2662.52,649.316C2627.44,649.316 2593.61,662.047 2567.26,685.16C2564.14,687.895 2563.83,692.633 2566.56,695.746C2569.29,698.859 2574.03,699.168 2577.15,696.438C2600.76,675.727 2631.08,664.316 2662.52,664.316C2687.47,664.316 2711.69,671.422 2732.56,684.867C2750.73,696.57 2765.62,712.547 2776,731.359C2764.53,734.566 2753.65,739.719 2743.75,746.707C2727.68,758.043 2715.24,773.395 2707.55,791.309C2692.58,792.535 2678.2,798.348 2666.59,807.949C2653.85,818.488 2644.93,833.148 2641.48,849.23C2640.61,853.281 2643.2,857.27 2647.24,858.137C2651.3,859.008 2655.28,856.426 2656.15,852.375C2658.89,839.578 2666,827.906 2676.15,819.508C2686.43,811.004 2699.45,806.23 2712.8,806.07C2715.9,806.031 2718.65,804.102 2719.74,801.203C2732.91,766.07 2766.97,742.465 2804.49,742.465C2852.25,742.465 2891.93,779.773 2894.81,827.398C2895.04,831.258 2898.17,834.309 2902.03,834.438C2926.13,835.27 2945,854.805 2945,878.918C2945,903.469 2925.03,923.441 2900.48,923.441L2713.53,923.441C2687.68,923.441 2664.53,906.129 2657.23,881.344C2656.06,877.371 2651.89,875.102 2647.91,876.27C2643.94,877.438 2641.67,881.605 2642.84,885.582C2647.38,901.012 2656.82,914.129 2669.14,923.441L2528.27,923.441C2492.28,923.441 2463,894.164 2463,858.176C2463,841.141 2469.52,825.023 2481.37,812.793C2493.19,800.594 2509.03,793.551 2525.98,792.969C2529.85,792.836 2532.98,789.785 2533.21,785.926C2534.66,762.023 2542.7,739.031 2556.48,719.441C2558.86,716.055 2558.05,711.375 2554.66,708.992C2551.27,706.609 2546.59,707.426 2544.22,710.813C2530.1,730.887 2521.37,754.16 2518.78,778.484C2500.48,780.633 2483.57,788.969 2470.6,802.359C2456.02,817.402 2448,837.227 2448,858.176C2448,902.434 2484.01,938.441 2528.27,938.441L2900.48,938.441C2933.3,938.441 2960,911.738 2960,878.918C2960,848.93 2938.17,824.234 2909.19,820.039ZM2860.67,822.078C2861.13,824.48 2861.44,826.945 2861.59,829.406C2861.83,833.387 2865.14,836.453 2869.07,836.453C2869.22,836.453 2869.38,836.449 2869.53,836.441C2873.67,836.188 2876.82,832.633 2876.56,828.5C2876.38,825.398 2875.98,822.285 2875.4,819.25C2874.62,815.184 2870.7,812.52 2866.62,813.301C2862.55,814.082 2859.89,818.012 2860.67,822.078ZM2840.53,770.391C2836.95,768.32 2832.36,769.551 2830.29,773.137C2828.22,776.723 2829.45,781.313 2833.03,783.383C2841.61,788.332 2848.8,795.449 2853.82,803.961C2855.22,806.332 2857.72,807.648 2860.28,807.648C2861.58,807.648 2862.89,807.313 2864.09,806.609C2867.66,804.504 2868.84,799.902 2866.74,796.336C2860.4,785.605 2851.34,776.633 2840.53,770.391ZM2906.41,970.676L2906.25,970.676C2902.11,970.691 2898.76,974.059 2898.77,978.203C2898.79,982.336 2902.14,985.676 2906.27,985.676L2906.43,985.676C2910.57,985.656 2913.92,982.289 2913.91,978.145C2913.89,974.012 2910.53,970.676 2906.41,970.676ZM2866.48,978.145C2866.47,974.012 2863.11,970.676 2858.98,970.676L2858.82,970.676C2854.68,970.691 2851.34,974.059 2851.35,978.203C2851.37,982.336 2854.72,985.676 2858.85,985.676L2859.01,985.676C2863.15,985.656 2866.5,982.289 2866.48,978.145ZM2592.26,985.676L2592.42,985.676C2596.56,985.656 2599.91,982.289 2599.89,978.145C2599.88,974.012 2596.52,970.676 2592.39,970.676L2592.23,970.676C2588.09,970.691 2584.75,974.059 2584.77,978.203C2584.78,982.332 2588.13,985.676 2592.26,985.676ZM2552.47,978.145C2552.46,974.012 2549.11,970.676 2544.98,970.676L2544.82,970.676C2540.67,970.691 2537.33,974.059 2537.34,978.203C2537.36,982.336 2540.72,985.676 2544.84,985.676L2545,985.676C2549.14,985.656 2552.49,982.289 2552.47,978.145ZM2868.13,1008.95L2867.97,1008.95C2863.83,1008.97 2860.49,1012.33 2860.5,1016.48C2860.52,1020.61 2863.87,1023.95 2868,1023.95L2868.16,1023.95C2872.3,1023.93 2875.65,1020.56 2875.63,1016.42C2875.62,1012.28 2872.26,1008.95 2868.13,1008.95ZM2828.21,1016.42C2828.2,1012.28 2824.84,1008.95 2820.71,1008.95L2820.55,1008.95C2816.41,1008.97 2813.07,1012.33 2813.08,1016.48C2813.1,1020.61 2816.45,1023.95 2820.58,1023.95L2820.74,1023.95C2824.88,1023.93 2828.23,1020.56 2828.21,1016.42ZM2554.12,1008.95L2553.96,1008.95C2549.82,1008.97 2546.48,1012.33 2546.49,1016.48C2546.51,1020.61 2549.86,1023.95 2553.99,1023.95L2554.15,1023.95C2558.29,1023.93 2561.64,1020.56 2561.62,1016.42C2561.61,1012.28 2558.25,1008.95 2554.12,1008.95ZM2514.2,1016.42C2514.18,1012.28 2510.8,1008.91 2506.67,1008.95L2506.54,1008.95C2502.4,1008.97 2499.05,1012.33 2499.07,1016.48C2499.09,1020.61 2502.44,1023.95 2506.57,1023.95L2506.73,1023.95C2510.87,1023.93 2514.22,1020.56 2514.2,1016.42ZM2829.86,1047.22L2829.7,1047.22C2825.56,1047.23 2822.22,1050.61 2822.23,1054.75C2822.24,1058.88 2825.6,1062.22 2829.73,1062.22L2829.89,1062.22C2834.03,1062.2 2837.37,1058.83 2837.36,1054.69C2837.34,1050.56 2833.99,1047.22 2829.86,1047.22ZM2782.44,1047.22L2782.28,1047.22C2778.14,1047.23 2774.79,1050.61 2774.81,1054.75C2774.82,1058.88 2778.18,1062.22 2782.3,1062.22L2782.47,1062.22C2786.61,1062.2 2789.95,1058.83 2789.94,1054.69C2789.92,1050.56 2786.57,1047.22 2782.44,1047.22ZM2515.85,1047.22L2515.69,1047.22C2511.55,1047.23 2508.2,1050.61 2508.22,1054.75C2508.23,1058.88 2511.59,1062.22 2515.72,1062.22L2515.88,1062.22C2520.02,1062.2 2523.36,1058.83 2523.35,1054.69C2523.33,1050.56 2519.98,1047.22 2515.85,1047.22ZM2468.43,1047.22L2468.27,1047.22C2464.13,1047.23 2460.78,1050.61 2460.8,1054.75C2460.81,1058.88 2464.17,1062.22 2468.3,1062.22L2468.45,1062.22C2472.6,1062.2 2475.94,1058.83 2475.93,1054.69C2475.91,1050.56 2472.56,1047.22 2468.43,1047.22ZM2785.84,1000.85C2785.84,998.059 2785.84,989.57 2769.16,964.438C2766.47,960.387 2761.97,957.969 2757.11,957.969C2752.25,957.969 2747.75,960.387 2745.06,964.438C2728.38,989.57 2728.38,998.059 2728.38,1000.85C2728.38,1016.69 2741.27,1029.57 2757.11,1029.57C2772.95,1029.57 2785.84,1016.69 2785.84,1000.85ZM2757.11,1014.57C2749.54,1014.57 2743.38,1008.41 2743.38,1000.85C2743.38,997.777 2746.99,988.762 2757.11,973.406C2767.23,988.762 2770.84,997.777 2770.84,1000.85C2770.84,1008.41 2764.68,1014.57 2757.11,1014.57ZM2690.06,1000.85C2690.06,998.059 2690.06,989.566 2673.39,964.438C2670.7,960.387 2666.2,957.969 2661.34,957.969C2656.48,957.969 2651.97,960.387 2649.28,964.438C2632.61,989.57 2632.61,998.059 2632.61,1000.85C2632.61,1016.69 2645.5,1029.57 2661.34,1029.57C2677.18,1029.57 2690.06,1016.69 2690.06,1000.85ZM2661.34,1014.57C2653.77,1014.57 2647.61,1008.41 2647.61,1000.85C2647.61,997.777 2651.22,988.766 2661.34,973.41C2671.45,988.762 2675.06,997.773 2675.06,1000.85C2675.06,1008.41 2668.9,1014.57 2661.34,1014.57ZM2709.22,1027.68C2704.36,1027.68 2699.86,1030.09 2697.17,1034.14C2680.5,1059.27 2680.5,1067.76 2680.5,1070.55C2680.5,1086.39 2693.38,1099.28 2709.22,1099.28C2725.06,1099.28 2737.95,1086.39 2737.95,1070.55C2737.95,1067.76 2737.95,1059.28 2721.27,1034.14C2718.59,1030.09 2714.08,1027.68 2709.22,1027.68ZM2709.22,1084.28C2701.66,1084.28 2695.5,1078.12 2695.5,1070.55C2695.5,1067.48 2699.1,1058.47 2709.22,1043.11C2719.34,1058.47 2722.95,1067.48 2722.95,1070.55C2722.95,1078.12 2716.79,1084.28 2709.22,1084.28ZM2613.45,1027.68C2608.59,1027.68 2604.09,1030.09 2601.4,1034.14C2584.72,1059.27 2584.72,1067.76 2584.72,1070.55C2584.72,1086.39 2597.61,1099.28 2613.45,1099.28C2629.28,1099.28 2642.17,1086.39 2642.17,1070.55C2642.17,1067.76 2642.17,1059.28 2625.5,1034.14C2622.81,1030.09 2618.3,1027.68 2613.45,1027.68ZM2613.45,1084.28C2605.88,1084.28 2599.72,1078.12 2599.72,1070.55C2599.72,1067.48 2603.33,1058.47 2613.45,1043.11C2623.57,1058.47 2627.17,1067.48 2627.17,1070.55C2627.17,1078.12 2621.02,1084.28 2613.45,1084.28Z" style="fill:rgb(115,1,200);fill-rule:nonzero;"/>
            </g>
        </g>
    </g>
</svg>
