<?xml version="1.0" encoding="UTF-8" standalone="no"?>
<!DOCTYPE svg PUBLIC "-//W3C//DTD SVG 1.1//EN" "http://www.w3.org/Graphics/SVG/1.1/DTD/svg11.dtd">
<svg width="100%" height="100%" viewBox="0 0 512 512" version="1.1" xmlns="http://www.w3.org/2000/svg" xmlns:xlink="http://www.w3.org/1999/xlink" xml:space="preserve" xmlns:serif="http://www.serif.com/" style="fill-rule:evenodd;clip-rule:evenodd;stroke-linejoin:round;stroke-miterlimit:2;">
    <g transform="matrix(1,0,0,1,0,-612)">
        <g id="Snow" transform="matrix(1,0,0,1,0,612)">
            <rect x="0" y="0" width="512" height="512" style="fill:none;"/>
            <path id="Snow-Flurries" serif:id="Snow Flurries" d="M368.172,327.109C368.172,322.969 364.816,319.609 360.672,319.609L300.848,319.609C317.492,306.621 328.223,286.395 328.223,263.695C328.223,244.902 320.949,227.199 307.734,213.844C295.73,201.707 280.09,194.426 263.242,193.035C251.074,164.922 226.711,144.066 197.887,135.789C205.742,121.688 216.418,109.055 229.09,98.953C232.328,96.371 232.859,91.652 230.277,88.414C227.695,85.172 222.977,84.641 219.738,87.223C204.309,99.523 191.516,115.168 182.551,132.648C178.469,132.141 174.336,131.863 170.16,131.863C125.02,131.863 85.586,161.539 72.938,204.492C30.199,221.957 0,263.977 0,312.922C0,377.477 52.52,429.996 117.074,429.996C134.41,429.996 151.113,426.285 166.719,418.969C170.469,417.211 172.082,412.746 170.324,408.992C168.566,405.242 164.102,403.629 160.348,405.387C146.75,411.762 132.191,414.996 117.07,414.996C60.789,414.996 15,369.207 15,312.922C15,256.641 60.789,210.848 117.074,210.848C173.355,210.848 219.148,256.641 219.148,312.922C219.148,341.586 206.984,369.098 185.777,388.414C182.715,391.203 182.492,395.945 185.281,399.008C188.07,402.07 192.813,402.293 195.879,399.504C214.781,382.289 227.414,359.391 232.105,334.609L360.672,334.609C364.816,334.609 368.172,331.254 368.172,327.109ZM257.309,319.609L233.949,319.609C234.078,317.387 234.148,315.16 234.148,312.922C234.148,248.367 181.629,195.848 117.074,195.848C108.09,195.848 99.34,196.867 90.93,198.793C104.422,167.645 135.289,146.863 170.16,146.863C205.98,146.863 238.492,169.395 251.063,202.93C252.148,205.824 254.902,207.758 257.992,207.797C288.445,208.164 313.223,233.238 313.223,263.691C313.223,294.523 288.141,319.609 257.309,319.609ZM490.266,203.707C477.848,190.891 461.676,182.887 444.164,180.773C436.629,110.855 377.238,57 306.172,57C286.711,57 267.859,60.969 250.141,68.797C246.352,70.473 244.641,74.898 246.313,78.688C247.988,82.477 252.418,84.191 256.203,82.52C272,75.539 288.813,72 306.172,72C371.52,72 425.793,123.043 429.738,188.203C429.973,192.063 433.102,195.113 436.969,195.246C453.121,195.801 468.223,202.512 479.488,214.145C490.781,225.801 497,241.164 497,257.398C497,291.699 469.094,319.609 434.789,319.609L393.332,319.609C389.191,319.609 385.832,322.965 385.832,327.109C385.832,331.25 389.191,334.609 393.332,334.609L434.789,334.609C477.363,334.609 512,299.973 512,257.398C512,237.246 504.281,218.18 490.266,203.707ZM402.469,180.066C403.051,180.066 403.641,179.996 404.227,179.855C408.254,178.887 410.734,174.84 409.766,170.813C408.352,164.918 406.414,159.117 404.012,153.563C402.367,149.762 397.957,148.012 394.148,149.656C390.348,151.301 388.598,155.715 390.242,159.52C392.309,164.285 393.969,169.262 395.184,174.316C396.008,177.754 399.082,180.066 402.469,180.066ZM306.172,89.254C302.031,89.254 298.672,92.613 298.672,96.754C298.672,100.898 302.031,104.254 306.172,104.254C331.316,104.254 354.781,114.277 372.25,132.48C373.723,134.016 375.691,134.785 377.66,134.785C379.531,134.785 381.398,134.094 382.855,132.699C385.844,129.828 385.941,125.082 383.07,122.094C362.746,100.918 335.437,89.254 306.172,89.254ZM187.488,353.441C189.473,349.988 188.398,345.625 185.121,343.457L187.543,342.395C191.336,340.727 193.059,336.301 191.391,332.508C189.727,328.719 185.301,326.992 181.508,328.66L170.234,333.613C170.75,330.613 169.398,327.473 166.609,325.859C163.465,324.035 159.547,324.758 157.23,327.379L148.617,322.426L154.613,319.789C157.336,318.594 159.094,315.898 159.094,312.922C159.094,309.949 157.336,307.254 154.613,306.059L148.621,303.422L157.246,298.461C158.688,300.094 160.742,301 162.855,301C164.133,301 165.426,300.676 166.609,299.988C169.398,298.371 170.75,295.234 170.234,292.23L181.508,297.187C182.488,297.617 183.512,297.82 184.52,297.82C187.406,297.82 190.156,296.148 191.391,293.336C193.059,289.547 191.336,285.121 187.543,283.453L185.125,282.391C188.402,280.223 189.473,275.859 187.484,272.406C185.488,268.934 181.137,267.676 177.605,269.461L177.895,266.82C178.344,262.703 175.371,259 171.254,258.551C167.141,258.102 163.434,261.074 162.984,265.191L161.652,277.383C159.305,275.414 155.887,275.008 153.082,276.637C149.949,278.449 148.621,282.18 149.719,285.484L141.078,290.457L141.789,283.937C142.109,280.984 140.66,278.121 138.09,276.633C135.52,275.145 132.313,275.316 129.914,277.066L124.574,280.961L124.574,271.047C128,270.355 130.578,267.328 130.578,263.699C130.578,260.473 128.543,257.734 125.688,256.672L135.574,249.457C138.922,247.016 139.656,242.324 137.215,238.98C134.773,235.633 130.082,234.898 126.734,237.34L124.555,238.934C124.324,234.992 121.07,231.867 117.074,231.867C113.078,231.867 109.82,234.996 109.598,238.937L107.406,237.34C104.059,234.898 99.367,235.633 96.93,238.98C94.488,242.324 95.223,247.016 98.566,249.457L108.453,256.672C105.602,257.734 103.563,260.473 103.563,263.699C103.563,267.332 106.145,270.359 109.574,271.047L109.574,280.965L104.23,277.062C101.828,275.312 98.621,275.145 96.055,276.629C93.48,278.117 92.031,280.984 92.355,283.937L93.066,290.457L84.422,285.484C85.523,282.18 84.195,278.445 81.063,276.633C78.258,275.008 74.84,275.41 72.488,277.383L71.16,265.191C70.711,261.074 67.012,258.098 62.891,258.547C58.773,258.996 55.801,262.699 56.25,266.816L56.535,269.461C53.004,267.672 48.652,268.934 46.656,272.406C44.672,275.855 45.742,280.223 49.02,282.391L46.602,283.453C42.809,285.117 41.086,289.543 42.754,293.336C43.988,296.148 46.738,297.82 49.621,297.82C50.629,297.82 51.656,297.617 52.637,297.184L63.91,292.23C63.395,295.23 64.746,298.371 67.535,299.984C68.719,300.672 70.012,300.996 71.289,300.996C73.398,300.996 75.453,300.094 76.898,298.457L85.523,303.422L79.531,306.055C76.805,307.254 75.047,309.945 75.047,312.922C75.047,315.895 76.805,318.59 79.531,319.785L85.523,322.422L76.914,327.379C74.598,324.754 70.68,324.035 67.535,325.855C64.746,327.473 63.395,330.609 63.91,333.613L52.637,328.66C48.844,326.992 44.418,328.715 42.754,332.508C41.086,336.301 42.809,340.727 46.602,342.391L49.02,343.457C45.742,345.621 44.668,349.988 46.656,353.441C48.043,355.852 50.57,357.203 53.164,357.203C54.305,357.203 55.457,356.926 56.535,356.379L56.246,359.023C55.797,363.145 58.77,366.844 62.891,367.293C63.164,367.324 63.441,367.34 63.711,367.34C67.488,367.34 70.738,364.492 71.16,360.652L72.488,348.453C73.848,349.594 75.559,350.223 77.313,350.223C78.586,350.223 79.879,349.895 81.063,349.211C84.195,347.395 85.523,343.664 84.422,340.359L93.063,335.391L92.352,341.906C92.031,344.859 93.48,347.723 96.051,349.211C97.219,349.887 98.516,350.219 99.809,350.219C101.367,350.219 102.918,349.734 104.23,348.777L109.574,344.879L109.574,354.793C106.145,355.484 103.563,358.512 103.563,362.145C103.563,365.367 105.598,368.109 108.453,369.168L98.566,376.383C95.219,378.824 94.484,383.516 96.93,386.863C99.367,390.207 104.059,390.941 107.406,388.5L109.598,386.902C109.816,390.848 113.074,393.977 117.074,393.977C121.07,393.977 124.328,390.848 124.551,386.91L126.734,388.5C128.066,389.473 129.613,389.941 131.148,389.941C133.461,389.941 135.746,388.875 137.215,386.863C139.652,383.516 138.922,378.824 135.574,376.383L125.688,369.168C128.539,368.109 130.578,365.367 130.578,362.145C130.578,358.516 128,355.488 124.574,354.793L124.574,344.883L129.91,348.777C132.313,350.527 135.516,350.695 138.09,349.211C140.66,347.723 142.109,344.855 141.789,341.906L141.078,335.391L149.719,340.359C148.621,343.664 149.945,347.395 153.078,349.207C154.262,349.895 155.555,350.219 156.832,350.219C158.582,350.219 160.293,349.594 161.652,348.453L162.98,360.652C163.402,364.492 166.652,367.34 170.43,367.34C170.699,367.34 170.973,367.324 171.25,367.293C175.371,366.844 178.344,363.141 177.895,359.023L177.605,356.379C178.684,356.926 179.836,357.203 180.977,357.203C183.574,357.203 186.098,355.855 187.488,353.441ZM121.492,324.066C121.473,324.051 121.445,324.043 121.426,324.027C121.137,323.82 120.836,323.637 120.52,323.473C120.469,323.445 120.414,323.422 120.363,323.395C120.063,323.25 119.754,323.121 119.434,323.016C119.406,323.004 119.379,322.992 119.352,322.984C119.027,322.883 118.695,322.805 118.359,322.75C118.27,322.734 118.184,322.719 118.094,322.707C117.785,322.668 117.477,322.641 117.156,322.637C117.129,322.637 117.102,322.629 117.074,322.629C117.039,322.629 117.008,322.637 116.977,322.637C116.668,322.641 116.367,322.668 116.07,322.707C115.969,322.719 115.871,322.734 115.773,322.754C115.449,322.809 115.129,322.883 114.82,322.98C114.762,322.996 114.707,323.02 114.652,323.039C114.371,323.137 114.102,323.25 113.836,323.375C113.758,323.414 113.676,323.449 113.598,323.488C113.309,323.645 113.027,323.816 112.762,324.004C112.727,324.027 112.688,324.043 112.652,324.07L109.109,326.656L109.578,322.34C109.582,322.309 109.578,322.277 109.582,322.25C109.617,321.898 109.629,321.551 109.613,321.199C109.609,321.137 109.605,321.074 109.598,321.012C109.574,320.68 109.535,320.352 109.469,320.02C109.461,319.992 109.457,319.961 109.453,319.93C109.379,319.598 109.277,319.27 109.16,318.945C109.129,318.863 109.098,318.785 109.066,318.703C108.941,318.398 108.805,318.102 108.637,317.809C108.613,317.77 108.59,317.738 108.57,317.699C108.406,317.43 108.23,317.176 108.039,316.93C107.984,316.859 107.93,316.789 107.871,316.723C107.656,316.461 107.426,316.211 107.18,315.988C107.141,315.953 107.102,315.926 107.066,315.895C106.828,315.684 106.574,315.492 106.316,315.316C106.258,315.277 106.203,315.238 106.148,315.203C105.855,315.02 105.555,314.855 105.242,314.715C105.207,314.699 105.18,314.676 105.145,314.66L101.191,312.926L105.145,311.188C105.207,311.16 105.266,311.117 105.332,311.086C105.582,310.969 105.824,310.84 106.063,310.695C106.164,310.633 106.262,310.566 106.359,310.496C106.57,310.352 106.773,310.195 106.973,310.027C107.063,309.953 107.152,309.879 107.238,309.797C107.434,309.617 107.613,309.422 107.789,309.219C107.855,309.137 107.93,309.066 107.996,308.984C108.199,308.727 108.387,308.453 108.559,308.164C108.578,308.133 108.602,308.102 108.621,308.066C108.625,308.066 108.625,308.066 108.625,308.063C108.801,307.762 108.941,307.449 109.07,307.133C109.102,307.059 109.129,306.984 109.156,306.91C109.277,306.582 109.379,306.25 109.453,305.914C109.457,305.891 109.461,305.863 109.469,305.836C109.535,305.504 109.578,305.172 109.602,304.832C109.605,304.773 109.609,304.715 109.613,304.652C109.629,304.301 109.617,303.949 109.582,303.602C109.578,303.57 109.582,303.539 109.578,303.508L109.109,299.195L112.652,301.777C112.684,301.801 112.715,301.813 112.742,301.836C113.023,302.031 113.313,302.211 113.617,302.371C113.676,302.402 113.738,302.43 113.801,302.457C114.094,302.602 114.395,302.727 114.707,302.832L114.801,302.867C115.125,302.969 115.461,303.047 115.805,303.105C115.883,303.117 115.957,303.129 116.035,303.141C116.375,303.188 116.719,303.219 117.07,303.219L117.078,303.219C117.434,303.219 117.781,303.188 118.125,303.137C118.195,303.129 118.262,303.117 118.328,303.105C118.684,303.047 119.031,302.969 119.367,302.859C119.371,302.859 119.375,302.855 119.379,302.855C119.73,302.742 120.07,302.598 120.398,302.438C120.434,302.418 120.469,302.402 120.5,302.387C120.832,302.219 121.145,302.023 121.441,301.809C121.457,301.797 121.477,301.789 121.492,301.777L125.039,299.191L124.566,303.508C124.563,303.531 124.566,303.555 124.566,303.578C124.527,303.941 124.52,304.305 124.535,304.672C124.535,304.715 124.539,304.754 124.543,304.797C124.566,305.164 124.609,305.527 124.688,305.891L124.688,305.898C124.766,306.246 124.871,306.594 124.996,306.934C125.02,306.992 125.043,307.051 125.066,307.109C125.195,307.434 125.34,307.754 125.52,308.063C125.711,308.395 125.93,308.703 126.16,308.992C126.211,309.059 126.27,309.117 126.324,309.18C126.512,309.402 126.707,309.613 126.918,309.805C126.992,309.879 127.074,309.945 127.156,310.012C127.363,310.188 127.574,310.352 127.797,310.504C127.887,310.566 127.98,310.629 128.074,310.688C128.32,310.84 128.57,310.973 128.832,311.098C128.891,311.125 128.941,311.16 129.004,311.188L132.953,312.926L129.004,314.66C128.973,314.672 128.945,314.691 128.914,314.707C128.594,314.852 128.285,315.02 127.984,315.207C127.941,315.238 127.898,315.27 127.852,315.301C127.574,315.484 127.305,315.691 127.051,315.914C127.027,315.938 127,315.953 126.977,315.977C126.723,316.211 126.484,316.465 126.258,316.734C126.211,316.793 126.164,316.852 126.121,316.91C125.914,317.176 125.719,317.449 125.547,317.75C125.539,317.762 125.531,317.77 125.523,317.781C125.523,317.781 125.523,317.785 125.52,317.789C125.344,318.094 125.199,318.41 125.07,318.727C125.047,318.793 125.02,318.859 124.992,318.926C124.867,319.262 124.766,319.602 124.691,319.945C124.688,319.953 124.688,319.965 124.688,319.973C124.609,320.328 124.566,320.684 124.543,321.043C124.539,321.09 124.535,321.133 124.531,321.18C124.516,321.543 124.527,321.906 124.563,322.27C124.566,322.293 124.563,322.316 124.566,322.34L125.035,326.652L121.492,324.066ZM53.164,121.305L53.199,121.305C57.324,121.305 60.68,117.969 60.699,113.84L60.711,110.902C60.734,106.758 57.391,103.387 53.25,103.367L53.211,103.367C49.086,103.367 45.73,106.699 45.711,110.828L45.699,113.766C45.68,117.91 49.02,121.285 53.164,121.305ZM53.156,133.27L53.117,133.27C48.992,133.27 45.641,136.602 45.621,140.734L45.605,143.672C45.586,147.813 48.93,151.188 53.07,151.207L53.105,151.207C57.23,151.207 60.586,147.871 60.605,143.742L60.621,140.801C60.637,136.66 57.297,133.285 53.156,133.27ZM66.633,134.824L69.574,134.84L69.613,134.84C73.738,134.84 77.09,131.504 77.113,127.375C77.133,123.234 73.789,119.859 69.648,119.84L66.703,119.824C62.609,119.801 59.188,123.145 59.168,127.289C59.148,131.43 62.492,134.805 66.633,134.824ZM36.672,134.734L39.613,134.746L39.648,134.746C43.773,134.746 47.129,131.41 47.148,127.281C47.168,123.141 43.824,119.766 39.684,119.746L36.742,119.734L36.703,119.734C32.578,119.734 29.223,123.066 29.207,127.199C29.188,131.34 32.527,134.711 36.672,134.734ZM265.023,377.48L265.059,377.48C269.184,377.48 272.539,374.145 272.559,370.016L272.57,367.078C272.59,362.934 269.25,359.563 265.105,359.543L265.07,359.543C260.945,359.543 257.59,362.875 257.57,367.008L257.559,369.945C257.535,374.086 260.879,377.461 265.023,377.48ZM265.012,389.441L264.977,389.441C260.852,389.441 257.496,392.777 257.477,396.906L257.465,399.844C257.445,403.988 260.785,407.359 264.93,407.379L264.965,407.379C269.09,407.379 272.445,404.043 272.465,399.914L272.477,396.977C272.496,392.836 269.152,389.461 265.012,389.441ZM281.508,376.012L278.563,376L278.527,376C274.402,376 271.047,379.332 271.027,383.465C271.008,387.605 274.352,390.98 278.492,391L281.434,391.012L281.473,391.012C285.598,391.012 288.953,387.68 288.973,383.551C288.992,379.406 285.648,376.035 281.508,376.012ZM251.543,375.922L248.602,375.906L248.563,375.906C244.438,375.906 241.086,379.242 241.066,383.371C241.043,387.512 244.387,390.887 248.527,390.906L251.473,390.922L251.508,390.922C255.633,390.922 258.988,387.586 259.008,383.457C259.027,379.316 255.688,375.941 251.543,375.922ZM342.004,354.648L341.863,354.648C337.738,354.648 334.383,357.98 334.363,362.113C334.344,366.254 337.688,369.629 341.828,369.648L341.969,369.648C346.094,369.648 349.449,366.313 349.469,362.184C349.488,358.039 346.148,354.668 342.004,354.648ZM191.051,439.164L190.945,439.164C186.805,439.164 183.445,442.523 183.445,446.664C183.445,450.809 186.805,454.164 190.945,454.164L191.051,454.164C195.191,454.164 198.551,450.809 198.551,446.664C198.551,442.523 195.191,439.164 191.051,439.164ZM370.563,387.621L370.457,387.621C366.316,387.621 362.957,390.977 362.957,395.121C362.957,399.262 366.316,402.621 370.457,402.621L370.563,402.621C374.703,402.621 378.063,399.262 378.063,395.121C378.063,390.977 374.703,387.621 370.563,387.621ZM468.035,369.809L467.895,369.809C463.77,369.809 460.418,373.141 460.398,377.273C460.375,381.414 463.719,384.789 467.863,384.809L468,384.809C472.125,384.809 475.48,381.473 475.5,377.344C475.52,373.199 472.18,369.828 468.035,369.809ZM423.578,354.648L423.438,354.648C419.313,354.648 415.961,357.98 415.941,362.113C415.922,366.254 419.262,369.629 423.406,369.648L423.547,369.648C427.672,369.648 431.023,366.313 431.043,362.184C431.063,358.039 427.723,354.668 423.578,354.648ZM95.484,86.211L95.625,86.211C99.75,86.211 103.105,82.879 103.125,78.746C103.145,74.605 99.801,71.23 95.66,71.211L95.52,71.211C91.395,71.211 88.039,74.547 88.02,78.676C88,82.82 91.344,86.191 95.484,86.211ZM156.418,118.367L156.559,118.367C160.684,118.367 164.035,115.031 164.055,110.902C164.078,106.758 160.734,103.387 156.59,103.367L156.453,103.367C152.328,103.367 148.973,106.699 148.953,110.832C148.934,114.973 152.273,118.348 156.418,118.367ZM37.031,431.453L36.891,431.453C32.766,431.453 29.41,434.785 29.391,438.918C29.371,443.059 32.715,446.434 36.855,446.453L36.996,446.453C41.121,446.453 44.477,443.117 44.496,438.988C44.516,434.844 41.172,431.473 37.031,431.453Z" style="fill:rgb(115,1,200);fill-rule:nonzero;"/>
        </g>
    </g>
</svg>
