<?xml version="1.0" encoding="UTF-8" standalone="no"?>
<!DOCTYPE svg PUBLIC "-//W3C//DTD SVG 1.1//EN" "http://www.w3.org/Graphics/SVG/1.1/DTD/svg11.dtd">
<svg width="100%" height="100%" viewBox="0 0 512 512" version="1.1" xmlns="http://www.w3.org/2000/svg" xmlns:xlink="http://www.w3.org/1999/xlink" xml:space="preserve" xmlns:serif="http://www.serif.com/" style="fill-rule:evenodd;clip-rule:evenodd;stroke-linejoin:round;stroke-miterlimit:2;">
    <g transform="matrix(1,0,0,1,-1224,-1224)">
        <g id="Sun" transform="matrix(1,0,0,1,1224,1224)">
            <rect x="0" y="0" width="512" height="512" style="fill:none;"/>
            <path d="M256,115.967C178.786,115.967 115.967,178.786 115.967,256C115.967,288.03 126.493,318.177 146.408,343.18C148.989,346.42 153.706,346.954 156.948,344.374C160.188,341.793 160.722,337.075 158.142,333.835C140.364,311.515 130.968,284.601 130.968,256C130.968,187.057 187.058,130.967 256.001,130.967C324.944,130.967 381.033,187.057 381.033,256C381.033,324.943 324.943,381.033 256,381.033C227.397,381.033 200.48,371.635 178.16,353.854C174.921,351.273 170.202,351.807 167.621,355.047C165.04,358.287 165.574,363.005 168.814,365.586C193.818,385.504 223.966,396.032 256,396.032C333.214,396.032 396.033,333.213 396.033,255.999C396.033,178.785 333.214,115.967 256,115.967ZM256,97.834C260.142,97.834 263.5,94.476 263.5,90.334L263.5,63.917C263.5,59.775 260.142,56.417 256,56.417C251.858,56.417 248.5,59.775 248.5,63.917L248.5,90.334C248.5,94.476 251.858,97.834 256,97.834ZM256,41.417C260.142,41.417 263.5,38.059 263.5,33.917L263.5,7.5C263.5,3.358 260.142,0 256,0C251.858,0 248.5,3.358 248.5,7.5L248.5,33.917C248.5,38.059 251.858,41.417 256,41.417ZM133.553,144.159C135.017,145.623 136.937,146.356 138.856,146.356C140.775,146.356 142.695,145.624 144.159,144.159C147.088,141.23 147.088,136.481 144.159,133.553L85.587,74.981C82.658,72.052 77.909,72.052 74.981,74.981C72.052,77.91 72.052,82.659 74.981,85.587L133.553,144.159ZM97.834,256C97.834,251.858 94.476,248.5 90.334,248.5L7.5,248.5C3.358,248.5 0,251.858 0,256C0,260.142 3.358,263.5 7.5,263.5L90.334,263.5C94.476,263.5 97.834,260.142 97.834,256ZM133.553,367.841L74.981,426.413C72.052,429.342 72.052,434.091 74.981,437.019C76.445,438.483 78.365,439.216 80.284,439.216C82.203,439.216 84.123,438.484 85.587,437.019L144.159,378.447C147.088,375.518 147.088,370.769 144.159,367.84C141.23,364.912 136.481,364.912 133.553,367.841ZM256,414.167C251.858,414.167 248.5,417.525 248.5,421.667L248.5,504.5C248.5,508.642 251.858,512 256,512C260.142,512 263.5,508.642 263.5,504.5L263.5,421.667C263.5,417.524 260.142,414.167 256,414.167ZM378.447,367.841C375.518,364.912 370.769,364.912 367.841,367.841C364.912,370.77 364.912,375.519 367.841,378.448L426.413,437.02C427.877,438.484 429.797,439.217 431.716,439.217C433.636,439.217 435.555,438.485 437.019,437.02C439.948,434.091 439.948,429.342 437.019,426.414L378.447,367.841ZM504.5,248.5L421.667,248.5C417.525,248.5 414.167,251.858 414.167,256C414.167,260.142 417.525,263.5 421.667,263.5L504.5,263.5C508.642,263.5 512,260.142 512,256C512,251.858 508.642,248.5 504.5,248.5ZM373.144,146.356C375.063,146.356 376.983,145.624 378.447,144.159L437.019,85.587C439.948,82.658 439.948,77.909 437.019,74.981C434.09,72.052 429.341,72.052 426.413,74.981L367.841,133.553C364.912,136.482 364.912,141.231 367.841,144.159C369.305,145.624 371.225,146.356 373.144,146.356ZM185.673,105.814C186.87,108.702 189.662,110.446 192.605,110.446C193.561,110.446 194.534,110.262 195.472,109.873C199.299,108.288 201.116,103.9 199.531,100.074L183.681,61.81C182.095,57.983 177.707,56.166 173.882,57.751C170.055,59.336 168.238,63.724 169.823,67.55L185.673,105.814ZM61.81,183.682L100.074,199.532C101.012,199.921 101.985,200.105 102.941,200.105C105.884,200.105 108.677,198.361 109.873,195.473C111.458,191.646 109.641,187.259 105.814,185.674L67.55,169.824C63.724,168.24 59.336,170.056 57.751,173.883C56.166,177.709 57.983,182.096 61.81,183.682ZM109.873,316.528C108.288,312.701 103.9,310.884 100.074,312.469L61.81,328.319C57.983,329.904 56.166,334.292 57.751,338.118C58.947,341.006 61.74,342.75 64.683,342.75C65.64,342.75 66.612,342.566 67.55,342.177L105.814,326.327C109.641,324.742 111.458,320.354 109.873,316.528ZM195.472,402.127C191.646,400.542 187.258,402.359 185.673,406.186L169.823,444.45C168.238,448.277 170.055,452.664 173.882,454.249C174.821,454.638 175.793,454.822 176.749,454.822C179.692,454.822 182.485,453.078 183.681,450.19L199.531,411.926C201.116,408.1 199.299,403.712 195.472,402.127ZM326.327,406.186C324.742,402.359 320.354,400.542 316.528,402.127C312.701,403.712 310.884,408.1 312.469,411.926L328.319,450.19C329.516,453.078 332.308,454.822 335.251,454.822C336.208,454.822 337.18,454.638 338.118,454.249C341.945,452.664 343.762,448.276 342.177,444.45L326.327,406.186ZM450.19,328.318L411.926,312.468C408.1,310.883 403.712,312.7 402.127,316.527C400.542,320.354 402.359,324.741 406.186,326.326L444.45,342.176C445.389,342.565 446.361,342.749 447.317,342.749C450.26,342.749 453.053,341.005 454.249,338.117C455.834,334.291 454.017,329.904 450.19,328.318ZM402.127,195.472C403.323,198.36 406.116,200.104 409.059,200.104C410.015,200.104 410.988,199.92 411.926,199.531L450.19,183.681C454.017,182.096 455.834,177.708 454.249,173.882C452.664,170.055 448.276,168.239 444.45,169.823L406.186,185.673C402.359,187.258 400.542,191.645 402.127,195.472ZM316.528,109.873C317.467,110.262 318.439,110.446 319.395,110.446C322.338,110.446 325.131,108.702 326.327,105.814L342.177,67.55C343.762,63.723 341.945,59.336 338.118,57.751C334.291,56.166 329.904,57.983 328.319,61.81L312.469,100.074C310.884,103.9 312.701,108.288 316.528,109.873Z" style="fill:rgb(115,1,200);fill-rule:nonzero;"/>
        </g>
    </g>
</svg>
