<?xml version="1.0" encoding="UTF-8" standalone="no"?>
<!DOCTYPE svg PUBLIC "-//W3C//DTD SVG 1.1//EN" "http://www.w3.org/Graphics/SVG/1.1/DTD/svg11.dtd">
<svg width="100%" height="100%" viewBox="0 0 512 512" version="1.1" xmlns="http://www.w3.org/2000/svg" xmlns:xlink="http://www.w3.org/1999/xlink" xml:space="preserve" xmlns:serif="http://www.serif.com/" style="fill-rule:evenodd;clip-rule:evenodd;stroke-linejoin:round;stroke-miterlimit:2;">
    <g transform="matrix(1,0,0,1,-1836,0)">
        <g id="Sunrise" transform="matrix(1,0,0,1,1836,0)">
            <rect x="0" y="0" width="512" height="512" style="fill:none;"/>
            <g id="Sunrise1" serif:id="Sunrise" transform="matrix(1,0,0,1,-1836,0)">
                <path d="M1931.1,232.499C1929.84,236.434 1932.01,240.644 1935.95,241.902C1936.71,242.143 1937.47,242.258 1938.23,242.258C1941.39,242.258 1944.34,240.23 1945.35,237.051C1957.14,200.145 1982.28,169.28 2016.13,150.143C2019.72,148.109 2020.99,143.546 2018.96,139.948C2016.92,136.353 2012.36,135.083 2008.76,137.118C1971.62,158.118 1944.04,191.991 1931.1,232.499ZM2042.54,97.72C2058.46,93.543 2074.93,91.426 2091.5,91.426C2108.36,91.426 2125.11,93.62 2141.3,97.948C2141.95,98.121 2142.6,98.204 2143.24,98.204C2146.54,98.204 2149.57,95.998 2150.46,92.654C2151.53,88.663 2149.16,84.563 2145.16,83.495C2127.72,78.83 2109.66,76.465 2091.5,76.465C2073.65,76.465 2055.9,78.748 2038.75,83.25C2034.75,84.298 2032.36,88.388 2033.41,92.383C2034.46,96.38 2038.55,98.771 2042.54,97.72ZM2037.27,364.847C2041.4,364.847 2044.75,361.499 2044.75,357.367C2044.75,353.235 2041.4,349.886 2037.27,349.886L1953.04,349.886C1943.12,329.196 1938.1,306.978 1938.1,283.773C1938.1,278.222 1938.41,272.547 1939.03,266.907C1939.48,262.799 1936.51,259.107 1932.4,258.657C1928.29,258.189 1924.61,261.173 1924.15,265.28C1923.48,271.459 1923.14,277.682 1923.14,283.773C1923.14,306.486 1927.8,329.108 1936.65,349.886L1910.83,349.886C1903.08,328.744 1899.15,306.53 1899.15,283.773C1899.15,220.387 1930.4,161.08 1982.73,125.127C1986.13,122.787 1987,118.13 1984.66,114.725C1982.32,111.32 1977.66,110.456 1974.26,112.795C1917.86,151.54 1884.19,215.457 1884.19,283.772C1884.19,306.456 1887.82,328.644 1894.97,349.885L1844.06,349.885C1839.92,349.885 1836.58,353.234 1836.58,357.366C1836.58,361.498 1839.92,364.846 1844.06,364.846L2037.27,364.846L2037.27,364.847ZM2339.44,349.886L2288.03,349.886C2295.18,328.645 2298.81,306.457 2298.81,283.773C2298.81,215.83 2265.43,152.112 2209.51,113.327C2206.12,110.976 2201.46,111.816 2199.1,115.211C2196.75,118.605 2197.59,123.266 2200.98,125.622C2252.87,161.611 2283.85,220.733 2283.85,283.773C2283.85,306.53 2279.92,328.745 2272.18,349.886L2246.35,349.886C2255.21,329.108 2259.87,306.486 2259.87,283.773C2259.87,190.937 2184.34,115.408 2091.5,115.408C2073.72,115.408 2056.19,118.178 2039.39,123.643C2035.46,124.921 2033.31,129.142 2034.59,133.07C2035.86,137 2040.09,139.147 2044.01,137.871C2059.32,132.893 2075.3,130.369 2091.5,130.369C2176.09,130.369 2244.9,199.186 2244.9,283.773C2244.9,306.978 2239.88,329.196 2229.96,349.886L2146.73,349.886C2142.6,349.886 2139.25,353.235 2139.25,357.367C2139.25,361.499 2142.6,364.847 2146.73,364.847L2339.44,364.847C2343.58,364.847 2346.92,361.499 2346.92,357.367C2346.92,353.235 2343.58,349.886 2339.44,349.886ZM2032.53,393.553C2032.53,389.42 2029.18,386.072 2025.05,386.072L1910.23,386.072C1906.1,386.072 1902.75,389.42 1902.75,393.553C1902.75,397.685 1906.1,401.033 1910.23,401.033L2025.05,401.033C2029.18,401.033 2032.53,397.684 2032.53,393.553ZM2273.77,386.072L2158.95,386.072C2154.82,386.072 2151.47,389.42 2151.47,393.553C2151.47,397.685 2154.82,401.033 2158.95,401.033L2273.77,401.033C2277.9,401.033 2281.25,397.685 2281.25,393.553C2281.25,389.42 2277.9,386.072 2273.77,386.072ZM2170.28,435.583L2013.22,435.583C2009.09,435.583 2005.74,438.931 2005.74,443.064C2005.74,447.196 2009.09,450.544 2013.22,450.544L2170.28,450.544C2174.42,450.544 2177.77,447.196 2177.77,443.064C2177.77,438.931 2174.42,435.583 2170.28,435.583ZM2116.81,485.094L2066.69,485.094C2062.56,485.094 2059.21,488.442 2059.21,492.575C2059.21,496.707 2062.56,500.055 2066.69,500.055L2116.81,500.055C2120.94,500.055 2124.29,496.707 2124.29,492.575C2124.29,488.442 2120.94,485.094 2116.81,485.094ZM2092,55.368C2096.13,55.368 2099.48,52.019 2099.48,47.887L2099.48,19.425C2099.48,15.293 2096.13,11.945 2092,11.945C2087.87,11.945 2084.52,15.293 2084.52,19.425L2084.52,47.887C2084.52,52.019 2087.87,55.368 2092,55.368ZM1843.48,275.425L1865.15,275.425C1869.28,275.425 1872.63,272.077 1872.63,267.945C1872.63,263.813 1869.28,260.464 1865.15,260.464L1843.48,260.464C1839.35,260.464 1836,263.813 1836,267.945C1836,272.077 1839.35,275.425 1843.48,275.425ZM2311.37,267.945C2311.37,272.077 2314.72,275.425 2318.85,275.425L2340.52,275.425C2344.65,275.425 2348,272.077 2348,267.945C2348,263.813 2344.65,260.464 2340.52,260.464L2318.85,260.464C2314.72,260.464 2311.37,263.813 2311.37,267.945ZM1995.28,70.086C1996.53,72.866 1999.26,74.514 2002.12,74.514C2003.14,74.514 2004.17,74.303 2005.17,73.86C2008.94,72.173 2010.63,67.747 2008.94,63.977L1997.34,38.04C1995.65,34.269 1991.22,32.579 1987.45,34.267C1983.68,35.954 1981.99,40.379 1983.68,44.149L1995.28,70.086ZM1863.7,169.467L1883.3,178.632C1884.33,179.11 1885.4,179.338 1886.47,179.338C1889.28,179.338 1891.98,177.741 1893.25,175.024C1895,171.281 1893.38,166.828 1889.64,165.079L1870.04,155.915C1866.3,154.164 1861.84,155.78 1860.09,159.522C1858.34,163.266 1859.96,167.718 1863.7,169.467ZM1926.99,112.109C1928.45,113.584 1930.38,114.323 1932.3,114.323C1934.21,114.323 1936.11,113.601 1937.57,112.155C1940.5,109.246 1940.53,104.511 1937.62,101.576L1891.65,55.202C1888.74,52.269 1884,52.247 1881.07,55.156C1878.13,58.065 1878.11,62.8 1881.02,65.735L1926.99,112.109ZM2178.84,73.86C2179.83,74.303 2180.86,74.514 2181.89,74.514C2184.74,74.514 2187.47,72.865 2188.72,70.086L2200.32,44.149C2202.01,40.379 2200.32,35.953 2196.55,34.267C2192.78,32.58 2188.35,34.268 2186.67,38.04L2175.06,63.977C2173.37,67.747 2175.06,72.173 2178.84,73.86ZM2290.75,175.024C2292.02,177.742 2294.72,179.338 2297.53,179.338C2298.59,179.338 2299.67,179.11 2300.7,178.632L2320.3,169.467C2324.04,167.718 2325.66,163.266 2323.91,159.522C2322.16,155.78 2317.7,154.162 2313.96,155.915L2294.36,165.079C2290.62,166.828 2289,171.281 2290.75,175.024ZM2251.7,114.323C2253.62,114.323 2255.55,113.584 2257.01,112.109L2302.98,65.735C2305.89,62.8 2305.87,58.065 2302.93,55.156C2300,52.249 2295.26,52.269 2292.35,55.202L2246.38,101.576C2243.47,104.511 2243.49,109.246 2246.43,112.155C2247.89,113.601 2249.79,114.323 2251.7,114.323ZM2038.95,325.697L2059.71,325.697L2059.71,387.135C2059.71,394.521 2065.72,400.531 2073.1,400.531L2110.9,400.531C2118.28,400.531 2124.29,394.522 2124.29,387.135L2124.29,325.697L2144.05,325.697C2149.7,325.697 2154.62,322.484 2156.88,317.311C2159.15,312.138 2158.18,306.348 2154.34,302.199L2134.18,280.36C2131.38,277.325 2126.65,277.135 2123.61,279.937C2120.58,282.739 2120.39,287.471 2123.19,290.507L2141.87,310.737L2116.81,310.737C2112.68,310.737 2109.33,314.086 2109.33,318.218L2109.33,385.57L2074.67,385.57L2074.67,318.218C2074.67,314.086 2071.32,310.737 2067.19,310.737L2041.14,310.737L2091.5,256.177L2101.55,267.063C2104.36,270.1 2109.09,270.288 2112.12,267.486C2115.16,264.683 2115.35,259.951 2112.54,256.916L2101.79,245.265C2099.15,242.402 2095.4,240.76 2091.5,240.76C2087.61,240.76 2083.86,242.401 2081.21,245.265L2028.66,302.199C2024.83,306.348 2023.86,312.139 2026.12,317.311C2028.39,322.485 2033.3,325.697 2038.95,325.697Z" style="fill:rgb(115,1,200);fill-rule:nonzero;"/>
            </g>
        </g>
    </g>
</svg>
