<?xml version="1.0" encoding="UTF-8" standalone="no"?>
<!DOCTYPE svg PUBLIC "-//W3C//DTD SVG 1.1//EN" "http://www.w3.org/Graphics/SVG/1.1/DTD/svg11.dtd">
<svg width="100%" height="100%" viewBox="0 0 512 512" version="1.1" xmlns="http://www.w3.org/2000/svg" xmlns:xlink="http://www.w3.org/1999/xlink" xml:space="preserve" xmlns:serif="http://www.serif.com/" style="fill-rule:evenodd;clip-rule:evenodd;stroke-linejoin:round;stroke-miterlimit:2;">
    <g transform="matrix(1,0,0,1,-1224,0)">
        <g id="Sunset" transform="matrix(1,0,0,1,1224,0)">
            <rect x="0" y="0" width="512" height="512" style="fill:none;"/>
            <g transform="matrix(1,0,0,1,-1223.59,0)">
                <path d="M1535.08,124.957C1517.11,118.621 1498.28,115.409 1479.09,115.409C1443.9,115.409 1410.2,126.154 1381.62,146.483C1353.66,166.367 1332.68,193.832 1320.94,225.91C1319.52,229.79 1321.51,234.086 1325.39,235.505C1326.24,235.817 1327.11,235.963 1327.96,235.963C1331.02,235.963 1333.88,234.082 1334.99,231.051C1345.69,201.825 1364.81,176.797 1390.29,158.676C1416.32,140.159 1447.03,130.37 1479.09,130.37C1496.58,130.37 1513.74,133.297 1530.11,139.068C1534.01,140.442 1538.28,138.396 1539.65,134.501C1541.02,130.603 1538.98,126.331 1535.08,124.957ZM1430.14,97.72C1446.05,93.543 1462.53,91.426 1479.09,91.426C1495.95,91.426 1512.71,93.62 1528.9,97.948C1529.54,98.121 1530.19,98.204 1530.83,98.204C1534.14,98.204 1537.16,95.998 1538.05,92.654C1539.12,88.663 1536.75,84.563 1532.76,83.495C1515.31,78.83 1497.25,76.465 1479.09,76.465C1461.24,76.465 1443.5,78.748 1426.34,83.25C1422.34,84.298 1419.95,88.388 1421,92.383C1422.05,96.38 1426.14,98.771 1430.14,97.72ZM1727.04,349.886L1675.62,349.886C1682.77,328.645 1686.4,306.457 1686.4,283.773C1686.4,215.83 1653.02,152.112 1597.1,113.327C1593.71,110.976 1589.05,111.816 1586.69,115.211C1584.34,118.605 1585.18,123.266 1588.58,125.622C1640.46,161.611 1671.44,220.733 1671.44,283.773C1671.44,306.53 1667.51,328.745 1659.77,349.886L1633.94,349.886C1642.8,329.108 1647.46,306.486 1647.46,283.773C1647.46,254.103 1639.63,224.93 1624.82,199.407C1610.46,174.653 1589.87,153.808 1565.29,139.13C1561.75,137.012 1557.15,138.17 1555.03,141.717C1552.92,145.265 1554.07,149.857 1557.62,151.975C1580.03,165.354 1598.79,184.353 1611.88,206.915C1625.37,230.159 1632.5,256.736 1632.5,283.773C1632.5,306.978 1627.47,329.196 1617.56,349.886L1513.46,349.886L1541.94,319.041C1545.77,314.892 1546.74,309.101 1544.47,303.929C1542.21,298.756 1537.3,295.543 1531.65,295.543L1510.89,295.543L1510.89,280.14C1510.89,276.008 1507.54,272.66 1503.41,272.66C1499.28,272.66 1495.93,276.008 1495.93,280.14L1495.93,303.023C1495.93,307.156 1499.28,310.504 1503.41,310.504L1529.46,310.504L1493.11,349.886L1465.08,349.886L1428.73,310.504L1453.78,310.504C1457.92,310.504 1461.27,307.156 1461.27,303.023L1461.27,235.67L1495.93,235.67L1495.93,248.248C1495.93,252.38 1499.28,255.729 1503.41,255.729C1507.54,255.729 1510.89,252.38 1510.89,248.248L1510.89,234.104C1510.89,226.718 1504.88,220.708 1497.49,220.708L1459.7,220.708C1452.31,220.708 1446.3,226.717 1446.3,234.104L1446.3,295.543L1426.54,295.543C1420.89,295.543 1415.98,298.757 1413.71,303.929C1411.45,309.102 1412.42,314.892 1416.25,319.041L1444.72,349.886L1340.63,349.886C1330.72,329.196 1325.69,306.978 1325.69,283.773C1325.69,275.986 1326.28,268.164 1327.44,260.523C1328.06,256.438 1325.26,252.624 1321.17,252.002C1317.09,251.389 1313.27,254.188 1312.65,258.273C1311.38,266.656 1310.73,275.235 1310.73,283.772C1310.73,306.485 1315.39,329.107 1324.24,349.885L1298.42,349.885C1290.67,328.743 1286.75,306.529 1286.75,283.772C1286.75,220.386 1317.99,161.079 1370.32,125.126C1373.73,122.786 1374.59,118.129 1372.25,114.724C1369.91,111.319 1365.26,110.455 1361.85,112.794C1305.46,151.539 1271.79,215.456 1271.79,283.771C1271.79,306.455 1275.41,328.643 1282.57,349.884L1231.65,349.884C1227.52,349.884 1224.17,353.233 1224.17,357.365C1224.17,361.497 1227.52,364.845 1231.65,364.845L1727.04,364.845C1731.17,364.845 1734.52,361.497 1734.52,357.365C1734.52,353.233 1731.17,349.886 1727.04,349.886ZM1420.12,393.553C1420.12,389.42 1416.78,386.072 1412.64,386.072L1297.83,386.072C1293.69,386.072 1290.35,389.42 1290.35,393.553C1290.35,397.685 1293.69,401.033 1297.83,401.033L1412.64,401.033C1416.78,401.033 1420.12,397.684 1420.12,393.553ZM1661.36,386.072L1546.54,386.072C1542.41,386.072 1539.06,389.42 1539.06,393.553C1539.06,397.685 1542.41,401.033 1546.54,401.033L1661.36,401.033C1665.49,401.033 1668.84,397.685 1668.84,393.553C1668.84,389.42 1665.49,386.072 1661.36,386.072ZM1557.88,435.583L1400.81,435.583C1396.68,435.583 1393.33,438.931 1393.33,443.064C1393.33,447.196 1396.68,450.544 1400.81,450.544L1557.88,450.544C1562.01,450.544 1565.36,447.196 1565.36,443.064C1565.36,438.931 1562.01,435.583 1557.88,435.583ZM1504.4,485.094L1454.28,485.094C1450.15,485.094 1446.8,488.442 1446.8,492.575C1446.8,496.707 1450.15,500.055 1454.28,500.055L1504.4,500.055C1508.54,500.055 1511.88,496.707 1511.88,492.575C1511.88,488.442 1508.54,485.094 1504.4,485.094ZM1479.59,55.368C1483.73,55.368 1487.07,52.019 1487.07,47.887L1487.07,19.425C1487.07,15.293 1483.73,11.945 1479.59,11.945C1475.46,11.945 1472.11,15.293 1472.11,19.425L1472.11,47.887C1472.11,52.019 1475.46,55.368 1479.59,55.368ZM1231.07,275.425L1252.74,275.425C1256.88,275.425 1260.22,272.077 1260.22,267.945C1260.22,263.813 1256.88,260.464 1252.74,260.464L1231.07,260.464C1226.94,260.464 1223.59,263.813 1223.59,267.945C1223.59,272.077 1226.94,275.425 1231.07,275.425ZM1698.96,267.945C1698.96,272.077 1702.31,275.425 1706.44,275.425L1728.11,275.425C1732.25,275.425 1735.59,272.077 1735.59,267.945C1735.59,263.813 1732.25,260.464 1728.11,260.464L1706.44,260.464C1702.31,260.464 1698.96,263.813 1698.96,267.945ZM1382.88,70.086C1384.12,72.866 1386.85,74.514 1389.71,74.514C1390.73,74.514 1391.77,74.303 1392.76,73.86C1396.53,72.173 1398.22,67.747 1396.53,63.977L1384.93,38.04C1383.24,34.269 1378.82,32.579 1375.05,34.267C1371.27,35.953 1369.58,40.379 1371.27,44.149L1382.88,70.086ZM1251.29,169.467L1270.9,178.632C1271.92,179.11 1273,179.338 1274.06,179.338C1276.87,179.338 1279.57,177.741 1280.84,175.024C1282.59,171.281 1280.98,166.828 1277.23,165.079L1257.63,155.915C1253.89,154.164 1249.43,155.78 1247.69,159.522C1245.94,163.266 1247.55,167.718 1251.29,169.467ZM1314.59,112.109C1316.05,113.584 1317.97,114.323 1319.9,114.323C1321.8,114.323 1323.7,113.601 1325.16,112.155C1328.1,109.246 1328.12,104.511 1325.21,101.576L1279.24,55.202C1276.33,52.269 1271.6,52.247 1268.66,55.156C1265.73,58.065 1265.71,62.8 1268.62,65.735L1314.59,112.109ZM1566.43,73.86C1567.42,74.303 1568.46,74.514 1569.48,74.514C1572.34,74.514 1575.07,72.865 1576.31,70.086L1587.92,44.149C1589.6,40.379 1587.91,35.953 1584.14,34.267C1580.38,32.58 1575.95,34.268 1574.26,38.04L1562.66,63.977C1560.97,67.747 1562.66,72.173 1566.43,73.86ZM1678.35,175.024C1679.62,177.742 1682.31,179.338 1685.13,179.338C1686.19,179.338 1687.27,179.11 1688.29,178.632L1707.89,169.467C1711.63,167.718 1713.25,163.266 1711.5,159.522C1709.75,155.78 1705.3,154.162 1701.56,155.915L1681.95,165.079C1678.21,166.828 1676.6,171.281 1678.35,175.024ZM1639.29,114.323C1641.21,114.323 1643.14,113.584 1644.6,112.109L1690.57,65.735C1693.48,62.8 1693.46,58.065 1690.52,55.156C1687.59,52.249 1682.85,52.269 1679.95,55.202L1633.98,101.576C1631.07,104.511 1631.09,109.246 1634.02,112.155C1635.48,113.601 1637.38,114.323 1639.29,114.323Z" style="fill:rgb(0,210,242);fill-rule:nonzero;"/>
            </g>
        </g>
    </g>
</svg>
