<?xml version="1.0" encoding="UTF-8" standalone="no"?>
<!DOCTYPE svg PUBLIC "-//W3C//DTD SVG 1.1//EN" "http://www.w3.org/Graphics/SVG/1.1/DTD/svg11.dtd">
<svg width="100%" height="100%" viewBox="0 0 512 512" version="1.1" xmlns="http://www.w3.org/2000/svg" xmlns:xlink="http://www.w3.org/1999/xlink" xml:space="preserve" xmlns:serif="http://www.serif.com/" style="fill-rule:evenodd;clip-rule:evenodd;stroke-linejoin:round;stroke-miterlimit:2;">
    <g transform="matrix(1,0,0,1,-612,-1224)">
        <g id="Thunderstorm" transform="matrix(1,0,0,1,612,1224)">
            <rect x="0" y="0" width="512" height="512" style="fill:none;"/>
            <clipPath id="_clip1">
                <rect x="0" y="0" width="512" height="512"/>
            </clipPath>
            <g clip-path="url(#_clip1)">
                <path d="M22.663,358.494C24.577,358.494 26.495,357.765 27.957,356.303L44.83,339.426C47.754,336.506 47.754,331.765 44.83,328.841C41.906,325.917 37.166,325.917 34.246,328.841L17.372,345.714C14.448,348.638 14.448,353.379 17.372,356.303C18.83,357.765 20.748,358.494 22.663,358.494ZM77.902,404.821C74.982,401.897 70.241,401.897 67.318,404.821L50.444,421.694C47.52,424.618 47.52,429.359 50.444,432.279C51.906,433.741 53.82,434.474 55.739,434.474C57.653,434.474 59.567,433.741 61.029,432.279L77.902,415.406C80.826,412.482 80.826,407.745 77.902,404.821ZM261.032,352.474C258.919,345.515 252.615,340.841 245.344,340.841L208.237,340.841L244.159,304.919L297.153,304.919L273.227,328.841C270.303,331.765 270.303,336.506 273.227,339.426C274.689,340.888 276.603,341.621 278.521,341.621C280.436,341.621 282.354,340.888 283.816,339.426L316.319,306.923C316.919,306.322 317.391,305.64 317.746,304.919L348.989,304.919C353.126,304.919 356.474,301.566 356.474,297.434C356.474,293.297 353.126,289.948 348.989,289.948L302.958,289.948C314.923,280.498 323.773,267.11 327.527,251.352C328.486,247.328 326.003,243.293 321.979,242.334C317.952,241.375 313.925,243.859 312.966,247.882C307.063,272.65 285.141,289.948 259.652,289.948L83.692,289.948C60.822,289.948 42.214,271.34 42.214,248.467C42.214,226.003 59.797,207.8 82.241,207.028C86.097,206.896 89.22,203.851 89.454,199.999C90.737,178.818 99.891,159.005 115.232,144.21C118.206,141.341 118.292,136.604 115.423,133.629C112.553,130.651 107.813,130.569 104.838,133.438C88.351,149.341 77.937,170.179 75.107,192.678C47.789,196.787 27.244,220.139 27.244,248.471C27.244,279.597 52.569,304.919 83.692,304.919L91.119,304.919L1.193,394.845C-1.727,397.769 -1.727,402.505 1.193,405.429C2.655,406.891 4.573,407.62 6.487,407.62C8.402,407.62 10.32,406.891 11.782,405.429L112.292,304.919L147.847,304.919L94.121,358.646C89.415,363.351 88.019,370.365 90.565,376.513C93.115,382.665 99.06,386.638 105.715,386.638L139.925,386.638L74.054,452.509C67.965,458.603 67.512,467.854 72.978,474.509C76.257,478.501 80.857,480.583 85.563,480.583C88.709,480.583 91.902,479.651 94.772,477.733L254.463,370.868C260.506,366.825 263.145,359.433 261.032,352.474ZM246.136,358.428L86.444,465.289C86.015,465.577 85.368,466.01 84.549,465.008C83.727,464.01 84.277,463.46 84.643,463.094L163.29,384.447C165.434,382.307 166.074,379.086 164.916,376.291C163.754,373.492 161.025,371.667 157.999,371.667L105.715,371.667C105.481,371.667 104.764,371.667 104.397,370.786C104.035,369.905 104.542,369.398 104.709,369.231L169.021,304.919L222.99,304.919L184.873,343.036C182.732,345.176 182.093,348.396 183.251,351.192C184.409,353.991 187.138,355.812 190.167,355.812L245.344,355.812C245.66,355.812 246.401,355.812 246.709,356.825C247.017,357.839 246.401,358.252 246.136,358.428ZM365.394,320.315C362.471,317.391 357.73,317.391 354.81,320.315L296.377,378.747C293.453,381.671 293.453,386.408 296.377,389.332C297.839,390.794 299.757,391.523 301.672,391.523C303.586,391.523 305.504,390.794 306.966,389.332L365.394,330.899C368.318,327.979 368.318,323.239 365.394,320.315ZM271.219,403.905L252.51,422.614C249.586,425.538 249.586,430.275 252.51,433.199C253.972,434.661 255.886,435.39 257.804,435.39C259.718,435.39 261.633,434.661 263.095,433.199L281.804,414.49C284.728,411.566 284.728,406.825 281.804,403.905C278.884,400.981 274.143,400.981 271.219,403.905ZM510.002,228.943C510.002,209.114 502.408,190.35 488.614,176.108C476.416,163.52 460.536,155.648 443.344,153.551C435.893,84.846 377.515,31.937 307.664,31.937C281.383,31.937 255.863,39.427 233.863,53.594C213.547,66.678 197.122,84.834 186.148,106.253C182.159,105.758 178.116,105.493 174.035,105.493C160.46,105.493 147.263,108.198 134.807,113.532C131.009,115.161 129.247,119.559 130.877,123.36C132.506,127.161 136.908,128.923 140.705,127.294C151.282,122.76 162.498,120.463 174.035,120.463C209.181,120.463 241.079,142.569 253.41,175.469C254.494,178.362 257.243,180.292 260.331,180.327C284.342,180.619 305.153,196.237 312.116,219.192C313.098,222.424 316.065,224.506 319.278,224.506C319.999,224.506 320.728,224.401 321.453,224.182C325.41,222.982 327.644,218.802 326.443,214.845C318.065,187.239 293.968,167.964 265.566,165.598C253.605,138.019 229.719,117.555 201.446,109.391C211.169,91.918 225.052,77.076 241.972,66.183C261.547,53.575 284.264,46.908 307.664,46.908C371.804,46.908 425.079,97.009 428.95,160.966C429.184,164.822 432.307,167.863 436.166,167.995C469.176,169.13 495.031,195.902 495.031,228.943C495.031,262.58 467.667,289.948 434.03,289.948L381.585,289.948C377.453,289.948 374.1,293.297 374.1,297.434C374.1,301.566 377.453,304.919 381.585,304.919L429.706,304.919L339.781,394.845C336.857,397.765 336.857,402.505 339.781,405.429C341.243,406.891 343.161,407.62 345.075,407.62C346.989,407.62 348.907,406.891 350.369,405.429L453.386,302.408C485.932,293.827 510.002,264.147 510.002,228.943ZM402.272,153.079C402.852,153.079 403.441,153.013 404.026,152.873C408.045,151.906 410.521,147.867 409.558,143.843C408.166,138.054 406.26,132.346 403.893,126.877C402.252,123.083 397.843,121.341 394.053,122.982C390.256,124.623 388.513,129.033 390.155,132.826C392.178,137.504 393.812,142.389 395.001,147.344C395.827,150.775 398.891,153.079 402.272,153.079ZM372.498,106.292C373.968,107.824 375.932,108.592 377.901,108.592C379.765,108.592 381.632,107.902 383.083,106.51C386.065,103.645 386.162,98.908 383.301,95.925C363.309,75.099 336.447,63.629 307.664,63.629C303.527,63.629 300.178,66.978 300.178,71.115C300.178,75.247 303.527,78.6 307.664,78.6C332.334,78.6 355.359,88.432 372.498,106.292ZM322.046,420.42L321.909,420.42C317.792,420.42 314.443,423.749 314.424,427.87C314.404,432.006 317.738,435.375 321.874,435.39L322.015,435.39C326.131,435.39 329.476,432.065 329.496,427.94C329.515,423.807 326.182,420.439 322.046,420.42ZM411.16,369.683L411.02,369.683C406.903,369.683 403.558,373.008 403.539,377.133C403.519,381.266 406.852,384.634 410.989,384.654L411.129,384.654C415.246,384.654 418.591,381.324 418.611,377.203C418.63,373.071 415.297,369.702 411.16,369.683ZM37.594,437.924L37.489,437.924C33.357,437.924 30.004,441.277 30.004,445.41C30.004,449.542 33.357,452.895 37.489,452.895L37.594,452.895C41.727,452.895 45.08,449.542 45.08,445.41C45.08,441.277 41.727,437.924 37.594,437.924Z" style="fill:rgb(115,1,200);fill-rule:nonzero;"/>
            </g>
        </g>
    </g>
</svg>
