<?xml version="1.0" encoding="UTF-8" standalone="no"?>
<!DOCTYPE svg PUBLIC "-//W3C//DTD SVG 1.1//EN" "http://www.w3.org/Graphics/SVG/1.1/DTD/svg11.dtd">
<svg width="100%" height="100%" viewBox="0 0 512 512" version="1.1" xmlns="http://www.w3.org/2000/svg" xmlns:xlink="http://www.w3.org/1999/xlink" xml:space="preserve" xmlns:serif="http://www.serif.com/" style="fill-rule:evenodd;clip-rule:evenodd;stroke-linejoin:round;stroke-miterlimit:2;">
    <g transform="matrix(1,0,0,1,-1836,-2448)">
        <g id="Uranus" transform="matrix(1,0,0,1,1836,2448)">
            <rect x="0" y="0" width="512" height="512" style="fill:none;"/>
            <path d="M467.217,492.7C460.493,495.442 452.858,496.833 444.527,496.833C415.818,496.833 376.592,480.667 327.932,448.779C236.668,389.573 125.529,278.578 65.765,188.041C59.039,177.973 52.848,168.056 47.363,158.562C46.34,156.793 45.34,155.035 44.362,153.291C42.34,149.681 37.771,148.395 34.16,150.416C30.55,152.439 29.263,157.006 31.285,160.618C32.296,162.421 33.329,164.236 34.386,166.064C39.485,174.889 45.175,184.062 51.312,193.365C45.124,213.588 41.985,234.641 41.985,256C41.985,258.617 42.049,261.231 42.146,263.844C42.136,264.199 42.155,264.555 42.195,264.91C43.526,296.69 51.925,327.991 66.733,355.951C68.078,358.491 70.675,359.94 73.363,359.94C74.546,359.94 75.747,359.659 76.864,359.067C80.522,357.13 81.917,352.593 79.98,348.936C69.967,330.029 63.115,309.473 59.637,288.297C91.864,327.315 129.398,368.417 169.334,408.349C183.598,422.612 198.045,436.6 212.475,450.14C167.467,440.204 127.222,414.878 98.267,377.335C95.74,374.058 91.034,373.447 87.755,375.978C84.478,378.505 83.869,383.212 86.398,386.49C105.956,411.849 131.375,432.836 159.907,447.179C189.834,462.224 222.109,469.852 255.838,469.852C277.207,469.852 298.271,466.709 318.506,460.516C318.911,460.782 319.318,461.056 319.722,461.321C370.859,494.832 412.848,511.823 444.527,511.823C454.808,511.823 464.346,510.059 472.877,506.582C476.709,505.019 478.55,500.645 476.987,496.812C475.424,492.979 471.054,491.137 467.217,492.7ZM238.847,454.148C219.213,436.177 199.403,417.219 179.932,397.748C134.323,352.145 91.89,305.029 57.057,261.337C57.009,259.559 56.975,257.78 56.975,255.999C56.975,240.294 58.796,224.772 62.399,209.67C91.821,251.641 129.688,296.102 172.711,339.116C215.677,382.081 260.159,419.953 302.202,449.428C287.089,453.037 271.553,454.862 255.837,454.862C250.13,454.863 244.464,454.62 238.847,454.148ZM465.233,326.154C463.636,323.655 461.992,321.136 460.336,318.625C466.198,299.631 469.731,277.386 469.689,255.999C469.689,169.859 418.422,92.514 339.081,58.955C335.27,57.344 330.87,59.126 329.258,62.937C327.645,66.75 329.429,71.148 333.241,72.76C407.025,103.967 454.7,175.893 454.7,255.998C454.7,264.544 454.147,273.005 453.08,281.343C429.04,259.811 404.779,236.82 380.813,212.854C327.963,160.015 280.615,106.572 243.167,57.544C260.852,56.311 282.837,57.928 301.296,62.355C305.328,63.301 309.358,60.796 310.3,56.764C311.243,52.734 308.74,48.702 304.709,47.759C288.784,44.035 272.341,42.147 255.837,42.147C235.717,42.112 213.547,45.241 193.192,51.505C190.831,49.95 188.41,48.378 185.951,46.804C137.514,15.864 97.539,0.177 67.138,0.177C42.345,0.177 27.035,10.283 18.56,18.759C6.575,30.732 -5.854,53.234 2.996,92.442C5.454,103.348 9.518,115.38 15.078,128.207C16.304,131.034 19.061,132.724 21.959,132.724C22.953,132.724 23.964,132.525 24.936,132.105C28.734,130.459 30.478,126.046 28.832,122.247C23.645,110.278 19.871,99.141 17.619,89.144C10.272,56.599 19.837,38.671 29.158,29.362C35.632,22.886 47.478,15.168 67.139,15.168C94.129,15.168 130.535,29.531 175.357,57.839C169.571,60.187 163.896,62.784 158.351,65.623C116.697,40.458 63.788,16.753 40.172,40.366C15.859,64.681 41.706,120.034 67.671,162.187C67.701,162.236 67.733,162.286 67.764,162.335C67.772,162.348 67.78,162.361 67.788,162.374C97.449,210.491 142.375,265.577 194.318,317.511C246.353,369.526 301.529,414.499 349.681,444.146C349.715,444.167 349.75,444.188 349.784,444.209C349.806,444.222 349.827,444.236 349.85,444.249C380.085,462.851 417.068,481.359 444.517,481.359C455.319,481.359 464.646,478.492 471.502,471.636C495.128,448.023 471.41,395.112 446.23,353.462C448.427,349.133 451.214,343.342 454.01,336.459C474.001,368.113 487.14,395.874 493.034,418.979C498.759,441.426 497.694,459.639 489.869,473.114C487.791,476.693 489.007,481.28 492.586,483.359C493.772,484.046 495.065,484.374 496.344,484.374C498.927,484.374 501.441,483.037 502.831,480.643C512.698,463.652 514.288,441.66 507.558,415.276C501.129,390.077 486.889,360.094 465.233,326.154ZM410.475,381.078C388.479,362.523 365.933,342.398 343.351,321.137C331.755,310.217 316.21,304.544 300.695,305.612C281.452,306.921 253.505,291.773 231.166,267.92C208.729,243.96 195.456,215.012 198.138,195.887C200.262,180.743 195.74,164.966 185.732,152.6C168.985,131.906 153.995,112.079 141.08,93.554C153.454,84.813 166.796,77.504 180.854,71.785C220.401,127.023 276.068,191.309 338.216,253.457C370.298,285.538 402.701,315.698 434.603,343.186C428.026,356.675 419.931,369.388 410.475,381.078ZM370.214,223.457C396.698,249.939 423.544,275.232 450.071,298.721C447.808,309.032 444.741,319.095 440.914,328.827C410.414,302.391 379.472,273.512 348.817,242.856C288.511,182.551 234.427,120.297 195.513,66.484C205.343,63.359 215.459,60.986 225.782,59.413C264.449,110.922 314.301,167.552 370.214,223.457ZM50.771,50.965C60.318,41.418 89.535,42.993 143.281,74.122C115.513,91.305 91.658,114.875 73.949,143.481C42.8,89.735 41.223,60.514 50.771,50.965ZM82.744,158.034C94.922,136.551 110.728,117.891 129.16,102.664C142.193,121.327 157.272,141.259 174.08,162.029C181.484,171.178 184.843,182.76 183.293,193.804C179.965,217.541 194.462,250.655 220.225,278.167C245.866,305.545 277.834,322.195 301.712,320.566C313.068,319.802 324.506,323.979 333.075,332.049C355.788,353.437 378.475,373.689 400.619,392.374C387.144,406.677 371.437,419.093 353.835,429.075C307.526,400.015 254.814,356.79 204.914,306.911C155.042,257.046 111.815,204.35 82.744,158.034ZM460.901,461.035C451.356,470.584 422.137,469.008 368.388,437.867C396.989,420.157 420.552,396.299 437.73,368.53C468.877,422.274 470.453,451.49 460.901,461.035ZM405.437,43.757L421.217,51.647L429.107,67.426C429.107,67.428 429.108,67.429 429.109,67.43C430.559,70.327 433.472,72.127 436.712,72.127L436.716,72.127C439.958,72.125 442.87,70.322 444.316,67.427L452.206,51.648L467.99,43.756C470.887,42.306 472.687,39.393 472.687,36.153C472.687,32.913 470.887,30 467.987,28.548L452.206,20.658L444.318,4.883C442.87,1.984 439.958,0.181 436.716,0.179L436.712,0.179C433.472,0.179 430.559,1.979 429.107,4.879L421.217,20.658L405.433,28.55C402.536,30 400.736,32.913 400.736,36.153C400.736,39.393 402.536,42.305 405.437,43.757ZM429.828,33.11C431.475,32.295 432.835,30.94 433.657,29.296L436.713,23.186L439.768,29.296C440.59,30.941 441.95,32.295 443.57,33.097L449.681,36.153L443.597,39.195C441.95,40.01 440.59,41.365 439.768,43.009L436.713,49.119L433.799,43.292C432.885,41.472 431.38,39.969 429.56,39.06L423.746,36.153L429.828,33.11ZM53.817,394.319L48.82,394.319L48.82,389.323C48.82,385.183 45.466,381.828 41.325,381.828C37.185,381.828 33.831,385.183 33.831,389.323L33.831,394.319L28.834,394.319C24.694,394.319 21.339,397.674 21.339,401.814C21.339,405.954 24.694,409.309 28.834,409.309L33.831,409.309L33.831,414.306C33.831,418.446 37.185,421.8 41.325,421.8C45.466,421.8 48.82,418.446 48.82,414.306L48.82,409.309L53.817,409.309C57.957,409.309 61.312,405.954 61.312,401.814C61.312,397.674 57.957,394.319 53.817,394.319ZM134.761,469.268L129.764,469.268L129.764,464.271C129.764,460.131 126.41,456.776 122.269,456.776C118.129,456.776 114.775,460.131 114.775,464.271L114.775,469.268L109.778,469.268C105.638,469.268 102.283,472.622 102.283,476.762C102.283,480.903 105.638,484.257 109.778,484.257L114.775,484.257L114.775,489.254C114.775,493.394 118.129,496.749 122.269,496.749C126.41,496.749 129.764,493.394 129.764,489.254L129.764,484.257L134.761,484.257C138.901,484.257 142.256,480.903 142.256,476.762C142.256,472.622 138.901,469.268 134.761,469.268ZM32.492,484.342L27.495,484.342L27.495,479.346C27.495,475.205 24.14,471.851 20,471.851C15.86,471.851 12.505,475.205 12.505,479.346L12.505,484.342L7.509,484.342C3.369,484.342 0.014,487.697 0.014,491.837C0.014,495.977 3.369,499.332 7.509,499.332L12.505,499.332L12.505,504.328C12.505,508.468 15.86,511.823 20,511.823C24.14,511.823 27.495,508.468 27.495,504.328L27.495,499.332L32.492,499.332C36.632,499.332 39.986,495.977 39.986,491.837C39.986,487.697 36.632,484.342 32.492,484.342ZM479.522,123.507L484.519,123.507L484.519,128.503C484.519,132.643 487.874,135.998 492.014,135.998C496.154,135.998 499.509,132.643 499.509,128.503L499.509,123.507L504.505,123.507C508.645,123.507 512,120.152 512,116.012C512,111.872 508.645,108.517 504.505,108.517L499.509,108.517L499.509,103.52C499.509,99.38 496.154,96.026 492.014,96.026C487.874,96.026 484.519,99.38 484.519,103.52L484.519,108.517L479.522,108.517C475.382,108.517 472.028,111.872 472.028,116.012C472.028,120.152 475.382,123.507 479.522,123.507Z" style="fill:rgb(0,194,159);fill-rule:nonzero;"/>
        </g>
    </g>
</svg>
