<?xml version="1.0" encoding="UTF-8" standalone="no"?>
<!DOCTYPE svg PUBLIC "-//W3C//DTD SVG 1.1//EN" "http://www.w3.org/Graphics/SVG/1.1/DTD/svg11.dtd">
<svg width="100%" height="100%" viewBox="0 0 512 512" version="1.1" xmlns="http://www.w3.org/2000/svg" xmlns:xlink="http://www.w3.org/1999/xlink" xml:space="preserve" xmlns:serif="http://www.serif.com/" style="fill-rule:evenodd;clip-rule:evenodd;stroke-linejoin:round;stroke-miterlimit:2;">
    <g transform="matrix(1,0,0,1,-3060,-1836)">
        <g id="Venus" transform="matrix(1,0,0,1,3060,1836)">
            <rect x="0" y="0" width="512" height="512" style="fill:none;"/>
            <path d="M451.642,376.698C448.192,374.411 443.542,375.351 441.253,378.801C434.656,388.746 427.34,398.045 419.413,406.662C404.309,404.601 396.33,401.001 386.436,396.527C375.497,391.581 363.097,385.974 338.745,381.104C306.514,374.658 280.456,380.19 256.743,398.513C247.266,405.836 242.267,413.458 241.457,421.813C240.221,434.586 249.198,444.824 257.12,453.858C262.285,459.748 268.138,466.423 267.521,470.558C267.186,472.8 264.69,475.533 260.464,478.321C258.92,478.353 257.378,478.393 255.83,478.393C235.826,478.393 216.438,475.722 197.985,470.745C203.986,466.93 209.036,461.595 212.683,454.925C220.469,440.693 220.295,423.846 212.252,413.004C208.3,407.677 198.955,399.306 180.843,403.103C149.022,409.762 119.214,409.974 89.809,403.778C70.342,381.926 55.108,356.226 45.422,327.969C66.169,328.37 84.055,324.109 102.817,319.618C131.241,312.813 160.631,305.775 206.202,312.915C237.208,317.77 257.25,324.961 274.932,331.303C296.123,338.905 314.853,345.627 344.792,345.626C350.09,345.626 355.742,345.415 361.816,344.962C389.655,342.885 408.707,332.759 425.515,323.826C440.759,315.724 454.201,308.579 472.03,308.274C468.815,321.622 464.348,334.665 458.639,347.331C456.937,351.103 458.618,355.542 462.391,357.243C463.39,357.694 464.437,357.908 465.467,357.908C468.323,357.908 471.053,356.265 472.303,353.491C486.149,322.78 493.17,289.993 493.17,256.042C493.17,192.647 468.482,133.044 423.653,88.216C378.828,43.388 319.225,18.701 255.83,18.701C240.959,18.701 226.07,20.087 211.579,22.82C207.512,23.587 204.837,27.507 205.604,31.575C206.373,35.642 210.29,38.321 214.359,37.55C227.936,34.989 241.89,33.691 255.831,33.691C298.744,33.691 338.849,45.923 372.866,67.067C315.206,53.305 275.924,65.4 240.5,76.315C202.713,87.956 172.357,97.303 127.601,74.361C143.95,62.791 162.03,53.319 181.519,46.411C185.421,45.027 187.462,40.744 186.079,36.842C184.696,32.941 180.412,30.903 176.51,32.282C81.866,65.798 18.395,156.209 18.488,256.042C18.376,389.39 127.573,493.772 255.83,493.384C335.599,493.384 409.586,453.647 453.745,387.088C456.033,383.638 455.092,378.987 451.642,376.698ZM474.016,213.16C452.274,210.726 435.973,199.921 433.925,185.74C432.34,174.731 439.828,162.776 453.356,154.024C462.883,172.396 469.915,192.259 474.016,213.16ZM114.53,84.355C139.722,98.416 161.317,103.34 181.224,103.34C203.683,103.34 223.998,97.082 244.911,90.64C285.708,78.071 331.922,63.845 407.934,94.016C414.429,100.117 420.558,106.602 426.285,113.436C415.002,120.123 407.014,128.017 399.819,135.135C387.205,147.611 378.095,156.638 356.442,156.11C340.019,155.719 325.632,151.968 307.418,147.22C280.808,140.284 247.69,131.649 191.709,129.133C142.49,126.919 120.062,133.838 102.041,139.397C89.624,143.227 79.355,146.388 62.756,145.875C76.108,122.491 93.637,101.599 114.53,84.355ZM33.478,256.042C33.478,247.37 33.987,238.781 34.977,230.309C74.579,225.755 92.751,233.01 111.924,240.681C127.211,246.796 142.989,253.108 168.914,253.108C170.438,253.108 171.998,253.087 173.595,253.042C205.979,252.13 226.347,242.622 246.045,233.429C264.257,224.927 281.46,216.898 308.192,215.488C312.326,215.271 315.5,211.743 315.282,207.61C315.071,203.61 311.763,200.509 307.805,200.509C307.671,200.509 307.537,200.512 307.404,200.52C277.76,202.082 258.415,211.113 239.705,219.846C220.548,228.788 202.454,237.234 173.175,238.059C147.503,238.778 132.939,232.946 117.494,226.765C98.042,218.982 77.962,210.96 37.319,214.985C40.905,195.956 46.929,177.645 55.126,160.46C78.513,162.339 91.544,158.327 106.461,153.724C124.252,148.235 144.42,142.013 191.037,144.11C245.439,146.555 277.708,154.968 303.638,161.727C322.035,166.524 337.923,170.665 356.085,171.098C356.767,171.114 357.441,171.122 358.105,171.122C384.755,171.122 397.767,158.251 410.361,145.793C417.581,138.651 425.018,131.299 435.61,125.364C439.28,130.4 442.757,135.587 446.003,140.929C426.777,152.997 416.583,170.472 419.089,187.88C422.315,210.219 445.514,226.333 476.47,228.435C477.282,234.967 477.802,241.586 478.032,248.279C466.746,247.091 452.582,245.226 439.42,241.011C436.506,240.089 433.82,239.118 431.311,238.104C421.984,234.402 413.554,229.106 403.348,222.484C390.211,214.194 375.215,206.067 344.24,202.139L344.24,202.14C344.23,202.139 344.221,202.138 344.212,202.136L343.981,202.107C339.886,201.574 336.125,204.495 335.604,208.602C335.084,212.707 337.993,216.459 342.099,216.978L342.328,217.007C373.174,220.918 385.858,229.056 399.286,237.674C405.481,241.615 412.801,246.388 421.407,250.184C434.116,255.898 451.05,260.752 478.047,263.336L478.052,263.336C477.73,273.448 476.733,283.44 475.078,293.287C452.046,292.749 435.702,301.436 418.48,310.588C402.218,319.231 385.401,328.169 360.701,330.013C323.476,332.793 304.286,325.909 279.995,317.194C261.685,310.626 240.932,303.181 208.521,298.103C160.027,290.512 127.78,298.229 99.327,305.039C79.257,309.844 61.712,314.031 40.83,312.798C36.041,294.673 33.478,275.652 33.478,256.042ZM173.21,462.467C149.06,452.766 126.996,438.945 107.886,421.878C132.516,424.648 157.59,423.285 183.914,417.775C191.507,416.186 196.987,417.587 200.214,421.936C204.693,427.974 204.406,438.823 199.532,447.732C196.359,453.536 188.735,463.002 173.21,462.467ZM281.244,476.925C281.762,475.576 282.133,474.194 282.346,472.773C283.991,461.766 276.06,452.722 268.39,443.976C262.183,436.898 255.765,429.579 256.377,423.259C256.761,419.301 259.968,414.967 265.909,410.375C286.207,394.691 307.761,390.195 335.805,395.804C358.479,400.338 370.051,405.57 380.259,410.187C388.074,413.72 395.597,417.108 406.513,419.568C372.05,451.361 328.302,471.547 281.244,476.925ZM29.98,60.173C46.511,60.173 59.96,46.724 59.96,30.193C59.96,13.662 46.511,0.213 29.98,0.213C13.449,0.213 0,13.662 0,30.193C0,46.724 13.449,60.173 29.98,60.173ZM29.98,15.203C38.246,15.203 44.97,21.927 44.97,30.193C44.97,38.458 38.246,45.183 29.98,45.183C21.715,45.183 14.99,38.458 14.99,30.193C14.99,21.927 21.715,15.203 29.98,15.203ZM469.188,426.929C445.768,426.929 426.716,445.981 426.716,469.4C426.716,492.82 445.768,511.872 469.188,511.872C492.607,511.872 511.659,492.82 511.659,469.4C511.659,445.981 492.607,426.929 469.188,426.929ZM469.188,496.882C454.035,496.882 441.706,484.553 441.706,469.4C441.706,454.247 454.035,441.919 469.188,441.919C484.34,441.919 496.669,454.247 496.669,469.4C496.669,484.553 484.34,496.882 469.188,496.882ZM171.386,162.105C144.818,162.105 117.921,171.545 117.921,189.587C117.921,207.629 144.818,217.068 171.386,217.068C197.954,217.068 224.85,207.629 224.85,189.587C224.85,171.545 197.954,162.105 171.386,162.105ZM171.386,202.078C146.393,202.078 132.911,193.212 132.911,189.587C132.911,185.961 146.393,177.095 171.386,177.095C196.378,177.095 209.86,185.961 209.86,189.587C209.86,193.212 196.378,202.078 171.386,202.078ZM152.752,347.759C156.773,346.773 159.232,342.714 158.246,338.694C157.259,334.674 153.192,332.211 149.181,333.201C127.888,338.427 115.474,348.758 115.972,360.84C116.695,378.387 142.604,387.019 169.404,387.019C171.12,387.019 172.84,386.984 174.557,386.913C203.087,385.737 231.567,374.777 230.797,356.108C230.232,342.373 212.829,332.226 186.465,330.257C182.326,329.955 178.741,333.046 178.432,337.173C178.124,341.302 181.22,344.897 185.349,345.206C205.383,346.701 215.683,353.398 215.82,356.725C215.981,360.632 201.505,370.8 173.94,371.936C146.357,373.078 131.111,364.128 130.948,360.223C130.848,357.768 137.139,351.591 152.752,347.759ZM296.73,298.235C307.417,303.893 321.462,307.009 336.276,307.009C351.09,307.009 365.135,303.893 375.822,298.235C388.019,291.778 394.737,282.649 394.737,272.531C394.737,262.414 388.019,253.285 375.822,246.828C365.135,241.17 351.09,238.054 336.276,238.054C321.462,238.054 307.417,241.17 296.73,246.828C284.533,253.285 277.815,262.414 277.815,272.531C277.815,282.649 284.533,291.778 296.73,298.235ZM336.276,253.044C361.155,253.044 379.747,263.333 379.747,272.531C379.747,281.73 361.155,292.019 336.276,292.019C311.397,292.019 292.805,281.73 292.805,272.531C292.805,263.333 311.397,253.044 336.276,253.044ZM472.027,103.059C472.027,107.2 475.381,110.554 479.522,110.554L484.518,110.554L484.518,115.551C484.518,119.691 487.873,123.046 492.013,123.046C496.154,123.046 499.508,119.691 499.508,115.551L499.508,110.554L504.505,110.554C508.645,110.554 512,107.2 512,103.059C512,98.919 508.645,95.564 504.505,95.564L499.508,95.564L499.508,90.568C499.508,86.427 496.154,83.073 492.013,83.073C487.873,83.073 484.518,86.427 484.518,90.568L484.518,95.564L479.522,95.564C475.381,95.564 472.027,98.919 472.027,103.059ZM111.426,484.39L106.429,484.39L106.429,479.394C106.429,475.253 103.074,471.899 98.934,471.899C94.794,471.899 91.439,475.253 91.439,479.394L91.439,484.39L86.442,484.39C82.302,484.39 78.947,487.745 78.947,491.885C78.947,496.026 82.302,499.38 86.442,499.38L91.439,499.38L91.439,504.377C91.439,508.517 94.794,511.872 98.934,511.872C103.074,511.872 106.429,508.517 106.429,504.377L106.429,499.38L111.426,499.38C115.566,499.38 118.921,496.026 118.921,491.885C118.921,487.745 115.566,484.39 111.426,484.39ZM32.478,443.418L27.482,443.418L27.482,438.421C27.482,434.281 24.127,430.926 19.987,430.926C15.846,430.926 12.492,434.281 12.492,438.421L12.492,443.418L7.495,443.418C3.355,443.418 0,446.772 0,450.913C0,455.053 3.355,458.408 7.495,458.408L12.492,458.408L12.492,463.404C12.492,467.545 15.846,470.899 19.987,470.899C24.127,470.899 27.482,467.545 27.482,463.404L27.482,458.408L32.478,458.408C36.619,458.408 39.973,455.053 39.973,450.913C39.973,446.772 36.619,443.418 32.478,443.418ZM442.546,27.61L447.543,27.61L447.543,32.606C447.543,36.747 450.898,40.101 455.038,40.101C459.178,40.101 462.533,36.747 462.533,32.606L462.533,27.61L467.53,27.61C471.67,27.61 475.025,24.255 475.025,20.115C475.025,15.974 471.67,12.62 467.53,12.62L462.533,12.62L462.533,7.623C462.533,3.483 459.178,0.128 455.038,0.128C450.898,0.128 447.543,3.483 447.543,7.623L447.543,12.62L442.546,12.62C438.406,12.62 435.051,15.974 435.051,20.115C435.051,24.255 438.406,27.61 442.546,27.61Z" style="fill:rgb(0,194,159);fill-rule:nonzero;"/>
        </g>
    </g>
</svg>
