<?xml version="1.0" encoding="UTF-8" standalone="no"?>
<!DOCTYPE svg PUBLIC "-//W3C//DTD SVG 1.1//EN" "http://www.w3.org/Graphics/SVG/1.1/DTD/svg11.dtd">
<svg width="100%" height="100%" viewBox="0 0 512 512" version="1.1" xmlns="http://www.w3.org/2000/svg" xmlns:xlink="http://www.w3.org/1999/xlink" xml:space="preserve" xmlns:serif="http://www.serif.com/" style="fill-rule:evenodd;clip-rule:evenodd;stroke-linejoin:round;stroke-miterlimit:2;">
    <g transform="matrix(1,0,0,1,0,-1836)">
        <g id="Wax-G-Wan-C" serif:id="Wax G Wan C" transform="matrix(1,0,0,1,0,1836)">
            <rect x="0" y="0" width="512" height="512" style="fill:none;"/>
            <clipPath id="_clip1">
                <rect x="0" y="0" width="512" height="512"/>
            </clipPath>
            <g clip-path="url(#_clip1)">
                <path d="M123.467,31.566L132.533,31.566L132.533,40.633C132.533,44.776 135.89,48.133 140.033,48.133C144.176,48.133 147.533,44.776 147.533,40.633L147.533,31.566L156.599,31.566C160.742,31.566 164.099,28.209 164.099,24.066C164.099,19.923 160.742,16.566 156.599,16.566L147.533,16.566L147.533,7.5C147.533,3.357 144.176,-0 140.033,-0C135.89,-0 132.533,3.357 132.533,7.5L132.533,16.566L123.467,16.566C119.324,16.566 115.967,19.923 115.967,24.066C115.967,28.209 119.324,31.566 123.467,31.566ZM388.533,480.434L379.467,480.434L379.467,471.367C379.467,467.224 376.11,463.867 371.967,463.867C367.824,463.867 364.467,467.224 364.467,471.367L364.467,480.434L355.4,480.434C351.257,480.434 347.9,483.791 347.9,487.934C347.9,492.077 351.257,495.434 355.4,495.434L364.466,495.434L364.466,504.5C364.466,508.643 367.823,512 371.966,512C376.109,512 379.466,508.643 379.466,504.5L379.466,495.434L388.532,495.434C392.675,495.434 396.032,492.077 396.032,487.934C396.032,483.791 392.676,480.434 388.533,480.434ZM139.25,305.7C139.25,292.429 128.454,281.634 115.184,281.634C101.914,281.634 91.116,292.43 91.116,305.7C91.116,318.97 101.913,329.766 115.183,329.766C128.453,329.766 139.25,318.971 139.25,305.7ZM115.184,314.767C110.184,314.767 106.117,310.7 106.117,305.701C106.117,300.702 110.184,296.635 115.184,296.635C120.183,296.635 124.25,300.702 124.25,305.701C124.25,310.7 120.183,314.767 115.184,314.767ZM131.75,263.5C145.02,263.5 155.816,252.704 155.816,239.434C155.816,226.164 145.02,215.367 131.75,215.367C118.48,215.367 107.684,226.164 107.684,239.434C107.684,252.704 118.479,263.5 131.75,263.5ZM131.75,230.366C136.749,230.366 140.816,234.433 140.816,239.433C140.816,244.432 136.749,248.499 131.75,248.499C126.751,248.499 122.684,244.432 122.684,239.433C122.684,234.434 126.751,230.366 131.75,230.366ZM462.3,255.666C462.289,249.255 457.877,243.879 451.571,242.592C445.275,241.313 439.121,244.522 436.603,250.406C415.559,299.602 367.458,331.335 313.979,331.335C313.862,331.335 313.737,331.334 313.62,331.334C240.504,331.139 180.861,271.496 180.667,198.381C180.524,144.762 212.29,96.487 261.596,75.398C267.48,72.88 270.693,66.726 269.408,60.43C268.121,54.124 262.745,49.712 256.321,49.701L256,49.701C206.655,49.701 158.904,67.398 121.542,99.533C118.401,102.234 118.046,106.97 120.746,110.11C123.448,113.252 128.183,113.605 131.323,110.906C164.104,82.711 205.514,66.503 248.639,64.843C197.835,89.759 165.514,141.37 165.666,198.42C165.883,279.763 232.235,346.116 313.579,346.334C313.713,346.334 313.845,346.335 313.979,346.335C370.872,346.333 422.303,314.046 447.159,263.356C443.277,365.44 359.018,447.3 256,447.3C247.652,447.3 239.23,446.751 230.966,445.668C230.49,445.606 230.325,445.079 230.303,444.776C230.232,443.806 230.098,442.823 229.906,441.854C227.775,431.119 218.682,423.158 207.793,422.495C199.034,421.977 190.656,426.242 185.964,433.667C185.885,433.793 185.53,433.888 185.182,433.749C165.547,425.919 147.43,414.931 131.332,401.088C128.193,398.387 123.457,398.742 120.756,401.885C118.055,405.026 118.412,409.761 121.553,412.461C138.909,427.387 158.448,439.237 179.624,447.682C186.673,450.494 194.67,447.969 198.645,441.679C200.413,438.88 203.571,437.259 206.881,437.468C210.905,437.713 214.401,440.786 215.192,444.776C215.265,445.147 215.317,445.518 215.343,445.878C215.905,453.53 221.528,459.561 229.016,460.542C237.924,461.709 247.002,462.301 255.999,462.301C369.753,462.301 462.299,369.755 462.299,256.001L462.299,255.666L462.3,255.666ZM64.7,256C64.7,210.243 81.109,165.965 110.905,131.323C113.605,128.182 113.25,123.447 110.109,120.746C106.969,118.046 102.234,118.4 99.532,121.542C67.397,158.904 49.7,206.655 49.7,256C49.7,305.343 67.399,353.092 99.537,390.451C101.02,392.175 103.117,393.059 105.225,393.059C106.957,393.059 108.698,392.462 110.114,391.244C113.254,388.543 113.609,383.808 110.908,380.667C81.11,346.03 64.7,301.755 64.7,256ZM463.083,381.033C458.94,381.033 455.583,384.39 455.583,388.533L455.583,405.1C455.583,409.243 458.94,412.6 463.083,412.6C467.226,412.6 470.583,409.243 470.583,405.1L470.583,388.534C470.583,384.391 467.226,381.033 463.083,381.033ZM463.083,447.3C458.94,447.3 455.583,450.657 455.583,454.8L455.583,471.366C455.583,475.509 458.94,478.866 463.083,478.866C467.226,478.866 470.583,475.509 470.583,471.366L470.583,454.8C470.583,450.657 467.226,447.3 463.083,447.3ZM504.5,422.45L487.934,422.45C483.791,422.45 480.434,425.807 480.434,429.95C480.434,434.093 483.791,437.45 487.934,437.45L504.5,437.45C508.643,437.45 512,434.093 512,429.95C512,425.807 508.643,422.45 504.5,422.45ZM438.233,422.45L421.667,422.45C417.524,422.45 414.167,425.807 414.167,429.95C414.167,434.093 417.524,437.45 421.667,437.45L438.233,437.45C442.376,437.45 445.733,434.093 445.733,429.95C445.733,425.807 442.376,422.45 438.233,422.45ZM48.917,64.7C53.06,64.7 56.417,61.343 56.417,57.2L56.417,40.634C56.417,36.491 53.06,33.134 48.917,33.134C44.774,33.134 41.417,36.491 41.417,40.634L41.417,57.2C41.417,61.343 44.774,64.7 48.917,64.7ZM56.417,123.467L56.417,106.9C56.417,102.757 53.06,99.4 48.917,99.4C44.774,99.4 41.417,102.757 41.417,106.9L41.417,123.466C41.417,127.609 44.774,130.966 48.917,130.966C53.06,130.966 56.417,127.609 56.417,123.467ZM73.767,89.55L90.333,89.55C94.476,89.55 97.833,86.193 97.833,82.05C97.833,77.907 94.476,74.55 90.333,74.55L73.767,74.55C69.624,74.55 66.267,77.907 66.267,82.05C66.267,86.192 69.624,89.55 73.767,89.55ZM24.066,74.55L7.5,74.55C3.357,74.55 0,77.907 0,82.05C0,86.193 3.357,89.55 7.5,89.55L24.066,89.55C28.209,89.55 31.566,86.193 31.566,82.05C31.566,77.907 28.209,74.55 24.066,74.55Z" style="fill:rgb(236,12,198);fill-rule:nonzero;"/>
            </g>
        </g>
    </g>
</svg>
