<?xml version="1.0" encoding="UTF-8" standalone="no"?>
<!DOCTYPE svg PUBLIC "-//W3C//DTD SVG 1.1//EN" "http://www.w3.org/Graphics/SVG/1.1/DTD/svg11.dtd">
<svg width="100%" height="100%" viewBox="0 0 512 512" version="1.1" xmlns="http://www.w3.org/2000/svg" xmlns:xlink="http://www.w3.org/1999/xlink" xml:space="preserve" xmlns:serif="http://www.serif.com/" style="fill-rule:evenodd;clip-rule:evenodd;stroke-linejoin:round;stroke-miterlimit:2;">
    <g transform="matrix(1,0,0,1,-3060,-1224)">
        <g id="Wax-C-Wan-G" serif:id="Wax C Wan G" transform="matrix(1,0,0,1,3060,1224)">
            <rect x="0" y="0" width="512" height="512" style="fill:none;"/>
            <clipPath id="_clip1">
                <rect x="0" y="0" width="512" height="512"/>
            </clipPath>
            <g clip-path="url(#_clip1)">
                <path d="M388.533,31.566L379.467,31.566L379.467,40.633C379.467,44.776 376.11,48.133 371.967,48.133C367.824,48.133 364.467,44.776 364.467,40.633L364.467,31.566L355.401,31.566C351.258,31.566 347.901,28.209 347.901,24.066C347.901,19.923 351.258,16.566 355.401,16.566L364.467,16.566L364.467,7.5C364.467,3.357 367.824,-0 371.967,-0C376.11,-0 379.467,3.357 379.467,7.5L379.467,16.566L388.533,16.566C392.676,16.566 396.033,19.923 396.033,24.066C396.033,28.209 392.676,31.566 388.533,31.566ZM123.467,480.434L132.533,480.434L132.533,471.367C132.533,467.224 135.89,463.867 140.033,463.867C144.176,463.867 147.533,467.224 147.533,471.367L147.533,480.434L156.6,480.434C160.743,480.434 164.1,483.791 164.1,487.934C164.1,492.077 160.743,495.434 156.6,495.434L147.534,495.434L147.534,504.5C147.534,508.643 144.177,512 140.034,512C135.891,512 132.534,508.643 132.534,504.5L132.534,495.434L123.468,495.434C119.325,495.434 115.968,492.077 115.968,487.934C115.968,483.791 119.324,480.434 123.467,480.434ZM372.75,305.7C372.75,292.429 383.546,281.634 396.816,281.634C410.086,281.634 420.884,292.43 420.884,305.7C420.884,318.97 410.087,329.766 396.817,329.766C383.547,329.766 372.75,318.971 372.75,305.7ZM396.816,314.767C401.816,314.767 405.883,310.7 405.883,305.701C405.883,300.702 401.816,296.635 396.816,296.635C391.817,296.635 387.75,300.702 387.75,305.701C387.75,310.7 391.817,314.767 396.816,314.767ZM380.25,263.5C366.98,263.5 356.184,252.704 356.184,239.434C356.184,226.164 366.98,215.367 380.25,215.367C393.52,215.367 404.316,226.164 404.316,239.434C404.316,252.704 393.521,263.5 380.25,263.5ZM380.25,230.366C375.251,230.366 371.184,234.433 371.184,239.433C371.184,244.432 375.251,248.499 380.25,248.499C385.249,248.499 389.316,244.432 389.316,239.433C389.316,234.434 385.249,230.366 380.25,230.366ZM49.7,255.666C49.711,249.255 54.123,243.879 60.429,242.592C66.725,241.313 72.879,244.522 75.397,250.406C96.441,299.602 144.542,331.335 198.021,331.335C198.138,331.335 198.263,331.334 198.38,331.334C271.496,331.139 331.139,271.496 331.333,198.381C331.476,144.762 299.71,96.487 250.404,75.398C244.52,72.88 241.307,66.726 242.592,60.43C243.879,54.124 249.255,49.712 255.679,49.701L256,49.701C305.345,49.701 353.096,67.398 390.458,99.533C393.599,102.234 393.954,106.97 391.254,110.11C388.552,113.252 383.817,113.605 380.677,110.906C347.896,82.711 306.486,66.503 263.361,64.843C314.165,89.759 346.486,141.37 346.334,198.42C346.117,279.763 279.765,346.116 198.421,346.334C198.287,346.334 198.155,346.335 198.021,346.335C141.128,346.333 89.697,314.046 64.841,263.356C68.723,365.44 152.982,447.3 256,447.3C264.348,447.3 272.77,446.751 281.034,445.668C281.51,445.606 281.675,445.079 281.697,444.776C281.768,443.806 281.902,442.823 282.094,441.854C284.225,431.119 293.318,423.158 304.207,422.495C312.966,421.977 321.344,426.242 326.036,433.667C326.115,433.793 326.47,433.888 326.818,433.749C346.453,425.919 364.57,414.931 380.668,401.088C383.807,398.387 388.543,398.742 391.244,401.885C393.945,405.026 393.588,409.761 390.447,412.461C373.091,427.387 353.552,439.237 332.376,447.682C325.327,450.494 317.33,447.969 313.355,441.679C311.587,438.88 308.429,437.259 305.119,437.468C301.095,437.713 297.599,440.786 296.808,444.776C296.735,445.147 296.683,445.518 296.657,445.878C296.095,453.53 290.472,459.561 282.984,460.542C274.076,461.709 264.998,462.301 256.001,462.301C142.247,462.301 49.701,369.755 49.701,256.001L49.701,255.666L49.7,255.666ZM447.3,256C447.3,210.243 430.891,165.965 401.095,131.323C398.395,128.182 398.75,123.447 401.891,120.746C405.031,118.046 409.766,118.4 412.468,121.542C444.603,158.904 462.3,206.655 462.3,256C462.3,305.343 444.601,353.092 412.463,390.451C410.98,392.175 408.883,393.059 406.775,393.059C405.043,393.059 403.302,392.462 401.886,391.244C398.746,388.543 398.391,383.808 401.092,380.667C430.89,346.03 447.3,301.755 447.3,256ZM48.917,381.033C53.06,381.033 56.417,384.39 56.417,388.533L56.417,405.1C56.417,409.243 53.06,412.6 48.917,412.6C44.774,412.6 41.417,409.243 41.417,405.1L41.417,388.534C41.417,384.391 44.774,381.033 48.917,381.033ZM48.917,447.3C53.06,447.3 56.417,450.657 56.417,454.8L56.417,471.366C56.417,475.509 53.06,478.866 48.917,478.866C44.774,478.866 41.417,475.509 41.417,471.366L41.417,454.8C41.417,450.657 44.774,447.3 48.917,447.3ZM7.5,422.45L24.066,422.45C28.209,422.45 31.566,425.807 31.566,429.95C31.566,434.093 28.209,437.45 24.066,437.45L7.5,437.45C3.357,437.45 0,434.093 0,429.95C0,425.807 3.357,422.45 7.5,422.45ZM73.767,422.45L90.333,422.45C94.476,422.45 97.833,425.807 97.833,429.95C97.833,434.093 94.476,437.45 90.333,437.45L73.767,437.45C69.624,437.45 66.267,434.093 66.267,429.95C66.267,425.807 69.624,422.45 73.767,422.45ZM463.083,64.7C458.94,64.7 455.583,61.343 455.583,57.2L455.583,40.634C455.583,36.491 458.94,33.134 463.083,33.134C467.226,33.134 470.583,36.491 470.583,40.634L470.583,57.2C470.583,61.343 467.226,64.7 463.083,64.7ZM455.583,123.467L455.583,106.9C455.583,102.757 458.94,99.4 463.083,99.4C467.226,99.4 470.583,102.757 470.583,106.9L470.583,123.466C470.583,127.609 467.226,130.966 463.083,130.966C458.94,130.966 455.583,127.609 455.583,123.467ZM438.233,89.55L421.667,89.55C417.524,89.55 414.167,86.193 414.167,82.05C414.167,77.907 417.524,74.55 421.667,74.55L438.233,74.55C442.376,74.55 445.733,77.907 445.733,82.05C445.733,86.192 442.376,89.55 438.233,89.55ZM487.934,74.55L504.5,74.55C508.643,74.55 512,77.907 512,82.05C512,86.193 508.643,89.55 504.5,89.55L487.934,89.55C483.791,89.55 480.434,86.193 480.434,82.05C480.434,77.907 483.791,74.55 487.934,74.55Z" style="fill:rgb(236,12,198);fill-rule:nonzero;"/>
            </g>
        </g>
    </g>
</svg>
