<?xml version="1.0" encoding="UTF-8" standalone="no"?>
<!DOCTYPE svg PUBLIC "-//W3C//DTD SVG 1.1//EN" "http://www.w3.org/Graphics/SVG/1.1/DTD/svg11.dtd">
<svg width="100%" height="100%" viewBox="0 0 512 512" version="1.1" xmlns="http://www.w3.org/2000/svg" xmlns:xlink="http://www.w3.org/1999/xlink" xml:space="preserve" xmlns:serif="http://www.serif.com/" style="fill-rule:evenodd;clip-rule:evenodd;stroke-linejoin:round;stroke-miterlimit:2;">
    <g transform="matrix(1,0,0,1,-612,-612)">
        <g id="Wind-Clouds" serif:id="Wind Clouds" transform="matrix(1,0,0,1,612,612)">
            <rect x="0" y="0" width="512" height="512" style="fill:none;"/>
            <clipPath id="_clip1">
                <rect x="0" y="0" width="512" height="512"/>
            </clipPath>
            <g clip-path="url(#_clip1)">
                <path d="M473.391,287.117C464.266,293.418 453.566,296.746 442.453,296.746L389.551,296.746C378.766,287.07 364.527,281.168 348.934,281.168L333.129,281.168C339.234,271.223 342.512,259.766 342.512,247.801C342.512,227.316 332.703,208.129 316.184,196.098C309.668,170.012 286.281,150.551 258.336,150C258.156,149.828 257.969,149.66 257.77,149.5C249.98,143.281 241.211,138.43 231.902,135.074C238.469,123.07 247.371,112.211 257.898,103.414C261.074,100.758 261.5,96.027 258.844,92.852C256.184,89.672 251.457,89.25 248.277,91.906C235.391,102.676 224.645,116.172 217.051,131.086C211.77,130.137 206.398,129.637 200.996,129.637C155.102,129.637 116.625,163.887 110.73,208.715C95.664,211.148 82.531,220.047 74.594,233.383L19.172,233.383C8.602,233.383 0,241.984 0,252.555C0,263.129 8.602,271.73 19.172,271.73L68.664,271.73C69.426,274.973 70.492,278.137 71.859,281.168L54.957,281.168C44.383,281.168 35.781,289.77 35.781,300.344C35.781,310.914 44.383,319.516 54.957,319.516L348.934,319.516C361.359,319.516 371.465,329.625 371.465,342.047C371.465,354.473 361.359,364.582 348.934,364.582C336.508,364.582 326.398,354.473 326.398,342.047C326.398,331.477 317.801,322.875 307.227,322.875C296.656,322.875 288.055,331.477 288.055,342.047C288.055,375.617 315.363,402.926 348.934,402.926C382.5,402.926 409.813,375.617 409.813,342.047C409.813,331.02 406.848,320.676 401.699,311.746L442.449,311.746C456.621,311.746 470.266,307.5 481.906,299.465C485.316,297.109 486.172,292.438 483.82,289.031C481.469,285.621 476.797,284.766 473.391,287.117ZM15,252.555C15,250.254 16.871,248.383 19.172,248.383L159,248.383C163.141,248.383 166.5,245.023 166.5,240.883C166.5,236.742 163.141,233.383 159,233.383L93.535,233.383C99.988,227.117 108.555,223.383 117.859,223.063C121.727,222.93 124.855,219.879 125.09,216.02C127.512,175.992 160.855,144.637 200.996,144.637C213.672,144.637 225.789,147.684 236.688,153.508C213.141,161.926 196.242,184.449 196.242,210.852C196.242,221.422 204.844,230.023 215.414,230.023C225.988,230.023 234.59,221.422 234.59,210.852C234.59,198.426 244.695,188.316 257.121,188.316C269.547,188.316 279.656,198.426 279.656,210.852C279.656,223.273 269.547,233.383 257.121,233.383L197,233.383C192.859,233.383 189.5,236.742 189.5,240.883C189.5,245.023 192.859,248.383 197,248.383L257.121,248.383C277.816,248.383 294.656,231.547 294.656,210.852C294.656,190.152 277.816,173.316 257.121,173.316C236.426,173.316 219.59,190.152 219.59,210.852C219.59,213.152 217.715,215.023 215.414,215.023C213.113,215.023 211.242,213.152 211.242,210.852C211.242,185.551 231.824,164.973 257.121,164.973C282.418,164.973 303,185.551 303,210.852C303,236.148 282.418,256.73 257.121,256.73L19.172,256.73C16.871,256.727 15,254.855 15,252.555ZM84.254,271.727L257.121,271.727C288.191,271.727 313.883,248.328 317.535,218.227C323.914,226.633 327.512,236.977 327.512,247.801C327.512,260.301 322.848,272.078 314.359,281.168L89.055,281.168C87,278.27 85.395,275.078 84.254,271.727ZM348.934,387.926C323.637,387.926 303.055,367.344 303.055,342.047C303.055,339.746 304.926,337.875 307.227,337.875C309.527,337.875 311.402,339.746 311.402,342.047C311.402,362.742 328.238,379.578 348.934,379.578C369.629,379.578 386.469,362.742 386.469,342.047C386.469,321.352 369.629,304.516 348.934,304.516L54.957,304.516C52.656,304.516 50.781,302.641 50.781,300.34C50.781,298.039 52.656,296.168 54.957,296.168L348.934,296.168C374.23,296.168 394.813,316.75 394.813,342.047C394.813,367.348 374.23,387.926 348.934,387.926ZM492.418,193.832C481.391,182.445 467.066,175.277 451.543,173.254C444.496,110.922 391.43,63 327.973,63C310.555,63 293.68,66.551 277.82,73.551C274.027,75.223 272.313,79.648 273.984,83.438C275.656,87.227 280.086,88.945 283.875,87.273C297.816,81.121 312.652,78 327.973,78C385.699,78 433.648,123.094 437.133,180.66C437.367,184.52 440.496,187.57 444.363,187.699C473.879,188.715 497,212.656 497,242.199C497,250.176 495.309,257.879 491.965,265.09C490.223,268.848 491.859,273.309 495.617,275.051C496.637,275.523 497.707,275.746 498.766,275.746C501.594,275.746 504.305,274.137 505.574,271.398C509.84,262.191 512,252.371 512,242.199C512,224.047 505.047,206.871 492.418,193.832ZM405.531,168.457C406.641,173.02 407.344,177.723 407.633,182.441C407.871,186.422 411.176,189.488 415.109,189.488C415.262,189.488 415.418,189.484 415.57,189.477C419.703,189.227 422.852,185.672 422.602,181.535C422.266,175.934 421.426,170.34 420.105,164.914C419.129,160.891 415.078,158.414 411.047,159.398C407.023,160.375 404.555,164.43 405.531,168.457ZM351.418,95.492C347.402,94.469 343.32,96.891 342.293,100.902C341.27,104.918 343.691,109 347.703,110.027C368.875,115.43 387.129,129.52 397.789,148.676C399.16,151.141 401.715,152.531 404.348,152.531C405.582,152.531 406.832,152.223 407.988,151.582C411.605,149.57 412.91,145 410.895,141.383C398.242,118.637 376.563,101.914 351.418,95.492ZM224.543,327.543L87.656,327.543C77.082,327.543 68.48,336.145 68.48,346.719C68.48,357.289 77.082,365.891 87.656,365.891L224.543,365.891C236.969,365.891 247.078,376 247.078,388.426C247.078,400.848 236.969,410.957 224.543,410.957C212.117,410.957 202.012,400.848 202.012,388.426C202.012,377.852 193.41,369.25 182.836,369.25C172.266,369.25 163.664,377.852 163.664,388.426C163.664,421.992 190.973,449.301 224.543,449.301C258.113,449.301 285.422,421.992 285.422,388.426C285.422,354.855 258.113,327.543 224.543,327.543ZM224.543,434.305C199.246,434.305 178.664,413.723 178.664,388.426C178.664,386.125 180.535,384.25 182.836,384.25C185.137,384.25 187.012,386.125 187.012,388.426C187.012,409.121 203.848,425.957 224.543,425.957C245.238,425.957 262.078,409.121 262.078,388.426C262.078,367.73 245.238,350.891 224.543,350.891L87.656,350.891C85.352,350.891 83.48,349.02 83.48,346.719C83.48,344.418 85.352,342.547 87.656,342.547L224.543,342.547C249.84,342.547 270.422,363.125 270.422,388.426C270.422,413.723 249.84,434.305 224.543,434.305ZM434.277,341.504C434.297,337.363 430.957,333.988 426.816,333.969L426.711,333.969C422.559,333.961 419.195,337.293 419.176,341.434C419.156,345.574 422.5,348.949 426.641,348.969L426.781,348.969C430.906,348.969 434.258,345.637 434.277,341.504ZM435.68,359.418L435.543,359.418C431.418,359.418 428.063,362.754 428.043,366.883C428.023,371.027 431.363,374.398 435.508,374.418L435.648,374.418C439.773,374.418 443.125,371.086 443.145,366.957C443.164,362.813 439.824,359.441 435.68,359.418ZM123.391,380.926L123.254,380.926C119.129,380.926 115.773,384.258 115.754,388.387C115.734,392.531 119.074,395.902 123.219,395.926L123.359,395.926C127.484,395.926 130.836,392.59 130.855,388.461C130.875,384.316 127.535,380.945 123.391,380.926ZM68.051,207.008L68.188,207.008C72.313,207.008 75.668,203.672 75.688,199.543C75.707,195.398 72.367,192.027 68.223,192.008L68.121,192.008C64.008,192.004 60.605,195.328 60.586,199.473C60.566,203.613 63.91,206.988 68.051,207.008Z" style="fill:rgb(115,1,200);fill-rule:nonzero;"/>
            </g>
        </g>
    </g>
</svg>
