<?xml version="1.0" encoding="UTF-8" standalone="no"?>
<!DOCTYPE svg PUBLIC "-//W3C//DTD SVG 1.1//EN" "http://www.w3.org/Graphics/SVG/1.1/DTD/svg11.dtd">
<svg width="100%" height="100%" viewBox="0 0 512 512" version="1.1" xmlns="http://www.w3.org/2000/svg" xmlns:xlink="http://www.w3.org/1999/xlink" xml:space="preserve" xmlns:serif="http://www.serif.com/" style="fill-rule:evenodd;clip-rule:evenodd;stroke-linejoin:round;stroke-miterlimit:2;">
    <g transform="matrix(1,0,0,1,-1224,-612)">
        <g id="Windy" transform="matrix(1,0,0,1,1224,612)">
            <rect x="0" y="0" width="512" height="512" style="fill:none;"/>
            <path d="M282.448,214.97L20.624,214.97C9.251,214.97 0,205.718 0,194.346C0,182.974 9.251,173.722 20.624,173.722L283.36,173.722C290.725,173.722 297.559,170.744 302.6,165.336C307.637,159.937 310.124,152.9 309.61,145.516C308.705,132.537 298.233,122.066 285.255,121.157C277.871,120.635 270.83,123.13 265.43,128.163C260.019,133.208 257.044,140.042 257.044,147.407C257.044,153.028 254.822,158.284 250.787,162.202C246.752,166.12 241.407,168.186 235.808,168.019C224.705,167.699 215.731,158.264 215.797,146.993C216.019,109.964 246.327,79.843 283.36,79.843C294.771,79.843 306.07,82.76 316.027,88.284C319.641,90.288 320.947,94.845 318.943,98.459C316.935,102.073 312.381,103.379 308.767,101.376C301.025,97.083 292.237,94.814 283.36,94.814C254.534,94.814 230.939,118.261 230.768,147.083C230.748,150.233 233.255,152.97 236.245,153.056C237.766,153.106 239.251,152.537 240.354,151.461C241.462,150.389 242.07,148.947 242.07,147.407C242.07,136.011 246.865,125.005 255.22,117.216C263.688,109.317 274.732,105.415 286.3,106.222C306.682,107.648 323.122,124.093 324.545,144.471C325.352,156.042 321.446,167.079 313.547,175.547C305.758,183.902 294.752,188.693 283.36,188.693L20.624,188.693C17.505,188.693 14.971,191.231 14.971,194.346C14.971,197.461 17.505,199.999 20.624,199.999L282.448,199.999C311.512,199.999 335.512,176.775 335.949,148.225C336.089,138.849 333.715,129.594 329.075,121.457C327.025,117.867 328.276,113.294 331.867,111.247C335.457,109.2 340.031,110.452 342.077,114.042C348.042,124.502 351.099,136.401 350.915,148.455C350.354,185.134 319.641,214.97 282.448,214.97ZM442.525,214.97L370.202,214.97C362.385,214.97 355.337,210.638 351.804,203.664C348.272,196.693 348.951,188.444 353.578,182.143C357.446,176.872 363.66,173.722 370.202,173.722L443.438,173.722C450.802,173.722 457.637,170.744 462.677,165.336C467.714,159.937 470.202,152.9 469.687,145.516C468.779,132.537 458.311,122.066 445.332,121.157C437.952,120.635 430.908,123.13 425.508,128.163C420.097,133.208 417.118,140.042 417.118,147.407C417.118,153.028 414.9,158.284 410.865,162.198C406.833,166.116 401.477,168.198 395.886,168.019C384.783,167.699 375.804,158.264 375.874,146.993C376.097,109.964 406.405,79.843 443.434,79.843C461.652,79.843 478.744,87.009 491.558,100.019C504.369,113.029 511.27,130.229 510.993,148.451C510.436,185.134 479.718,214.97 442.525,214.97ZM370.202,188.693C368.413,188.693 366.709,189.559 365.644,191.001C363.793,193.527 364.689,195.968 365.161,196.9C365.633,197.831 367.067,199.999 370.206,199.999L442.525,199.999C471.59,199.999 495.59,176.775 496.026,148.225C496.245,134.042 490.868,120.654 480.896,110.526C470.915,100.393 457.613,94.814 443.438,94.814C414.615,94.814 391.021,118.261 390.849,147.083C390.83,150.233 393.336,152.97 396.327,153.056C397.871,153.118 399.333,152.533 400.436,151.461C401.543,150.385 402.151,148.947 402.151,147.407C402.151,136.011 406.943,125.005 415.301,117.216C423.769,109.317 434.814,105.415 446.381,106.222C466.763,107.648 483.204,124.093 484.623,144.471C485.434,156.042 481.527,167.079 473.629,175.547C465.839,183.902 454.833,188.693 443.438,188.693L370.202,188.693ZM246.693,414.833C209.438,414.833 179.13,384.525 179.13,347.27C179.13,341.305 181.711,335.636 186.21,331.718C190.705,327.8 196.697,326.018 202.655,326.849C212.803,328.248 220.257,336.97 220.378,347.574C220.541,361.917 232.347,373.586 246.693,373.586C253.828,373.586 260.51,370.767 265.512,365.644C270.51,360.525 273.173,353.773 273.001,346.63C272.666,332.471 260.58,320.954 246.058,320.954L20.624,320.954C9.251,320.95 0,311.699 0,300.326C0,288.958 9.251,279.703 20.624,279.703L102.472,279.703C106.604,279.703 109.957,283.056 109.957,287.188C109.957,291.324 106.604,294.673 102.472,294.673L20.624,294.673C17.505,294.673 14.971,297.211 14.971,300.326C14.971,303.445 17.505,305.979 20.624,305.979L246.058,305.979C268.643,305.979 287.442,324.057 287.968,346.276C288.233,357.48 284.062,368.073 276.222,376.1C268.378,384.131 257.89,388.556 246.693,388.556C224.183,388.556 205.664,370.248 205.407,347.745C205.372,344.658 203.306,342.05 200.6,341.675C198.323,341.359 196.768,342.373 196.042,343.005C194.807,344.081 194.101,345.636 194.101,347.27C194.101,376.268 217.692,399.862 246.693,399.862C260.869,399.862 274.167,394.279 284.148,384.151C294.12,374.022 299.496,360.634 299.278,346.451C298.842,317.901 274.845,294.677 245.781,294.677L135.064,294.677C130.932,294.677 127.579,291.324 127.579,287.192C127.579,283.059 130.932,279.707 135.064,279.707L245.781,279.707C282.974,279.707 313.687,309.547 314.249,346.221C314.526,364.447 307.625,381.648 294.814,394.654C281.999,407.663 264.912,414.833 246.693,414.833ZM421.601,362.634C384.346,362.634 354.038,332.326 354.038,295.071C354.038,289.106 356.619,283.438 361.118,279.519C365.613,275.601 371.602,273.824 377.563,274.65C387.711,276.054 395.165,284.771 395.286,295.379C395.45,309.722 407.255,321.391 421.601,321.391C428.732,321.391 435.418,318.568 440.42,313.445C445.418,308.326 448.077,301.578 447.909,294.436C447.574,280.276 435.488,268.755 420.966,268.755L335.672,268.755C331.539,268.755 328.186,265.406 328.186,261.27C328.186,257.137 331.539,253.785 335.672,253.785L420.966,253.785C443.547,253.785 462.35,271.863 462.876,294.081C463.141,305.285 458.97,315.878 451.13,323.905C443.286,331.936 432.798,336.361 421.598,336.361C399.091,336.361 380.568,318.053 380.315,295.551C380.28,292.463 378.214,289.855 375.508,289.48C373.223,289.165 371.676,290.178 370.951,290.806C369.715,291.882 369.009,293.438 369.009,295.075C369.009,324.073 392.6,347.664 421.601,347.664C435.773,347.664 449.075,342.085 459.056,331.952C469.028,321.823 474.405,308.436 474.186,294.252C473.75,265.707 449.753,242.479 420.689,242.479L20.624,242.479C17.505,242.479 14.971,245.017 14.971,248.132C14.971,251.25 17.505,253.785 20.624,253.785L303.079,253.785C307.212,253.785 310.565,257.137 310.565,261.27C310.565,265.406 307.212,268.755 303.079,268.755L20.624,268.755C9.251,268.755 0,259.504 0,248.132C0,236.759 9.251,227.508 20.624,227.508L420.689,227.508C457.882,227.508 488.596,257.344 489.157,294.022C489.434,312.248 482.533,329.449 469.722,342.455C456.907,355.469 439.816,362.634 421.601,362.634ZM172.935,162.565L8.635,162.565C4.499,162.565 1.15,159.212 1.15,155.079C1.15,150.943 4.499,147.594 8.635,147.594L172.935,147.594C180.245,147.594 186.191,141.648 186.191,134.342C186.191,127.032 180.245,121.087 172.935,121.087C165.629,121.087 159.684,127.032 159.684,134.342C159.684,138.475 156.335,141.828 152.199,141.828C148.066,141.828 144.713,138.475 144.713,134.342C144.713,118.779 157.376,106.116 172.935,106.116C188.499,106.116 201.161,118.779 201.161,134.342C201.161,149.902 188.499,162.565 172.935,162.565ZM425.43,431.39C409.867,431.39 397.204,418.732 397.204,403.168C397.204,399.036 400.557,395.683 404.689,395.683C408.826,395.683 412.175,399.036 412.175,403.168C412.175,410.478 418.12,416.42 425.43,416.42C432.736,416.42 438.681,410.474 438.681,403.168C438.681,395.862 432.736,389.917 425.43,389.917L337.04,389.917C332.908,389.917 329.555,386.564 329.555,382.432C329.555,378.299 332.908,374.946 337.04,374.946L425.43,374.946C440.989,374.946 453.652,387.609 453.652,403.168C453.652,418.732 440.989,431.39 425.43,431.39ZM143.2,388.513C127.637,388.513 114.978,375.855 114.978,360.291C114.978,356.159 118.327,352.806 122.464,352.806C126.596,352.806 129.949,356.159 129.949,360.291C129.949,367.601 135.894,373.543 143.2,373.543C150.507,373.543 156.452,367.597 156.452,360.291C156.452,352.985 150.507,347.04 143.2,347.04L8.635,347.04C4.499,347.04 1.15,343.687 1.15,339.554C1.15,335.418 4.499,332.069 8.635,332.069L143.2,332.069C158.764,332.069 171.423,344.728 171.423,360.291C171.423,375.851 158.764,388.513 143.2,388.513Z" style="fill:rgb(115,1,200);fill-rule:nonzero;"/>
        </g>
    </g>
</svg>
